<svg xmlns="http://www.w3.org/2000/svg" xmlns:xlink="http://www.w3.org/1999/xlink" width="512.416" height="495.38" viewBox="0 0 512.416 495.38">
  <defs>
    <linearGradient id="linear-gradient" x1="0.118" y1="0.763" x2="0.647" y2="0.4" gradientUnits="objectBoundingBox">
      <stop offset="0" stop-color="#a3c6ff"/>
      <stop offset="1" stop-color="#d7e7ff"/>
    </linearGradient>
    <linearGradient id="linear-gradient-2" x1="0.897" y1="0.59" x2="-0.322" y2="0.228" gradientUnits="objectBoundingBox">
      <stop offset="0" stop-color="#6d6afe"/>
      <stop offset="1" stop-color="#3fb0f7"/>
    </linearGradient>
    <linearGradient id="linear-gradient-3" x1="0.638" y1="0.304" x2="0.228" y2="0.857" gradientUnits="objectBoundingBox">
      <stop offset="0" stop-color="#c4e0f5"/>
      <stop offset="1" stop-color="#e1e8f6"/>
    </linearGradient>
    <linearGradient id="linear-gradient-4" x1="0.249" y1="0.574" x2="1.129" y2="0.313" xlink:href="#linear-gradient-2"/>
    <linearGradient id="linear-gradient-5" x1="0.394" y1="0.07" x2="0.568" y2="0.776" gradientUnits="objectBoundingBox">
      <stop offset="0" stop-color="#d870ac"/>
      <stop offset="1" stop-color="#58469c"/>
    </linearGradient>
    <linearGradient id="linear-gradient-6" x1="0.535" y1="0.295" x2="0.425" y2="0.88" xlink:href="#linear-gradient-3"/>
    <linearGradient id="linear-gradient-7" x1="0.133" y1="0.711" x2="0.612" y2="0.436" xlink:href="#linear-gradient-2"/>
    <linearGradient id="linear-gradient-8" x1="0.261" y1="-0.007" x2="0.769" y2="1.072" gradientUnits="objectBoundingBox">
      <stop offset="0" stop-color="#fa5db1"/>
      <stop offset="1" stop-color="#febfbf"/>
    </linearGradient>
    <linearGradient id="linear-gradient-9" x1="0.249" y1="0.608" x2="0.697" y2="0.415" gradientUnits="objectBoundingBox">
      <stop offset="0" stop-color="#1c8ef4"/>
      <stop offset="1" stop-color="#00cfdd"/>
    </linearGradient>
    <linearGradient id="linear-gradient-10" x1="0.386" y1="0.225" x2="0.799" y2="1.022" gradientUnits="objectBoundingBox">
      <stop offset="0" stop-color="#965cf2"/>
      <stop offset="1" stop-color="#ff8adc"/>
    </linearGradient>
    <linearGradient id="linear-gradient-11" x1="0.629" y1="0.366" x2="0.374" y2="0.63" xlink:href="#linear-gradient-9"/>
    <linearGradient id="linear-gradient-12" x1="0.372" y1="0.618" x2="0.626" y2="0.199" xlink:href="#linear-gradient-8"/>
    <linearGradient id="linear-gradient-13" x1="0.45" y1="0.678" x2="0.506" y2="0.564" xlink:href="#linear-gradient-8"/>
    <linearGradient id="linear-gradient-14" x1="0.518" y1="0.504" x2="2.064" y2="0.165" xlink:href="#linear-gradient-8"/>
    <linearGradient id="linear-gradient-15" x1="0.377" y1="0.706" x2="0.685" y2="0.12" xlink:href="#linear-gradient-10"/>
    <linearGradient id="linear-gradient-16" x1="0.405" y1="1.009" x2="0.572" y2="0.114" xlink:href="#linear-gradient"/>
    <linearGradient id="linear-gradient-17" x1="0.478" y1="0.792" x2="0.519" y2="0.248" xlink:href="#linear-gradient-2"/>
    <linearGradient id="linear-gradient-18" x1="0.38" y1="1.331" x2="0.479" y2="0.604" xlink:href="#linear-gradient-2"/>
    <linearGradient id="linear-gradient-19" x1="0.385" y1="1.299" x2="0.48" y2="0.603" xlink:href="#linear-gradient-2"/>
    <linearGradient id="linear-gradient-20" x1="0.626" y1="0.118" x2="0.357" y2="0.931" xlink:href="#linear-gradient-8"/>
    <linearGradient id="linear-gradient-21" x1="0.468" y1="0.493" x2="-0.068" y2="0.569" gradientUnits="objectBoundingBox">
      <stop offset="0" stop-color="#ff8a78"/>
      <stop offset="1" stop-color="#ffa799"/>
    </linearGradient>
    <linearGradient id="linear-gradient-22" x1="-0.149" y1="0.728" x2="0.476" y2="0.494" gradientUnits="objectBoundingBox">
      <stop offset="0" stop-color="#ffb89e"/>
      <stop offset="1" stop-color="#ffa799"/>
    </linearGradient>
    <linearGradient id="linear-gradient-23" x1="0.404" y1="0.988" x2="0.596" y2="0.256" xlink:href="#linear-gradient-9"/>
    <linearGradient id="linear-gradient-24" x1="0.512" y1="0.43" x2="0.577" y2="0.616" xlink:href="#linear-gradient-22"/>
    <linearGradient id="linear-gradient-25" x1="0.742" y1="0.721" x2="0.33" y2="0.112" xlink:href="#linear-gradient-9"/>
    <linearGradient id="linear-gradient-26" x1="0.505" y1="0.464" x2="0.611" y2="0.799" xlink:href="#linear-gradient-21"/>
    <linearGradient id="linear-gradient-27" x1="0.732" y1="0.132" x2="0.397" y2="0.819" gradientUnits="objectBoundingBox">
      <stop offset="0" stop-color="#5a2d68"/>
      <stop offset="1" stop-color="#22043d"/>
    </linearGradient>
    <linearGradient id="linear-gradient-28" x1="0.401" y1="0.622" x2="0.68" y2="0.085" xlink:href="#linear-gradient-10"/>
    <linearGradient id="linear-gradient-29" x1="0.381" y1="0.568" x2="0.786" y2="0.381" xlink:href="#linear-gradient"/>
    <linearGradient id="linear-gradient-30" x1="0.586" y1="0.061" x2="0.335" y2="0.92" xlink:href="#linear-gradient-8"/>
    <linearGradient id="linear-gradient-31" x1="0.236" y1="-0.176" x2="0.598" y2="0.812" gradientUnits="objectBoundingBox">
      <stop offset="0" stop-color="#fd90da"/>
      <stop offset="1" stop-color="#8e6dfd"/>
    </linearGradient>
    <linearGradient id="linear-gradient-32" x1="1.163" y1="0.87" x2="-0.232" y2="-0.099" xlink:href="#linear-gradient-2"/>
    <linearGradient id="linear-gradient-33" x1="0.518" y1="0.469" x2="0.669" y2="0.274" xlink:href="#linear-gradient-10"/>
    <linearGradient id="linear-gradient-34" x1="0.88" y1="0.728" x2="0.128" y2="0.325" xlink:href="#linear-gradient-10"/>
    <linearGradient id="linear-gradient-35" x1="0.38" y1="0.865" x2="0.662" y2="0.006" xlink:href="#linear-gradient"/>
    <linearGradient id="linear-gradient-36" x1="-0.95" y1="1.009" x2="0.425" y2="0.526" xlink:href="#linear-gradient"/>
    <linearGradient id="linear-gradient-39" x1="0.42" y1="0.814" x2="0.65" y2="-0.086" xlink:href="#linear-gradient-2"/>
    <linearGradient id="linear-gradient-40" x1="-0.037" y1="1.076" x2="0.753" y2="0.228" xlink:href="#linear-gradient-2"/>
  </defs>
  <g id="Advice-design-mobile" transform="translate(-4456.371 -305.847)">
    <g id="Group_55641" data-name="Group 55641" transform="translate(4775.502 305.847)">
      <g id="Group_55639" data-name="Group 55639" transform="translate(33.828 132.935)">
        <path id="Path_9725" data-name="Path 9725" d="M5737.589,858.2c-.873,8.486-15.172,10.1-28.723,8.565-4.921-.559-20.061-4.407-20.162.283-.172,1.679,5.75,6.7,12.077,11.91,5.654,4.651,22.679,16.069,17.983,26.656-4.262,9.608-29.413-2.66-36.979-7.744-25.917-17.39-26.367-10.919-5.139,7.789,8.517,7.507,16.245,18.151,18.645,24.633,1.224,3.3,1.441,6.335-2.432,7.005-4.426.766-13.384-1.425-26.625-4.389-30.278-6.786-55.208-21.162-85.095,16.834-.029-43.85,2.274-79.221,4.4-119.756.476-9.033,1.12-18.533,2.026-27.371,1.282-12.469,3.088-23.625,5.694-30.3a26.124,26.124,0,0,1,2.108-4.364l.055-.086c4.277-6.7,8.291-.762,9.1,15.4.363,7.091.56,13.868.765,21.707.285,10.975.94,17.9,2.211,18.063,1.414.165,2.811-8.478,5.956-28.477,4.053-25.8,10.619-57.78,17.526-54.785,2.268.977,4.472,8.588,6.441,28.575,2.949,35.691,6.12,10.3,11.088-7.093,2.629-10.01,7.629-41.973,16.391-34.066,3.649,3.3,2.9,17.245,1.786,28.068-.254,2.471-.524,4.781-.769,6.761-.194,1.58-.358,3.021-.5,4.336-1.779,17.324,1.5,12.238,7.441-2.518,2.876-7.117,5.832-14.032,9.248-18.762,11.788-16.331,14.388-2.731,12.943,11.327-.154,1.5-.355,3.015-.6,4.494-.87,5.347-1.955,10.4-2.345,14.209-.628,6.111.53,9.019,7.231,4.79a46.874,46.874,0,0,1,11.842-5.209c10.535-3.1,15.952-1.614,19.988,7.837a13.843,13.843,0,0,1,.907,6.917c-.743,7.233-5.927,15.577-12.767,22.12-6.22,5.97-12.257,10.669-12.789,15.84a7.158,7.158,0,0,0,.205,2.587c1.636,6.257,11.942,10.962,19.878,14.99C5735,849.22,5738.029,853.919,5737.589,858.2Z" transform="translate(-5578.175 -725.939)" fill-rule="evenodd" opacity="0.5" fill="url(#linear-gradient)"/>
        <path id="Path_9726" data-name="Path 9726" d="M5720.742,910.4c-21.894,14.667-42.143,32.756-61,52.846a171.023,171.023,0,0,1,32.924,11.166c-11.993-2.844-24.351-5.431-36.145-7.7-10.708,11.633-20.966,23.893-30.819,36.518-3.72,4.766-7.511,9.846-11.33,15.115,15.577,6.241,29.254,14.684,41.751,22.76-15.453-6.092-29.647-13.148-44.827-18.485-13.643,19.09-27.48,40.13-39.524,57.4,8.538-21.719,25.516-49.775,41.843-72.076,1.039-18.945,3.367-57.624,7.8-73.785-1.013,13.686-1.872,47.459-2.614,66.86q1.575-2.048,3.126-4.006c10.884-13.722,26.669-29.97,43.491-45.081l.025-.18c2.021-14.766,6.147-29.335,9.886-41.42-1.879,13.136-4.411,25.411-6.042,38.163C5687.124,932.808,5705.772,918.689,5720.742,910.4Z" transform="translate(-5571.772 -851.982)" fill="#a1c3ff" fill-rule="evenodd" opacity="0.5"/>
      </g>
      <g id="Group_55640" data-name="Group 55640">
        <path id="Path_9727" data-name="Path 9727" d="M5525.729,368.177c6.707-8.778,37.473-25.534,39.466-8.789s-23.353,1.23-39.466,8.789Zm-32.782,108.008a18.673,18.673,0,0,0-.118-2.432c14.029-9.957,40.581-2.553,34.5-17.714-5.842-14.575-28.226,5.377-34.669,16.445-1.995-13.133-14.029-38.565-24.933-27.9-11.525,11.268,14.887,15.258,24.059,29.558-.1.219-.2.434-.285.642.149-.126.3-.247.455-.368a19.994,19.994,0,0,1,.987,1.775Zm3.966-29.936a20,20,0,0,0-.894-1.988c-.116.078-.235.155-.351.236q.114-.22.244-.448c-7.906-15.014-33.784-21.318-21.324-31.511,11.769-9.627,21.487,16.588,22.361,29.883,7.308-10.439,31.516-28.509,36.063-13.423,4.721,15.665-21.164,5.887-36.007,14.64a18.977,18.977,0,0,1-.092,2.611Zm6.371-29.117a18.637,18.637,0,0,0,.525-2.43c16.138-6.671,40.589,8.036,38.631-8.422-1.911-16.063-30.295-1.3-38.526,7.678,1.665-13-3.309-41.45-16.77-33.9-14.707,8.252,12.759,19.6,16.14,37.072Zm65.881-91.016c6.708-8.778,37.475-25.534,39.466-8.789s-23.352,1.229-39.466,8.789Zm-25.743,20.163c7.412-8.192,18.291-41.493,1.463-40.406s3.039,23.186-1.463,40.406Zm-16.866,20.832c5.062-9.82,7.032-44.8-8.954-39.429s8.886,21.63,8.954,39.429Zm-13.663,24.368c-2.3-17.651-29.009-30.669-13.822-38s17.614,27.62,13.822,38Zm.914-1.583c16.113-7.56,41.458,7.957,39.465-8.789s-32.758.01-39.465,8.789Zm28.81-42.414c16.113-7.559,41.458,7.957,39.466-8.789S5549.323,338.7,5542.615,347.482Z" transform="translate(-5464.87 -305.847)" fill="#d6e6ff" fill-rule="evenodd" opacity="0.5"/>
        <path id="Path_9728" data-name="Path 9728" d="M5501.857,464.907c.839-6.234,1.887-12.488,3.154-18.712-2.383-6.7-8.293-19.981-19.491-26.821,11.71,4.175,17.473,18.286,19.672,25.934a254.248,254.248,0,0,1,7.25-27.415c-1.012-6.592-4.376-21.675-14.7-30.782,11.285,6.414,14.306,22.37,14.975,29.958a211.7,211.7,0,0,1,9.653-24.22c-.5-6.259-2.762-22.209-12.829-32.256,11.285,7.369,13.042,24.457,13.114,31.661a169.3,169.3,0,0,1,13.842-23.9c.272-6.375-.034-22.32-8.695-33.461,10.222,8.681,9.879,25.732,9.057,32.95a134.364,134.364,0,0,1,17.545-20.376c1.925-6.278,5.523-21.494.095-34.287,7.505,10.8,3.121,26.782.452,33.773a110.815,110.815,0,0,1,32.577-21.257,52.384,52.384,0,0,1,11.58-4.13q.826-.244,1.662-.476-.445.156-.887.315c5.28-1.042,10.913-1.027,16.016,1.277-9.593-2.129-19.557.4-26.63,3.138a117.606,117.606,0,0,0-33.549,24.134c6.186-3.838,21.424-11.42,33.63-5.907-14.154-3.141-29.115,3.859-34.4,6.7a142.7,142.7,0,0,0-15.78,19.694c6.386-3.9,21.305-11.12,33.3-5.7-13.583-3.015-27.908,3.31-33.718,6.34a175.933,175.933,0,0,0-12.055,21.422c6.037-3.791,21.5-11.625,33.85-6.044-13.875-3.079-28.524,3.586-34.081,6.531a216.823,216.823,0,0,0-9.632,24.094c6.6-3.943,21.143-10.753,32.882-5.451-13.1-2.906-26.889,2.871-33.065,6a257.74,257.74,0,0,0-7.512,28c5.909-5.062,18.9-14.054,31.242-10.9-13.286-.586-25.76,7.348-31.374,11.536-1.379,6.648-2.423,12.943-3.2,18.7-.467,3.465-.878,7.026-1.234,10.663,5.417-5.555,17.592-15.721,30.2-13.667-13.311.591-25.055,9.63-30.262,14.29-3.857,40.25-.758,89.795,12.671,126.4-19.257-38.57-19.553-93.681-16.58-126.406-2.971-6.472-10.029-19.155-21.774-24.973,12,3.114,18.979,16.59,21.862,24.028C5501.038,471.508,5501.438,468.015,5501.857,464.907Z" transform="translate(-5474.404 -310.861)" fill="#a1c3ff" fill-rule="evenodd" opacity="0.5"/>
      </g>
    </g>
    <g id="Group_55689" data-name="Group 55689" transform="translate(4456.371 325.809)">
      <path id="Path_9729" data-name="Path 9729" d="M4929.168,729.151l1.469-2.56,5.12,2.937-1.469,2.56-5.12-2.936Zm2.414-237.819-2.412-1.383-1.468,2.56,2.412,1.383,1.469-2.56Zm-4.973-2.852-1.468,2.56-5.122-2.937,1.469-2.56,5.12,2.937Zm-7.681-4.405-1.469,2.56-5.121-2.937,1.468-2.56,5.121,2.937Zm-7.682-4.406-1.468,2.56-5.121-2.937,1.469-2.56,5.12,2.937Zm-7.68-4.406-1.468,2.56-5.12-2.937,1.468-2.56,5.12,2.937Zm-7.681-4.405-1.468,2.56-5.121-2.937,1.468-2.56,5.12,2.937Zm-7.68-4.405-1.469,2.56-5.121-2.937,1.468-2.56,5.121,2.936Zm-7.681-4.4-1.468,2.56-5.12-2.937,1.468-2.56,5.12,2.937Zm-7.68-4.4-1.468,2.56-5.12-2.937,1.468-2.56,5.12,2.937Zm-7.681-4.4-1.468,2.56c-1.7-.977-3.4-1.963-5.109-2.929l1.443-2.575c.108.068.237.134.349.2l0,0,4.788,2.746Zm-7.9-4.332a24.639,24.639,0,0,0-6-1.806l-.445,2.918a21.57,21.57,0,0,1,5.267,1.593l1.181-2.7Zm-9.207-2.02a14.377,14.377,0,0,0-6.325,1.574l1.371,2.613,0,0a11.436,11.436,0,0,1,5.041-1.239l-.082-2.951Zm-9.044,3.446a15.606,15.606,0,0,0-3.795,5.243l2.687,1.22a12.648,12.648,0,0,1,3.068-4.256l-1.96-2.208Zm-4.878,8.233a29.82,29.82,0,0,0-.689,3.406c-.125.924-.189,1.824-.237,2.755l2.949.114.008-.176a24.127,24.127,0,0,1,.812-5.306l0-.007-2.845-.786Zm-.96,9.163,2.952.01-.021,5.9-2.952-.01.021-5.9Zm-.03,8.855,2.952.01-.021,5.9-2.951-.01.02-5.9Zm-.03,8.854,2.951.01-.021,5.9-2.951-.01.021-5.9Zm-.031,8.854,2.952.01-.02,5.9-2.953-.01.021-5.9Zm-.029,8.854,2.951.01-.02,5.9-2.952-.01.021-5.9Zm-.031,8.854,2.952.01-.02,5.9L4833,517.9l.019-5.9Zm-.028,8.854,2.95.01-.019,5.9-2.951-.01.02-5.9Zm-.03,8.854,2.952.01-.02,5.9-2.952-.01.02-5.9Zm-.029,8.854,2.951.01-.019,5.9-2.952-.01.021-5.9Zm-.029,8.854,2.951.01-.02,5.9-2.952-.01.02-5.9Zm-.029,8.854,2.951.01-.02,5.9-2.951-.01.02-5.9Zm-.03,8.854,2.952.01-.021,5.9-2.951-.01.02-5.9Zm-.029,8.854,2.951.01-.02,5.9-2.951-.01.02-5.9Zm-.03,8.854,2.951.01-.02,5.9-2.952-.01.021-5.9Zm-.029,8.854,2.952.01-.02,5.9-2.951-.01.019-5.9Zm-.03,8.854,2.952.01-.02,5.9-2.951-.01.019-5.9Zm-.028,8.854,2.952.01-.021,5.9-2.951-.01.02-5.9Zm-.03,8.854,2.952.01-.02,5.9-2.951-.01.019-5.9Zm-.029,8.854,2.952.01-.02,5.9-2.952-.01.02-5.9Zm-.029,8.854,2.952.01-.02,5.9-2.951-.01.02-5.9Zm-.021,8.887a39.787,39.787,0,0,0,.587,6.093l2.908-.5a36.21,36.21,0,0,1-.544-5.647l-2.951.057Zm1.2,9.078a52.208,52.208,0,0,0,1.75,5.809l2.772-1.011a50.032,50.032,0,0,1-1.652-5.49l-2.87.692Zm2.856,8.625a59.248,59.248,0,0,0,2.63,5.444l2.591-1.413a55.91,55.91,0,0,1-2.5-5.182l-2.718,1.151Zm4.14,8.063a59.752,59.752,0,0,0,3.4,5l2.351-1.784c-1.151-1.575-2.212-3.092-3.23-4.758l-2.52,1.538Zm5.283,7.373a52.418,52.418,0,0,0,4.15,4.426l2.025-2.147a51.153,51.153,0,0,1-3.92-4.181l-2.256,1.9Zm6.424,6.452a41.608,41.608,0,0,0,4.963,3.57l1.531-2.524a38.728,38.728,0,0,1-4.611-3.319l-1.883,2.272Zm7.549,5.066,1.469-2.56,5.12,2.937-1.469,2.56-5.121-2.937Zm7.682,4.406,1.468-2.56,5.122,2.937-1.469,2.56-5.121-2.937Zm7.681,4.406,1.469-2.56,5.121,2.937-1.469,2.56-5.121-2.937Zm7.68,4.406,1.469-2.56,5.121,2.937-1.469,2.56-5.121-2.937Zm7.681,4.406,1.468-2.56,5.121,2.937-1.468,2.56-5.12-2.937Zm7.68,4.406,1.47-2.56,5.12,2.937-1.469,2.56-5.121-2.937Zm7.68,4.405,1.469-2.56,5.121,2.936-1.47,2.56-5.12-2.937Zm7.681,4.4,1.468-2.56,5.12,2.936-1.468,2.56-5.121-2.937Zm7.681,4.4,1.468-2.56,5.12,2.937-1.469,2.56Z" transform="translate(-4713.54 -422.218)" fill-rule="evenodd" fill="url(#linear-gradient-2)"/>
      <path id="Path_9730" data-name="Path 9730" d="M5260.186,1572.619l-129.993-74.245c-4.825-2.2-11.913-4.284-16.646-1.4l-12.107,7.376c-2.436,1.484-10.446,6.408-5.087,9.321,15.759,8.57,116.459,67.406,132.463,76.112,3.026,1.646,7.455,2.242,12.1,1.856a30.422,30.422,0,0,0,13.109-3.9l4.835-2.983c3.419-2.109,5.313-4.411,5.495-6.621C5264.535,1575.972,5263.146,1573.97,5260.186,1572.619Z" transform="translate(-4892.598 -1139.048)" fill="#9e9bf5" fill-rule="evenodd" opacity="0.5" style="mix-blend-mode: multiply;isolation: isolate"/>
      <g id="Group_55646" data-name="Group 55646" transform="translate(203.469 43.161)">
        <g id="Group_55644" data-name="Group 55644">
          <g id="Group_55642" data-name="Group 55642">
            <path id="Path_9731" data-name="Path 9731" d="M5270.393,887.692c-.018,6.321-2.271,10.769-5.875,12.863l-5.717,3.438c-19.612-8.37-12.333-107.76-13.529-136.016l6.022-148.287c-5.063-8.848-24.543-16.57-20-34.639l-57.483-26.908c-2.551-1.736-69.632-40.583-57.591-47.868,2.014-1.218,4.007-2.445,6-3.6,4.445-2.63,10.112-1,14.273,1.4h0l114.38,65.607c11.226,6.468,20.032,22.12,20,34.636Z" transform="translate(-5109.899 -505.325)" fill-rule="evenodd" fill="url(#linear-gradient-3)"/>
            <path id="Path_9732" data-name="Path 9732" d="M5099.838,530.867c.018-6.2,2.164-10.6,5.641-12.74,3.663-2.258,8.8-2.014,14.487,1.269L5234.346,585c11.069,6.393,20.032,21.916,20,34.638l-.477,279.38c-.036,12.721-9.058,17.863-20.129,11.471l-114.378-65.605c-11.084-6.4-20.034-21.916-20-34.638Z" transform="translate(-5099.359 -513.063)" fill="#fff" fill-rule="evenodd"/>
            <path id="Path_9733" data-name="Path 9733" d="M5099.838,530.867c.018-6.2,2.164-10.6,5.641-12.74,3.663-2.258,8.8-2.014,14.487,1.269L5234.346,585c11.069,6.393,20.032,21.916,20,34.638l-.477,279.38c-.036,12.721-9.058,17.863-20.129,11.471l-114.378-65.605c-11.084-6.4-20.034-21.916-20-34.638Z" transform="translate(-5099.359 -513.063)" fill-rule="evenodd" fill="url(#linear-gradient-4)"/>
          </g>
          <g id="Group_55643" data-name="Group 55643" transform="translate(52.167 38.222)">
            <path id="Path_9734" data-name="Path 9734" d="M5526.976,777.758c3,1.731,5.435.34,5.444-3.1a11.918,11.918,0,0,0-5.409-9.37c-3-1.73-5.435-.342-5.444,3.1A11.922,11.922,0,0,0,5526.976,777.758Z" transform="translate(-5440.128 -720.736)" fill="#485af4" fill-rule="evenodd"/>
            <path id="Path_9735" data-name="Path 9735" d="M5264.214,627.146c0-.938.667-1.307,1.484-.821,11.886,6.716,31.364,17.68,43.25,24.4a3.32,3.32,0,0,1,1.476,2.579v1.857c0,.938-.669,1.306-1.485.821-11.886-6.716-31.364-17.68-43.251-24.4a3.319,3.319,0,0,1-1.475-2.579Z" transform="translate(-5264.213 -626.111)" fill="#485af4" fill-rule="evenodd"/>
          </g>
        </g>
        <g id="Group_55645" data-name="Group 55645" transform="translate(16.709 33.609)">
          <path id="Path_9736" data-name="Path 9736" d="M5152.264,615.869c.011-3.878,2.757-5.447,6.135-3.5,35.788,20.526,71.5,41.774,107.291,62.3a13.447,13.447,0,0,1,6.094,10.556l-.1,124.253c-.011,3.877-2.762,5.444-6.135,3.5-35.788-20.527-71.506-41.778-107.29-62.3a13.435,13.435,0,0,1-6.094-10.558Z" transform="translate(-5152.163 -611.534)" fill="#fff" fill-rule="evenodd" opacity="0.2"/>
          <path id="Path_9737" data-name="Path 9737" d="M5294.459,778.279a2.739,2.739,0,0,1,1.088-2.459,2.7,2.7,0,0,1,2.8.245l4.8,2.752a24.929,24.929,0,0,0,7.082,6.488c2.62,1.514,4.972,1.961,6.811,1.48l3.394,1.947a8.52,8.52,0,0,1,3.862,6.687l-.025,14.5q-14.917-8.683-29.831-17.41l.025-14.23Zm15.567,4.185c5.038,2.912,8.813.763,8.428-4.808s-4.786-12.446-9.824-15.359-8.813-.76-8.427,4.807S5304.985,779.549,5310.027,782.464Z" transform="translate(-5249.414 -713.701)" fill="#fff" fill-rule="evenodd" opacity="0.5"/>
          <path id="Path_9738" data-name="Path 9738" d="M5263.53,895.129c0-.74.527-1.039,1.17-.667q23.529,13.494,47.048,26.991a2.565,2.565,0,0,1,1.163,2.014l.034,7.32c0,.74-.526,1.038-1.169.667q-23.53-13.495-47.048-26.992a2.56,2.56,0,0,1-1.164-2.013Z" transform="translate(-5228.288 -804.822)" fill="#fff" fill-rule="evenodd" opacity="0.2"/>
          <path id="Path_9739" data-name="Path 9739" d="M5246.165,1002.2c0-1.607,1.143-2.258,2.542-1.449q27.625,15.844,55.262,31.662a5.572,5.572,0,0,1,2.527,4.375l.073,15.9c0,1.607-1.145,2.256-2.543,1.449q-27.625-15.844-55.264-31.663a5.569,5.569,0,0,1-2.526-4.375Z" transform="translate(-5216.418 -877.351)" fill="#fff" fill-rule="evenodd" opacity="0.2"/>
          <path id="Path_9740" data-name="Path 9740" d="M5173.982,904.628c0-.641.455-.9,1.013-.577,13.58,7.788,90.46,50.965,104.039,58.754a2.222,2.222,0,0,1,1.007,1.743l.029,6.338c0,.639-.457.9-1.014.577-13.58-7.789-90.46-50.965-104.04-58.754a2.22,2.22,0,0,1-1.006-1.743Z" transform="translate(-5167.078 -811.392)" fill="#fff" fill-rule="evenodd" opacity="0.2"/>
        </g>
      </g>
      <g id="Group_55649" data-name="Group 55649" transform="translate(209.368 249.539)">
        <path id="Path_9741" data-name="Path 9741" d="M5118.661,1178.727c.023-7.9,5.62-11.1,12.505-7.127l119.466,68.542c6.877,3.971,12.447,13.616,12.425,21.52l-.295,84.353c-.024,7.9-5.63,11.1-12.509,7.126L5130.789,1284.6c-6.886-3.976-12.447-13.617-12.425-21.521Z" transform="translate(-5118.249 -1165.973)" fill-rule="evenodd" opacity="0.5" fill="url(#linear-gradient-5)" style="mix-blend-mode: multiply;isolation: isolate"/>
        <g id="Group_55648" data-name="Group 55648">
          <g id="Group_55647" data-name="Group 55647">
            <path id="Path_9742" data-name="Path 9742" d="M5125.843,1166.006c.005-2.162-1.689-3.922-.94-5.312.81-1.5,4.151-2.426,5.587-2.884,2.038-.65,4.6-.261,7.377,1.344l113.267,65.371c6.614,3.819,11.968,13.093,11.947,20.693l-.285,81.112c-.01,3.724-1.31,6.361-3.411,7.633-1.284.776-4.9,2.2-6.669,1.892-1.245-.215-.553-1.868-1.946-2.672L5137.5,1267.812c-6.622-3.823-11.968-13.094-11.947-20.694Z" transform="translate(-5122.588 -1157.509)" fill-rule="evenodd" fill="url(#linear-gradient-6)"/>
            <path id="Path_9743" data-name="Path 9743" d="M5118.288,1169.393c.021-7.6,5.4-10.676,12.024-6.853l113.268,65.371c6.612,3.819,11.968,13.093,11.947,20.694l-.285,81.112c-.022,7.6-5.413,10.672-12.026,6.853L5129.95,1271.2c-6.622-3.823-11.97-13.094-11.948-20.694Z" transform="translate(-5118.002 -1159.825)" fill-rule="evenodd" fill="url(#linear-gradient-7)"/>
          </g>
          <path id="Path_9744" data-name="Path 9744" d="M5140.713,1204.816c.006-2.427,1.725-3.409,3.839-2.188l21.815,12.513a8.413,8.413,0,0,1,3.813,6.606l.11,24.009c-.007,2.426-1.728,3.407-3.84,2.188l-21.814-12.513a8.407,8.407,0,0,1-3.814-6.606Z" transform="translate(-5133.526 -1187.992)" fill-rule="evenodd" fill="url(#linear-gradient-8)"/>
          <path id="Path_9745" data-name="Path 9745" d="M5448.095,1527.5c0-1.561,1.109-2.174,2.468-1.366l15.157,8.274a5.526,5.526,0,0,1,2.453,4.291v3.088c0,1.56-1.112,2.173-2.47,1.366l-15.156-8.276a5.515,5.515,0,0,1-2.453-4.29Z" transform="translate(-5343.639 -1409.24)" fill="#fff" fill-rule="evenodd" opacity="0.5"/>
          <path id="Path_9746" data-name="Path 9746" d="M5140.716,1425.65c0-1.561,1.11-2.174,2.468-1.366l50.492,28.732a5.522,5.522,0,0,1,2.454,4.291v3.089c0,1.56-1.111,2.173-2.469,1.366l-50.493-28.733a5.518,5.518,0,0,1-2.453-4.29Z" transform="translate(-5133.527 -1339.622)" fill="#fff" fill-rule="evenodd" opacity="0.5"/>
          <path id="Path_9747" data-name="Path 9747" d="M5140.716,1352.355c0-1.561,1.11-2.173,2.468-1.366l24.642,14.039a5.527,5.527,0,0,1,2.453,4.291v3.088c0,1.56-1.111,2.173-2.469,1.366l-24.641-14.041a5.517,5.517,0,0,1-2.453-4.29Z" transform="translate(-5133.527 -1289.521)" fill="#fff" fill-rule="evenodd" opacity="0.5"/>
          <path id="Path_9748" data-name="Path 9748" d="M5250.622,1414.655c0-1.561,1.109-2.174,2.468-1.366l51.144,28.825a5.528,5.528,0,0,1,2.454,4.291v3.088c0,1.56-1.112,2.173-2.47,1.367l-51.143-28.827a5.516,5.516,0,0,1-2.454-4.29Z" transform="translate(-5208.654 -1332.106)" fill="#fff" fill-rule="evenodd" opacity="0.5"/>
          <path id="Path_9749" data-name="Path 9749" d="M5452.956,1622.254c-5.418-3.3-9.316-11.343-8.711-17.966s5.484-9.312,10.9-6.01,9.317,11.347,8.713,17.966S5458.37,1625.554,5452.956,1622.254Z" transform="translate(-5340.965 -1457.836)" fill-rule="evenodd" fill="url(#linear-gradient-9)"/>
        </g>
      </g>
      <g id="Group_55651" data-name="Group 55651" transform="translate(301.901 218.908)">
        <path id="Path_9750" data-name="Path 9750" d="M5472.826,1154.445l-6.244,2.395-46.371-24.829c-6.53-3.771-9.812-15.163-9.79-22.67l.281-37.678c.021-7.506,5.344-10.54,11.877-6.769l51.178,29.8Z" transform="translate(-5410.421 -1062.463)" fill-rule="evenodd" opacity="0.5" fill="url(#linear-gradient-10)" style="mix-blend-mode: multiply;isolation: isolate"/>
        <g id="Group_55650" data-name="Group 55650" transform="translate(3.764)">
          <path id="Path_9751" data-name="Path 9751" d="M5428.205,1068.806c.007-2.525-.886-4.091.2-5.472.689-.878,3.086-1.943,4.1-2.293,1.962-.679,4.453-.328,7.162,1.236l78.293,45.584c6.3,3.639,11.4,12.474,11.382,19.716l-.271,36.349c-.007,2.245-.476,5.12-2.2,6.7a9.792,9.792,0,0,1-4.975,2.378c-1.641.134-2.275-1.384-4.284-2.544l-78.292-45.584c-6.309-3.643-11.4-12.475-11.382-19.716Z" transform="translate(-5426.108 -1060.712)" fill="#f2f4ff" fill-rule="evenodd"/>
          <path id="Path_9752" data-name="Path 9752" d="M5422.585,1072.2c.02-7.242,5.149-10.172,11.457-6.53l78.293,45.584c6.3,3.639,11.4,12.475,11.382,19.717l-.271,36.348c-.021,7.241-5.157,10.168-11.458,6.529l-78.292-45.585c-6.309-3.642-11.4-12.475-11.383-19.716Z" transform="translate(-5422.313 -1063.028)" fill-rule="evenodd" fill="url(#linear-gradient-11)"/>
          <path id="Path_9753" data-name="Path 9753" d="M5449.378,1136.083c7.635,2.02,14.466,11.056,15.257,20.183s-4.758,14.889-12.393,12.87-14.466-11.056-15.257-20.183S5441.743,1134.064,5449.378,1136.083Z" transform="translate(-5432.291 -1111.957)" fill="#fff" fill-rule="evenodd" opacity="0.2"/>
          <path id="Path_9754" data-name="Path 9754" d="M5463.875,1160.553c4.116,1.089,7.8,5.961,8.225,10.881s-2.564,8.028-6.681,6.939-7.8-5.961-8.227-10.882,2.567-8.028,6.683-6.939Zm.362,4.177c-2.187-.578-3.775,1.072-3.549,3.686s2.182,5.2,4.37,5.78,3.775-1.072,3.549-3.685S5466.422,1165.309,5464.236,1164.73Z" transform="translate(-5446.126 -1128.81)" fill="#fff" fill-rule="evenodd"/>
          <path id="Path_9755" data-name="Path 9755" d="M5537.756,1190.394c.006-1.932,1.375-2.692,3.058-1.691l51.019,28.938a6.837,6.837,0,0,1,3.037,5.313v3.823c-.006,1.933-1.376,2.691-3.058,1.692l-51.018-28.938a6.832,6.832,0,0,1-3.038-5.312Z" transform="translate(-5501.226 -1147.9)" fill="#fff" fill-rule="evenodd" opacity="0.2"/>
          <path id="Path_9756" data-name="Path 9756" d="M5537.756,1236.722c0-1.141.811-1.589,1.806-1l30.126,17.088a4.035,4.035,0,0,1,1.793,3.137v2.257c0,1.141-.812,1.589-1.805,1l-30.128-17.088a4.037,4.037,0,0,1-1.793-3.137Z" transform="translate(-5501.226 -1180.164)" fill="#fff" fill-rule="evenodd" opacity="0.2"/>
        </g>
      </g>
      <g id="Group_55654" data-name="Group 55654" transform="translate(268.681 384.971)">
        <path id="Path_9757" data-name="Path 9757" d="M5379.333,1768.913l-56.626-32.488c-2.337-1.068-5.77-2.075-8.062-.678l-5.863,3.573c-1.18.718-5.058,3.1-2.464,4.514,7.632,4.15,50.072,29.176,57.822,33.392a10.877,10.877,0,0,0,5.861.9,14.731,14.731,0,0,0,6.349-1.891l2.342-1.444c1.656-1.021,2.573-2.137,2.661-3.207C5381.438,1770.537,5380.767,1769.568,5379.333,1768.913Z" transform="translate(-5305.441 -1687.733)" fill="#9e9bf5" fill-rule="evenodd" opacity="0.5" style="mix-blend-mode: multiply;isolation: isolate"/>
        <g id="Group_55653" data-name="Group 55653" transform="translate(3.574)">
          <path id="Path_9758" data-name="Path 9758" d="M5475.445,1673.954c.007-1.624-.521-1.246-1.353-1.94a2.957,2.957,0,0,0-.376-.266l-12.445-6.921c-7.9-3.6-11.093,11.567-12.188,23.039l10.622,6.1,14.742-8.051Z" transform="translate(-5407.203 -1639.353)" fill="#d03286" fill-rule="evenodd"/>
          <path id="Path_9759" data-name="Path 9759" d="M5379.771,1698.235l.057-26.311-.236-8.458-51.792-30.628-.166,34.766a7.821,7.821,0,0,0,.323,2.369,5.1,5.1,0,0,0,.559,1.223,4.206,4.206,0,0,0,.372.5,3.692,3.692,0,0,0,.906.76l51.792,30.628C5380.239,1702.287,5379.759,1700.612,5379.771,1698.235Z" transform="translate(-5324.185 -1617.856)" fill="#e23b93" fill-rule="evenodd"/>
          <path id="Path_9760" data-name="Path 9760" d="M5408.292,1757.156l2.4-1.37-.067,8.784-2.4,1.37-.083-5.02Z" transform="translate(-5379.217 -1701.898)" fill="#f1920e" fill-rule="evenodd"/>
          <path id="Path_9761" data-name="Path 9761" d="M5333.06,1586.214a5.8,5.8,0,0,0-2.3-.711c-2.464-.152-5.131,1.485-6.85,2.927a20.112,20.112,0,0,0-3.94,4.557,19.769,19.769,0,0,0-3.118,8.674c-.028.341-.047.68-.048,1.013l-.068,10.364,23.436,26.058,4.6,2.722,23.763,1.822.271-.228.162-4.805c.013-2.823,1.237-11.254,2.688-13.882,2.011-3.644,8.846-10.279,13.194-7.88Z" transform="translate(-5316.735 -1585.493)" fill-rule="evenodd" fill="url(#linear-gradient-12)"/>
          <path id="Path_9762" data-name="Path 9762" d="M5408.292,1759.02l.889-.507-.067,8.784-.888.507-.083-5.02Z" transform="translate(-5379.217 -1703.762)" fill="#f1920e" fill-rule="evenodd"/>
          <path id="Path_9763" data-name="Path 9763" d="M5387.755,1746.469l3.962,2.667,2.639,1.305.889-.506-6.6-3.972Z" transform="translate(-5365.281 -1695.184)" fill="#ffd463" fill-rule="evenodd"/>
          <path id="Path_9764" data-name="Path 9764" d="M5387.61,1747.562l6.6,3.972-.067,8.784-6.6-3.972Z" transform="translate(-5365.137 -1696.277)" fill="#ffc426" fill-rule="evenodd"/>
          <g id="Group_55652" data-name="Group 55652" transform="translate(23.743 5.049)">
            <path id="Path_9765" data-name="Path 9765" d="M5401.8,1612.49a3.442,3.442,0,0,1,.053-.347c0-.015.006-.03.009-.046a3.17,3.17,0,0,1,.083-.309l.019-.055a2.676,2.676,0,0,1,.108-.271l.007-.016a2.476,2.476,0,0,1,.154-.276,2.055,2.055,0,0,1,.262-.32l.07-.067a1.846,1.846,0,0,1,.319-.239l-3.568,2.038a1.726,1.726,0,0,0-.319.239c-.024.021-.048.044-.072.067a2.1,2.1,0,0,0-.261.319l0,.006a2.43,2.43,0,0,0-.144.255.013.013,0,0,0,0,.005l-.012.024c-.027.06-.054.12-.078.183-.011.029-.02.059-.03.089s-.012.037-.019.056-.012.034-.016.051c-.019.062-.037.126-.052.191-.006.022-.01.045-.014.068a.334.334,0,0,0-.01.044c0,.024-.01.047-.014.071-.011.058-.021.117-.028.177,0,.033-.007.067-.011.1,0,.012,0,.023,0,.035s0,.03,0,.045c-.005.057-.009.116-.011.175s-.006.119-.007.18v.011l-.02,1.9,3.569-2.037.019-1.9c0-.142.01-.278.023-.409A.3.3,0,0,1,5401.8,1612.49Z" transform="translate(-5396.155 -1607.666)" fill="#f964b1" fill-rule="evenodd"/>
            <path id="Path_9766" data-name="Path 9766" d="M5404.76,1602.154c-.079-.043-.158-.084-.235-.123-.051-.026-.1-.05-.152-.074l-.037-.018-.043-.02c-.077-.035-.154-.068-.23-.1s-.155-.062-.232-.09l-.042-.014-.037-.012c-.051-.018-.1-.035-.152-.051-.079-.026-.159-.048-.237-.068-.04-.011-.078-.018-.116-.027-.018,0-.034-.008-.049-.012s-.048-.012-.071-.015c-.084-.018-.169-.033-.253-.044-.053-.008-.1-.012-.157-.017l-.052-.006-.048-.005c-.092-.006-.183-.011-.273-.011-.041,0-.079,0-.119.005l-.091,0c-.03,0-.062,0-.091,0a3.042,3.042,0,0,0-.334.046l-.007,0c-.028.005-.055.015-.082.022a3.129,3.129,0,0,0-.318.084l-.025.011a2.768,2.768,0,0,0-.446.2l-3.568,2.037a5.883,5.883,0,0,1,4.191.837l.156-.109,7.05,4.142.023-.013c2.99,1.762,4.873,5.268,5.4,8.74l.3-.173h0l0,.011h0v.011h0l0,.011h0l0,.011h0v.01h0l0,.011h0l0,.011h0v.01h0v.011h0l0,.011h0v.021h0l0,.011h0v.01h0l0,.011h0v.011h0v.011h0v.01h0v.011h0v.011h0l0,.01v.011h0v.011h0v.011h0v.021h0v.011h0v.01h0v.011h0v.021l0,.01h0v.011h0v.01h0v.011h0v.064h0v.011h0v.01h0v.032h0l0,.032v.064h0v.01h0v.01h0l0,.011h0v.032h0v.011h0v.011h0v.011h0v0h0v0h0v0h0v0h0v0h0v0h0v0h0v0h0v0h0v0h0v0h0v0h0v0h0v0h0v.067h0v.01h0v.011h0v.011h0v.031h0v.021h0v.032h0v.011h0v.041h0v.022h0v.073h0v.021h0v.166h0v.073h0v.083l-.02,1.9,3.569-2.037.02-1.9v-.028h0v-.032h0v-.024h0v-.016h0v-.016h0v-.012h0v-.012h0v-.013h0v-.012h0v-.008h0v-.008h0v-.041h0v-.009h0v-.055h0v-.054h0v-.026h0l0-.034v-.022l-.005-.113v-.02h0v-.008h0v-.016h0c0-.064-.009-.13-.015-.194v0h0v0h0v-.027q-.013-.141-.03-.283h0c-.035-.3-.085-.593-.146-.885-.008-.037-.017-.075-.026-.111,0-.022-.009-.042-.014-.064-.01-.042-.019-.085-.028-.128a12.888,12.888,0,0,0-.677-2.019,14.192,14.192,0,0,0-1.535-2.7c-.016-.011-.223-.3-.255-.342s-.179-.24-.216-.27a11.2,11.2,0,0,0-2.678-2.381l-.056-.033-7.42-4.359Z" transform="translate(-5395.522 -1601.448)" fill="#fb85b6" fill-rule="evenodd"/>
            <path id="Path_9767" data-name="Path 9767" d="M5405.038,1613.057l-7.42-4.359c-3.176-1.867-5.794-.4-5.832,3.265l-.019,1.9,2.032,1.193.02-1.9c.025-2.372,1.72-3.321,3.775-2.114l7.421,4.36a8.243,8.243,0,0,1,3.681,6.495l-.021,1.9,2.038,1.2.019-1.9A12.735,12.735,0,0,0,5405.038,1613.057Z" transform="translate(-5391.767 -1605.849)" fill-rule="evenodd" fill="url(#linear-gradient-13)"/>
          </g>
          <path id="Path_9768" data-name="Path 9768" d="M5496.064,1690.61l-12.048,6.833-.167,34.766c-.022,4.785,3.351,6.735,7.526,4.366l.154-.088a16.538,16.538,0,0,0,7.6-12.947l.1-21.746.063-.035.062-12.68c.022-4.5-2.436-6.939-5.9-6.482a14.26,14.26,0,0,0-9.229,5.53,20.428,20.428,0,0,0-3.763,11.514l-.067,10.341,3.284-1.867.068-10.336a11.675,11.675,0,0,1,1.508-5.33c1.263-2.332,5.783-7.245,9.1-5.3A3.966,3.966,0,0,1,5496.064,1690.61Z" transform="translate(-5428.61 -1651.833)" fill-rule="evenodd" fill="url(#linear-gradient-14)"/>
        </g>
      </g>
      <g id="Group_55670" data-name="Group 55670" transform="translate(82.383 48.891)">
        <g id="Group_55662" data-name="Group 55662">
          <path id="Path_9769" data-name="Path 9769" d="M5096.449,734.495l77.543,43.755c8.7,5.246,15.732,17.641,15.681,27.658l-.1,75.029c-.053,10.016-7.167,13.892-15.872,8.645l-76.116-42.949Z" transform="translate(-4976.284 -667.707)" fill-rule="evenodd" opacity="0.5" fill="url(#linear-gradient-15)" style="mix-blend-mode: multiply;isolation: isolate"/>
          <g id="Group_55661" data-name="Group 55661">
            <g id="Group_55655" data-name="Group 55655">
              <path id="Path_9770" data-name="Path 9770" d="M4716.81,534.421c.05-10.017,7.154-13.9,15.868-8.645L4910.7,626.539c8.7,5.246,15.731,17.641,15.68,27.658l-.1,75.029c-.052,10.016-7.165,13.892-15.871,8.645L4732.392,637.109c-8.715-5.252-15.734-17.643-15.681-27.659Z" transform="translate(-4716.71 -523.434)" fill="#fff" fill-rule="evenodd"/>
              <path id="Path_9771" data-name="Path 9771" d="M5069.385,777.875c.037-7.188,5.135-9.974,11.387-6.2l63.853,36.77c6.247,3.764,11.29,12.66,11.253,19.849l-.07,53.845c-.037,7.188-5.143,9.969-11.39,6.2l-63.851-36.769c-6.255-3.769-11.292-12.662-11.254-19.849Z" transform="translate(-4957.735 -691.969)" fill="#d4e5ff" fill-rule="evenodd"/>
              <path id="Path_9772" data-name="Path 9772" d="M4755.872,593.5c.037-7.188,5.135-9.973,11.388-6.2l63.853,36.771c6.246,3.764,11.29,12.66,11.253,19.849l-.071,53.844c-.037,7.188-5.142,9.969-11.39,6.2l-63.851-36.769c-6.254-3.769-11.292-12.661-11.253-19.849Z" transform="translate(-4743.431 -565.938)" fill="#d4e5ff" fill-rule="evenodd"/>
            </g>
            <g id="Group_55656" data-name="Group 55656" transform="translate(21.842 39.078)">
              <path id="Path_9773" data-name="Path 9773" d="M4790.426,651.614c.007-1.572-1.331-2.232-.748-3.126.629-.966,2.691-1.181,3.2-1.362a5.132,5.132,0,0,1,4.315.8l48.764,28.462a15.21,15.21,0,0,1,6.688,11.8l-.041,32c-.012,2.09-.743,3.552-1.922,4.24a10.4,10.4,0,0,1-3.87,1.037c-.8-.1-.065-1.039-.978-1.589l-48.763-28.461a15.2,15.2,0,0,1-6.688-11.8Z" transform="translate(-4788.329 -646.927)" fill="#b2cfff" fill-rule="evenodd"/>
              <path id="Path_9774" data-name="Path 9774" d="M4785.777,653.51c.021-4.272,3.051-5.927,6.767-3.687l48.765,28.462a15.215,15.215,0,0,1,6.688,11.8l-.042,32c-.022,4.272-3.057,5.925-6.769,3.687l-48.764-28.462a15.2,15.2,0,0,1-6.688-11.8Z" transform="translate(-4785.734 -648.224)" fill-rule="evenodd" fill="url(#linear-gradient-16)"/>
              <path id="Path_9775" data-name="Path 9775" d="M4786.706,651.55c.816-2.765,3.423-3.583,6.5-1.727l48.765,28.462a15.429,15.429,0,0,1,6.64,10.789C4815.248,711.333,4787.811,674.575,4786.706,651.55Z" transform="translate(-4786.398 -648.224)" fill="#d4e5ff" fill-rule="evenodd"/>
            </g>
            <g id="Group_55660" data-name="Group 55660" transform="translate(116.654 99.548)">
              <g id="Group_55658" data-name="Group 55658">
                <path id="Path_9776" data-name="Path 9776" d="M5093.049,838.334a1,1,0,0,1-.789,1.836c-.542-.234-.916.08-1.185.7-.723,1.665-.869,4.895-1,7.833a39.5,39.5,0,0,1-.427,5.122c-1.844,9.322-2.668,16.3-2.147,21.857a20.957,20.957,0,0,0,5.761,13.173c2.056,2.187,17.408,11.868,32.555,20.832,13.47,7.972,26.721,15.344,30.233,16.324a10.284,10.284,0,0,0,4.981.4,1.517,1.517,0,0,0,.84-.462.865.865,0,0,0,.079-.71,7.929,7.929,0,0,0-2.3-3.313c-4.469-4.49-4.126-12.8-3.75-21.94.442-10.752.936-22.712-6.491-30.042a1,1,0,1,1,1.4-1.421c8.057,7.952,7.544,20.373,7.084,31.541-.357,8.687-.682,16.583,3.172,20.456a9.646,9.646,0,0,1,2.831,4.289,2.762,2.762,0,0,1-.414,2.319,3.416,3.416,0,0,1-1.935,1.211,12.178,12.178,0,0,1-6.028-.41c-3.7-1.032-17.129-8.486-30.716-16.528-15.273-9.039-30.816-18.868-32.992-21.183a22.823,22.823,0,0,1-6.292-14.353c-.543-5.782.292-12.931,2.17-22.427a37.838,37.838,0,0,0,.4-4.825c.14-3.109.295-6.527,1.162-8.534C5089.992,838.343,5091.171,837.523,5093.049,838.334Z" transform="translate(-5085.354 -838.019)" fill="#3faff6" fill-rule="evenodd"/>
                <g id="Group_55657" data-name="Group 55657" transform="translate(3.965 0.006)">
                  <path id="Path_9777" data-name="Path 9777" d="M5102.573,842.723c.007-1.572-1.331-2.232-.749-3.126.63-.966,2.692-1.181,3.2-1.362a5.134,5.134,0,0,1,4.316.8L5158.1,867.5a15.209,15.209,0,0,1,6.688,11.8l-.042,32c-.011,2.09-.743,3.552-1.921,4.24a10.394,10.394,0,0,1-3.87,1.037c-.8-.1-.065-1.04-.978-1.59l-48.764-28.462a15.2,15.2,0,0,1-6.688-11.8Z" transform="translate(-5100.476 -838.038)" fill="#5094f9" fill-rule="evenodd"/>
                  <path id="Path_9778" data-name="Path 9778" d="M5097.926,844.62c.021-4.272,3.051-5.927,6.767-3.687l48.764,28.462a15.208,15.208,0,0,1,6.688,11.8l-.042,32c-.023,4.272-3.056,5.925-6.769,3.687l-48.763-28.461a15.2,15.2,0,0,1-6.689-11.8Z" transform="translate(-5097.883 -839.334)" fill-rule="evenodd" fill="url(#linear-gradient-17)"/>
                  <path id="Path_9779" data-name="Path 9779" d="M5098.831,843.088c.816-3.2,3.424-4.145,6.5-2l48.764,32.932c3.425,2.388,6.62,3.37,7.019,8.073C5127.75,906.339,5098.171,871.492,5098.831,843.088Z" transform="translate(-5098.523 -839.334)" fill-rule="evenodd" opacity="0.5" fill="url(#linear-gradient-18)" style="mix-blend-mode: multiply;isolation: isolate"/>
                  <path id="Path_9780" data-name="Path 9780" d="M5098.854,842.661c.816-2.765,3.424-3.583,6.5-1.727l48.764,28.462a15.428,15.428,0,0,1,6.64,10.788C5127.4,902.443,5099.959,865.685,5098.854,842.661Z" transform="translate(-5098.546 -839.334)" fill-rule="evenodd" fill="url(#linear-gradient-19)"/>
                </g>
              </g>
              <g id="Group_55659" data-name="Group 55659" transform="translate(39.909 2.617)">
                <path id="Path_9781" data-name="Path 9781" d="M5232.189,891.433c-10.6-6.13-19.85-20.586-20.661-32.3s7.122-16.24,17.724-10.11,19.851,20.593,20.66,32.3S5242.786,897.559,5232.189,891.433Z" transform="translate(-5211.471 -846.29)" fill-rule="evenodd" fill="url(#linear-gradient-20)"/>
                <path id="Path_9782" data-name="Path 9782" d="M5248.655,895.551l2.813,1.406-12.483,19-11.021-16.342,3.629,1.419,5.82,5.525Z" transform="translate(-5222.746 -879.963)" fill="#fff" fill-rule="evenodd"/>
              </g>
            </g>
          </g>
        </g>
        <g id="Group_55669" data-name="Group 55669" transform="translate(29.744 126.834)">
          <path id="Path_9783" data-name="Path 9783" d="M4902.714,1533.982,4853.93,1506.2c-5.319-2.43-12.93-4.365-18.349-1.544-4.937,2.569-13.07,7.828-16.666,9.879-2.731,1.557-12.213,7.238-6.308,10.449,17.373,9.447,34.565,20.071,52.207,29.667,3.336,1.815,8.217,2.471,13.341,2.045a35.321,35.321,0,0,0,14.449-4.3l8.65-5.035c3.827-2.228,5.856-4.863,6.057-7.3C4907.508,1537.678,4905.979,1535.473,4902.714,1533.982Z" transform="translate(-4810.706 -1320.035)" fill="#9e9bf5" fill-rule="evenodd" opacity="0.5" style="mix-blend-mode: multiply;isolation: isolate"/>
          <g id="Group_55668" data-name="Group 55668" transform="translate(19.816)">
            <path id="Path_9784" data-name="Path 9784" d="M4897.817,1270.875a14.248,14.248,0,0,1-.822,1.994c-.584.636-1.312,1.02-1.654,1.746-1.828,3.887-2.228,7.632-.956,27.582l4.683.1.6-7.047c.578-2.857,2.183-7.037,2.833-9.625,1.389-5.543,1.543-8.369,2.371-12.406l.046-.027c5.132-15.646,10.433-31.029,14.694-46.786l14.615-42.392.464-11.366c.076-1.837-.9-3.184-1.483-4.621-7.527,2.218-11.739,4.608-19.828,4.324-2.426,3.608-5.75,10.359-5.874,15.461-.24,9.938.541,16.568-2.5,33.182C4896,1251.32,4901.235,1250.794,4897.817,1270.875Z" transform="translate(-4887.216 -1090.884)" fill-rule="evenodd" fill="url(#linear-gradient-21)"/>
            <g id="Group_55663" data-name="Group 55663" transform="translate(0 181.459)">
              <path id="Path_9785" data-name="Path 9785" d="M4875.4,1543.068a7.534,7.534,0,0,1-1.585-.231c-.242-.27-.7-1.593-.365-1.842C4874.036,1540.6,4875.236,1542.686,4875.4,1543.068Z" transform="translate(-4873.329 -1527.257)" fill="#1f202b" fill-rule="evenodd"/>
              <path id="Path_9786" data-name="Path 9786" d="M4880.855,1522.444c.559,1.783-.236,3.5-.8,5.354-1.959,6.468-3.107,6.831-2.277,9.757a13.076,13.076,0,0,0,2.863,5.135c1.269,1.446,1.651,2.485,3.281,3.611,2.453,1.695,4.638,2.487,4.1-.914a16.3,16.3,0,0,0-.8-3.155c-1.738-4.037-3.762-5.808-2.666-10.847.814-3.741,2.108-6.206.427-8.726Z" transform="translate(-4876.187 -1514.609)" fill="#161a40" fill-rule="evenodd"/>
              <path id="Path_9787" data-name="Path 9787" d="M4878.636,1501.486a21.089,21.089,0,0,1-4.941,9.937c.39-.1,1.388.917,1.938,2.046,4.048-4.653,6.018-6.916,7.264-4.912a63.9,63.9,0,0,1-1.252,7.1,7.086,7.086,0,0,0,.136,3.688c1.589,3.816,4.5,9.387,3.392,11.211a6.6,6.6,0,0,0,.827-3.644c-.007-2.635-.456-6.2-.511-8.393-.077-2.962,1.043-5.532,1.223-9.568a32.236,32.236,0,0,0-.007-3.38c-.17-2.853-.483-6.637-2.489-7.708a5.162,5.162,0,0,0-3.532.382A4.213,4.213,0,0,0,4878.636,1501.486Z" transform="translate(-4873.579 -1497.684)" fill="#161f69" fill-rule="evenodd"/>
            </g>
            <path id="Path_9788" data-name="Path 9788" d="M4980.217,1296.913c-.361,3.01-3.111,5.89-3.446,7.852-.81,4.732,2.619,2.272,6.5,8.356,1.553-.013,4.976,5.586,9.607,5.881,1.064.068,2.964-2.513.861-4.339-.937-.545-1.773-.141-2.543-.812-1.507-1.333-3.267-11.694-3.167-15.734,4.2-22.286,6.852-43.531,11.042-65.335,2.105-10.961,2.5-17.734,1.8-25.8-.271-4.62.209-6.888-1.312-11.366a27.156,27.156,0,0,0-2.2-4.622c-7.182,2.218-12.539,4.4-20.672,4.11a23.33,23.33,0,0,0-2.8,13.537c1.314,9.937,6.292,17.172,7.393,34.213-5.361,18.743.205,33.7-1.06,53.952C4980.21,1296.84,4980.214,1296.877,4980.217,1296.913Z" transform="translate(-4941.952 -1106.582)" fill-rule="evenodd" fill="url(#linear-gradient-22)"/>
            <path id="Path_9789" data-name="Path 9789" d="M4958.3,1142.944c1.1-6.733,2.257-13.473,3.562-20.266,2.1-10.96,2.5-17.734,1.8-25.8-.271-4.62.209-6.888-1.312-11.366-.207-.607-1.521-3.166-1.407-3.51-2.272-5.01-2.585-19.756-2.568-19.886,1.066-7.81,5.315-10.557,3.027-17.236-1.674-2.3-6.2-5.984-10.913-8.563-6.624-3.628-14.024-5.9-18-6.351-8.409-.95-8.428,12.908-5.5,19.436,5.83,13.008,6.256,19.663,3.273,29.549-2.331,3.76-5.115,9.8-5.227,14.457-.24,9.938.54,16.568-2.5,33.182-1.4,4.707-2.452,8.669-3.25,12.082C4925.426,1149.853,4945.565,1148.857,4958.3,1142.944Z" transform="translate(-4904.746 -996.478)" fill-rule="evenodd" fill="url(#linear-gradient-23)"/>
            <g id="Group_55664" data-name="Group 55664" transform="translate(32.939 194.552)">
              <path id="Path_9790" data-name="Path 9790" d="M4981.014,1539.06c3.762.462,7.272,9.645,10.181,13.636,1.413,1.938,4.408-.061,3.192-.58a31.3,31.3,0,0,1,4.575.043c2.358.38,1.531,2.744-.073,3.851-3.57,2.466-6.738,3.855-9.975,2.222a15.334,15.334,0,0,1-1.985-1.321,9.857,9.857,0,0,1-1.321-1.071c-1.047-1.255-1.45-3.278-2.406-5-.317-.57-.575-.692-.78-.537-.394.551.013,8.8.208,10.459-.105.474-1.715.847-2.038.487l-2.987-14.666a5.228,5.228,0,0,1,.392-3.756C4978.9,1541.111,4980.616,1539.781,4981.014,1539.06Z" transform="translate(-4977.42 -1539.06)" fill="#161f69" fill-rule="evenodd"/>
              <path id="Path_9791" data-name="Path 9791" d="M5002.145,1582.729a6.726,6.726,0,0,1-1.916-.638,15.334,15.334,0,0,1-1.985-1.321,9.868,9.868,0,0,1-1.321-1.07c-1.134-1.36-1.688-3.886-2.949-5.617.42-.259,1.518-.232,2.62,1.582,1.656,3.042,2.791,5.282,4.975,6.757A3.386,3.386,0,0,0,5002.145,1582.729Z" transform="translate(-4988.735 -1562.92)" fill="#161a40" fill-rule="evenodd"/>
            </g>
            <path id="Path_9792" data-name="Path 9792" d="M4907.177,1055.844l14.342,3.275c2.879,1.29.7,7.4-2.146,8.111l-20.021-2.59c-5.1-1.084-6.221-4.446-5.114-7.066.023-.055.049-.108.076-.16.346-1.623,10.542-16.285,12.013-18.272a21.348,21.348,0,0,1,5.068-5.075,5.546,5.546,0,0,1,5.524.153,4.169,4.169,0,0,1,1.947,5.29C4917.4,1043.03,4911.825,1049.927,4907.177,1055.844Z" transform="translate(-4887.354 -998.859)" fill="#107cce" fill-rule="evenodd"/>
            <g id="Group_55665" data-name="Group 55665" transform="translate(42.706 40.731)">
              <path id="Path_9793" data-name="Path 9793" d="M5132.994,1063.289c3.433-2.095,8.066-6.064,11.242-6.494,2.005-1.019,4.979-2.693,6.882-3.695,1.392-.733,1.981,1.669.786,2.459-1.171.774-4.327,2.708-4.327,2.708-.055.023-.1.042-.147.059a6.676,6.676,0,0,1,.689,4.3c-.3,1.661-3.972,3.778-6.272,5.315-2.04,1.363-4.49.339-5.867,1.418C5133.654,1068.279,5133.269,1065.546,5132.994,1063.289Z" transform="translate(-5093.531 -1052.963)" fill-rule="evenodd" fill="url(#linear-gradient-24)"/>
              <path id="Path_9794" data-name="Path 9794" d="M5031.831,1077.383c3.815-3.07,8.586-5.736,12.443-8.14.617-.386,1.551-.373,2.039-.666.6-.363,1.092-.647,1.437-.832,1.374.749,3.078,3.548,3.835,5.75q-.768.664-1.538,1.4c-.4.375-.809,1.669-1.206,2.064-4.292,4.271-7.2,8.073-11.388,10.987a41.142,41.142,0,0,1-4.65,3.374c-1.9.961-4.619,0-5.9-1.935-1.1-.994-2.092-2.086-2.718-2.671-2.843-2.659-9.91-8.693-13.779-13.881-2.84-3.809-2.369-5.9-1.254-7.882,2.6-4.617,6.522-7.576,10.857-3.39,2.063,1.991,3.449,5.317,5.214,7.616C5027.2,1071.745,5029.692,1074.578,5031.831,1077.383Z" transform="translate(-5008.286 -1057.466)" fill-rule="evenodd" fill="url(#linear-gradient-25)"/>
            </g>
            <path id="Path_9795" data-name="Path 9795" d="M4932.492,1029.961a5.407,5.407,0,0,0-5.6,2.779c-.046.078-.092.158-.136.238l-.062.112-.1.195-.03.06q-.064.129-.124.262l-.043.1-.1.237-.021.048c-.04.1-.078.2-.115.295l-.029.082-.084.237-.027.078c-.033.1-.066.2-.1.3l-.023.076-.073.255-.021.079c-.031.111-.059.223-.086.336l0,.007c-.026.108-.051.218-.075.327l-.018.083c-.022.1-.043.205-.063.309l-.008.041c-.021.11-.04.222-.059.334l-.018.107-.046.306,0,.028-.046.341-.014.123-.03.268-.01.091-.032.361,0,.061-.02.285-.008.13-.017.334,0,.1-.01.305v.057l0,.342v.482q.006.4.022.8l0,.058.018.333,0,.083.028.385v.024l.028.334.01.1.036.351.01.091.039.326,0,.044.051.376.01.067.048.323.012.078.059.352.013.064.058.317.013.068q.068.359.147.708l.021.094.071.3.011.045.091.356.008.032c.061.232.125.46.193.684l.025.086.079.249.029.091.1.289.027.079.09.251.021.058c.039.1.077.2.115.3l.01.023.105.261.033.075.12.279c5.83,13.008,6.256,19.663,3.273,29.549-2.331,3.76-5.115,9.8-5.227,14.457-.24,9.938.54,16.568-2.5,33.182-1.4,4.707-2.452,8.669-3.25,12.082,2.822,5.145,8.608,7.711,15.274,8.409,27.472-30.179-11.293-41.011,3.444-68.69,1.681-3.155,12-7.169,14.574-11.069,5.527-6.485,7.714-12.888-.632-23.209-1.385-1.713-2.417-2.61-4.275-5.2-3.034.716-8.682-.289-9.357-1.526-.236-.432.96-4.223.767-4.685C4933.889,1030.409,4935.545,1030.306,4932.492,1029.961Z" transform="translate(-4904.746 -996.477)" fill="#0960ac" fill-rule="evenodd" opacity="0.3"/>
            <g id="Group_55667" data-name="Group 55667" transform="translate(3.822)">
              <g id="Group_55666" data-name="Group 55666" transform="translate(22.268 2.574)">
                <path id="Path_9796" data-name="Path 9796" d="M4962.146,1002.252c-.651,2.762,9.431,5.744,12.885,4.243l.073-.669c.892-4.12,1.766-7.621,2.383-10.514,1.606.684,5.548.885,5.9.333-10.628-8.488-23.057-14.764-24.655-10.478,1.053,3.1,3.773,5.312,5.134,7.333a6.378,6.378,0,0,1,.713,2.778h0A30.034,30.034,0,0,1,4962.146,1002.252Z" transform="translate(-4957.795 -967.518)" fill-rule="evenodd" fill="url(#linear-gradient-26)"/>
                <path id="Path_9797" data-name="Path 9797" d="M4981.306,960.559c-.915.6-7.422-1.566-7.947-1.54-5.063.252-10.509-.161-11.515-1.654-1.361-2.021-4.081-4.228-5.134-7.333-1.684-4.962-1.355-10.557,3.182-14.454,7.888-6.774,20.263-1.81,22.035,5.862.726,3.147-.174,3.408-.025,5.516.274,3.883.715,2.42.357,8.564C4982.123,957.862,4981.914,960.162,4981.306,960.559Z" transform="translate(-4955.776 -932.383)" fill="#ffa698" fill-rule="evenodd"/>
                <path id="Path_9798" data-name="Path 9798" d="M4969.842,1030.45c.276,2.512,7.35,4.285,11.639,3.285.459-.107.746-.194.91-.486a9.207,9.207,0,0,1,2.543,4.061c-3.707,3.574-15.423,1.479-16.846-2.707A3.148,3.148,0,0,1,4969.842,1030.45Z" transform="translate(-4964.033 -999.417)" fill="#00cedc" fill-rule="evenodd"/>
              </g>
              <path id="Path_9799" data-name="Path 9799" d="M4893.958,949.526c-6.744,5.64-10.542,15.8-7.474,21.557,2.78,5.222,9.563,8.294,7.475,11.6-1.725,2.732-5.784,5.472-.955,9.883,2.487,2.271,8.561,8.364,20.958,5.208,12.085-3.077,24.767-13.516,14.585-24.93-10.715-12.012-4.447-14.668,1.7-24.114,3.249-4.995,6.154-14.865,3.37-18.537-4.775-6.3-7.946-1.76-12.541-3.985-8.763-4.244-15.951-1.21-20.072,5.426C4897.316,937.573,4899.32,945.042,4893.958,949.526Z" transform="translate(-4885.408 -924.248)" fill-rule="evenodd" fill="url(#linear-gradient-27)"/>
            </g>
          </g>
        </g>
      </g>
      <g id="Group_55672" data-name="Group 55672" transform="translate(306.858 178.271)">
        <path id="Path_9800" data-name="Path 9800" d="M5438.9,940.982l-7.891-4.376a2.047,2.047,0,0,0-2-.215l-2.131,1.3c-1.166.576-1.131,2.931.619,5.16l6.758,8.6a5.431,5.431,0,0,1,1.338,4.217l-1.846,6.878c-.5,1.9,1.279,4.783,3.111,5.795a2.261,2.261,0,0,0,1.669.311l6-1.578a2.3,2.3,0,0,1,1.683.329,5.989,5.989,0,0,1,1.774,1.582l6.749,8.623a5.945,5.945,0,0,0,1.763,1.586,2.046,2.046,0,0,0,2,.191l0,0,2.239-1.361a1.853,1.853,0,0,0,.669-1.841,5.315,5.315,0,0,0-.182-.9c-.011-.043-.025-.085-.039-.131l-3.048-9.6a3.934,3.934,0,0,1-.16-2.022l4.738-1.214a1.331,1.331,0,0,0,.443-.2l.01,0,2.135-1.3a1.663,1.663,0,0,0,.672-1.48,5.945,5.945,0,0,0-.952-2.939,6.37,6.37,0,0,0-2.206-2.21c-.013-.006-.021-.013-.034-.018l-7.906-4.356a6.948,6.948,0,0,1-2.925-3.751l-3.037-9.606a.175.175,0,0,0-.012-.034,6.988,6.988,0,0,0-.828-1.706,6.792,6.792,0,0,0-1.56-1.671c-.7-.5-1.782-1.059-2.562-.575l-2.138,1.3a1.383,1.383,0,0,0-.694.953l-1.7,6.493A3.433,3.433,0,0,1,5438.9,940.982Z" transform="translate(-5426.083 -932.29)" fill-rule="evenodd" opacity="0.5" fill="url(#linear-gradient-28)" style="mix-blend-mode: multiply;isolation: isolate"/>
        <g id="Group_55671" data-name="Group 55671" transform="translate(3.534 0.217)">
          <path id="Path_9801" data-name="Path 9801" d="M5450.714,941.183l-7.452-4.132a1.931,1.931,0,0,0-1.888-.2l-2.137,1.3c.509,3.823,3.251,3.8,7.664,6.279.03.017.059.032.09.048a2.086,2.086,0,0,0,1.608.242,1.086,1.086,0,0,0,.208-.1l3.812-3.243a1.966,1.966,0,0,1-1.906-.192Zm24.669,14.562a5.62,5.62,0,0,1,.9,2.775,1.574,1.574,0,0,1-.635,1.4l-2.017,1.226c-5.837-1.456-13.129-2.065-17-7.136-5.894-7.715-2.072-12.64-3.21-19.6l2.069-1.258c.737-.458,1.759.07,2.42.543a6.405,6.405,0,0,1,1.472,1.577,6.6,6.6,0,0,1,.782,1.611s.008.021.011.032l2.868,9.071a6.558,6.558,0,0,0,2.762,3.542l7.465,4.113a.3.3,0,0,1,.032.017,6.026,6.026,0,0,1,2.084,2.087Zm-3.588,17.83c-.01-.04-.023-.081-.037-.123l-2.879-9.062c-.278-.867-.432-2.217.425-2.738l-4.507,2.4c-.883.545-.682,1.844-.427,2.736l2.922,9.065,1.929,1.6,2.113-1.285a1.748,1.748,0,0,0,.632-1.738A4.949,4.949,0,0,0,5471.795,973.575Z" transform="translate(-5438.609 -932.975)" fill-rule="evenodd" fill="url(#linear-gradient-29)"/>
          <path id="Path_9802" data-name="Path 9802" d="M5469.813,957.671l-7.465-4.115a6.528,6.528,0,0,1-2.764-3.54l-2.866-9.071a6.417,6.417,0,0,0-2.79-3.56c-1.109-.612-2.166-.524-2.472.651l-1.715,6.536c-.277,1.041-1.262,1.317-2.483.641l-7.452-4.132c-2.674-1.481-3.521,1.686-1.216,4.622l6.382,8.124a5.129,5.129,0,0,1,1.264,3.982l-1.744,6.494c-.475,1.8,1.208,4.517,2.938,5.473a2.136,2.136,0,0,0,1.575.293l5.662-1.49a2.177,2.177,0,0,1,1.588.311,5.662,5.662,0,0,1,1.675,1.494l6.373,8.143a5.625,5.625,0,0,0,1.665,1.5c1.724.954,3.125-.06,2.333-2.543l-2.878-9.065c-.477-1.478-.169-2.632.748-2.871l5.676-1.455C5473.895,963.562,5472.5,959.157,5469.813,957.671Z" transform="translate(-5437.251 -935.734)" fill-rule="evenodd" fill="url(#linear-gradient-30)"/>
        </g>
      </g>
      <g id="Group_55675" data-name="Group 55675" transform="translate(244.67)">
        <g id="Group_55673" data-name="Group 55673">
          <path id="Path_9803" data-name="Path 9803" d="M5260.054,379.1c4.106,2.272,6.505,4.928,9.17,8.714-.032-.661-.064,1.765-.042-1.984s-2.129-9.807.8-12.841c1.162-1.2,6.824-3.412,8.184-3.762,2.611-.671,5.636-.217,8.867,1.549,4.914,2.686,9.361,7.917,12.591,14.2s5.247,16.8,5.242,20.594-.02,1.311-.057,1.948c2.735-.821,5.189-.811,9.413,1.525s9.543,8.1,12.842,14.5a47.379,47.379,0,0,1,5.4,20.942c.013,5.468-1.235,9.811-3.357,12.818-2.138,3.031-6.271,4.82-9.2,5.792-8.4,2.917-24.6-14.113-33.141-18.95q-13.6-7.7-27.064-15.311c-4.891-2.767-9.276-8.042-12.416-14.339a46.148,46.148,0,0,1-4.959-20.43c.037-3.989-2.878-9.973.895-12.839C5249.092,376.779,5255.356,376.5,5260.054,379.1Z" transform="translate(-5237.579 -368.931)" fill="#8d6dfc" fill-rule="evenodd"/>
          <path id="Path_9804" data-name="Path 9804" d="M5247.285,385.621c4.106,2.272,6.505,4.928,9.17,8.715-.032-.662-.064,1.764-.042-1.985s2.052-11.941,5.275-14.665,7.666-3.076,12.58-.39,9.361,7.918,12.591,14.2c3.238,6.3,5.247,16.8,5.242,20.595s-.02,1.311-.057,1.948c2.735-.821,5.189-.811,9.413,1.525s9.543,8.1,12.842,14.5a47.267,47.267,0,0,1,5.4,20.942c.016,7.035-2.035,12.274-5.344,15.032s-7.872,3.009-12.9.163q-13.779-7.8-27.453-15.535-13.6-7.7-27.065-15.312c-4.892-2.767-9.276-8.042-12.416-14.339a46.156,46.156,0,0,1-4.96-20.43c.063-6.826,2.065-11.9,5.261-14.6S5243.179,383.349,5247.285,385.621Z" transform="translate(-5229.56 -373.388)" fill-rule="evenodd" fill="url(#linear-gradient-31)"/>
        </g>
        <g id="Group_55674" data-name="Group 55674" transform="translate(18.789 24.47)">
          <path id="Path_9805" data-name="Path 9805" d="M5297.352,467.845l-8.417-4.857,13.237,22.926,13.321-7.592-8.413-4.859.023-21.586-9.729-5.617Z" transform="translate(-5288.935 -446.259)" fill="#fff" fill-rule="evenodd"/>
          <path id="Path_9806" data-name="Path 9806" d="M5368.512,505l8.417,4.857-13.237-22.926-13.321,7.593,8.413,4.859-.023,21.586,9.729,5.617Z" transform="translate(-5330.929 -474.058)" fill="#fff" fill-rule="evenodd"/>
        </g>
      </g>
      <path id="Path_9807" data-name="Path 9807" d="M5591.474,844.228l4.583,2.629,1.467-2.561-4.581-2.628-1.469,2.561Zm7.143,4.1,1.468-2.561,5.121,2.938-1.468,2.561-5.121-2.938Zm7.68,4.406,1.469-2.56c1.682.964,3.365,1.989,5.082,2.9l-1.375,2.612c-.329-.174-.652-.353-.975-.538l0,0-4.207-2.412Zm8.039,4.239a17.632,17.632,0,0,0,6.3,1.2l-.035-2.951a14.714,14.714,0,0,1-5.233-1.015l-1.028,2.767Zm9.6.752a11.48,11.48,0,0,0,5.64-3.535l-2.22-1.947a8.523,8.523,0,0,1-4.224,2.642l.8,2.84Zm7.491-6.274a18.571,18.571,0,0,0,1.818-6.118l-2.928-.375a15.7,15.7,0,0,1-1.517,5.147l2.626,1.346Zm2.025-9.245-2.952-.008.021-5.9,2.951.01-.02,5.9Zm.031-8.854-2.952-.01.02-5.9,2.952.01-.02,5.9Zm.03-8.856-2.951-.01.019-5.9,2.952.01-.02,5.9Zm.031-8.856-2.953-.01.021-5.9,2.951.01-.019,5.9Zm.028-8.855-2.951-.01.02-5.9,2.951.01-.02,5.9Zm.03-8.855-2.952-.01.021-5.9,2.95.01-.019,5.9Zm.029-8.856-2.951-.01.02-5.9,2.951.01-.02,5.9Zm.03-8.856-2.952-.01.021-5.9,2.951.01-.02,5.9Zm.03-8.855-2.952-.01.02-5.9,2.951.01-.019,5.9Zm.029-8.856-2.953-.01.021-5.9,2.951.01-.019,5.9Zm.029-8.855-2.952-.01.02-5.9,2.952.01-.02,5.9Zm.029-8.855-2.952-.01.02-5.9,2.951.01-.019,5.9Zm.029-8.856-2.951-.01.019-5.9,2.951.01-.019,5.9Zm.029-8.856-2.952-.01.019-5.9,2.951.01-.018,5.9Zm.029-8.855-2.951-.01.018-5.9,2.953.01-.02,5.9Zm.029-8.855-2.952-.01.021-5.9,2.95.01-.019,5.9Zm.029-8.855-2.951-.009.019-5.9,2.952.01-.02,5.9Zm-.091-8.985a36.8,36.8,0,0,0-1.032-6.048l-2.861.725a34.71,34.71,0,0,1,.953,5.578l2.94-.256Zm-1.886-8.983a48.635,48.635,0,0,0-2.263-5.646l-2.666,1.267a46.425,46.425,0,0,1,2.127,5.307l2.8-.928Zm-3.645-8.353a51.22,51.22,0,0,0-3.226-5.145l-2.4,1.717a48.96,48.96,0,0,1,3.042,4.853l2.585-1.425Zm-5.064-7.569a45.562,45.562,0,0,0-4.14-4.479l-2.019,2.154a44.533,44.533,0,0,1,3.867,4.187l2.291-1.861Zm-6.453-6.495a37.464,37.464,0,0,0-5.091-3.4l-1.468,2.561a34.623,34.623,0,0,1,4.717,3.148l1.842-2.307Zm-7.65-4.87-1.469,2.561-5.121-2.938,1.468-2.561,5.122,2.938Zm-7.684-4.407-1.469,2.561-5.121-2.938,1.468-2.561,5.121,2.937Zm-7.681-4.406-1.469,2.561-5.12-2.938,1.467-2.561,5.122,2.938Zm-7.682-4.406-1.469,2.561-5.121-2.938,1.469-2.561,5.121,2.937Zm-7.683-4.406-1.468,2.56-5.121-2.937,1.468-2.561,5.121,2.938Zm-7.681-4.406-1.469,2.561-5.122-2.937,1.469-2.561,5.121,2.937Zm-7.681-4.405-1.469,2.561-5.121-2.937,1.469-2.561,5.121,2.937Zm-7.682-4.406-1.469,2.561-5.121-2.937,1.47-2.561,5.121,2.937Zm-7.682-4.406-1.468,2.561-5.121-2.937,1.468-2.561,5.121,2.937ZM5540,615.607l-1.469,2.561-5.12-2.937,1.468-2.561,5.121,2.937Zm-8.729-4.778-1.468,2.561-5.121-2.937c-.955-1.267.232-3.083,1.469-2.561Z" transform="translate(-5186.385 -532.212)" fill-rule="evenodd" fill="url(#linear-gradient-32)"/>
      <g id="Group_55678" data-name="Group 55678" transform="translate(38.199 156.232)">
        <g id="Group_55676" data-name="Group 55676" transform="translate(13.876 5.604)">
          <path id="Path_9808" data-name="Path 9808" d="M4664.934,955.623l-44-25.57,10.215-48.483,0-.013v-.014l0-.012v0l0-.015v0l0-.012,0-.01v0l0-.016h0l0-.015,0-.009,0-.008,0-.016v0l0-.018v-.005l0-.012,0-.013v0l0-.018v0l0-.016,0-.011,0-.008.006-.019h0l.006-.02,0-.008,0-.011,0-.016v0l.008-.02v0l.005-.015.005-.013,0-.007.008-.02v0l.008-.018,0-.011,0-.01.008-.019v0l.009-.021,0-.007.006-.014.007-.015,0-.005.01-.021v0l.009-.017.005-.011,0-.009.011-.021h0l.01-.021,0-.009.007-.011.009-.017,0,0,.012-.02,0,0,.009-.016.009-.013,0-.006.013-.02h0l.012-.018.006-.009.007-.009.013-.018v0l.014-.019,0-.006.01-.012.015-.019.014-.018,0,0,.013-.015.009-.01.006-.007.015-.017.016-.017.007-.007.01-.009.014-.013,0,0,.016-.016,0,0,.013-.011.012-.01.005,0,.018-.014h0l.017-.012.009-.007.009-.006.018-.012h0l.019-.011.007,0,.013-.007a.723.723,0,0,1,.655-.031l44,25.569C4675.017,905.2,4669.165,941.327,4664.934,955.623Z" transform="translate(-4620.934 -880.355)" fill-rule="evenodd" fill="url(#linear-gradient-33)"/>
          <path id="Path_9809" data-name="Path 9809" d="M4631.149,884.194l33.541,20.082,2.484,43.759c-.4,3.8-1.542,7.475-2.022,11.248l-44.219-26.607Z" transform="translate(-4620.934 -882.979)" fill="#783fd3" fill-rule="evenodd"/>
        </g>
        <g id="Group_55677" data-name="Group 55677" transform="translate(10.124)">
          <path id="Path_9810" data-name="Path 9810" d="M4656.217,890.635l-.994,49.172-46.147-26.64.138-48.746Z" transform="translate(-4609.076 -863.86)" fill="#f2f4ff" fill-rule="evenodd"/>
          <path id="Path_9811" data-name="Path 9811" d="M4755.045,947.4l.963-.561-.138,48.749-.963.556Z" transform="translate(-4708.76 -920.198)" fill="#c5dbf1" fill-rule="evenodd"/>
          <path id="Path_9812" data-name="Path 9812" d="M4609.511,863.208l.968-.561,46.144,26.642-.964.561Z" transform="translate(-4609.374 -862.647)" fill="#dce8f8" fill-rule="evenodd"/>
          <path id="Path_9813" data-name="Path 9813" d="M4657.5,939.7l-.01,3.075-42.712-24.66.009-3.073L4657.5,939.7Zm.1-35.343,0,3.073-42.712-24.659.009-3.073L4657.6,904.36Zm-.014,5.047-42.707-24.659-.009,3.073,42.707,24.659.009-3.073Zm-.013,5.051L4614.857,889.8l0,3.074,42.708,24.658.009-3.073Zm-.014,5.05-42.712-24.659-.009,3.073,42.712,24.66.009-3.074Zm-.013,5.048-42.712-24.66-.009,3.074,42.713,24.659.009-3.073Zm-.014,5.051-42.711-24.66-.01,3.074,42.712,24.659.009-3.073Zm-.013,5.05L4614.8,910l-.009,3.073,42.712,24.659Z" transform="translate(-4612.974 -874.304)" fill="#c5dbf1" fill-rule="evenodd"/>
        </g>
        <path id="Path_9814" data-name="Path 9814" d="M4623.315,933.463l10.63,35.429v0c.14.381.038,2.945.247,3.169l-44-25.567a1.747,1.747,0,0,1-.647-1.173l-10.489-36.888.009.005-1.966-6.916a1.789,1.789,0,0,1,.379-1.251c1.827,1.665,11.583,7.635,13.381,8.694,3.014,2.361,3.117,4.8,7.68,9.637a7.909,7.909,0,0,0,2.258,1.808Z" transform="translate(-4577.084 -888.367)" fill-rule="evenodd" fill="url(#linear-gradient-34)"/>
        <path id="Path_9815" data-name="Path 9815" d="M4722.844,974.224a1.262,1.262,0,0,1,.215-.159c.343-.2.652-.113.755.227l10.391,36.588,10.213-48.483a1.726,1.726,0,0,1,.746-1.093.946.946,0,0,1,.212-.09c.421-.112.667.247.549.79l-10.273,48.808a7.285,7.285,0,0,1-.624,1.91,2.2,2.2,0,0,1-.827.933.716.716,0,0,1-.815.019,2.193,2.193,0,0,1-.6-1.139L4722.3,975.644A1.613,1.613,0,0,1,4722.844,974.224Z" transform="translate(-4676.33 -930.01)" fill="#864de2" fill-rule="evenodd"/>
        <path id="Path_9816" data-name="Path 9816" d="M4602.174,918.539l22.193,12.9c-.578-.283-1.463,1.015-1.312,1.632l-22.415-13.025a13.8,13.8,0,0,1-1.869-1.208c-3.187-2.516-4.689-5.965-6.77-8.753a8.93,8.93,0,0,0-1.785-1.807c-.553-.3-.847-.461-.749-.414L4577.1,900.58a1.8,1.8,0,0,1,.381-1.24c.234-.249.6-.556.933-.381l12.392,7.293c-.1-.048.195.112.748.414a8.92,8.92,0,0,1,1.784,1.807c2.2,2.951,3.778,6.269,7.352,9.083A11.758,11.758,0,0,0,4602.174,918.539Z" transform="translate(-4577.084 -887.433)" fill="#d477e4" fill-rule="evenodd"/>
      </g>
      <g id="Group_55685" data-name="Group 55685" transform="translate(0 307.11)">
        <g id="Group_55679" data-name="Group 55679" transform="translate(0 83.443)" opacity="0.5" style="mix-blend-mode: multiply;isolation: isolate">
          <path id="Path_9817" data-name="Path 9817" d="M4517.283,1603.132l-60.912,35.82,25.053,14.481,60.912-35.82Z" transform="translate(-4456.371 -1603.132)" fill="#9e9bf5" fill-rule="evenodd"/>
          <path id="Path_9818" data-name="Path 9818" d="M4620.4,1673.246l-54.623,32.122,22.466,12.986,54.623-32.121Z" transform="translate(-4531.157 -1651.059)" fill="#9e9bf5" fill-rule="evenodd"/>
        </g>
        <g id="Group_55684" data-name="Group 55684" transform="translate(3.723)">
          <g id="Group_55681" data-name="Group 55681">
            <path id="Path_9819" data-name="Path 9819" d="M4675.13,1373.8l5.983-10.618-7.646.644-4.979-7.918-1.066,21.906Z" transform="translate(-4604.359 -1350.694)" fill="#c3daff" fill-rule="evenodd"/>
            <path id="Path_9820" data-name="Path 9820" d="M4686.218,1389.567l5.983-10.592-7.645.617-.914,10.2Z" transform="translate(-4615.447 -1366.465)" fill="#b9d3ff" fill-rule="evenodd"/>
            <path id="Path_9821" data-name="Path 9821" d="M4541.176,1355.851l-60.276,36.068,5.372,82.852,60.276-36.068Z" transform="translate(-4476.86 -1350.658)" fill-rule="evenodd" fill="url(#linear-gradient-35)"/>
            <path id="Path_9822" data-name="Path 9822" d="M4489.564,1479.976l-5.121-3-2.476-2.758-9.856-4.262-3.977,77.564,21.849,12.543.864-45.761Z" transform="translate(-4468.134 -1428.656)" fill="#b3cfff" fill-rule="evenodd"/>
            <path id="Path_9823" data-name="Path 9823" d="M4481.967,1474.219l-9.856-4.262-3.977,77.564,11.214-1.847Z" transform="translate(-4468.134 -1428.656)" fill="#c3daff" fill-rule="evenodd"/>
            <path id="Path_9824" data-name="Path 9824" d="M4509.692,1487.067l-3.687-4.02-2.366,70.974,10.613,14.992.865-45.761Z" transform="translate(-4492.404 -1437.603)" fill="#d6e6ff" fill-rule="evenodd"/>
            <path id="Path_9825" data-name="Path 9825" d="M4580.48,1378.884l-60.276,36.068,5.372,82.852,60.276-36.068Z" transform="translate(-4503.727 -1366.402)" fill-rule="evenodd" fill="url(#linear-gradient-36)"/>
            <g id="Group_55680" data-name="Group 55680" transform="translate(11.823)">
              <path id="Path_9826" data-name="Path 9826" d="M4554.568,1347.378c-5.668-4.341-10.919-6.733-15.726-7.545a20.574,20.574,0,0,0-12.131,1.495,26.885,26.885,0,0,0-9.654,7.775c-5.593,6.891-9.492,16.844-11.545,27.573-.178.768,1.109,1.164,1.288-.66,2.06-10.221,5.819-19.645,11.138-26.2a25.761,25.761,0,0,1,9.242-7.457,19.464,19.464,0,0,1,11.477-1.407c4.506.761,9.438,2.98,14.777,6.986C4554.865,1348.97,4555.314,1347.843,4554.568,1347.378Z" transform="translate(-4505.495 -1339.491)" fill="#c2d9ff" fill-rule="evenodd"/>
              <path id="Path_9827" data-name="Path 9827" d="M4581.763,1354.779a131.877,131.877,0,0,0-12.51-9.184c-4.8-3.023-9.905-5.51-14.408-6.047a12.592,12.592,0,0,0-7.58,1.305,15.168,15.168,0,0,0-5.76,5.8c-1.783,2.972-4.968,10.422-7.974,19.956a181.708,181.708,0,0,0-5.187,20.418c-.047.747.44.815.8.559a1.205,1.205,0,0,0,.387-.693,180.539,180.539,0,0,1,5.085-19.942c2.981-9.452,6.117-16.8,7.864-19.716a14.063,14.063,0,0,1,5.322-5.381,11.489,11.489,0,0,1,6.914-1.177c4.314.515,9.261,2.933,13.935,5.876a128.957,128.957,0,0,1,12.077,8.9C4581.3,1355.919,4582.106,1355.648,4581.763,1354.779Z" transform="translate(-4521.112 -1339.44)" fill="#d6e6ff" fill-rule="evenodd"/>
            </g>
          </g>
          <g id="Group_55683" data-name="Group 55683" transform="translate(35.442 41.822)">
            <path id="Path_9828" data-name="Path 9828" d="M4747.485,1499.379l4.837-8.584-6.182.52-4.025-6.4-.862,17.71Z" transform="translate(-4690.269 -1480.701)" fill="#c3daff" fill-rule="evenodd"/>
            <path id="Path_9829" data-name="Path 9829" d="M4756.451,1512.13l4.837-8.563-6.181.5-.738,8.249Z" transform="translate(-4699.234 -1493.452)" fill="#b9d3ff" fill-rule="evenodd"/>
            <path id="Path_9830" data-name="Path 9830" d="M4639.187,1484.871l-48.732,29.16,4.344,66.984,48.731-29.16Z" transform="translate(-4587.188 -1480.672)" fill-rule="evenodd" fill="url(#linear-gradient-35)"/>
            <path id="Path_9831" data-name="Path 9831" d="M4597.46,1585.224l-4.14-2.425-2-2.23-7.969-3.446-3.215,62.709,17.665,10.141.7-37Z" transform="translate(-4580.134 -1543.732)" fill="#b3cfff" fill-rule="evenodd"/>
            <path id="Path_9832" data-name="Path 9832" d="M4591.318,1580.569l-7.969-3.446-3.215,62.709,9.067-1.493Z" transform="translate(-4580.134 -1543.732)" fill="#c3daff" fill-rule="evenodd"/>
            <path id="Path_9833" data-name="Path 9833" d="M4613.732,1590.955l-2.98-3.25-1.913,57.381,8.581,12.12.7-37Z" transform="translate(-4599.755 -1550.965)" fill="#d6e6ff" fill-rule="evenodd"/>
            <path id="Path_9834" data-name="Path 9834" d="M4670.964,1503.492l-48.732,29.16,4.343,66.984,48.732-29.16Z" transform="translate(-4608.911 -1493.4)" fill-rule="evenodd" fill="url(#linear-gradient-36)"/>
            <g id="Group_55682" data-name="Group 55682" transform="translate(9.558)">
              <path id="Path_9835" data-name="Path 9835" d="M4650.014,1478.021c-4.582-3.51-8.828-5.444-12.714-6.1a16.628,16.628,0,0,0-9.807,1.209,21.725,21.725,0,0,0-7.8,6.285c-4.521,5.571-7.675,13.618-9.335,22.292-.144.621.9.941,1.041-.533,1.666-8.264,4.706-15.882,9.005-21.18a20.828,20.828,0,0,1,7.471-6.029,15.735,15.735,0,0,1,9.278-1.138c3.644.615,7.632,2.409,11.948,5.648C4650.254,1479.308,4650.617,1478.4,4650.014,1478.021Z" transform="translate(-4610.339 -1471.644)" fill="#c2d9ff" fill-rule="evenodd"/>
              <path id="Path_9836" data-name="Path 9836" d="M4672,1484a106.633,106.633,0,0,0-10.113-7.425c-3.883-2.444-8.008-4.454-11.649-4.889a10.183,10.183,0,0,0-6.128,1.055,12.264,12.264,0,0,0-4.656,4.69c-1.442,2.4-4.017,8.427-6.447,16.135a146.89,146.89,0,0,0-4.193,16.508c-.038.6.355.659.644.452a.976.976,0,0,0,.313-.56,145.943,145.943,0,0,1,4.112-16.123c2.409-7.642,4.944-13.586,6.357-15.94a11.372,11.372,0,0,1,4.3-4.35,9.288,9.288,0,0,1,5.589-.951c3.489.417,7.487,2.372,11.267,4.75a104.381,104.381,0,0,1,9.764,7.2C4671.625,1484.926,4672.278,1484.706,4672,1484Z" transform="translate(-4622.966 -1471.602)" fill="#d6e6ff" fill-rule="evenodd"/>
            </g>
          </g>
        </g>
      </g>
      <g id="Group_55688" data-name="Group 55688" transform="translate(366.029 336.673)">
        <path id="Path_9837" data-name="Path 9837" d="M5678.167,1673.158l-65.093,38.278,26.773,15.475,65.093-38.278Z" transform="translate(-5613.073 -1597.118)" fill="#9e9bf5" fill-rule="evenodd" opacity="0.5" style="mix-blend-mode: multiply;isolation: isolate"/>
        <g id="Group_55687" data-name="Group 55687" transform="translate(5.414)">
          <path id="Path_9838" data-name="Path 9838" d="M5829.611,1465.964l5.764-10.23-7.365.62-4.8-7.628-1.028,21.1Z" transform="translate(-5761.426 -1443.706)" fill="#4a83ef" fill-rule="evenodd"/>
          <path id="Path_9839" data-name="Path 9839" d="M5840.294,1481.16l5.764-10.2-7.366.594-.879,9.83Z" transform="translate(-5772.11 -1458.901)" fill="#558ef9" fill-rule="evenodd"/>
          <path id="Path_9840" data-name="Path 9840" d="M5700.554,1448.674l-58.073,34.749,5.176,79.823,58.072-34.749Z" transform="translate(-5638.589 -1443.671)" fill-rule="evenodd" fill="url(#linear-gradient-39)"/>
          <path id="Path_9841" data-name="Path 9841" d="M5650.828,1568.263l-4.934-2.89-2.385-2.657-9.5-4.106-3.832,74.728,21.051,12.085.833-44.087Z" transform="translate(-5630.181 -1518.818)" fill="#417be7" fill-rule="evenodd"/>
          <path id="Path_9842" data-name="Path 9842" d="M5643.509,1562.716l-9.5-4.106-3.832,74.728,10.805-1.779Z" transform="translate(-5630.181 -1518.818)" fill="#4a83ef" fill-rule="evenodd"/>
          <path id="Path_9843" data-name="Path 9843" d="M5670.221,1575.093l-3.551-3.873-2.28,68.379,10.226,14.443.833-44.087Z" transform="translate(-5653.565 -1527.438)" fill="#558ef9" fill-rule="evenodd"/>
          <path id="Path_9844" data-name="Path 9844" d="M5738.421,1470.866l-58.072,34.749,5.175,79.823,58.072-34.749Z" transform="translate(-5664.474 -1458.84)" fill-rule="evenodd" fill="url(#linear-gradient-40)"/>
          <g id="Group_55686" data-name="Group 55686" transform="translate(11.391)">
            <path id="Path_9845" data-name="Path 9845" d="M5713.457,1440.511c-5.461-4.182-10.521-6.487-15.152-7.269a19.813,19.813,0,0,0-11.686,1.441,25.9,25.9,0,0,0-9.3,7.49c-5.389,6.639-9.146,16.228-11.124,26.564-.172.741,1.069,1.122,1.241-.635,1.985-9.848,5.607-18.926,10.731-25.24a24.83,24.83,0,0,1,8.9-7.184,18.747,18.747,0,0,1,11.057-1.356c4.34.733,9.093,2.871,14.237,6.731C5713.742,1442.045,5714.176,1440.959,5713.457,1440.511Z" transform="translate(-5666.178 -1432.912)" fill="#548ff9" fill-rule="evenodd"/>
            <path id="Path_9846" data-name="Path 9846" d="M5739.657,1447.642a127.15,127.15,0,0,0-12.052-8.848c-4.626-2.912-9.543-5.308-13.881-5.826a12.133,12.133,0,0,0-7.3,1.257,14.618,14.618,0,0,0-5.55,5.589c-1.719,2.864-4.786,10.042-7.682,19.227a174.851,174.851,0,0,0-5,19.672c-.046.72.424.785.767.538a1.164,1.164,0,0,0,.373-.668,173.973,173.973,0,0,1,4.9-19.213c2.873-9.107,5.894-16.19,7.577-18.995a13.56,13.56,0,0,1,5.127-5.184,11.072,11.072,0,0,1,6.661-1.134c4.156.5,8.921,2.826,13.425,5.661a124.266,124.266,0,0,1,11.636,8.575C5739.209,1448.74,5739.987,1448.479,5739.657,1447.642Z" transform="translate(-5681.224 -1432.863)" fill="#4b9cf8" fill-rule="evenodd"/>
          </g>
        </g>
      </g>
    </g>
  </g>
</svg>
