<svg xmlns="http://www.w3.org/2000/svg" width="187.76" height="67.052" viewBox="0 0 187.76 67.052">
  <g id="brand" transform="translate(-471.176 -145.664)">
    <g id="Group_57625" data-name="Group 57625" transform="translate(61 -59.379)">
      <path id="Path_11155" data-name="Path 11155" d="M500.238,330.7a6.566,6.566,0,0,1,6.587,6.588v9.857a6.566,6.566,0,0,1-6.587,6.587H474.12a.175.175,0,0,1-.127-.058.2.2,0,0,1-.058-.15V330.908a.2.2,0,0,1,.058-.15.177.177,0,0,1,.127-.058Zm1.98,5.919a1.923,1.923,0,0,0-.576-1.393,1.893,1.893,0,0,0-1.4-.587h-21.7v15.154h21.7a1.893,1.893,0,0,0,1.4-.587,1.923,1.923,0,0,0,.576-1.393Z" transform="translate(0 -105.663)" fill="#fff"/>
      <path id="Path_11156" data-name="Path 11156" d="M571.32,353.546a.176.176,0,0,1-.057.127.2.2,0,0,1-.15.058H566.9a.2.2,0,0,1-.184-.184v-22.64a.2.2,0,0,1,.058-.15.177.177,0,0,1,.127-.058h4.215a.2.2,0,0,1,.207.208Z" transform="translate(-52.98 -105.663)" fill="#fff"/>
      <path id="Path_11157" data-name="Path 11157" d="M593.56,330.907a.2.2,0,0,1,.058-.15.177.177,0,0,1,.127-.057h32.52a.177.177,0,0,1,.126.057.2.2,0,0,1,.058.15v3.547a.2.2,0,0,1-.184.184H612.307v18.886a.2.2,0,0,1-.057.149.175.175,0,0,1-.127.058h-4.214a.2.2,0,0,1-.207-.207V334.638H593.745a.2.2,0,0,1-.184-.184Z" transform="translate(-68.31 -105.663)" fill="#fff"/>
      <path id="Path_11158" data-name="Path 11158" d="M690.943,338.254a1.909,1.909,0,0,0,.576,1.4,1.883,1.883,0,0,0,1.382.576h19.761a6.567,6.567,0,0,1,6.564,6.587v.323a6.587,6.587,0,0,1-6.564,6.587H687.834a.176.176,0,0,1-.127-.058.2.2,0,0,1-.058-.149v-3.547a.2.2,0,0,1,.058-.15.179.179,0,0,1,.127-.057h24.828a1.965,1.965,0,0,0,1.957-1.958v-1.658a1.924,1.924,0,0,0-.575-1.393,1.868,1.868,0,0,0-1.382-.588H692.9a6.566,6.566,0,0,1-6.563-6.564v-.345A6.566,6.566,0,0,1,692.9,330.7h24.828a.2.2,0,0,1,.185.184v3.57a.178.178,0,0,1-.058.127.176.176,0,0,1-.127.057H692.9a1.886,1.886,0,0,0-1.382.576,1.91,1.91,0,0,0-.576,1.4Z" transform="translate(-121.29 -105.663)" fill="#fff"/>
      <path id="Path_11159" data-name="Path 11159" d="M478.029,399.4a1.021,1.021,0,0,1,1.025,1.024v1.534a1.022,1.022,0,0,1-1.025,1.025h-4.064a.026.026,0,0,1-.02-.009.03.03,0,0,1-.009-.023V399.43a.03.03,0,0,1,.009-.024.027.027,0,0,1,.02-.009Zm.308.921a.308.308,0,0,0-.308-.308h-3.376v2.358h3.376a.308.308,0,0,0,.308-.308Z" transform="translate(0 -144.893)" fill="#fff"/>
      <path id="Path_11160" data-name="Path 11160" d="M492.512,400.882h3.86a.031.031,0,0,1,.024.009.031.031,0,0,1,.009.023v.552a.033.033,0,0,1-.009.024.032.032,0,0,1-.024.009h-3.86v.562a.3.3,0,0,0,.09.217.3.3,0,0,0,.219.091h4.064a.033.033,0,0,1,.024.009.028.028,0,0,1,.009.02v.552a.032.032,0,0,1-.009.024.032.032,0,0,1-.024.009H492.82a1.022,1.022,0,0,1-1.025-1.025v-1.534a1.021,1.021,0,0,1,1.025-1.025h4.064a.034.034,0,0,1,.024.009.031.031,0,0,1,.009.023v.552a.026.026,0,0,1-.009.02.032.032,0,0,1-.024.009H492.82a.3.3,0,0,0-.219.091.3.3,0,0,0-.09.217Z" transform="translate(-10.198 -144.893)" fill="#fff"/>
      <path id="Path_11161" data-name="Path 11161" d="M514.07,399.43a.035.035,0,0,1,.009-.022.03.03,0,0,1,.023-.01h.656a.03.03,0,0,1,.023.01.035.035,0,0,1,.009.022V401.1a.716.716,0,0,1-.34.61l-1.9,1.179a.621.621,0,0,1-.649,0l-1.9-1.179a.716.716,0,0,1-.337-.61V399.43a.033.033,0,0,1,.009-.022.027.027,0,0,1,.02-.01h.655a.032.032,0,0,1,.024.01.035.035,0,0,1,.009.022v1.5a.3.3,0,0,0,.147.261l1.591.99a.2.2,0,0,0,.215,0l1.595-.99a.3.3,0,0,0,.143-.261Z" transform="translate(-20.401 -144.893)" fill="#fff"/>
      <path id="Path_11162" data-name="Path 11162" d="M528.262,400.882h3.859a.03.03,0,0,1,.024.009.032.032,0,0,1,.009.023v.552a.033.033,0,0,1-.009.024.032.032,0,0,1-.024.009h-3.859v.562a.3.3,0,0,0,.089.217.3.3,0,0,0,.219.091h4.064a.033.033,0,0,1,.023.009.028.028,0,0,1,.009.02v.552a.032.032,0,0,1-.009.024.031.031,0,0,1-.023.009H528.57a1.023,1.023,0,0,1-1.025-1.025v-1.534a1.022,1.022,0,0,1,1.025-1.025h4.064a.033.033,0,0,1,.023.009.031.031,0,0,1,.009.023v.552a.026.026,0,0,1-.009.02.031.031,0,0,1-.023.009H528.57a.3.3,0,0,0-.219.091.3.3,0,0,0-.089.217Z" transform="translate(-30.613 -144.893)" fill="#fff"/>
      <path id="Path_11163" data-name="Path 11163" d="M550.53,402.953a.03.03,0,0,1-.009.02.027.027,0,0,1-.02.009h-4.064a1.022,1.022,0,0,1-1.025-1.025V399.43a.031.031,0,0,1,.009-.024.029.029,0,0,1,.02-.009h.655a.036.036,0,0,1,.024.009.034.034,0,0,1,.009.024v2.63a.3.3,0,0,0,.09.217.3.3,0,0,0,.219.091H550.5a.03.03,0,0,1,.029.028Z" transform="translate(-40.816 -144.893)" fill="#fff"/>
      <path id="Path_11164" data-name="Path 11164" d="M567.367,399.4a1.021,1.021,0,0,1,1.025,1.024v1.534a1.022,1.022,0,0,1-1.025,1.025H564.3a1.026,1.026,0,0,1-1.025-1.025v-1.534A1.025,1.025,0,0,1,564.3,399.4Zm.308.921a.308.308,0,0,0-.308-.308H564.3a.313.313,0,0,0-.308.308v1.742a.313.313,0,0,0,.308.308h3.071a.308.308,0,0,0,.308-.308Z" transform="translate(-51.013 -144.893)" fill="#fff"/>
      <path id="Path_11165" data-name="Path 11165" d="M581.137,399.427a.026.026,0,0,1,.009-.02.028.028,0,0,1,.02-.009h4.067a1.022,1.022,0,0,1,1.021,1.021v.358a1.022,1.022,0,0,1-1.021,1.025h-3.38v1.147a.03.03,0,0,1-.032.032h-.655a.026.026,0,0,1-.02-.009.03.03,0,0,1-.009-.023Zm4.1,1.763a.292.292,0,0,0,.215-.092.3.3,0,0,0,.089-.217v-.563a.3.3,0,0,0-.3-.308h-3.38v1.179Z" transform="translate(-61.216 -144.893)" fill="#fff"/>
      <path id="Path_11166" data-name="Path 11166" d="M611.489,402.953a.028.028,0,0,1-.009.02.031.031,0,0,1-.023.009H610.8a.027.027,0,0,1-.02-.009.028.028,0,0,1-.009-.02V399.43a.032.032,0,0,1,.009-.024.03.03,0,0,1,.02-.009h.656a.035.035,0,0,1,.023.009.032.032,0,0,1,.009.024Z" transform="translate(-78.139 -144.893)" fill="#fff"/>
      <path id="Path_11167" data-name="Path 11167" d="M618.372,399.43a.033.033,0,0,1,.009-.024.03.03,0,0,1,.019-.009h5.06a.03.03,0,0,1,.02.009.032.032,0,0,1,.009.024v.552a.026.026,0,0,1-.009.02.028.028,0,0,1-.02.009h-2.171v2.938a.032.032,0,0,1-.009.024.028.028,0,0,1-.02.009H620.6a.03.03,0,0,1-.032-.032v-2.938H618.4a.027.027,0,0,1-.019-.009.027.027,0,0,1-.009-.02Z" transform="translate(-82.479 -144.893)" fill="#fff"/>
      <path id="Path_11168" data-name="Path 11168" d="M648.724,400.573a.307.307,0,0,0,.3.308H652.1a1.021,1.021,0,0,1,1.021,1.024v.051a.991.991,0,0,1-.3.724.981.981,0,0,1-.722.3H648.24a.028.028,0,0,1-.02-.009.034.034,0,0,1-.009-.024V402.4a.034.034,0,0,1,.009-.024.028.028,0,0,1,.02-.008H652.1a.306.306,0,0,0,.3-.305V401.8a.3.3,0,0,0-.089-.217.292.292,0,0,0-.215-.091h-3.075a1.022,1.022,0,0,1-1.021-1.021v-.054a1.021,1.021,0,0,1,1.021-1.021h3.863a.033.033,0,0,1,.02.009.031.031,0,0,1,.009.02v.556a.03.03,0,0,1-.029.029h-3.863a.306.306,0,0,0-.3.308Z" transform="translate(-99.402 -144.893)" fill="#fff"/>
      <path id="Path_11169" data-name="Path 11169" d="M666.582,400.882h3.86a.029.029,0,0,1,.023.009.03.03,0,0,1,.009.023v.552a.032.032,0,0,1-.009.024.031.031,0,0,1-.023.009h-3.86v.562a.3.3,0,0,0,.09.217.3.3,0,0,0,.219.091h4.064a.034.034,0,0,1,.024.009.028.028,0,0,1,.009.02v.552a.031.031,0,0,1-.033.033H666.89a1.022,1.022,0,0,1-1.025-1.025v-1.534a1.021,1.021,0,0,1,1.025-1.025h4.064a.034.034,0,0,1,.024.009.031.031,0,0,1,.009.023v.552a.026.026,0,0,1-.009.02.033.033,0,0,1-.024.009H666.89a.3.3,0,0,0-.219.091.3.3,0,0,0-.09.217Z" transform="translate(-109.599 -144.893)" fill="#fff"/>
      <path id="Path_11170" data-name="Path 11170" d="M688.849,400.781a.992.992,0,0,1-.165.561,1.013,1.013,0,0,1-.437.371l.015.028.57,1.2a.04.04,0,0,1,0,.029.026.026,0,0,1-.025.015h-.728a.032.032,0,0,1-.028-.018l-.552-1.157h-3.047v1.146a.027.027,0,0,1-.009.02.03.03,0,0,1-.023.009h-.656a.025.025,0,0,1-.019-.009.028.028,0,0,1-.009-.02V399.43a.031.031,0,0,1,.009-.023.027.027,0,0,1,.019-.009h4.068a1.021,1.021,0,0,1,1.021,1.025Zm-4.4.409h3.38a.307.307,0,0,0,.3-.308v-.563a.306.306,0,0,0-.3-.3h-3.38Z" transform="translate(-119.802 -144.893)" fill="#fff"/>
      <path id="Path_11171" data-name="Path 11171" d="M706,399.43a.035.035,0,0,1,.009-.022.03.03,0,0,1,.023-.01h.656a.031.031,0,0,1,.023.01.036.036,0,0,1,.009.022V401.1a.716.716,0,0,1-.34.61l-1.9,1.179a.621.621,0,0,1-.648,0l-1.9-1.179a.716.716,0,0,1-.337-.61V399.43a.034.034,0,0,1,.009-.022.028.028,0,0,1,.02-.01h.656a.032.032,0,0,1,.024.01.035.035,0,0,1,.009.022v1.5a.3.3,0,0,0,.147.261l1.591.99a.2.2,0,0,0,.215,0l1.6-.99a.3.3,0,0,0,.143-.261Z" transform="translate(-130 -144.893)" fill="#fff"/>
      <path id="Path_11172" data-name="Path 11172" d="M720.19,402.953a.028.028,0,0,1-.009.02.03.03,0,0,1-.023.009H719.5a.025.025,0,0,1-.019-.009.029.029,0,0,1-.009-.02V399.43a.033.033,0,0,1,.009-.024.029.029,0,0,1,.019-.009h.656a.034.034,0,0,1,.023.009.032.032,0,0,1,.009.024Z" transform="translate(-140.212 -144.893)" fill="#fff"/>
      <path id="Path_11173" data-name="Path 11173" d="M732.162,402.369a.034.034,0,0,1,.024.009.027.027,0,0,1,.008.019v.552a.032.032,0,0,1-.008.023.034.034,0,0,1-.024.009H728.1a1.023,1.023,0,0,1-1.025-1.025v-1.534A1.022,1.022,0,0,1,728.1,399.4h4.064a.036.036,0,0,1,.024.009.032.032,0,0,1,.008.023v.552a.026.026,0,0,1-.008.019.034.034,0,0,1-.024.009H728.1a.3.3,0,0,0-.218.091.3.3,0,0,0-.089.217v1.742a.3.3,0,0,0,.089.217.3.3,0,0,0,.218.091Z" transform="translate(-144.552 -144.893)" fill="#fff"/>
      <path id="Path_11174" data-name="Path 11174" d="M745.657,400.882h3.859a.03.03,0,0,1,.023.009.031.031,0,0,1,.009.023v.552a.033.033,0,0,1-.009.024.031.031,0,0,1-.023.009h-3.859v.562a.3.3,0,0,0,.089.217.3.3,0,0,0,.219.091h4.064a.033.033,0,0,1,.023.009.029.029,0,0,1,.009.02v.552a.033.033,0,0,1-.009.024.032.032,0,0,1-.023.009h-4.064a1.022,1.022,0,0,1-1.025-1.025v-1.534a1.021,1.021,0,0,1,1.025-1.025h4.064a.033.033,0,0,1,.023.009.031.031,0,0,1,.009.023v.552a.026.026,0,0,1-.009.02.032.032,0,0,1-.023.009h-4.064a.308.308,0,0,0-.308.308Z" transform="translate(-154.754 -144.893)" fill="#fff"/>
    </g>
    <path id="Path_11175" data-name="Path 11175" d="M568.653,196.223l6.482,8.754-4.217,5.7L560.23,196.223l-1.966-2.66a2.627,2.627,0,0,1,0-3.118l2.4-3.244,10.689-14.454,4.148,5.615-6.536,8.839-1.94,2.624a3.928,3.928,0,0,0-.158,3.985Z" transform="translate(-86.575 -10.089)" fill="#fff"/>
    <path id="Path_11176" data-name="Path 11176" d="M625.05,178.424l-5.552,7.508-13.571,18.35a5.991,5.991,0,0,1-4.816,2.434h-18.5c.284-.005,2.45-.126,4.564-2.907L600.4,185.933l5.526-7.471c1.047-1.435,1.441-3.281.395-4.711L600.07,165.3l-12.708-17.188c-2-2.345-3.938-2.45-4.206-2.456h2.392l16.073.006a6,6,0,0,1,4.827,2.439l12.665,17.2,6.22,8.444a3.9,3.9,0,0,1-.284,4.679" transform="translate(-100.773 6)" fill="#fff"/>
    <path id="Path_11177" data-name="Path 11177" d="M582.565,288h0" transform="translate(-62.013 -81.279)" fill="#fff"/>
    <path id="Path_11178" data-name="Path 11178" d="M583.8,145.664h0Z" transform="translate(-62.737)" fill="#fff"/>
    <path id="Path_11179" data-name="Path 11179" d="M659.082,151.42a2.418,2.418,0,0,1-.949-.182,2.338,2.338,0,0,1-1.27-1.276,2.473,2.473,0,0,1-.182-.956,2.439,2.439,0,0,1,.182-.942,2.34,2.34,0,0,1,1.27-1.276,2.426,2.426,0,0,1,.949-.182,2.473,2.473,0,0,1,.955.182,2.265,2.265,0,0,1,.761.509,2.391,2.391,0,0,1,.5.767,2.44,2.44,0,0,1,.183.942,2.474,2.474,0,0,1-.183.956,2.386,2.386,0,0,1-.5.767,2.257,2.257,0,0,1-.761.509,2.465,2.465,0,0,1-.955.182m0-.415a2.006,2.006,0,0,0,.785-.151,1.876,1.876,0,0,0,.622-.422,1.977,1.977,0,0,0,.415-.634,2.153,2.153,0,0,0,0-1.584,1.895,1.895,0,0,0-1.037-1.043,2.119,2.119,0,0,0-1.571,0,1.9,1.9,0,0,0-1.037,1.043,2.159,2.159,0,0,0,0,1.584,1.984,1.984,0,0,0,.415.634,1.873,1.873,0,0,0,.622.422,2.008,2.008,0,0,0,.786.151m-.842-.679a.078.078,0,0,1-.088-.088v-2.489a.078.078,0,0,1,.088-.088h1.006a1.008,1.008,0,0,1,.679.207.735.735,0,0,1,.239.585.768.768,0,0,1-.139.465.789.789,0,0,1-.39.276l.541,1.043c.025.059.008.088-.05.088h-.353a.121.121,0,0,1-.113-.088l-.5-.98h-.478a.045.045,0,0,0-.051.05v.93a.078.078,0,0,1-.088.088Zm1.006-1.5q.44,0,.44-.377t-.44-.365h-.566a.045.045,0,0,0-.051.051v.641a.044.044,0,0,0,.051.05Z" transform="translate(-140.355 5.463)" fill="#fff"/>
  </g>
</svg>
