<svg xmlns="http://www.w3.org/2000/svg" width="13.553" height="13.553" viewBox="0 0 13.553 13.553">
  <path id="copyright" d="M14.776,8a6.776,6.776,0,1,0,6.776,6.776A6.776,6.776,0,0,0,14.776,8Zm0,12.241a5.465,5.465,0,1,1,5.465-5.465A5.462,5.462,0,0,1,14.776,20.241Zm3.018-2.235c-1.449-2.631-1.373-2.5-1.456-2.625a2.265,2.265,0,0,0,1.079-2c0-1.435-.826-2.329-2.773-2.329h-2.15a.328.328,0,0,0-.328.328v6.785a.328.328,0,0,0,.328.328h1.054a.328.328,0,0,0,.328-.328V15.879h.873l1.3,2.44a.327.327,0,0,0,.289.174h1.17A.328.328,0,0,0,17.794,18.006ZM14.8,14.337h-.926V12.584h.748c.886,0,1.064.332,1.064.866A.8.8,0,0,1,14.8,14.337Z" transform="translate(-8 -8)" fill="#5b5b5b"/>
</svg>
