<svg xmlns="http://www.w3.org/2000/svg" xmlns:xlink="http://www.w3.org/1999/xlink" width="50.835" height="42.57" viewBox="0 0 50.835 42.57">
  <defs>
    <linearGradient id="linear-gradient" y1="0.5" x2="1" y2="0.5" gradientUnits="objectBoundingBox">
      <stop offset="0" stop-color="#de7120"/>
      <stop offset="0.54" stop-color="#de7120"/>
    </linearGradient>
  </defs>
  <g id="correctlyJob" transform="translate(0)">
    <g id="Group_612" data-name="Group 612" transform="translate(0 7.368)">
      <path id="Path_1362" data-name="Path 1362" d="M88.267,205.984a1.057,1.057,0,0,1-1.058-1.061v-2.6H82.97v2.6a1.057,1.057,0,0,1-1.311,1.029l-19.295-4.764a.9.9,0,0,1-.149-.048l-1.885-.775a1.062,1.062,0,0,1-.659-.982V188.66a3.185,3.185,0,0,1,3.177-3.184h44.48a3.185,3.185,0,0,1,3.177,3.184v10.725a1.064,1.064,0,0,1-.657.982l-1.885.775a.964.964,0,0,1-.149.048l-19.3,4.764A1.043,1.043,0,0,1,88.267,205.984Zm-5.3-5.781h4.238a2.122,2.122,0,0,1,2.117,2.121v1.245l17.907-4.42,1.156-.474V188.66a1.059,1.059,0,0,0-1.058-1.061H62.849a1.059,1.059,0,0,0-1.058,1.061v10.015l1.156.474,17.907,4.42v-1.245A2.122,2.122,0,0,1,82.97,200.2Zm26.476-.818h0Z" transform="translate(-59.672 -185.476)" fill="url(#linear-gradient)"/>
    </g>
    <g id="Group_613" data-name="Group 613" transform="translate(1.887 20.991)">
      <path id="Path_1363" data-name="Path 1363" d="M104.468,213.632H63.758a3.184,3.184,0,0,1-3.175-3.184V193.114a1.057,1.057,0,0,1,1.311-1.029l19.3,4.762a1.062,1.062,0,0,1,.8,1.032v3.766h4.238v-3.766a1.061,1.061,0,0,1,.806-1.032l19.295-4.762a1.059,1.059,0,0,1,1.313,1.029v17.335A3.185,3.185,0,0,1,104.468,213.632ZM62.7,194.468v15.98a1.061,1.061,0,0,0,1.058,1.061h40.71a1.061,1.061,0,0,0,1.058-1.061v-15.98l-17.178,4.24v2.935a2.122,2.122,0,0,1-2.117,2.121H81.994a2.122,2.122,0,0,1-2.117-2.121v-2.935Z" transform="translate(-60.583 -192.053)" fill="url(#linear-gradient)"/>
    </g>
    <g id="Group_614" data-name="Group 614" transform="translate(15.51)">
      <path id="Path_1364" data-name="Path 1364" d="M85.916,191.408h-17.7a1.059,1.059,0,0,1-1.058-1.061V185.1a3.185,3.185,0,0,1,3.177-3.184H83.8a3.185,3.185,0,0,1,3.177,3.184v5.245A1.059,1.059,0,0,1,85.916,191.408Zm-16.639-2.123H84.858V185.1a1.061,1.061,0,0,0-1.061-1.061H70.337a1.063,1.063,0,0,0-1.061,1.061Z" transform="translate(-67.16 -181.919)" fill="url(#linear-gradient)"/>
    </g>
    <g id="Group_615" data-name="Group 615" transform="translate(21.182 22.095)">
      <path id="Path_1365" data-name="Path 1365" d="M76.253,203.193H72.015a2.122,2.122,0,0,1-2.117-2.121v-6.365a2.122,2.122,0,0,1,2.117-2.121h4.238a2.122,2.122,0,0,1,2.117,2.121v6.365A2.122,2.122,0,0,1,76.253,203.193Zm-4.238-8.486v6.365h4.238v-6.363Zm4.238,0h0Z" transform="translate(-69.898 -192.586)" fill="url(#linear-gradient)"/>
    </g>
  </g>
</svg>
