<svg xmlns="http://www.w3.org/2000/svg" xmlns:xlink="http://www.w3.org/1999/xlink" width="360.036" height="193.926" viewBox="0 0 360.036 193.926">
  <defs>
    <linearGradient id="linear-gradient" x1="-19.826" y1="0.5" x2="-20.826" y2="0.5" gradientUnits="objectBoundingBox">
      <stop offset="0" stop-color="#3d342b"/>
      <stop offset="1" stop-color="#291c17"/>
    </linearGradient>
    <linearGradient id="linear-gradient-2" x1="-24.215" y1="0.5" x2="-25.215" y2="0.5" xlink:href="#linear-gradient"/>
    <linearGradient id="linear-gradient-3" x1="-8.066" y1="0.5" x2="-9.066" y2="0.5" xlink:href="#linear-gradient"/>
    <linearGradient id="linear-gradient-4" x1="-11.026" y1="0.5" x2="-12.026" y2="0.5" xlink:href="#linear-gradient"/>
    <linearGradient id="linear-gradient-5" x1="38.036" y1="0.5" x2="37.036" y2="0.5" xlink:href="#linear-gradient"/>
    <linearGradient id="linear-gradient-6" x1="-28.574" y1="-80.099" x2="-29.654" y2="-80.099" xlink:href="#linear-gradient"/>
    <linearGradient id="linear-gradient-7" x1="1" y1="0.5" x2="0" y2="0.5" xlink:href="#linear-gradient"/>
    <linearGradient id="linear-gradient-8" x1="-58.826" y1="-126.784" x2="-59.84" y2="-126.784" xlink:href="#linear-gradient"/>
  </defs>
  <g id="descripe-web-development" transform="translate(-37.155 -59.404)">
    <g id="Group_56252" data-name="Group 56252" transform="translate(97.393 59.404)">
      <path id="Path_10437" data-name="Path 10437" d="M158.835,151.841c0,3.637,21.921,6.587,48.959,6.587s48.959-2.95,48.959-6.587-21.921-6.586-48.959-6.586S158.835,148.2,158.835,151.841Z" transform="translate(-84.654 16.366)" fill="#8686fe"/>
      <path id="Path_10438" data-name="Path 10438" d="M207.794,154.516c27.038,0,48.959-2.95,48.959-6.586v3.048c0,3.634-21.921,6.582-48.959,6.582s-48.959-2.947-48.959-6.582V147.93C158.835,151.567,180.756,154.516,207.794,154.516Z" transform="translate(-84.654 20.278)" fill="#636ec7"/>
      <path id="Path_10439" data-name="Path 10439" d="M173.114,158.917s3.056,2.174,13.828,2.174,13.727-2.174,13.727-2.174l-.869-21.328H173.983Z" transform="translate(-63.728 5.157)" fill="#636ec7"/>
      <g id="Group_56250" data-name="Group 56250">
        <g id="Group_56249" data-name="Group 56249">
          <g id="Group_56248" data-name="Group 56248">
            <path id="Rectangle_3008" data-name="Rectangle 3008" d="M1.77,0H244.559a1.769,1.769,0,0,1,1.769,1.769V143.156a1.769,1.769,0,0,1-1.769,1.769H1.768A1.768,1.768,0,0,1,0,143.156V1.77A1.77,1.77,0,0,1,1.77,0Z" fill="#8686fe"/>
          </g>
        </g>
      </g>
      <rect id="Rectangle_3009" data-name="Rectangle 3009" width="232.4" height="130.997" transform="translate(6.963 6.962)" fill="#d7ddff"/>
      <path id="Path_10440" data-name="Path 10440" d="M139.071,84.624H349.987a5.386,5.386,0,0,1,5.37,5.37V210.25H133.7V89.994A5.387,5.387,0,0,1,139.071,84.624Z" transform="translate(-121.364 -72.291)" fill="#bfd4e6" opacity="0.6" style="mix-blend-mode: multiply;isolation: isolate"/>
      <path id="Path_10441" data-name="Path 10441" d="M141.249,89.531H341.408a5.388,5.388,0,0,1,5.37,5.37l.017,108.174H135.879V94.9A5.386,5.386,0,0,1,141.249,89.531Z" transform="translate(-118.172 -65.116)" fill="#e3f0e3"/>
      <g id="Group_56251" data-name="Group 56251" transform="translate(208.204 16.684)">
        <path id="Path_10442" data-name="Path 10442" d="M136.265,88.405a2.014,2.014,0,1,0,2.014-2.014A2.013,2.013,0,0,0,136.265,88.405Z" transform="translate(-120.824 -86.391)" fill="#b2b2b2" style="mix-blend-mode: multiply;isolation: isolate"/>
        <path id="Path_10443" data-name="Path 10443" d="M139.4,88.405a2.015,2.015,0,1,0,2.014-2.014A2.014,2.014,0,0,0,139.4,88.405Z" transform="translate(-131.681 -86.391)" fill="#b2b2b2" style="mix-blend-mode: multiply;isolation: isolate"/>
        <path id="Path_10444" data-name="Path 10444" d="M142.536,88.405a2.014,2.014,0,1,0,2.014-2.014A2.013,2.013,0,0,0,142.536,88.405Z" transform="translate(-142.536 -86.391)" fill="#b2b2b2" style="mix-blend-mode: multiply;isolation: isolate"/>
      </g>
      <path id="Path_10445" data-name="Path 10445" d="M139.9,94.446a2.016,2.016,0,0,0,2.017,2.014h28.643a2.013,2.013,0,0,0,2.014-2.014h0a2.013,2.013,0,0,0-2.014-2.012H141.918a2.015,2.015,0,0,0-2.017,2.012Z" transform="translate(46.145 -60.871)" fill="#bfd4e6" opacity="0.6" style="mix-blend-mode: multiply;isolation: isolate"/>
      <path id="Path_10446" data-name="Path 10446" d="M177.935,94.446a2.013,2.013,0,0,0,2.014,2.014h15.217a2.015,2.015,0,0,0,2.017-2.014h0a2.015,2.015,0,0,0-2.017-2.012H179.949a2.013,2.013,0,0,0-2.014,2.012Z" transform="translate(-72.112 -60.871)" fill="#e0e0cf"/>
      <path id="Path_10447" data-name="Path 10447" d="M188.978,94.446a2.015,2.015,0,0,0,2.017,2.014h15.217a2.015,2.015,0,0,0,2.014-2.014h0a2.014,2.014,0,0,0-2.014-2.012H190.995a2.015,2.015,0,0,0-2.017,2.012Z" transform="translate(-110.345 -60.871)" fill="#bfd4e6" opacity="0.6" style="mix-blend-mode: multiply;isolation: isolate"/>
      <path id="Path_10448" data-name="Path 10448" d="M200.02,94.446a2.014,2.014,0,0,0,2.017,2.014h15.214a2.015,2.015,0,0,0,2.017-2.014h0a2.015,2.015,0,0,0-2.017-2.012H202.037a2.013,2.013,0,0,0-2.017,2.012Z" transform="translate(-148.575 -60.871)" fill="#bfd4e6" opacity="0.6" style="mix-blend-mode: multiply;isolation: isolate"/>
      <path id="Path_10449" data-name="Path 10449" d="M211.062,94.446a2.013,2.013,0,0,0,2.014,2.014h15.217a2.015,2.015,0,0,0,2.017-2.014h0a2.015,2.015,0,0,0-2.017-2.012H213.076a2.013,2.013,0,0,0-2.014,2.012Z" transform="translate(-186.805 -60.871)" fill="#bfd4e6" opacity="0.6" style="mix-blend-mode: multiply;isolation: isolate"/>
    </g>
    <rect id="Rectangle_3010" data-name="Rectangle 3010" width="298.476" height="2.164" transform="translate(37.155 234.799)" fill="#b7c9f1"/>
    <g id="Group_56280" data-name="Group 56280" transform="translate(187.005 79.903)">
      <g id="Group_56279" data-name="Group 56279" transform="translate(0 0)">
        <rect id="Rectangle_3011" data-name="Rectangle 3011" width="92.337" height="90.608" transform="translate(13.796 104.838) rotate(-98.593)" fill="#fff"/>
        <g id="Group_56278" data-name="Group 56278" transform="translate(11.204 8.775)">
          <g id="Group_56254" data-name="Group 56254">
            <g id="Group_56253" data-name="Group 56253">
              <path id="Path_10450" data-name="Path 10450" d="M165.031,161.227a3.452,3.452,0,0,0,3.92,2.888l61.7-9.315a3.458,3.458,0,0,0,2.891-3.92l-8.527-56.447a3.46,3.46,0,0,0-3.922-2.891l-61.7,9.317a3.456,3.456,0,0,0-2.888,3.92Z" transform="translate(-156.468 -91.504)" fill="#6abbdb"/>
            </g>
          </g>
          <g id="Group_56255" data-name="Group 56255" transform="translate(44.669 69.41)">
            <path id="Path_10451" data-name="Path 10451" d="M165.274,122.408l.613,4.085a1.226,1.226,0,0,0,.165.588.286.286,0,0,0,.111.066,1.934,1.934,0,0,0,.606-.069l1.573-.231a.927.927,0,0,0,.291-.071.421.421,0,0,0,.126-.165,2.161,2.161,0,0,0-.074-.648l-.65-4.3a1.166,1.166,0,0,0-.069-.315.326.326,0,0,0-.288-.145,4.992,4.992,0,0,0-.6.076l-1.187.177a1.652,1.652,0,0,0-.544.126.249.249,0,0,0-.138.162A2.264,2.264,0,0,0,165.274,122.408Z" transform="translate(-157.813 -117.49)" fill="#6abbdb"/>
            <path id="Path_10452" data-name="Path 10452" d="M167.127,126.079a.873.873,0,0,0-.31.662.734.734,0,0,0,.458.7c.1.042.2.039.308.074,0,.081-.059.116-.1.148a.854.854,0,0,0-.19.3.769.769,0,0,0,.379.918,1.545,1.545,0,0,1,.241.069c.012.074-.057.1-.086.14a.872.872,0,0,0-.02.793.675.675,0,0,0,.586.32,5.609,5.609,0,0,0,.709-.106c1.374-.2,2.8-.414,4.233-.628.342-.052.7-.032.808-.244a1.419,1.419,0,0,0-.034-.625l-.305-2.014c-.069-.456-.116-.926-.2-1.347a5.428,5.428,0,0,0-2.275-3.391c-.1-.084-.246-.2-.369-.3a1.2,1.2,0,0,1-.364-.32,1.234,1.234,0,0,1-.052-.281c-.017-.1-.032-.195-.049-.291-.039-.185-.052-.382-.106-.554a.635.635,0,0,0-.6-.414.851.851,0,0,0-.736.539,2.905,2.905,0,0,0,.059,1.913,4.416,4.416,0,0,0,.414.785c.1.167.217.369.34.549.039.057.116.14.116.177,0,.116-.3.15-.446.167-.547.086-1.086.162-1.64.244a2.755,2.755,0,0,0-1.007.214.765.765,0,0,0-.332.731.937.937,0,0,0,.448.81,1.306,1.306,0,0,0,.261.084C167.258,125.993,167.172,126.029,167.127,126.079Z" transform="translate(-166.548 -119.694)" fill="#6abbdb"/>
          </g>
          <g id="Group_56256" data-name="Group 56256" transform="translate(11.038 15.869)" opacity="0.4" style="mix-blend-mode: color-dodge;isolation: isolate">
            <path id="Path_10453" data-name="Path 10453" d="M158.73,139.559l-.678-4.1,20.475-31.25,17.5,15.762,7.06-7.639,16.464,13.292.681,4.5Z" transform="translate(-158.052 -88.801)" fill="#6abbdb"/>
            <path id="Path_10454" data-name="Path 10454" d="M163.3,105.916a6.93,6.93,0,1,0,5.816-7.889A6.931,6.931,0,0,0,163.3,105.916Z" transform="translate(-127.624 -97.949)" fill="#6abbdb"/>
          </g>
          <path id="Path_10455" data-name="Path 10455" d="M164.481,119.188c-2.125-.872-3.258,1.258-3.359,1.46-.158-.165-1.859-1.866-3.634-.4-1.6,1.32-1.879,5.479,4.727,7.815l.03.007.027-.015C167.891,123.869,166.4,119.978,164.481,119.188Z" transform="translate(-89.255 -51.329)" fill="#f2577e"/>
          <g id="Group_56263" data-name="Group 56263" transform="translate(59.111 70.894)">
            <g id="Group_56258" data-name="Group 56258" transform="translate(0.331 2.212)" style="mix-blend-mode: multiply;isolation: isolate">
              <g id="Group_56257" data-name="Group 56257">
                <path id="Path_10456" data-name="Path 10456" d="M166.283,121.2a.544.544,0,1,1,.163,1.076l-4.408.665a.546.546,0,0,1-.623-.456.555.555,0,0,1,.463-.625Z" transform="translate(-161.409 -121.195)" fill="#d7ddff"/>
              </g>
            </g>
            <g id="Group_56260" data-name="Group 56260" transform="translate(0)" style="mix-blend-mode: multiply;isolation: isolate">
              <g id="Group_56259" data-name="Group 56259">
                <path id="Path_10457" data-name="Path 10457" d="M166.415,120.3a.553.553,0,0,1,.623.463.547.547,0,0,1-.458.621l-4.408.665a.545.545,0,1,1-.162-1.078Z" transform="translate(-161.546 -120.297)" fill="#d7ddff"/>
              </g>
            </g>
            <g id="Group_56262" data-name="Group 56262" transform="translate(0.665 4.416)" style="mix-blend-mode: multiply;isolation: isolate">
              <g id="Group_56261" data-name="Group 56261">
                <path id="Path_10458" data-name="Path 10458" d="M166.146,122.1a.547.547,0,0,1,.623.458.555.555,0,0,1-.461.625l-4.4.665a.548.548,0,1,1-.162-1.083Z" transform="translate(-161.275 -122.09)" fill="#d7ddff"/>
              </g>
            </g>
          </g>
          <g id="Group_56270" data-name="Group 56270" transform="translate(36.562 74.298)">
            <g id="Group_56265" data-name="Group 56265" transform="translate(0.333 2.21)" style="mix-blend-mode: multiply;isolation: isolate">
              <g id="Group_56264" data-name="Group 56264">
                <path id="Path_10459" data-name="Path 10459" d="M175.445,122.582a.548.548,0,0,1,.162,1.083l-4.41.665a.547.547,0,1,1-.162-1.081Z" transform="translate(-170.569 -122.577)" fill="#d7ddff"/>
              </g>
            </g>
            <g id="Group_56267" data-name="Group 56267" transform="translate(0)" style="mix-blend-mode: multiply;isolation: isolate">
              <g id="Group_56266" data-name="Group 56266">
                <path id="Path_10460" data-name="Path 10460" d="M175.576,121.684a.553.553,0,0,1,.62.47.536.536,0,0,1-.458.613l-4.4.667a.547.547,0,1,1-.165-1.081Z" transform="translate(-170.704 -121.679)" fill="#d7ddff"/>
              </g>
            </g>
            <g id="Group_56269" data-name="Group 56269" transform="translate(0.665 4.42)" style="mix-blend-mode: multiply;isolation: isolate">
              <g id="Group_56268" data-name="Group 56268">
                <path id="Path_10461" data-name="Path 10461" d="M175.306,123.481a.544.544,0,0,1,.165,1.076l-4.41.67a.556.556,0,0,1-.623-.458.541.541,0,0,1,.463-.62Z" transform="translate(-170.433 -123.474)" fill="#d7ddff"/>
              </g>
            </g>
          </g>
          <g id="Group_56277" data-name="Group 56277" transform="translate(11.888 78.025)">
            <g id="Group_56272" data-name="Group 56272" transform="translate(0.335 2.212)" style="mix-blend-mode: multiply;isolation: isolate">
              <g id="Group_56271" data-name="Group 56271">
                <path id="Path_10462" data-name="Path 10462" d="M185.459,124.1a.545.545,0,0,1,.162,1.078l-4.407.665a.542.542,0,0,1-.618-.458.537.537,0,0,1,.456-.618Z" transform="translate(-180.589 -124.091)" fill="#d7ddff"/>
              </g>
            </g>
            <g id="Group_56274" data-name="Group 56274" transform="translate(0)" style="mix-blend-mode: multiply;isolation: isolate">
              <g id="Group_56273" data-name="Group 56273">
                <path id="Path_10463" data-name="Path 10463" d="M185.593,123.2a.557.557,0,0,1,.628.463.551.551,0,0,1-.465.62l-4.4.662a.541.541,0,0,1-.623-.455.549.549,0,0,1,.458-.625Z" transform="translate(-180.723 -123.193)" fill="#d7ddff"/>
              </g>
            </g>
            <g id="Group_56276" data-name="Group 56276" transform="translate(0.668 4.417)" style="mix-blend-mode: multiply;isolation: isolate">
              <g id="Group_56275" data-name="Group 56275">
                <path id="Path_10464" data-name="Path 10464" d="M185.319,124.992a.553.553,0,0,1,.625.463.538.538,0,0,1-.458.618l-4.407.665a.545.545,0,1,1-.163-1.078Z" transform="translate(-180.453 -124.987)" fill="#d7ddff"/>
              </g>
            </g>
          </g>
          <path id="Path_10465" data-name="Path 10465" d="M175.359,123.468l9.632-1.45a.67.67,0,0,1,.8.591l.842,5.557a.76.76,0,0,1-.694.941l-6.4.965-1.514,2.056c-.143.2-.291.165-.327-.084l-.249-1.655-1.022.155a.442.442,0,0,1-.5-.369l-.938-6.2A.459.459,0,0,1,175.359,123.468Z" transform="translate(-155.113 -46.9)" fill="#7d8aef"/>
        </g>
      </g>
    </g>
    <g id="Group_56286" data-name="Group 56286" transform="translate(269.727 132.873)">
      <g id="Group_56281" data-name="Group 56281" transform="translate(17.097 13.221)">
        <path id="Path_10466" data-name="Path 10466" d="M156.306,119.337l-8.177-3.526s-1.344,1.123-1.344,2.024,7.271,7.8,7.271,7.8Z" transform="translate(-143.964 -113.378)" fill="#0c337d"/>
        <path id="Path_10467" data-name="Path 10467" d="M153.048,115.542a1.356,1.356,0,1,1-2.145-.46A1.586,1.586,0,0,1,153.048,115.542Z" transform="translate(-150.558 -114.823)" fill="#ffad97"/>
      </g>
      <g id="Group_56285" data-name="Group 56285" transform="translate(0)">
        <g id="Group_56282" data-name="Group 56282" transform="translate(22.954 101.414)">
          <path id="Path_10468" data-name="Path 10468" d="M148.336,150.78v2.631h-2.075v-2.77Z" transform="translate(-140.563 -150.641)" fill="#ffad97"/>
          <path id="Path_10469" data-name="Path 10469" d="M153.811,151.407a1.6,1.6,0,0,1,.549,1.31v1.908h-8.315a.955.955,0,0,1,.99-1.128,7.035,7.035,0,0,0,3.516-1.33c.483-.554.825-.761,1.187-.761Z" transform="translate(-146.038 -149.521)" fill="url(#linear-gradient)"/>
        </g>
        <g id="Group_56283" data-name="Group 56283" transform="translate(41.159 100.561)">
          <path id="Path_10470" data-name="Path 10470" d="M140.94,150.434v2.628h-2.071v-2.768Z" transform="translate(-133.171 -150.294)" fill="#ffad97"/>
          <path id="Path_10471" data-name="Path 10471" d="M146.414,151.058a1.606,1.606,0,0,1,.549,1.32v1.9h-8.31a.951.951,0,0,1,.985-1.125,7.1,7.1,0,0,0,3.521-1.33c.48-.554.82-.768,1.184-.768Z" transform="translate(-138.646 -149.178)" fill="url(#linear-gradient-2)"/>
        </g>
        <path id="Path_10472" data-name="Path 10472" d="M148.237,130.5s-2.017,15.978.18,25.25,3.772,24.216,3.772,24.216-.731.645-2.694.177c0,0-10.834-27.269-10.834-36.2s2.292-11.341,2.292-11.341S146.762,128.822,148.237,130.5Z" transform="translate(-102.749 -79.305)" fill="#666"/>
        <path id="Path_10473" data-name="Path 10473" d="M157.689,131.915s-6.939,16.221-7.549,27.011a186.253,186.253,0,0,1-3.3,23.583h-3.166s-3.287-27.959-1.586-50.382C142.459,127.19,155.283,129.173,157.689,131.915Z" transform="translate(-115.471 -80.719)" fill="#8c8c8c"/>
        <g id="Group_56284" data-name="Group 56284" transform="translate(25.496)">
          <path id="Path_10474" data-name="Path 10474" d="M144.729,110.956s-.064,2.691-.064,3.053a4.791,4.791,0,0,1-1.029,1.886c-.335.3.064.894.5.928s.364.6.364,1.128c0,1.128-.069,4.671,3.583,2.45a10.508,10.508,0,0,1,.463,3.134l5.725.108a21.831,21.831,0,0,1-.527-4.233C153.839,118.089,149.25,109.452,144.729,110.956Z" transform="translate(-142.266 -107.512)" fill="#ffad97"/>
          <path id="Path_10475" data-name="Path 10475" d="M144.922,110.25c2.583.266,8.61-2.649,10.1,1.258,0,0,1.211.037.913,2.071s.249,8.1-2.534,8.1-3.9-1.12-3.9-1.12,2.012-2.7.687-3.752c-.414-.315-.84-.049-.864.672s.071,4.041-.359,4.971a1.882,1.882,0,0,1-2.386,1.071c-1.539-.426-1.495-3.861-1.147-2.837a1.338,1.338,0,0,0,2.238.364c.628-.625,1.169-4.3,1.172-4.3-.022-1.758-.524-4.21-3.194-3.849a7.1,7.1,0,0,1-1.588.3C143.167,113.266,142.339,109.984,144.922,110.25Z" transform="translate(-143.188 -109.453)" fill="#444199"/>
        </g>
        <path id="Path_10476" data-name="Path 10476" d="M180.879,151.732s-.9-25.228-3.157-30.214-4.959-6.146-6.65-6.146-7.623.507-12.282,7.933-6.759,8.709-11.417,9.312-7.059.763-7.059.763a4.952,4.952,0,0,0,0,3.243s8.224.451,12.168-.64a29.6,29.6,0,0,0,7.771-3.775l.118,20.3s2.984,2.753,10.93,2.753S180.879,151.732,180.879,151.732Z" transform="translate(-134.828 -100.799)" fill="#0c4296"/>
        <path id="Path_10477" data-name="Path 10477" d="M161.283,124.1c0,.778-.958,1.408-2.14,1.408S157,124.875,157,124.1s.96-1.411,2.142-1.411S161.283,123.321,161.283,124.1Z" transform="translate(-157.001 -90.104)" fill="#ffad97"/>
      </g>
    </g>
    <g id="Group_56298" data-name="Group 56298" transform="translate(73.099 133.138)">
      <path id="Path_10478" data-name="Path 10478" d="M171.35,154c0,1.253,10.59,2.273,23.65,2.273s23.655-1.019,23.655-2.273-10.59-2.258-23.655-2.258S171.35,152.756,171.35,154Z" transform="translate(-53.076 -47.879)" fill="#3c4cb1" opacity="0.2" style="mix-blend-mode: multiply;isolation: isolate"/>
      <path id="Path_10479" data-name="Path 10479" d="M219.382,154c0,1.253,10.6,2.273,23.655,2.273s23.657-1.019,23.657-2.273-10.593-2.258-23.657-2.258S219.382,152.756,219.382,154Z" transform="translate(-219.382 -47.879)" fill="#3c4cb1" opacity="0.2" style="mix-blend-mode: multiply;isolation: isolate"/>
      <path id="Path_10480" data-name="Path 10480" d="M135.874,154c0,1.253,10.6,2.273,23.652,2.273s23.655-1.019,23.655-2.273-10.59-2.258-23.655-2.258S135.874,152.756,135.874,154Z" transform="translate(69.748 -47.879)" fill="#3c4cb1" opacity="0.2" style="mix-blend-mode: multiply;isolation: isolate"/>
      <g id="Group_56287" data-name="Group 56287" transform="translate(133.059 100.173)">
        <path id="Path_10481" data-name="Path 10481" d="M183.108,150.408v3.085h-2.76v-3.248Z" transform="translate(-172.742 -150.245)" fill="#ffad97"/>
        <path id="Path_10482" data-name="Path 10482" d="M190.415,151.145a1.8,1.8,0,0,1,.734,1.539v2.241h-11.09s-.2-1.32,1.322-1.32a10.02,10.02,0,0,0,4.683-1.566,2.281,2.281,0,0,1,1.591-.894Z" transform="translate(-180.05 -148.928)" fill="url(#linear-gradient-3)"/>
      </g>
      <g id="Group_56288" data-name="Group 56288" transform="translate(149.482 100.173)">
        <path id="Path_10483" data-name="Path 10483" d="M176.438,150.408v3.085h-2.76v-3.248Z" transform="translate(-166.073 -150.245)" fill="#ffad97"/>
        <path id="Path_10484" data-name="Path 10484" d="M183.745,151.145a1.8,1.8,0,0,1,.734,1.539v2.241h-11.09s-.2-1.32,1.325-1.32a10.127,10.127,0,0,0,4.693-1.566,2.243,2.243,0,0,1,1.578-.894Z" transform="translate(-173.38 -148.928)" fill="url(#linear-gradient-4)"/>
      </g>
      <path id="Path_10485" data-name="Path 10485" d="M176.618,131.769l1.214,54.77a12.7,12.7,0,0,0,4.792,0c1.6-8.349,1.812-26.7,4.1-38.793s3.964-14.606,3.964-20.025S176.618,131.769,176.618,131.769Z" transform="translate(-38.085 -85.459)" fill="#0c337d"/>
      <path id="Path_10486" data-name="Path 10486" d="M187.045,182.057a8.563,8.563,0,0,0,4.5-.251l-6.658-53.044H173.392Z" transform="translate(-30.99 -81.485)" fill="#0c4296"/>
      <path id="Path_10487" data-name="Path 10487" d="M202.062,116.665a90.389,90.389,0,0,1-8.217,9.669c-1.492,1.48-7.968-4.661-11.991-9a5.23,5.23,0,0,0-2.534,3.809s3.489,3.592,8.655,9.169c4.467,4.824,8.33,4.538,12.932-1.337S202.062,116.665,202.062,116.665Z" transform="translate(-57.346 -99.173)" fill="#b0bfde"/>
      <g id="Group_56290" data-name="Group 56290" transform="translate(144.647)">
        <g id="Group_56289" data-name="Group 56289" transform="translate(0)">
          <path id="Path_10488" data-name="Path 10488" d="M176.122,118.4a15.7,15.7,0,0,1,1.517-7.517,30.437,30.437,0,0,0,2.977.783c.995.283.707,1.716.633,2.408s.153,2.29.485,2.479c.325-.739.82-3.194,1.765-2.108s.5,1.411.155,2.839,1.391,1.5,1.391,1.5c-1.243,3.336-.891,4.343-1.522,5.028-1.431,1.573-5.2,2.472-4.718-.362.662-1.593,1.152-2.726,1.152-2.726C177.324,121.725,176.322,120.558,176.122,118.4Z" transform="translate(-175.773 -107.627)" fill="#ffad97"/>
          <path id="Path_10489" data-name="Path 10489" d="M176.5,112.818s-1.847-.739-1.866-1.876,2.644-.591,4.991-1.044,5.816-.958,6.791,2.223a3.084,3.084,0,0,1,.931,3.157c-.606,1.866-2.295,3.021-3.44,5.444,0,0-1.746-.079-1.391-1.5s.79-1.748-.155-2.839-1.44,1.369-1.765,2.108c-.332-.19-.552-1.79-.485-2.479s.362-2.125-.633-2.408A30.435,30.435,0,0,1,176.5,112.818Z" transform="translate(-174.631 -109.561)" fill="#143f58"/>
        </g>
        <path id="Path_10490" data-name="Path 10490" d="M182.9,112.972s-.7,3.356-2.167,3.341-3.1-1.214-3.383-.089,1.049,2.585,2.455,2.452,2.315-.7,2.61-1.591,1.007-4.324,1.007-4.324Z" transform="translate(-177.177 -104.879)" fill="#143f58"/>
      </g>
      <path id="Path_10491" data-name="Path 10491" d="M188.315,116.133s4.86,1.965,6.19,4.848-3.307,8.268-4.956,24.822a8.97,8.97,0,0,0,.7,3.226,67.022,67.022,0,0,1-16.29-1.672s1.571-15.283,3.13-21.453,2.334-8.15,6.365-10.009A11.776,11.776,0,0,1,188.315,116.133Z" transform="translate(-35.596 -100.512)" fill="#d2dbea"/>
      <path id="Path_10492" data-name="Path 10492" d="M177.982,134a6.287,6.287,0,0,0,.721-.8c1.046-1.406,1.27-3,.507-3.575-.633-.468-1.743-.079-2.691.862Z" transform="translate(-26.812 -80.513)" fill="#ffad97"/>
      <path id="Path_10493" data-name="Path 10493" d="M179.465,118.534c1.857,2.58,3.568,11.792,3.757,15.7s-7.293,12.525-8.773,13.653a3.592,3.592,0,0,1-1.918-2.659s5.341-8.559,5.774-11.211-3.4-9.024-3.738-11.681C174.312,120.358,177.043,115.161,179.465,118.534Z" transform="translate(-20.557 -98.065)" fill="#b0bfde"/>
      <path id="Path_10494" data-name="Path 10494" d="M192.377,116.736c.889,1.234.968,2.689.18,3.253s-2.137.01-3.014-1.226-.96-2.691-.185-3.25S191.5,115.5,192.377,116.736Z" transform="translate(-70.55 -101.185)" fill="#ffad97"/>
      <g id="Group_56297" data-name="Group 56297" transform="translate(117.987 7.882)">
        <path id="Rectangle_3012" data-name="Rectangle 3012" d="M.2,0H4.317a.206.206,0,0,1,.206.206V9.161a.207.207,0,0,1-.207.207H.207A.207.207,0,0,1,0,9.161V.2A.2.2,0,0,1,.2,0Z" fill="#0c4296"/>
        <g id="Group_56293" data-name="Group 56293" transform="translate(0.144 0.986)">
          <g id="Group_56292" data-name="Group 56292">
            <g id="Group_56291" data-name="Group 56291">
              <rect id="Rectangle_3013" data-name="Rectangle 3013" width="4.235" height="7.396" fill="#b5c9ff"/>
            </g>
          </g>
        </g>
        <g id="Group_56296" data-name="Group 56296" transform="translate(1.61 0.445)" opacity="0.6" style="mix-blend-mode: multiply;isolation: isolate">
          <g id="Group_56295" data-name="Group 56295">
            <g id="Group_56294" data-name="Group 56294">
              <path id="Path_10495" data-name="Path 10495" d="M190.8,112.985a.052.052,0,0,1-.047.044h-1.211a.045.045,0,0,1-.049-.044h0a.045.045,0,0,1,.049-.042h1.211c.017,0,.047.02.047.042Z" transform="translate(-189.494 -112.943)" fill="#ef4b00"/>
            </g>
          </g>
        </g>
        <path id="Path_10496" data-name="Path 10496" d="M189.525,116.525a.267.267,0,0,0,.266.263h.616a.268.268,0,0,0,.268-.263h0a.268.268,0,0,0-.268-.263h-.616a.267.267,0,0,0-.266.263Z" transform="translate(-187.834 -107.645)" fill="#0c4296"/>
      </g>
      <path id="Path_10497" data-name="Path 10497" d="M188.805,115.913c-.266.308-.1.894.377,1.32s1.086.51,1.354.2.1-.894-.379-1.312S189.074,115.618,188.805,115.913Z" transform="translate(-67.754 -100.527)" fill="#ffad97"/>
    </g>
    <g id="Group_56302" data-name="Group 56302" transform="translate(245.961 215.926)">
      <path id="Path_10498" data-name="Path 10498" d="M154.815,158.594c0,.633,6.609,1.145,14.764,1.143s14.761-.515,14.761-1.145-6.609-1.15-14.761-1.147S154.815,157.964,154.815,158.594Z" transform="translate(-150.91 -122.332)" fill="#473f66" opacity="0.2" style="mix-blend-mode: multiply;isolation: isolate"/>
      <g id="Group_56301" data-name="Group 56301" transform="translate(0)">
        <path id="Path_10499" data-name="Path 10499" d="M153.722,161.252a18.061,18.061,0,1,0,18.061-18.068A18.062,18.062,0,0,0,153.722,161.252Z" transform="translate(-153.722 -143.184)" fill="#4e89f1"/>
        <path id="Path_10500" data-name="Path 10500" d="M152.072,161.252a18.063,18.063,0,1,0,18.066-18.068A18.061,18.061,0,0,0,152.072,161.252Z" transform="translate(-148.014 -143.184)" fill="#6eb1ff"/>
        <g id="Group_56300" data-name="Group 56300" transform="translate(12.294 8.335)">
          <g id="Group_56299" data-name="Group 56299">
            <path id="Path_10501" data-name="Path 10501" d="M162.357,157.514v-2.433a2.409,2.409,0,0,1-1.332-.355,1.959,1.959,0,0,1-.66-.985,7.693,7.693,0,0,1-.229-2.253,13.163,13.163,0,0,0-.185-2.74,2.623,2.623,0,0,0-.576-1.17,2.881,2.881,0,0,0-1.177-.724,6.678,6.678,0,0,0-2.246-.286h-.537V149a5.488,5.488,0,0,1,1.423.113.869.869,0,0,1,.492.382,2.109,2.109,0,0,1,.155.973q0,1.274.118,2.849a4.259,4.259,0,0,0,.566,1.827,3.773,3.773,0,0,0,1.226,1.167,3.526,3.526,0,0,0-1.179,1.073,3.911,3.911,0,0,0-.576,1.655c-.044.291-.089,1.229-.138,2.829a4.685,4.685,0,0,1-.111,1.088.959.959,0,0,1-.5.483,4.547,4.547,0,0,1-1.477.16v2.423h.537a7.394,7.394,0,0,0,2.191-.234,2.746,2.746,0,0,0,1.152-.7,2.643,2.643,0,0,0,.643-1.157,10.374,10.374,0,0,0,.2-2.438,10.1,10.1,0,0,1,.212-2.59A1.913,1.913,0,0,1,161,157.9,2.564,2.564,0,0,1,162.357,157.514Z" transform="translate(-142.701 -146.569)" fill="#fff"/>
            <path id="Path_10502" data-name="Path 10502" d="M160.582,155.081v2.433a2.641,2.641,0,0,1,1.337.357,1.881,1.881,0,0,1,.653.985,7.352,7.352,0,0,1,.241,2.263,13.4,13.4,0,0,0,.177,2.726,2.455,2.455,0,0,0,.576,1.172,2.91,2.91,0,0,0,1.174.729,6.887,6.887,0,0,0,2.238.276h.539V163.6a5.182,5.182,0,0,1-1.411-.118.842.842,0,0,1-.495-.382,2.017,2.017,0,0,1-.165-.97c0-.849-.037-1.8-.118-2.849a4.04,4.04,0,0,0-.549-1.815,3.86,3.86,0,0,0-1.236-1.162,3.449,3.449,0,0,0,1.167-1.076,3.952,3.952,0,0,0,.586-1.672c.037-.281.091-1.224.143-2.824a4.06,4.06,0,0,1,.118-1.1.877.877,0,0,1,.49-.475,4.361,4.361,0,0,1,1.47-.16v-2.43h-.539a7.345,7.345,0,0,0-2.174.244,2.876,2.876,0,0,0-1.162.7,2.674,2.674,0,0,0-.64,1.162,9.725,9.725,0,0,0-.2,2.438,10.333,10.333,0,0,1-.207,2.576,1.918,1.918,0,0,1-.648,1.012A2.5,2.5,0,0,1,160.582,155.081Z" transform="translate(-160.582 -146.569)" fill="#fff"/>
          </g>
        </g>
      </g>
    </g>
    <g id="Group_56306" data-name="Group 56306" transform="translate(135.303 207.101)">
      <path id="Path_10503" data-name="Path 10503" d="M200,154.223c0,.372,5.641.672,12.609.67s12.614-.3,12.614-.675-5.648-.675-12.614-.675S200,153.848,200,154.223Z" transform="translate(-192.381 -119.212)" fill="#473f66" opacity="0.2" style="mix-blend-mode: multiply;isolation: isolate"/>
      <g id="Group_56305" data-name="Group 56305" transform="translate(0)">
        <path id="Path_10504" data-name="Path 10504" d="M199.065,157.171A17.567,17.567,0,1,0,216.636,139.6,17.57,17.57,0,0,0,199.065,157.171Z" transform="translate(-199.065 -139.6)" fill="#c78a30"/>
        <path id="Path_10505" data-name="Path 10505" d="M197.424,157.171A17.567,17.567,0,1,0,214.995,139.6,17.57,17.57,0,0,0,197.424,157.171Z" transform="translate(-193.383 -139.6)" fill="#efa330"/>
        <g id="Group_56304" data-name="Group 56304" transform="translate(9.369 11.22)">
          <g id="Group_56303" data-name="Group 56303">
            <path id="Path_10506" data-name="Path 10506" d="M199.586,152.994v2.1l8.4-4.265v-1.864l-8.4-4.262v2.1l5.991,3.1Z" transform="translate(-183.5 -143.364)" fill="#f2fbfd"/>
            <path id="Path_10507" data-name="Path 10507" d="M209.776,156.85,204.9,144.157h-1.623l4.875,12.693Z" transform="translate(-194.38 -144.157)" fill="#f2fbfd"/>
            <path id="Path_10508" data-name="Path 10508" d="M214.514,146.8v-2.1l-8.394,4.267v1.864l8.394,4.265V153l-5.993-3.1Z" transform="translate(-206.12 -143.367)" fill="#f2fbfd"/>
          </g>
        </g>
      </g>
    </g>
    <g id="Group_56310" data-name="Group 56310" transform="translate(326.183 190.109)">
      <rect id="Rectangle_3014" data-name="Rectangle 3014" width="2.706" height="44.623" transform="translate(59.414)" fill="#a5aaa8"/>
      <rect id="Rectangle_3015" data-name="Rectangle 3015" width="2.709" height="44.623" transform="translate(8.891)" fill="#a5aaa8"/>
      <path id="Path_10509" data-name="Path 10509" d="M131.1,144.789l2.709.976v-1.8H131.1Z" transform="translate(-122.21 -116.223)" fill="#a5aaa8" opacity="0.6" style="mix-blend-mode: multiply;isolation: isolate"/>
      <path id="Path_10510" data-name="Path 10510" d="M110.583,144.789l2.706.976v-1.8h-2.706Z" transform="translate(-51.169 -116.223)" fill="#a5aaa8" opacity="0.6" style="mix-blend-mode: multiply;isolation: isolate"/>
      <g id="Group_56308" data-name="Group 56308" transform="translate(0 5.047)">
        <path id="Path_10511" data-name="Path 10511" d="M131.1,138.712l2.709.974v-1.8H131.1Z" transform="translate(-122.21 -130.159)" fill="#a5aaa8" opacity="0.6" style="mix-blend-mode: multiply;isolation: isolate"/>
        <path id="Path_10512" data-name="Path 10512" d="M110.583,138.712l2.706.974v-1.8h-2.706Z" transform="translate(-51.169 -130.159)" fill="#a5aaa8" opacity="0.6" style="mix-blend-mode: multiply;isolation: isolate"/>
        <g id="Group_56307" data-name="Group 56307">
          <rect id="Rectangle_3016" data-name="Rectangle 3016" width="71.008" height="8.3" fill="#f5f2f9"/>
          <path id="Path_10513" data-name="Path 10513" d="M161.957,134.749l8.857,8.3h-4.7l-8.849-8.3Zm-10.79,0,8.852,8.3h-4.7l-8.849-8.3Zm21.587,0,5.225,4.9v3.4h-1.069l-8.852-8.3Zm-32.379,0,8.852,8.3h-4.693l-8.849-8.3Zm-32.376,0,8.854,8.3h-4.693l-5.188-4.865v-3.435Zm10.794,0,8.852,8.3h-4.7l-8.852-8.3Zm10.79,0,8.854,8.3h-4.693l-8.854-8.3Z" transform="translate(-106.972 -134.748)" fill="#ff7e00"/>
        </g>
      </g>
      <g id="Group_56309" data-name="Group 56309" transform="translate(0 19.942)">
        <rect id="Rectangle_3017" data-name="Rectangle 3017" width="71.008" height="8.293" transform="translate(0 0.001)" fill="#f5f2f9"/>
        <path id="Path_10514" data-name="Path 10514" d="M161.957,140.8l8.857,8.3h-4.7l-8.849-8.3Zm-10.79,0,8.852,8.3h-4.7l-8.849-8.3Zm21.587,0,5.225,4.9v3.393h-1.069l-8.852-8.3Zm-32.379,0,8.852,8.3h-4.693l-8.849-8.3ZM108,140.8l8.854,8.3h-4.693l-5.188-4.865V140.8Zm10.794,0,8.852,8.3h-4.7l-8.852-8.3Zm10.79,0,8.854,8.3h-4.693l-8.854-8.3Z" transform="translate(-106.972 -140.798)" fill="#ff7e00"/>
      </g>
      <rect id="Rectangle_3018" data-name="Rectangle 3018" width="49.02" height="2.47" transform="translate(11.134 34.491)" fill="#a5aaa8"/>
    </g>
    <g id="Group_56331" data-name="Group 56331" transform="translate(301.335 100.35)">
      <g id="Group_56311" data-name="Group 56311" transform="translate(22.626 13.796)">
        <path id="Path_10515" data-name="Path 10515" d="M146.014,128.189s-10.376-16.839-14.589-24.556a2.773,2.773,0,0,0-2.8,1.748s8.475,19.821,14.416,27.07S146.014,128.189,146.014,128.189Z" transform="translate(-126.833 -99.256)" fill="#4e89f1"/>
        <path id="Path_10516" data-name="Path 10516" d="M135.648,104.523a1.893,1.893,0,0,1,.463-2.563c.763-.364,1.79.19,2.292,1.234a1.886,1.886,0,0,1-.468,2.558C137.177,106.121,136.15,105.567,135.648,104.523Z" transform="translate(-135.372 -101.847)" fill="#fdfefd"/>
      </g>
      <g id="Group_56322" data-name="Group 56322" transform="translate(0)">
        <path id="Path_10517" data-name="Path 10517" d="M133.872,99.18l2.428-2.593,4.284,1.975h19.676a2.715,2.715,0,0,1,2.706,2.7v12.589l2.007.923-2.686,2.8a2.724,2.724,0,0,1-.2.212l-.03.027h-.007a2.668,2.668,0,0,1-1.788.694H135.566a2.71,2.71,0,0,1-2.7-2.7V101.265A2.684,2.684,0,0,1,133.872,99.18Z" transform="translate(-132.862 -95.744)" fill="#e29616"/>
        <g id="Group_56313" data-name="Group 56313" transform="translate(2.69)">
          <path id="Rectangle_3019" data-name="Rectangle 3019" d="M1.1,0H29.005a1.1,1.1,0,0,1,1.1,1.1v17.76a1.1,1.1,0,0,1-1.1,1.1H1.1a1.1,1.1,0,0,1-1.1-1.1V1.1A1.1,1.1,0,0,1,1.1,0Z" fill="#fecb15"/>
          <g id="Group_56312" data-name="Group 56312" transform="translate(2.705 2.707)">
            <path id="Rectangle_3020" data-name="Rectangle 3020" d="M.548,0H24.138a.55.55,0,0,1,.55.55V13.995a.548.548,0,0,1-.548.548H.549A.549.549,0,0,1,0,13.994V.548A.548.548,0,0,1,.548,0Z" fill="#fff"/>
          </g>
        </g>
        <g id="Group_56321" data-name="Group 56321" transform="translate(8.566 5.59)">
          <g id="Group_56320" data-name="Group 56320" transform="translate(0)">
            <g id="Group_56315" data-name="Group 56315" transform="translate(12.708)">
              <g id="Group_56314" data-name="Group 56314">
                <path id="Path_10518" data-name="Path 10518" d="M140.2,98.515H136.5a1.238,1.238,0,0,0-.864.332,1.081,1.081,0,0,0-.377.82v2.177A1.887,1.887,0,0,0,136,103.4a2.679,2.679,0,0,0,1.731.549h.8v3.014H140.2Zm-1.674,1.561v2.312h-.8c-.529,0-.793-.182-.793-.544v-1.768Z" transform="translate(-135.254 -98.515)" fill="#fecb15"/>
              </g>
            </g>
            <g id="Group_56317" data-name="Group 56317" transform="translate(6.609)">
              <g id="Group_56316" data-name="Group 56316">
                <path id="Path_10519" data-name="Path 10519" d="M141,103.516v3.442h1.672V98.515H141v3.437h-1.591V98.515h-1.677v8.443h1.677v-3.442Z" transform="translate(-137.734 -98.515)" fill="#fecb15"/>
              </g>
            </g>
            <g id="Group_56319" data-name="Group 56319">
              <g id="Group_56318" data-name="Group 56318">
                <path id="Path_10520" data-name="Path 10520" d="M145.36,98.515h-3.706a1.231,1.231,0,0,0-.867.332,1.084,1.084,0,0,0-.372.82v2.177a1.883,1.883,0,0,0,.741,1.551,2.684,2.684,0,0,0,1.731.549h.793v3.014h1.679Zm-1.679,1.561v2.312h-.793c-.529,0-.793-.182-.793-.544v-1.768Z" transform="translate(-140.416 -98.515)" fill="#fecb15"/>
              </g>
            </g>
          </g>
        </g>
      </g>
      <g id="Group_56330" data-name="Group 56330" transform="translate(14.841 18.635)">
        <path id="Path_10521" data-name="Path 10521" d="M164.619,154.438c0,1.354-11.4,2.443-25.445,2.443s-25.447-1.088-25.447-2.443S125.122,152,139.174,152,164.619,153.1,164.619,154.438Z" transform="translate(-100.235 -33.344)" fill="#3c4cb1" opacity="0.2" style="mix-blend-mode: multiply;isolation: isolate"/>
        <g id="Group_56329" data-name="Group 56329" transform="translate(0)">
          <g id="Group_56328" data-name="Group 56328">
            <g id="Group_56323" data-name="Group 56323" transform="translate(18.967 115.671)">
              <path id="Path_10522" data-name="Path 10522" d="M130.787,150.949v2.945h-2.643v-3.1Z" transform="translate(-120.871 -150.79)" fill="#fdfefd"/>
              <path id="Path_10523" data-name="Path 10523" d="M137.778,151.65a1.731,1.731,0,0,1,.7,1.477v2.142h-10.6s-.19-1.268,1.266-1.268a9.625,9.625,0,0,0,4.486-1.5,2.173,2.173,0,0,1,1.514-.854Z" transform="translate(-127.862 -149.534)" fill="url(#linear-gradient-5)"/>
            </g>
            <g id="Group_56324" data-name="Group 56324" transform="translate(48.614 113.615)">
              <path id="Path_10524" data-name="Path 10524" d="M119.689,149.956l1.389,2.6-2.335,1.248-1.457-2.743Z" transform="translate(-114.068 -149.956)" fill="#fdfefd"/>
              <path id="Path_10525" data-name="Path 10525" d="M123.075,150.656a1.735,1.735,0,0,1,1.31.975c.5.923,1.01,1.891,1.01,1.891l-7.2,3.841-1.6-.027s-.34-1.625.618-1.625c2.3,0,2.408-1.689,2.605-2.344a2.141,2.141,0,0,1,.931-1.465C121.154,151.685,123.075,150.656,123.075,150.656Z" transform="translate(-116.533 -148.931)" fill="url(#linear-gradient-6)"/>
            </g>
            <path id="Path_10526" data-name="Path 10526" d="M126.951,129.22c3.964,4.9,2.856,15.923,5.944,23.5s12.491,28.909,12.491,28.909a4.647,4.647,0,0,1-3.592,1.788s-19.282-29.15-22.369-39.258-1.549-15.571-1.549-15.571S125.848,127.858,126.951,129.22Z" transform="translate(-90.272 -67.87)" fill="#0c337d"/>
            <path id="Path_10527" data-name="Path 10527" d="M139.031,128.85c3.27,8.985-3.693,18.568-4.819,32.6s-1.118,25.12-1.118,25.12-2.482.753-4.075,0c0,0-3.917-46.086-3.917-54.273S138.568,127.572,139.031,128.85Z" transform="translate(-103.522 -69.864)" fill="#0c4296"/>
            <g id="Group_56327" data-name="Group 56327" transform="translate(23.907 15.34)">
              <g id="Group_56326" data-name="Group 56326">
                <g id="Group_56325" data-name="Group 56325">
                  <path id="Path_10528" data-name="Path 10528" d="M126.634,117.326a15.285,15.285,0,0,1,1.815-7.283,28.834,28.834,0,0,0,2.876.891c.96.33.616,1.711.512,2.383s.044,2.258.364,2.45c.35-.7.941-3.093,1.827-1.985s.426,1.4.017,2.787,1.3,1.534,1.3,1.534a23.636,23.636,0,0,1-2.051,4.129s-4.486,2.12-3.9-.633a3.113,3.113,0,0,1,.886-1.827C127.66,120.628,126.73,119.444,126.634,117.326Z" transform="translate(-126.626 -110.043)" fill="#fdfefd"/>
                </g>
              </g>
            </g>
            <path id="Path_10529" data-name="Path 10529" d="M135.941,114.675s5.355,1.083,5.355,9.593.345,25.295.345,25.295-9.76,2.248-15.5.709c1.768-19.112-2.832-21.266-.566-28.3C126.971,117.615,130.4,114.1,135.941,114.675Z" transform="translate(-104.849 -88.018)" fill="#6eb1ff"/>
            <path id="Path_10530" data-name="Path 10530" d="M152.765,130.379c-3.063-1.921-17.657-18.019-22.98-25.007a2.778,2.778,0,0,0-2.511,2.152s14.377,21.227,21.345,27.5S158.5,133.973,152.765,130.379Z" transform="translate(-124.783 -101.533)" fill="#6eb1ff"/>
            <path id="Path_10531" data-name="Path 10531" d="M138.942,106.613a1.605,1.605,0,1,1,2.45.874A1.886,1.886,0,0,1,138.942,106.613Z" transform="translate(-138.468 -103.813)" fill="#fdfefd"/>
          </g>
          <path id="Path_10532" data-name="Path 10532" d="M138.269,136.767c.185-5.639.281-10.841-4.88-16.172-3.708-3.836-3.034-12.486-11.124-11.284a3.639,3.639,0,0,0-2.854,1.97c.832,5.235,5.038,5,5.038,11.848,0,10.474,3.654,7.7,4.511,13.464s-2.046,11.415.852,15.1a5.932,5.932,0,0,0,3.681,2.349,14.81,14.81,0,0,0,.756,1.62c4.828,8.869,10.275,3.267,7.941-.938s-.613-2.977.778-6.22C145.956,141.529,142.368,138.045,138.269,136.767Z" transform="translate(-93.681 -95.94)" fill="#143f58"/>
        </g>
      </g>
    </g>
    <g id="Group_56359" data-name="Group 56359" transform="translate(76.017 128.343)">
      <g id="Group_56357" data-name="Group 56357" transform="translate(0)">
        <g id="Group_56344" data-name="Group 56344" transform="translate(0 8.584)">
          <path id="Path_10542" data-name="Path 10542" d="M227.015,118.708s1.4.123,4.688,3.014a83.831,83.831,0,0,0,7.244,6.18,90.064,90.064,0,0,0,14.559,7.884,3.468,3.468,0,0,1-.638,2.492c-2.859-.448-20.53-7.005-25.324-10.918S223.236,117.838,227.015,118.708Z" transform="translate(-220.668 -100.108)" fill="#4e89f1"/>
          <g id="Group_56340" data-name="Group 56340" transform="translate(27.486 97.091)">
            <path id="Path_10543" data-name="Path 10543" d="M224.964,150.691v3.027h2.5v-3.186Z" transform="translate(-224.302 -150.532)" fill="#ffad97"/>
            <path id="Path_10544" data-name="Path 10544" d="M222.823,151.413a1.808,1.808,0,0,0-.662,1.514v2.2h10.058a1.11,1.11,0,0,0-1.2-1.3,8.743,8.743,0,0,1-4.257-1.537c-.579-.638-1-.877-1.44-.877Z" transform="translate(-222.161 -149.243)" fill="url(#linear-gradient-7)"/>
          </g>
          <g id="Group_56341" data-name="Group 56341" transform="translate(0 95.398)">
            <path id="Path_10545" data-name="Path 10545" d="M236.424,149.844l-1.034,2.83,2.337.854,1.1-2.979Z" transform="translate(-233.849 -149.844)" fill="#ffad97"/>
            <path id="Path_10546" data-name="Path 10546" d="M235.421,150.607a1.782,1.782,0,0,0-1.138,1.187c-.372,1.012-.751,2.049-.751,2.049l6.749,2.475,2.649.02s.65-1.637-.721-1.6c-2.7.074-3.159-1.344-3.405-1.96-.322-.8-.63-1.167-1.042-1.32S235.421,150.607,235.421,150.607Z" transform="translate(-233.533 -148.729)" fill="url(#linear-gradient-8)"/>
          </g>
          <g id="Group_56343" data-name="Group 56343" transform="translate(1.044)">
            <g id="Group_56342" data-name="Group 56342">
              <path id="Path_10547" data-name="Path 10547" d="M241.682,122.089a17.929,17.929,0,0,0,.337-8.783,33.471,33.471,0,0,1-3.523.071c-1.179.052-1.248,1.721-1.354,2.512s-.783,2.514-1.207,2.632c-.165-.911-.052-3.78-1.4-2.819s-.931,1.435-.923,3.115-1.96,1.307-1.96,1.307a44.733,44.733,0,0,1,.283,5.267c0,1.977,5.84,7.207,5.7,1.817a11.815,11.815,0,0,0-.835-3.563C239.457,125.462,240.894,124.433,241.682,122.089Z" transform="translate(-229.27 -107.874)" fill="#ffad97"/>
              <path id="Path_10548" data-name="Path 10548" d="M243.5,116.532s2.26-.328,2.588-1.583-2.79-1.374-5.282-2.5-6.225-2.627-8.155.652a3.528,3.528,0,0,0-1.891,3.265c.177,2.241,1.741,3.984,2.369,6.988,0,0,1.965.379,1.96-1.307s-.419-2.15.923-3.115,1.238,1.908,1.4,2.819c.424-.118,1.1-1.842,1.206-2.632s.175-2.46,1.354-2.512A33.481,33.481,0,0,0,243.5,116.532Z" transform="translate(-230.749 -111.1)" fill="#444199"/>
            </g>
            <path id="Path_10549" data-name="Path 10549" d="M232.535,115.3s-.126,3.922,1.507,4.3,3.782-.522,3.8.805-1.862,2.608-3.393,2.068-2.388-1.4-2.484-2.465.039-5.082.039-5.082Z" transform="translate(-225.377 -105.51)" fill="#444199"/>
          </g>
          <path id="Path_10550" data-name="Path 10550" d="M234.434,132.072s4.728,15.864,5.7,23.13,1.115,23.133,1.115,23.133a5.009,5.009,0,0,1-4.469,0s-1.6-21.461-7.68-29.951-4.3-12.678-4.3-12.678Z" transform="translate(-209.604 -80.434)" fill="#192152"/>
          <path id="Path_10551" data-name="Path 10551" d="M222.306,126.561c-.276.7.372,1.608,1.455,2.031s2.172.2,2.45-.5-.382-1.61-1.453-2.036S222.579,125.862,222.306,126.561Z" transform="translate(-188.92 -89.538)" fill="#ffad97"/>
          <path id="Path_10552" data-name="Path 10552" d="M234.55,132.394s4.582,12.715-.451,26.127-6.7,17.891-6.7,17.891a4.126,4.126,0,0,0,3.816.99c2.1-3.139,14.9-24.046,17.275-34.25a105.128,105.128,0,0,0,2.086-10.967Z" transform="translate(-225.925 -80.268)" fill="#0c337d"/>
          <path id="Path_10553" data-name="Path 10553" d="M240.455,124.321s-3.494-5.454-8.034-6.005-6.212,3.354-5.03,9.152,6.567,18.477,5.73,25.5c0,0,8.7,4.929,17.819,0C250.94,152.964,244.959,131.831,240.455,124.321Z" transform="translate(-225.362 -100.627)" fill="#6eb1ff"/>
        </g>
        <g id="Group_56356" data-name="Group 56356" transform="translate(20.821)">
          <rect id="Rectangle_3021" data-name="Rectangle 3021" width="85.76" height="54.874" fill="#52738a"/>
          <rect id="Rectangle_3022" data-name="Rectangle 3022" width="85.76" height="6.798" fill="#a6a6a6"/>
          <rect id="Rectangle_3023" data-name="Rectangle 3023" width="4.076" height="4.081" transform="translate(80.078 1.448)" fill="#fff"/>
          <rect id="Rectangle_3024" data-name="Rectangle 3024" width="52.102" height="4.081" transform="translate(19.941 1.448)" fill="#fff"/>
          <path id="Path_10554" data-name="Path 10554" d="M195.267,110.722l1.318-1.063-1.318-1.07Z" transform="translate(-113.636 -106.187)"/>
          <g id="Group_56345" data-name="Group 56345" transform="translate(74.24 1.448)">
            <rect id="Rectangle_3025" data-name="Rectangle 3025" width="4.083" height="4.081" transform="translate(0)" fill="#fff"/>
            <path id="Path_10555" data-name="Path 10555" d="M199.1,110.722l-1.318-1.063,1.318-1.07Z" transform="translate(-196.566 -107.635)"/>
          </g>
          <g id="Group_56346" data-name="Group 56346" transform="translate(2.211 1.68)">
            <path id="Path_10556" data-name="Path 10556" d="M222.189,110.054a1.754,1.754,0,1,0,1.753-1.758A1.758,1.758,0,0,0,222.189,110.054Z" transform="translate(-211.247 -108.296)" fill="#fb392e"/>
            <path id="Path_10557" data-name="Path 10557" d="M224.411,110.054a1.752,1.752,0,1,0,1.748-1.758A1.755,1.755,0,0,0,224.411,110.054Z" transform="translate(-218.935 -108.296)" fill="#fecb15"/>
            <path id="Path_10558" data-name="Path 10558" d="M226.633,110.054a1.754,1.754,0,1,0,1.753-1.758A1.76,1.76,0,0,0,226.633,110.054Z" transform="translate(-226.633 -108.296)" fill="#26a659"/>
          </g>
          <g id="Group_56347" data-name="Group 56347" transform="translate(75.683 9.981)">
            <rect id="Rectangle_3026" data-name="Rectangle 3026" width="0.959" height="41.623" transform="translate(0)" fill="#e0e0e0"/>
            <rect id="Rectangle_3027" data-name="Rectangle 3027" width="1.604" height="1.609" transform="translate(3.246 1.286)" fill="#e0e0e0"/>
            <rect id="Rectangle_3028" data-name="Rectangle 3028" width="1.604" height="1.611" transform="translate(3.246 4.811)" fill="#e0e0e0"/>
            <rect id="Rectangle_3029" data-name="Rectangle 3029" width="1.604" height="1.611" transform="translate(3.246 8.334)" fill="#e0e0e0"/>
            <rect id="Rectangle_3030" data-name="Rectangle 3030" width="1.604" height="1.611" transform="translate(3.246 11.864)" fill="#e0e0e0"/>
            <rect id="Rectangle_3031" data-name="Rectangle 3031" width="1.604" height="1.604" transform="translate(3.246 15.389)" fill="#e0e0e0"/>
            <rect id="Rectangle_3032" data-name="Rectangle 3032" width="1.604" height="1.609" transform="translate(3.246 18.907)" fill="#e0e0e0"/>
            <rect id="Rectangle_3033" data-name="Rectangle 3033" width="1.604" height="1.616" transform="translate(3.246 22.429)" fill="#e0e0e0"/>
            <rect id="Rectangle_3034" data-name="Rectangle 3034" width="1.604" height="1.606" transform="translate(3.246 25.957)" fill="#e0e0e0"/>
            <rect id="Rectangle_3035" data-name="Rectangle 3035" width="1.604" height="1.609" transform="translate(3.246 29.479)" fill="#e0e0e0"/>
            <rect id="Rectangle_3036" data-name="Rectangle 3036" width="1.604" height="1.616" transform="translate(3.246 32.997)" fill="#e0e0e0"/>
            <rect id="Rectangle_3037" data-name="Rectangle 3037" width="1.604" height="1.601" transform="translate(3.246 36.53)" fill="#e0e0e0"/>
          </g>
          <g id="Group_56351" data-name="Group 56351" transform="translate(64.702 10.761)">
            <g id="Group_56348" data-name="Group 56348" transform="translate(6.671)">
              <path id="Path_10559" data-name="Path 10559" d="M199.7,112.057l1.17,1.243a.236.236,0,0,1,0,.313l-1.13,1.172a.226.226,0,0,1-.313,0,.236.236,0,0,1-.074-.17.223.223,0,0,1,.064-.153s.753-.785.98-1.012c-.227-.239-1.027-1.093-1.027-1.093a.25.25,0,0,1-.064-.15.247.247,0,0,1,.081-.17A.22.22,0,0,1,199.7,112.057Z" transform="translate(-199.31 -111.984)" fill="#fff"/>
            </g>
            <g id="Group_56349" data-name="Group 56349" transform="translate(0)">
              <path id="Path_10560" data-name="Path 10560" d="M203.569,112.043a.283.283,0,0,1,.071.17.262.262,0,0,1-.062.15s-.8.854-1.022,1.093c.222.227.975,1.012.975,1.012a.2.2,0,0,1,.059.153.218.218,0,0,1-.066.17.232.232,0,0,1-.318,0l-1.13-1.172a.242.242,0,0,1,0-.313l1.17-1.243A.231.231,0,0,1,203.569,112.043Z" transform="translate(-202.02 -111.984)" fill="#fff"/>
            </g>
            <g id="Group_56350" data-name="Group 56350" transform="translate(2.975 0.119)">
              <path id="Path_10561" data-name="Path 10561" d="M200.79,112.1l2.167,2.221a.208.208,0,0,1,0,.315.217.217,0,0,1-.318-.007l-2.169-2.206a.227.227,0,0,1,0-.323A.232.232,0,0,1,200.79,112.1Z" transform="translate(-200.404 -112.033)" fill="#fff"/>
            </g>
          </g>
          <g id="Group_56355" data-name="Group 56355" transform="translate(64.702 48.9)">
            <g id="Group_56352" data-name="Group 56352" transform="translate(6.671)">
              <path id="Path_10562" data-name="Path 10562" d="M199.7,127.541l1.17,1.246a.236.236,0,0,1,0,.313l-1.13,1.167a.222.222,0,0,1-.313.007.2.2,0,0,1-.074-.16.244.244,0,0,1,.064-.165s.753-.773.98-1.007c-.227-.236-1.027-1.091-1.027-1.091a.264.264,0,0,1-.064-.155.218.218,0,0,1,.081-.163A.224.224,0,0,1,199.7,127.541Z" transform="translate(-199.31 -127.474)" fill="#fff"/>
            </g>
            <g id="Group_56353" data-name="Group 56353" transform="translate(0)">
              <path id="Path_10563" data-name="Path 10563" d="M203.569,127.534a.247.247,0,0,1,.071.163.277.277,0,0,1-.062.155l-1.022,1.091c.222.234.975,1.007.975,1.007a.218.218,0,0,1,.059.165.19.19,0,0,1-.066.16.227.227,0,0,1-.318-.007l-1.13-1.167a.242.242,0,0,1,0-.313l1.17-1.246A.236.236,0,0,1,203.569,127.534Z" transform="translate(-202.02 -127.474)" fill="#fff"/>
            </g>
            <g id="Group_56354" data-name="Group 56354" transform="translate(2.975 0.121)">
              <path id="Path_10564" data-name="Path 10564" d="M200.79,127.588l2.167,2.211a.217.217,0,0,1,0,.323.221.221,0,0,1-.318-.007l-2.169-2.206a.227.227,0,0,1,0-.323A.23.23,0,0,1,200.79,127.588Z" transform="translate(-200.404 -127.523)" fill="#fff"/>
            </g>
          </g>
          <rect id="Rectangle_3038" data-name="Rectangle 3038" width="7.327" height="1.45" transform="translate(67.334 14.526)" fill="#e29616"/>
          <rect id="Rectangle_3039" data-name="Rectangle 3039" width="8.231" height="1.455" transform="translate(66.43 33.779)" fill="#f19b0f"/>
          <rect id="Rectangle_3040" data-name="Rectangle 3040" width="5.605" height="1.457" transform="translate(69.056 46.653)" fill="#f19b0f"/>
          <rect id="Rectangle_3041" data-name="Rectangle 3041" width="11.705" height="1.448" transform="translate(61.147 17.746)" fill="#17bb99"/>
          <rect id="Rectangle_3042" data-name="Rectangle 3042" width="10.717" height="1.45" transform="translate(62.136 37.057)" fill="#fbdd82"/>
          <rect id="Rectangle_3043" data-name="Rectangle 3043" width="10.513" height="1.445" transform="translate(62.34 40.154)" fill="#89c0c8"/>
          <rect id="Rectangle_3044" data-name="Rectangle 3044" width="5.631" height="1.445" transform="translate(67.221 43.373)" fill="#17bb99"/>
          <rect id="Rectangle_3045" data-name="Rectangle 3045" width="23.973" height="1.445" transform="translate(41.904 43.373)" fill="#fbdd82"/>
          <rect id="Rectangle_3046" data-name="Rectangle 3046" width="17.435" height="1.445" transform="translate(43.671 40.154)" fill="#fbdd82"/>
          <rect id="Rectangle_3047" data-name="Rectangle 3047" width="5.631" height="1.445" transform="translate(36.7 40.154)" fill="#e29616"/>
          <rect id="Rectangle_3048" data-name="Rectangle 3048" width="11.193" height="1.45" transform="translate(22.983 37.057)" fill="#89c0c8"/>
          <rect id="Rectangle_3049" data-name="Rectangle 3049" width="25.414" height="1.45" transform="translate(35.587 37.057)" fill="#17bb99"/>
          <rect id="Rectangle_3050" data-name="Rectangle 3050" width="6.718" height="1.448" transform="translate(53.222 17.746)" fill="#fbdd82"/>
          <rect id="Rectangle_3051" data-name="Rectangle 3051" width="7.745" height="1.445" transform="translate(65.108 24.264)" fill="#fbdd82"/>
          <rect id="Rectangle_3052" data-name="Rectangle 3052" width="12.564" height="1.449" transform="translate(51.291 24.258)" fill="#17bb99"/>
          <rect id="Rectangle_3053" data-name="Rectangle 3053" width="12.03" height="1.448" transform="translate(39.983 17.746)" fill="#89c0c8"/>
          <rect id="Rectangle_3054" data-name="Rectangle 3054" width="13.343" height="1.455" transform="translate(59.51 21.04)" fill="#89c0c8"/>
          <rect id="Rectangle_3055" data-name="Rectangle 3055" width="13.045" height="1.455" transform="translate(45.087 21.04)" fill="#e29616"/>
          <rect id="Rectangle_3056" data-name="Rectangle 3056" width="9.113" height="1.455" transform="translate(34.678 21.04)" fill="#17bb99"/>
          <rect id="Rectangle_3057" data-name="Rectangle 3057" width="15.812" height="1.44" transform="translate(57.04 27.484)" fill="#89c0c8"/>
          <rect id="Rectangle_3058" data-name="Rectangle 3058" width="8.438" height="1.44" transform="translate(47.396 27.484)" fill="#fbdd82"/>
          <rect id="Rectangle_3059" data-name="Rectangle 3059" width="15.812" height="1.45" transform="translate(57.04 30.538)" fill="#17bb99"/>
          <rect id="Rectangle_3060" data-name="Rectangle 3060" width="14.663" height="1.45" transform="translate(41.17 30.538)" fill="#89c0c8"/>
          <rect id="Rectangle_3061" data-name="Rectangle 3061" width="16.353" height="1.44" transform="translate(29.638 27.484)" fill="#17bb99"/>
          <rect id="Rectangle_3062" data-name="Rectangle 3062" width="3.778" height="1.45" transform="translate(62.152 14.526)" fill="#17bb99"/>
        </g>
      </g>
      <g id="Group_56358" data-name="Group 56358" transform="translate(2.552 28.815)">
        <path id="Path_10565" data-name="Path 10565" d="M222.676,128.946c-.276.7.377,1.61,1.45,2.031s2.179.2,2.447-.5-.374-1.608-1.448-2.031S222.947,128.247,222.676,128.946Z" transform="translate(-192.751 -106.285)" fill="#ffad97"/>
        <path id="Path_10566" data-name="Path 10566" d="M227.739,119.5s1.465.278,4.644,3.647a87.693,87.693,0,0,0,7.013,7.237,95.387,95.387,0,0,0,14.549,9.77,3.713,3.713,0,0,1-.918,2.558c-2.972-.766-20.927-9.433-25.6-14.042S223.848,118.21,227.739,119.5Z" transform="translate(-224.359 -119.317)" fill="#4e89f1"/>
      </g>
    </g>
  </g>
</svg>
