<svg xmlns="http://www.w3.org/2000/svg" xmlns:xlink="http://www.w3.org/1999/xlink" width="261.813" height="379.778" viewBox="0 0 261.813 379.778">
  <defs>
    <linearGradient id="linear-gradient" x1="0.207" y1="0.097" x2="0.609" y2="0.613" gradientUnits="objectBoundingBox">
      <stop offset="0" stop-color="#fd90da"/>
      <stop offset="1" stop-color="#8e6dfd"/>
    </linearGradient>
    <linearGradient id="linear-gradient-2" x1="0.469" y1="0.618" x2="0.682" y2="0.12" gradientUnits="objectBoundingBox">
      <stop offset="0" stop-color="#6d6afe"/>
      <stop offset="1" stop-color="#3fb0f7"/>
    </linearGradient>
    <linearGradient id="linear-gradient-3" x1="0.638" y1="0.304" x2="0.228" y2="0.857" gradientUnits="objectBoundingBox">
      <stop offset="0" stop-color="#d1e8ff"/>
      <stop offset="1" stop-color="#eaefff"/>
    </linearGradient>
    <linearGradient id="linear-gradient-4" x1="0.249" y1="0.574" x2="1.129" y2="0.313" xlink:href="#linear-gradient-2"/>
    <linearGradient id="linear-gradient-5" x1="0.609" y1="0.767" x2="0.186" y2="-0.049" gradientUnits="objectBoundingBox">
      <stop offset="0" stop-color="#965cf2"/>
      <stop offset="1" stop-color="#ff8adc"/>
    </linearGradient>
    <linearGradient id="linear-gradient-6" x1="0.627" y1="0.369" x2="0.34" y2="0.666" gradientUnits="objectBoundingBox">
      <stop offset="0" stop-color="#1c8ef4"/>
      <stop offset="1" stop-color="#00cfdd"/>
    </linearGradient>
    <linearGradient id="linear-gradient-7" x1="0.689" y1="0.761" x2="0.279" y2="-0.029" xlink:href="#linear-gradient-5"/>
    <linearGradient id="linear-gradient-8" x1="0.717" y1="0.222" x2="0.407" y2="0.62" gradientUnits="objectBoundingBox">
      <stop offset="0" stop-color="#2364d8"/>
      <stop offset="1" stop-color="#00a1ff"/>
    </linearGradient>
    <linearGradient id="linear-gradient-9" x1="0.421" y1="0.69" x2="0.658" y2="0.121" xlink:href="#linear-gradient-5"/>
    <linearGradient id="linear-gradient-10" x1="0.408" y1="0.072" x2="0.581" y2="0.776" xlink:href="#linear-gradient"/>
    <linearGradient id="linear-gradient-11" x1="0.526" y1="0.294" x2="0.442" y2="0.881" xlink:href="#linear-gradient-3"/>
    <linearGradient id="linear-gradient-12" x1="0.424" y1="0.572" x2="0.682" y2="0.326" xlink:href="#linear-gradient-2"/>
    <linearGradient id="linear-gradient-13" x1="0.564" y1="0.678" x2="-0.291" y2="-0.263" xlink:href="#linear-gradient-5"/>
    <linearGradient id="linear-gradient-14" x1="-0.056" y1="-0.173" x2="1" y2="1.047" gradientUnits="objectBoundingBox">
      <stop offset="0" stop-color="#0b3785"/>
      <stop offset="1" stop-color="#00a1ff"/>
    </linearGradient>
    <linearGradient id="linear-gradient-15" x1="0.578" y1="0.537" x2="-1.349" y2="-0.385" xlink:href="#linear-gradient-2"/>
    <linearGradient id="linear-gradient-16" x1="0.531" y1="0.984" x2="0.496" y2="0.2" xlink:href="#linear-gradient-3"/>
    <linearGradient id="linear-gradient-17" x1="0.557" y1="0.355" x2="0.438" y2="0.658" xlink:href="#linear-gradient-3"/>
    <linearGradient id="linear-gradient-18" x1="0.519" y1="0.454" x2="0.425" y2="0.675" xlink:href="#linear-gradient-6"/>
    <linearGradient id="linear-gradient-19" x1="0.28" y1="0.057" x2="0.717" y2="0.617" xlink:href="#linear-gradient"/>
    <linearGradient id="linear-gradient-20" x1="0.358" y1="0.771" x2="0.637" y2="0.056" xlink:href="#linear-gradient-5"/>
    <linearGradient id="linear-gradient-21" x1="0.44" y1="0.199" x2="0.716" y2="0.924" xlink:href="#linear-gradient-2"/>
    <linearGradient id="linear-gradient-22" x1="0.201" y1="0.854" x2="0.66" y2="0.351" gradientUnits="objectBoundingBox">
      <stop offset="0" stop-color="#ff8a78"/>
      <stop offset="1" stop-color="#ffa799"/>
    </linearGradient>
    <linearGradient id="linear-gradient-23" x1="0.5" y1="0" x2="0.5" y2="1" xlink:href="#linear-gradient-8"/>
    <linearGradient id="linear-gradient-24" x1="0" y1="0.5" x2="1" y2="0.5" xlink:href="#linear-gradient-22"/>
    <linearGradient id="linear-gradient-25" x1="0.781" y1="0.222" x2="-0.047" y2="0.782" gradientUnits="objectBoundingBox">
      <stop offset="0" stop-color="#3e4795"/>
      <stop offset="1" stop-color="#273088"/>
    </linearGradient>
    <linearGradient id="linear-gradient-26" x1="0.948" y1="0.203" x2="0.157" y2="0.737" xlink:href="#linear-gradient-25"/>
    <linearGradient id="linear-gradient-28" x1="0.636" y1="0.277" x2="0.003" y2="0.695" xlink:href="#linear-gradient-25"/>
    <linearGradient id="linear-gradient-29" x1="0.719" y1="0.173" x2="0.459" y2="0.469" xlink:href="#linear-gradient-25"/>
    <linearGradient id="linear-gradient-30" x1="0.504" y1="0.373" x2="0.733" y2="0.978" xlink:href="#linear-gradient-14"/>
    <linearGradient id="linear-gradient-31" x1="0.288" y1="0.705" x2="0.792" y2="0.272" xlink:href="#linear-gradient-22"/>
    <linearGradient id="linear-gradient-32" x1="0.344" y1="0.656" x2="1.021" y2="0.163" xlink:href="#linear-gradient-8"/>
    <linearGradient id="linear-gradient-33" x1="0.505" y1="0.464" x2="0.611" y2="0.799" xlink:href="#linear-gradient-22"/>
    <linearGradient id="linear-gradient-34" x1="0.732" y1="0.132" x2="0.397" y2="0.819" gradientUnits="objectBoundingBox">
      <stop offset="0" stop-color="#5a2d68"/>
      <stop offset="1" stop-color="#22043d"/>
    </linearGradient>
    <linearGradient id="linear-gradient-35" x1="0.627" y1="-0.907" x2="0.476" y2="0.728" gradientUnits="objectBoundingBox">
      <stop offset="0" stop-color="#8a4791"/>
      <stop offset="1"/>
    </linearGradient>
    <linearGradient id="linear-gradient-36" x1="0.762" y1="-0.835" x2="0.484" y2="0.609" xlink:href="#linear-gradient-35"/>
  </defs>
  <g id="develop-mobile-app" transform="translate(-1530.656 -144.779)">
    <g id="Group_52096" data-name="Group 52096" transform="translate(1560.576 144.779)">
      <path id="Path_7712" data-name="Path 7712" d="M1654.457,297.569a1.122,1.122,0,1,0-2.242.1c.066,1.521.19,3.038.358,4.551a1.123,1.123,0,1,0,2.231-.252c-.164-1.46-.283-2.932-.346-4.4Zm83.173-117.3a1.124,1.124,0,0,0,1.429-1.687,1.155,1.155,0,0,0-.3-.253l-3.881-2.26a1.124,1.124,0,0,0-1.429,1.688,1.157,1.157,0,0,0,.3.253l3.881,2.26Zm-9.7-5.649a1.124,1.124,0,0,0,1.429-1.687,1.159,1.159,0,0,0-.3-.253l-3.881-2.259a1.124,1.124,0,0,0-1.429,1.687,1.149,1.149,0,0,0,.3.253l3.881,2.26Zm-9.7-5.649a1.124,1.124,0,0,0,1.429-1.687,1.146,1.146,0,0,0-.3-.253l-3.881-2.26a1.124,1.124,0,0,0-1.429,1.688,1.157,1.157,0,0,0,.3.253l3.881,2.26Zm-9.7-5.649a1.124,1.124,0,0,0,1.429-1.687,1.147,1.147,0,0,0-.3-.253l-3.881-2.26a1.124,1.124,0,0,0-1.429,1.687,1.16,1.16,0,0,0,.3.253l3.881,2.26Zm-9.7-5.649a1.124,1.124,0,0,0,1.429-1.687,1.147,1.147,0,0,0-.3-.253l-3.88-2.259a1.124,1.124,0,0,0-1.429,1.687,1.156,1.156,0,0,0,.3.253l3.881,2.259Zm-9.7-5.648a1.124,1.124,0,0,0,1.429-1.688,1.152,1.152,0,0,0-.3-.253l-.822-.478.007,0c-1.048-.6-2.132-1.187-3.228-1.7a1.124,1.124,0,0,0-1.248,1.832,1.179,1.179,0,0,0,.3.2c1.048.5,2.055,1.033,3.063,1.611l0,0,.806.469Zm-9.981-4.309a1.123,1.123,0,0,0,.689-2.132,1.316,1.316,0,0,0-.143-.046,28.84,28.84,0,0,0-4.625-.758,1.124,1.124,0,0,0-.391,2.2,1.222,1.222,0,0,0,.245.043,27.488,27.488,0,0,1,4.226.695Zm-10.526-.141a1.123,1.123,0,0,0-.5-2.187,17.274,17.274,0,0,0-4.511,1.876,1.124,1.124,0,0,0,.939,2.027,1.184,1.184,0,0,0,.213-.1,15.756,15.756,0,0,1,3.857-1.617Zm-8.515,5.8a1.124,1.124,0,0,0-1.62-1.534,1.193,1.193,0,0,0-.175.185,22.162,22.162,0,0,0-2.424,4.05,1.124,1.124,0,0,0,1.876,1.2,1.18,1.18,0,0,0,.163-.256,20.164,20.164,0,0,1,2.18-3.641Zm-4.135,9.789a1.124,1.124,0,0,0-2.141-.641,1.227,1.227,0,0,0-.063.211,36.339,36.339,0,0,0-.6,4.591,1.123,1.123,0,1,0,2.24.148,34.938,34.938,0,0,1,.563-4.309Zm-.693,10.976a1.124,1.124,0,0,0-2.213-.275,1.249,1.249,0,0,0-.032.26l-.029,4.491a1.124,1.124,0,0,0,2.213.275,1.258,1.258,0,0,0,.032-.26l.029-4.491Zm-.073,11.227a1.124,1.124,0,0,0-2.213-.275,1.225,1.225,0,0,0-.032.26l-.03,4.491a1.124,1.124,0,0,0,2.213.274,1.245,1.245,0,0,0,.032-.26l.029-4.491Zm-.073,11.227a1.124,1.124,0,0,0-2.213-.275,1.241,1.241,0,0,0-.032.26l-.029,4.491a1.124,1.124,0,0,0,2.213.275,1.241,1.241,0,0,0,.032-.26l.029-4.491Zm-.073,11.227a1.124,1.124,0,0,0-2.213-.275,1.247,1.247,0,0,0-.032.26l-.029,4.491a1.124,1.124,0,0,0,2.213.275,1.231,1.231,0,0,0,.032-.26l.029-4.491Zm-.073,11.227a1.124,1.124,0,0,0-2.213-.275,1.242,1.242,0,0,0-.032.26l-.029,4.491a1.124,1.124,0,0,0,2.213.275,1.247,1.247,0,0,0,.032-.26l.029-4.49Zm-.073,11.227a1.124,1.124,0,0,0-2.213-.275,1.258,1.258,0,0,0-.032.26l-.029,4.49a1.124,1.124,0,0,0,2.213.275,1.242,1.242,0,0,0,.032-.26l.029-4.491Zm-.073,11.227a1.123,1.123,0,0,0-2.213-.274,1.229,1.229,0,0,0-.032.26l-.029,4.491a1.124,1.124,0,0,0,2.213.275,1.25,1.25,0,0,0,.032-.26l.029-4.491Zm-.073,11.227a1.124,1.124,0,0,0-2.213-.275,1.241,1.241,0,0,0-.032.26l-.029,4.491a1.123,1.123,0,0,0,2.213.274,1.205,1.205,0,0,0,.032-.26l.029-4.491Zm-.072,11.226a1.124,1.124,0,0,0-2.213-.275,1.265,1.265,0,0,0-.032.26l-.029,4.49a1.124,1.124,0,0,0,2.213.275,1.253,1.253,0,0,0,.032-.26l.029-4.49Zm-.073,11.226a1.124,1.124,0,0,0-2.213-.275,1.247,1.247,0,0,0-.032.26l-.029,4.49a1.124,1.124,0,0,0,2.213.275,1.241,1.241,0,0,0,.032-.26l.029-4.49Zm-.073,11.226a1.123,1.123,0,0,0-2.213-.274,1.237,1.237,0,0,0-.032.26l-.029,4.491a1.123,1.123,0,0,0,2.213.275,1.241,1.241,0,0,0,.032-.26l.029-4.491Zm1.055,22.141a1.123,1.123,0,0,0-2.2.451c.3,1.492.661,2.971,1.063,4.439a1.123,1.123,0,1,0,2.165-.6c-.39-1.417-.736-2.853-1.028-4.294Zm3.08,10.6a1.124,1.124,0,0,0-2.173.361,1.142,1.142,0,0,0,.072.433c.535,1.425,1.113,2.823,1.723,4.217a1.123,1.123,0,0,0,2.052-.913c-.6-1.331-1.16-2.728-1.674-4.1Zm4.6,10.06a1.123,1.123,0,0,0-1.971,1.076q1.087,2,2.273,3.94a1.123,1.123,0,1,0,1.912-1.177q-1.16-1.887-2.215-3.839Zm5.91,9.361a1.124,1.124,0,0,0-1.987.967,1.174,1.174,0,0,0,.175.358c.893,1.226,1.825,2.431,2.787,3.6a1.123,1.123,0,1,0,1.733-1.428c-.935-1.134-1.842-2.312-2.707-3.5Zm7.136,8.44a1.123,1.123,0,1,0-1.6,1.576c1.085,1.105,2.2,2.088,3.309,3.149a1.123,1.123,0,1,0,1.486-1.684Q1677.875,348.576,1676.327,347Z" transform="translate(-1652.214 -144.779)" fill-rule="evenodd" fill="url(#linear-gradient)"/>
      <g id="Group_52077" data-name="Group 52077" transform="translate(90.4 11.746)">
        <g id="Group_52075" data-name="Group 52075">
          <path id="Path_7713" data-name="Path 7713" d="M2045.445,200.3a19.867,19.867,0,0,1,7.033,6.682c-.025-.507-.049,1.354-.033-1.522s-1.633-7.52.616-9.847c.891-.922,5.233-2.617,6.277-2.885a9.3,9.3,0,0,1,6.8,1.187c3.768,2.06,7.179,6.071,9.655,10.892a45.549,45.549,0,0,1,4.02,15.792c0,2.909-.016,1.005-.043,1.494,2.1-.63,3.979-.621,7.217,1.17s7.317,6.211,9.848,11.12a36.34,36.34,0,0,1,4.141,16.059c.009,4.193-.947,7.524-2.574,9.829-1.64,2.324-4.81,3.7-7.056,4.441-6.441,2.237-18.86-10.822-25.413-14.531q-10.43-5.9-20.753-11.741c-3.75-2.122-7.112-6.167-9.521-11a35.4,35.4,0,0,1-3.8-15.666c.029-3.059-2.207-7.648.687-9.845C2037.039,198.517,2041.844,198.3,2045.445,200.3Z" transform="translate(-2028.212 -192.499)" fill="#d0e7ff" fill-rule="evenodd"/>
          <path id="Path_7714" data-name="Path 7714" d="M2033.084,206.724a19.867,19.867,0,0,1,7.033,6.683c-.024-.508-.049,1.353-.033-1.522s1.574-9.156,4.045-11.246,5.879-2.359,9.646-.3,7.179,6.071,9.655,10.892a45.539,45.539,0,0,1,4.02,15.792c0,2.91-.015,1.005-.043,1.494,2.1-.63,3.979-.622,7.217,1.17s7.318,6.212,9.848,11.12a36.25,36.25,0,0,1,4.141,16.059c.012,5.395-1.561,9.412-4.1,11.527s-6.037,2.308-9.893.125q-10.566-5.98-21.052-11.912-10.429-5.9-20.753-11.741c-3.75-2.122-7.112-6.167-9.52-11a35.389,35.389,0,0,1-3.8-15.666c.048-5.234,1.584-9.125,4.034-11.2S2029.935,204.982,2033.084,206.724Z" transform="translate(-2019.493 -197.344)" fill-rule="evenodd" fill="url(#linear-gradient-2)"/>
        </g>
        <g id="Group_52076" data-name="Group 52076" transform="translate(14.408 18.764)">
          <path id="Path_7715" data-name="Path 7715" d="M2084.482,285.285l-6.454-3.724,10.15,17.58,10.215-5.822-6.451-3.726.018-16.553-7.46-4.307Z" transform="translate(-2078.028 -268.733)" fill="#fff" fill-rule="evenodd"/>
          <path id="Path_7716" data-name="Path 7716" d="M2152.5,322.681l6.454,3.724-10.15-17.58-10.216,5.822,6.451,3.726-.018,16.553,7.46,4.308Z" transform="translate(-2123.686 -298.957)" fill="#fff" fill-rule="evenodd"/>
        </g>
      </g>
      <path id="Path_7717" data-name="Path 7717" d="M2005.6,1433.923l-105.164-60.064c-3.9-1.783-9.638-3.466-13.466-1.134l-9.795,5.968c-1.971,1.2-8.45,5.184-4.116,7.541,12.75,6.933,94.215,54.532,107.163,61.575,2.448,1.332,6.031,1.813,9.791,1.5a24.6,24.6,0,0,0,10.6-3.158l3.913-2.413c2.766-1.706,4.3-3.569,4.445-5.356C2009.116,1436.636,2007.994,1435.017,2005.6,1433.923Z" transform="translate(-1817.596 -1069.623)" fill="#9e9bf5" fill-rule="evenodd" opacity="0.5" style="mix-blend-mode: multiply;isolation: isolate"/>
      <g id="Group_52080" data-name="Group 52080" transform="translate(57.053 46.598)">
        <g id="Group_52078" data-name="Group 52078">
          <path id="Path_7718" data-name="Path 7718" d="M2026.1,643.788c-.015,5.119-1.84,8.723-4.758,10.418l-4.63,2.784c-15.885-6.779-9.99-87.279-10.958-110.164l4.877-120.1c-4.1-7.166-19.879-13.42-16.2-28.055l-46.557-21.794c-2.067-1.406-56.4-32.87-46.645-38.77,1.631-.987,3.246-1.98,4.856-2.917,3.6-2.13,8.19-.813,11.56,1.13h0l92.641,53.137c9.093,5.239,16.225,17.916,16.2,28.053Z" transform="translate(-1896.113 -334.095)" fill-rule="evenodd" fill="url(#linear-gradient-3)"/>
          <path id="Path_7719" data-name="Path 7719" d="M1884.4,357.4c.014-5.018,1.752-8.582,4.568-10.318,2.967-1.829,7.129-1.631,11.734,1.028l92.641,53.135c8.965,5.177,16.225,17.75,16.2,28.055l-.386,226.28c-.029,10.3-7.337,14.468-16.3,9.29l-92.639-53.136c-8.977-5.183-16.226-17.751-16.2-28.054Z" transform="translate(-1884.008 -342.982)" fill="#fff" fill-rule="evenodd"/>
          <path id="Path_7720" data-name="Path 7720" d="M1884.4,357.4c.014-5.018,1.752-8.582,4.568-10.318,2.967-1.829,7.129-1.631,11.734,1.028l92.641,53.135c8.965,5.177,16.225,17.75,16.2,28.055l-.386,226.28c-.029,10.3-7.337,14.468-16.3,9.29l-92.639-53.136c-8.977-5.183-16.226-17.751-16.2-28.054Z" transform="translate(-1884.008 -342.982)" fill-rule="evenodd" fill="url(#linear-gradient-4)"/>
        </g>
        <g id="Group_52079" data-name="Group 52079" transform="translate(42.252 30.957)">
          <path id="Path_7721" data-name="Path 7721" d="M2328.028,614.718c2.427,1.4,4.4.276,4.409-2.513a9.655,9.655,0,0,0-4.382-7.589c-2.427-1.4-4.4-.277-4.409,2.513A9.655,9.655,0,0,0,2328.028,614.718Z" transform="translate(-2257.687 -568.533)" fill="#485af4" fill-rule="evenodd"/>
          <path id="Path_7722" data-name="Path 7722" d="M2055.669,460.706c0-.76.54-1.058,1.2-.665,9.627,5.439,25.4,14.319,35.03,19.759a2.691,2.691,0,0,1,1.2,2.089v1.5c0,.76-.541,1.058-1.2.665-9.626-5.439-25.4-14.319-35.03-19.759a2.686,2.686,0,0,1-1.195-2.089Z" transform="translate(-2055.668 -459.868)" fill="#485af4" fill-rule="evenodd"/>
        </g>
      </g>
      <g id="Group_52082" data-name="Group 52082" transform="translate(35.042 74.641)">
        <path id="Path_7723" data-name="Path 7723" d="M1885.93,496.766l68.608,36.736c6.163,3.559,9.258,14.307,9.238,21.39l-.266,35.551c-.021,7.082-5.043,9.945-11.207,6.387l-66.634-38.8Z" transform="translate(-1863.25 -484.77)" fill-rule="evenodd" opacity="0.5" fill="url(#linear-gradient-5)" style="mix-blend-mode: multiply;isolation: isolate"/>
        <path id="Path_7724" data-name="Path 7724" d="M1801.639,455.668c.007-2.383-.836-3.86.185-5.163.65-.828,2.911-1.833,3.868-2.164,1.852-.641,4.2-.31,6.757,1.166l73.873,43.011c5.945,3.434,10.759,11.77,10.74,18.6l-.256,34.3c-.005,2.118-.449,4.831-2.073,6.318a9.242,9.242,0,0,1-4.695,2.243c-1.548.127-2.147-1.3-4.043-2.4l-73.872-43.011c-5.953-3.437-10.76-11.771-10.74-18.6Z" transform="translate(-1799.66 -448.03)" fill="#f2f4ff" fill-rule="evenodd"/>
        <path id="Path_7725" data-name="Path 7725" d="M1794.84,459.78c.019-6.833,4.858-9.6,10.81-6.161l73.873,43.011c5.945,3.433,10.759,11.77,10.74,18.6l-.256,34.3c-.019,6.833-4.865,9.594-10.811,6.161l-73.872-43.011c-5.953-3.437-10.76-11.771-10.741-18.6Z" transform="translate(-1794.583 -451.129)" fill-rule="evenodd" fill="url(#linear-gradient-6)"/>
        <g id="Group_52081" data-name="Group 52081" transform="translate(34.468 38.084)">
          <path id="Path_7726" data-name="Path 7726" d="M1934.622,604.769c0-1.823,1.3-2.54,2.885-1.6l48.138,27.3a6.45,6.45,0,0,1,2.866,5.013V639.1c-.005,1.823-1.3,2.539-2.885,1.6l-48.138-27.3a6.446,6.446,0,0,1-2.866-5.013Z" transform="translate(-1934.621 -602.757)" fill="#fff" fill-rule="evenodd" opacity="0.2"/>
          <path id="Path_7727" data-name="Path 7727" d="M1934.621,661.2c0-1.076.766-1.5,1.7-.942l28.426,16.123a3.809,3.809,0,0,1,1.693,2.96v2.13c0,1.077-.767,1.5-1.7.943l-28.426-16.123a3.808,3.808,0,0,1-1.693-2.96Z" transform="translate(-1934.62 -645.92)" fill="#fff" fill-rule="evenodd" opacity="0.2"/>
        </g>
        <path id="Path_7728" data-name="Path 7728" d="M1829.562,559.2a12.772,12.772,0,0,1-5.782-9.04c-.227-3.277,1.993-4.545,4.96-2.83a12.779,12.779,0,0,1,5.782,9.04c.227,3.279-1.995,4.544-4.96,2.83Zm11.03-1.019-1.929-1.115a21.011,21.011,0,0,0-2-5.483l1.262-.718a31.174,31.174,0,0,0-2.44-3.814l-1.261.72a22.328,22.328,0,0,0-4.205-4.224l-.148-2.134c-.529-.381-1.067-.732-1.61-1.046a15.536,15.536,0,0,0-1.595-.807l.148,2.134a6.707,6.707,0,0,0-3.947-.489l-1.47-2.3a4.77,4.77,0,0,0-2.093,1.194l1.47,2.3a5.835,5.835,0,0,0-1.378,3.528l-1.929-1.115a13.1,13.1,0,0,0,.012,1.705,16.866,16.866,0,0,0,.233,1.836l1.929,1.115a20.941,20.941,0,0,0,2,5.481l-1.262.72a31.177,31.177,0,0,0,2.44,3.814l1.261-.72a22.33,22.33,0,0,0,4.205,4.224l.148,2.132a18.841,18.841,0,0,0,1.612,1.049,15.162,15.162,0,0,0,1.593.8l-.148-2.132a6.707,6.707,0,0,0,3.946.489l1.471,2.3A4.778,4.778,0,0,0,1839,566.43l-1.471-2.3a5.821,5.821,0,0,0,1.378-3.526l1.929,1.115a13.178,13.178,0,0,0-.012-1.707A16.832,16.832,0,0,0,1840.592,558.179Z" transform="translate(-1811.815 -516.537)" fill="#fff" fill-rule="evenodd"/>
      </g>
      <g id="Group_52085" data-name="Group 52085" transform="translate(148.845 123.186)">
        <path id="Path_7729" data-name="Path 7729" d="M2257.24,654.082c.022-7.893,5.612-11.086,12.486-7.116l25.2,14.306.486,44.472-4.835,1.54-21.231-12.052c-6.876-3.97-12.428-13.6-12.407-21.488Z" transform="translate(-2256.943 -645.258)" fill-rule="evenodd" opacity="0.5" fill="url(#linear-gradient-7)" style="mix-blend-mode: multiply;isolation: isolate"/>
        <g id="Group_52084" data-name="Group 52084" transform="translate(2.653 0.451)">
          <path id="Path_7730" data-name="Path 7730" d="M2274.974,654.73c.006-2.383-.548-3.869.482-5.163a9.047,9.047,0,0,1,3.571-2.164c1.851-.641,4.2-.31,6.757,1.166l23.6,13.394c5.945,3.433,10.759,11.771,10.739,18.6l-.256,17.023c-.006,2.118-.449,4.831-2.074,6.318a9.247,9.247,0,0,1-4.7,2.243c-1.548.126-2.147-1.305-4.043-2.4l-23.6-13.394c-5.953-3.437-10.76-11.771-10.74-18.6Z" transform="translate(-2272.996 -647.092)" fill="#f2f4ff" fill-rule="evenodd"/>
          <path id="Path_7731" data-name="Path 7731" d="M2267.98,658.841c.019-6.833,4.858-9.6,10.81-6.161l23.6,13.394c5.945,3.433,10.759,11.771,10.74,18.6l-.256,17.022c-.019,6.833-4.865,9.594-10.811,6.161l-23.6-13.394c-5.953-3.437-10.76-11.771-10.741-18.6Z" transform="translate(-2267.723 -650.191)" fill-rule="evenodd" fill="url(#linear-gradient-8)"/>
          <g id="Group_52083" data-name="Group 52083" transform="translate(3.453 17.765)">
            <path id="Path_7732" data-name="Path 7732" d="M2379.461,748.264l13.642,14.683-.01,3.741-13.681-1.06.012-4.413,9.559,1.192-9.535-9.749Z" transform="translate(-2355.375 -741.127)" fill="#fff" fill-rule="evenodd"/>
            <path id="Path_7733" data-name="Path 7733" d="M2350.692,727.82a2.292,2.292,0,0,1,.363,1.243,7.575,7.575,0,0,1-.3,1.589l-3.859,15.8c-.122.528-.244.93-.332,1.218a.83.83,0,0,1-.451.552c-.187.087-.466.027-.844-.191a2.442,2.442,0,0,1-1.374-2.179,10.438,10.438,0,0,1,.278-1.646l3.843-15.81a5.014,5.014,0,0,1,.576-1.633c.176-.258.537-.225,1.051.072A2.826,2.826,0,0,1,2350.692,727.82Z" transform="translate(-2328.6 -724.788)" fill="#fff" fill-rule="evenodd"/>
            <path id="Path_7734" data-name="Path 7734" d="M2281.752,723.051l.01-3.784,13.687,1.082-.013,4.451-9.526-1.275,9.5,9.813-.013,4.413Z" transform="translate(-2281.752 -719.267)" fill="#fff" fill-rule="evenodd"/>
          </g>
        </g>
      </g>
      <g id="Group_52088" data-name="Group 52088" transform="translate(141.253 173.296)">
        <path id="Path_7735" data-name="Path 7735" d="M2243.1,883.334c-8.066-4.663-15.1-15.661-15.718-24.574s5.417-12.355,13.484-7.692,15.1,15.667,15.718,24.574S2251.167,887.995,2243.1,883.334Z" transform="translate(-2227.036 -848.954)" fill-rule="evenodd" opacity="0.5" fill="url(#linear-gradient-9)" style="mix-blend-mode: multiply;isolation: isolate"/>
        <g id="Group_52087" data-name="Group 52087">
          <path id="Path_7736" data-name="Path 7736" d="M2231.342,851.852c.849-1.437,3.652-2.574,5.307-2.893,1.931-.372,4.338.148,7,1.687,6.988,4.04,13.091,13.581,13.625,21.3a9.915,9.915,0,0,1-.943,5.567c-.733,1.286-3.7,3.185-5.209,3.521C2242.2,883.613,2228.843,856.079,2231.342,851.852Z" transform="translate(-2229.82 -848.843)" fill="#f2f4ff" fill-rule="evenodd"/>
          <g id="Group_52086" data-name="Group 52086" transform="translate(0 0.891)">
            <path id="Path_7737" data-name="Path 7737" d="M2239.761,882.237c-6.992-4.042-13.091-13.576-13.626-21.3s4.7-10.71,11.689-6.668,13.091,13.581,13.625,21.3S2246.749,886.277,2239.761,882.237Z" transform="translate(-2226.097 -852.465)" fill="#d1e7ff" fill-rule="evenodd"/>
            <path id="Path_7738" data-name="Path 7738" d="M2253.728,894.232l1.854.927-8.233,12.532-7.268-10.777,2.393.936,3.839,3.644Z" transform="translate(-2236.64 -883.951)" fill="#fff" fill-rule="evenodd"/>
          </g>
        </g>
      </g>
      <g id="Group_52092" data-name="Group 52092" transform="translate(102.982 187.826)">
        <path id="Path_7739" data-name="Path 7739" d="M2070.853,915.087c.018-6.45,4.586-9.059,10.2-5.815l73.657,42.232.006,67.716-4.866,2.738-69.1-39.49c-5.619-3.244-10.156-11.11-10.138-17.559Z" transform="translate(-2070.61 -907.878)" fill-rule="evenodd" opacity="0.5" fill="url(#linear-gradient-10)" style="mix-blend-mode: multiply;isolation: isolate"/>
        <g id="Group_52091" data-name="Group 52091" transform="translate(3.185 1.045)">
          <path id="Path_7740" data-name="Path 7740" d="M2090.964,918.579c0-1.642-1.283-2.979-.714-4.035.615-1.141,3.153-1.843,4.244-2.191a7.041,7.041,0,0,1,5.6,1.021l86.038,49.655c5.023,2.9,9.09,9.946,9.074,15.719l-.216,44.338c-.008,2.829-1,4.832-2.591,5.8-.975.59-3.72,1.67-5.066,1.437-.945-.163-.42-1.419-1.477-2.03l-86.037-49.655c-5.03-2.9-9.092-9.946-9.075-15.719Z" transform="translate(-2088.491 -912.125)" fill-rule="evenodd" fill="url(#linear-gradient-11)"/>
          <path id="Path_7741" data-name="Path 7741" d="M2083.769,921.887c.016-5.773,4.1-8.11,9.133-5.205l86.038,49.655c5.023,2.9,9.091,9.945,9.075,15.719l-.217,44.338c-.017,5.773-4.111,8.106-9.135,5.205l-86.036-49.656c-5.03-2.9-9.092-9.946-9.075-15.719Z" transform="translate(-2083.552 -914.619)" fill="#fff" fill-rule="evenodd"/>
          <g id="Group_52089" data-name="Group 52089" transform="translate(4.227 22.868)">
            <path id="Path_7742" data-name="Path 7742" d="M2115.33,1007.031c-8.045-4.645-14.578-.913-14.6,8.322s6.466,20.5,14.511,25.141,14.578.913,14.6-8.332S2123.368,1011.671,2115.33,1007.031Z" transform="translate(-2100.725 -1005.033)" fill-rule="evenodd" fill="url(#linear-gradient-12)"/>
            <path id="Path_7743" data-name="Path 7743" d="M2134.637,1029.973l.017,16.72,14.425,1.18Z" transform="translate(-2126.29 -1023.834)" fill="#fff" fill-rule="evenodd"/>
          </g>
          <g id="Group_52090" data-name="Group 52090" transform="translate(35.899 36.299)">
            <path id="Path_7744" data-name="Path 7744" d="M2229.4,1060.91c0-1.186.843-1.651,1.875-1.037l58.614,33.574a4.2,4.2,0,0,1,1.864,3.259v2.345c0,1.186-.844,1.651-1.876,1.038l-58.613-33.576a4.189,4.189,0,0,1-1.864-3.259Z" transform="translate(-2229.402 -1059.602)" fill="#44a7f7" fill-rule="evenodd" opacity="0.5"/>
            <path id="Path_7745" data-name="Path 7745" d="M2229.4,1116.416c0-1.186.843-1.651,1.875-1.037l58.614,33.575a4.2,4.2,0,0,1,1.864,3.259v2.345c0,1.186-.844,1.651-1.876,1.038l-58.613-33.576a4.189,4.189,0,0,1-1.864-3.259Z" transform="translate(-2229.402 -1101.446)" fill="#6d6afd" fill-rule="evenodd" opacity="0.5"/>
            <path id="Path_7746" data-name="Path 7746" d="M2229.4,1170.1c0-1.186.843-1.651,1.875-1.038l58.614,33.575a4.2,4.2,0,0,1,1.864,3.259v2.346c0,1.185-.844,1.651-1.876,1.038l-58.613-33.576a4.189,4.189,0,0,1-1.864-3.259Z" transform="translate(-2229.402 -1141.914)" fill="#6d6afd" fill-rule="evenodd" opacity="0.5"/>
          </g>
        </g>
      </g>
      <g id="Group_52094" data-name="Group 52094" transform="translate(26.997 176.037)">
        <path id="Path_7747" data-name="Path 7747" d="M1884.143,905.639l16.793,9.493c6.469,3.736,11.707,12.807,11.686,20.243l-.278,33.407c-.021,7.434-5.294,10.439-11.765,6.7l-16.436-9.291Z" transform="translate(-1854.054 -894.4)" fill-rule="evenodd" opacity="0.5" fill="url(#linear-gradient-13)" style="mix-blend-mode: multiply;isolation: isolate"/>
        <g id="Group_52093" data-name="Group 52093">
          <path id="Path_7748" data-name="Path 7748" d="M1769.151,867.617c.006-2.383-.548-3.869.482-5.163a9.051,9.051,0,0,1,3.571-2.164c1.851-.64,4.2-.31,6.757,1.166l31.459,17.782c5.945,3.433,10.759,11.77,10.74,18.6l-.256,29.115c-.006,2.118-.45,4.831-2.074,6.318a9.244,9.244,0,0,1-4.695,2.243c-1.547.125-2.147-1.305-4.043-2.4l-31.458-17.781c-5.953-3.438-10.76-11.771-10.74-18.6Z" transform="translate(-1767.172 -859.98)" fill="#f2f4ff" fill-rule="evenodd"/>
          <path id="Path_7749" data-name="Path 7749" d="M1762.157,871.728c.019-6.833,4.858-9.6,10.81-6.161l31.459,17.782c5.945,3.433,10.759,11.77,10.74,18.6l-.256,29.114c-.019,6.832-4.865,9.594-10.811,6.161l-31.457-17.781c-5.953-3.437-10.76-11.772-10.741-18.6Z" transform="translate(-1761.899 -863.078)" fill-rule="evenodd" fill="url(#linear-gradient-14)"/>
          <path id="Path_7750" data-name="Path 7750" d="M1807.261,948.129l-.017,5.934,2.956,1.706a36.428,36.428,0,0,0,3.3,1.783,1.931,1.931,0,0,0,1.81.155,1.712,1.712,0,0,0,.674-1.611,4.839,4.839,0,0,0-.557-2.281,5.068,5.068,0,0,0-1.687-1.867c-.447-.3-1.738-1.082-3.884-2.323l-2.594-1.5Zm-21.395-1.086,6.138,3.544-3.118-11.324-3.02,7.78Zm.667-15.19,4.811,2.777,8.906,30.931-4.871-2.811-1.944-7-8.991-5.192-1.859,4.8-4.813-2.779,8.76-20.731Zm29.638,37.373a2.275,2.275,0,0,0,.627-1.851,5.2,5.2,0,0,0-.474-2.233,6.681,6.681,0,0,0-1.393-1.993,22.754,22.754,0,0,0-4.037-2.723l-3.662-2.114-.02,6.932,4.213,2.432a20.6,20.6,0,0,0,3.112,1.62,1.6,1.6,0,0,0,1.635-.07Zm4.229-3.393a10.554,10.554,0,0,1,1.058,4.489,5.958,5.958,0,0,1-.715,3.031,2.868,2.868,0,0,1-1.932,1.518,4.7,4.7,0,0,1-3.066-.527c-.741-.346-2.549-1.309-5.435-2.977l-7.653-4.417.072-25.746,8.981,5.184a38.235,38.235,0,0,1,3.954,2.539,11.971,11.971,0,0,1,2.368,2.433,14.5,14.5,0,0,1,1.7,3.155,8.66,8.66,0,0,1,.7,3.373,4.281,4.281,0,0,1-.867,2.824,2.5,2.5,0,0,1-2.3.93A13.731,13.731,0,0,1,1820.4,965.832Z" transform="translate(-1773.866 -914.162)" fill="#fff" fill-rule="evenodd"/>
        </g>
      </g>
      <g id="Group_52095" data-name="Group 52095" transform="translate(75.838 258.032)">
        <path id="Path_7751" data-name="Path 7751" d="M1972.708,1197.422c.008-2.713,1.929-3.812,4.292-2.447,25.042,14.364,50.034,29.232,75.078,43.6a9.41,9.41,0,0,1,4.264,7.387l-.151,45.584c-.007,2.713-1.932,3.809-4.293,2.446-25.043-14.364-50.038-29.235-75.078-43.6a9.4,9.4,0,0,1-4.264-7.387Z" transform="translate(-1969.546 -1194.073)" fill-rule="evenodd" opacity="0.5" fill="url(#linear-gradient-15)" style="mix-blend-mode: multiply;isolation: isolate"/>
        <path id="Path_7752" data-name="Path 7752" d="M1965.537,1194.736l2.873-1.437a2.96,2.96,0,0,1,2.722.363c23.666,13.574,47.284,27.626,70.953,41.2a8.893,8.893,0,0,1,4.03,6.981l.116,38.41a3.087,3.087,0,0,1-.856,2.356,25.468,25.468,0,0,1-3.372,1.757c-23.667-13.575-47.118-29.43-70.781-43a8.884,8.884,0,0,1-4.031-6.981Z" transform="translate(-1964.255 -1193.108)" fill-rule="evenodd" fill="url(#linear-gradient-16)"/>
        <path id="Path_7753" data-name="Path 7753" d="M1960.327,1201.7c.007-2.565,1.823-3.6,4.057-2.312,23.666,13.574,47.284,27.625,70.953,41.2a8.892,8.892,0,0,1,4.03,6.981l.116,38.41c-.007,2.563-1.826,3.6-4.057,2.311-23.667-13.575-47.289-27.628-70.953-41.2a8.886,8.886,0,0,1-4.031-6.981Z" transform="translate(-1960.327 -1197.426)" fill-rule="evenodd" fill="url(#linear-gradient-17)"/>
        <path id="Path_7754" data-name="Path 7754" d="M1976.911,1225.495c0-1.063.756-1.493,1.681-.958q33.8,19.386,67.592,38.777a3.684,3.684,0,0,1,1.67,2.894l.049,20.88c0,1.062-.758,1.492-1.682.958-22.534-12.925-45.059-24.125-67.592-37.051a3.68,3.68,0,0,1-1.67-2.893Z" transform="translate(-1972.829 -1216.627)" fill-rule="evenodd" fill="url(#linear-gradient-18)"/>
        <path id="Path_7755" data-name="Path 7755" d="M1987.262,1353.921c0-1.186.843-1.651,1.875-1.037l58.613,33.574a4.2,4.2,0,0,1,1.864,3.26v2.345c0,1.186-.844,1.651-1.875,1.038l-58.613-33.576a4.192,4.192,0,0,1-1.864-3.259Z" transform="translate(-1980.631 -1313.353)" fill="#04c6df" fill-rule="evenodd" opacity="0.5"/>
      </g>
      <path id="Path_7756" data-name="Path 7756" d="M2309.777,431.275a1.123,1.123,0,0,0,1.106-1.954l-.578-.328c-1.274-.115-1.512,1.931-.528,2.282Zm6.969,1.364a1.123,1.123,0,1,0-1.106,1.954l3.908,2.212a1.123,1.123,0,0,0,1.106-1.954l-3.908-2.212Zm9.77,5.53a1.123,1.123,0,1,0-1.106,1.954l3.908,2.212a1.123,1.123,0,1,0,1.106-1.954l-3.908-2.212Zm9.771,5.53a1.123,1.123,0,1,0-1.106,1.954l3.907,2.212a1.123,1.123,0,0,0,1.106-1.954l-3.908-2.212Zm9.77,5.53a1.123,1.123,0,1,0-1.106,1.954l3.908,2.212a1.123,1.123,0,1,0,1.106-1.954l-3.908-2.212Zm9.77,5.529a1.123,1.123,0,1,0-1.106,1.954l3.908,2.212a1.123,1.123,0,1,0,1.106-1.954l-3.908-2.212Zm9.813,5.635a1.123,1.123,0,0,0-1.262,1.857,24.41,24.41,0,0,1,3.315,2.719,1.124,1.124,0,0,0,1.775-1.332,1.164,1.164,0,0,0-.207-.275,26.375,26.375,0,0,0-3.621-2.969Zm8.059,8.327a1.123,1.123,0,0,0-1.909,1.181c.808,1.3,1.538,2.442,2.234,3.823a1.123,1.123,0,1,0,2.007-1.007,37.8,37.8,0,0,0-2.332-4Zm4.815,10.5a1.124,1.124,0,0,0-2.208.241,1.2,1.2,0,0,0,.036.329,24.877,24.877,0,0,1,.744,4.223,1.123,1.123,0,0,0,2.233.053,1.153,1.153,0,0,0,.005-.234,27.4,27.4,0,0,0-.811-4.611Zm.849,11.444a1.124,1.124,0,0,0-2.213-.277,1.235,1.235,0,0,0-.032.26l-.033,4.49a1.123,1.123,0,0,0,2.213.277,1.253,1.253,0,0,0,.032-.26l.033-4.49Zm-.084,11.226a1.124,1.124,0,0,0-2.213-.277,1.238,1.238,0,0,0-.032.26l-.034,4.491a1.124,1.124,0,0,0,2.213.277,1.253,1.253,0,0,0,.032-.26l.034-4.491Zm-.084,11.227a1.124,1.124,0,0,0-2.213-.277,1.267,1.267,0,0,0-.032.26l-.033,4.49a1.124,1.124,0,0,0,2.213.277,1.238,1.238,0,0,0,.032-.26l.033-4.49Zm-.083,11.226a1.124,1.124,0,0,0-2.213-.277,1.253,1.253,0,0,0-.032.26l-.034,4.49a1.124,1.124,0,0,0,2.213.277,1.225,1.225,0,0,0,.032-.26l.034-4.49Zm-.445,11.439a1.124,1.124,0,0,0-2.089-.77,1.183,1.183,0,0,0-.1.278,9.049,9.049,0,0,1-1.611,3.621,1.123,1.123,0,0,0,1.7,1.467l.075-.087a11.26,11.26,0,0,0,2.031-4.508Zm-8.773,7.751a1.124,1.124,0,0,0,.255-2.215,1.206,1.206,0,0,0-.26-.029,10.579,10.579,0,0,1-3.944-.828,1.123,1.123,0,0,0-1.116,1.924,1.185,1.185,0,0,0,.269.156,12.784,12.784,0,0,0,4.8.994Zm-10.839-4.3a1.123,1.123,0,0,0,1.428-1.687,1.145,1.145,0,0,0-.3-.253l-3.881-2.26a1.124,1.124,0,0,0-1.429,1.687,1.158,1.158,0,0,0,.3.253l3.881,2.259Zm-9.7-5.649a1.124,1.124,0,0,0,1.429-1.687,1.155,1.155,0,0,0-.3-.253l-4.565-2.694c-.989-.438-1.705,1.683-.445,2.375Z" transform="translate(-2147.469 -359.035)" fill-rule="evenodd" fill="url(#linear-gradient-19)"/>
    </g>
    <g id="Group_52114" data-name="Group 52114" transform="translate(1530.656 266.12)">
      <path id="Path_7757" data-name="Path 7757" d="M1534.441,1505.426l40.014-22.79c4.362-1.993,10.605-3.58,15.05-1.267,4.049,2.107,10.72,6.42,13.67,8.1,2.24,1.278,10.018,5.937,5.174,8.571-14.25,7.748-28.352,16.463-42.821,24.334-2.737,1.489-6.74,2.026-10.943,1.678a28.981,28.981,0,0,1-11.852-3.53l-7.1-4.13c-3.138-1.828-4.8-3.988-4.968-5.986C1530.508,1508.457,1531.763,1506.648,1534.441,1505.426Z" transform="translate(-1530.656 -1272.864)" fill="#9e9bf5" fill-rule="evenodd" opacity="0.5" style="mix-blend-mode: multiply;isolation: isolate"/>
      <g id="Group_52113" data-name="Group 52113" transform="translate(5.745 0)">
        <g id="Group_52099" data-name="Group 52099" transform="translate(68.898 27.182)">
          <g id="Group_52098" data-name="Group 52098">
            <path id="Path_7758" data-name="Path 7758" d="M1884.473,786.864l.011-2.829-.1-26.573,1.412-.672c8.061,4.661,15.1,15.667,15.718,24.574C1902.315,792.9,1891.993,793.15,1884.473,786.864Z" transform="translate(-1871.964 -754.675)" fill-rule="evenodd" opacity="0.5" fill="url(#linear-gradient-20)" style="mix-blend-mode: multiply;isolation: isolate"/>
            <g id="Group_52097" data-name="Group 52097">
              <path id="Path_7759" data-name="Path 7759" d="M1839.164,751.206c.849-1.437,3.652-2.574,5.307-2.893,1.931-.373,4.338.147,7,1.687,6.988,4.04,13.091,13.581,13.625,21.3a9.917,9.917,0,0,1-.943,5.567c-.733,1.287-3.7,3.185-5.21,3.521C1850.021,782.967,1836.664,755.434,1839.164,751.206Z" transform="translate(-1837.642 -748.198)" fill="#f2f4ff" fill-rule="evenodd"/>
              <path id="Path_7760" data-name="Path 7760" d="M1847.582,781.591c-6.993-4.042-13.091-13.576-13.626-21.3s4.7-10.71,11.689-6.667,13.091,13.581,13.625,21.3S1854.57,785.631,1847.582,781.591Z" transform="translate(-1833.918 -750.928)" fill="#a0d3fb" fill-rule="evenodd"/>
            </g>
          </g>
          <path id="Path_7761" data-name="Path 7761" d="M1863.563,788.687l-3.465-1.91a3.03,3.03,0,0,1-1.283-1.644l-1.331-4.211a2.976,2.976,0,0,0-1.3-1.652c-.515-.284-1.005-.244-1.147.3l-.8,3.035c-.129.483-.586.611-1.153.3l-3.459-1.918c-1.242-.687-1.635.783-.565,2.146l2.963,3.772a2.381,2.381,0,0,1,.586,1.848l-.809,3.015a2.753,2.753,0,0,0,1.364,2.541.99.99,0,0,0,.731.136l2.629-.691a1.009,1.009,0,0,1,.738.144,2.641,2.641,0,0,1,.778.694l2.958,3.78a2.607,2.607,0,0,0,.773.7c.8.443,1.451-.028,1.083-1.18l-1.337-4.208c-.221-.686-.079-1.222.347-1.333l2.635-.675C1865.458,791.421,1864.811,789.376,1863.563,788.687Z" transform="translate(-1844.871 -771.49)" fill-rule="evenodd" fill="url(#linear-gradient-21)"/>
        </g>
        <g id="Group_52101" data-name="Group 52101" transform="translate(16.426)">
          <g id="Group_52100" data-name="Group 52100" transform="translate(32.488)">
            <path id="Path_7762" data-name="Path 7762" d="M1765.337,638.6c-.3.629-.584,1.265-.9,1.888l-1.283,2.566c-.273-1.258-1.277-1.739-2.049-1.105a2.209,2.209,0,0,0-.625.839c-.123-.343-1.094-1.116-2.408.75a1.441,1.441,0,0,0-1.6.92,10.386,10.386,0,0,0-.551,1.344,5.415,5.415,0,0,0-.383,1.823c.009,1.237.062,2.579.026,4.057-.038,1.6-1.857,3.635-2.845,4.8l5.954,1.888a32.956,32.956,0,0,1,2.318-2.9c.935-.947,2.115-1.06,3.007-1.79a11.474,11.474,0,0,0,1.633-2.151c.7-.994,1.086-2.069,1.755-3.157a2.915,2.915,0,0,0,.679-2.141,22.909,22.909,0,0,1,.447-2.53c-1.223-.61-2.187.9-2.178,2.372a3.657,3.657,0,0,0-1.319,1.791c-.972-1.271-.393-1.8,0-3.436a16.415,16.415,0,0,0,1.4-3.278c.19-.5.38-1.024.584-1.587a1.578,1.578,0,0,0-.353-1.745C1766.424,637.677,1765.834,637.744,1765.337,638.6Z" transform="translate(-1752.727 -637.764)" fill-rule="evenodd" fill="url(#linear-gradient-22)"/>
            <path id="Path_7763" data-name="Path 7763" d="M1780.9,657.376c-.87.125-1.483,1.324-1.476,2.5a3.566,3.566,0,0,0-1.285,1.7,8.1,8.1,0,0,1,1.564-1.558,3.729,3.729,0,0,1,1.2-2.643Zm-4.549-.747-.11.221a2.246,2.246,0,0,0-.324-.788,3.183,3.183,0,0,1-.849,1.889,2.125,2.125,0,0,0,1.284-1.321Zm-2.793-.065a.739.739,0,0,0-.315-.321,5.051,5.051,0,0,1-.669,1.707,2.853,2.853,0,0,0,.984-1.386Zm-2.373.731-.028.039a2.076,2.076,0,0,0-.382-.009,3.877,3.877,0,0,1-.695,1.907A3.088,3.088,0,0,0,1771.19,657.3Z" transform="translate(-1765.813 -651.558)" fill="#ff8978" fill-rule="evenodd"/>
          </g>
          <path id="Path_7764" data-name="Path 7764" d="M1643.348,718.758c3-5.221,5.343-11.762,9.53-17.065.349-.442,1.169-.78,1.471-1.245q.656-1.013,1.306-1.989a9.287,9.287,0,0,1,6.027,2.717q-.353,1.049-.693,2.087c-.265.807.243,2.531.013,3.338-2.063,7.254-5.023,12.371-8.07,19.031-4.154,5.357-26.812,38.128-31.528,27.832-1.527-3.335-.26-7.726,1.974-11.318a30.6,30.6,0,0,1,4.217-4.953C1630.629,734.045,1638.792,723.455,1643.348,718.758Z" transform="translate(-1620.734 -683.519)" fill-rule="evenodd" fill="url(#linear-gradient-23)"/>
        </g>
        <g id="Group_52104" data-name="Group 52104" transform="translate(13.31 101.89)">
          <g id="Group_52102" data-name="Group 52102" transform="translate(3.946 112.428)">
            <path id="Path_7765" data-name="Path 7765" d="M1634.36,1525.519c.664-.126,3.629-.963,3.91-1.06a38.339,38.339,0,0,1,7.459-2.111c2.183-.327,5.225.314,4.249,3.626-1.307,4.437-5.128,7.674-8.876,9.24-1.329.556-3,.686-4.595,1.484-1.236.618-1.507,1.641-2.425,2.328a6.38,6.38,0,0,1-5.968.787c-1.977-.678-2.7-1.511-3.172-3.9-.433-2.194-.492-6.163.049-7.717l.071.005c.083,1.512.919,2.489,2.771,2.844,2.522.484,7.043-1.948,6.624-4.619C1634.412,1526.13,1634.38,1525.828,1634.36,1525.519Z" transform="translate(-1624.481 -1518.88)" fill="#1c236c" fill-rule="evenodd"/>
            <path id="Path_7766" data-name="Path 7766" d="M1650.948,1526.48c1.036,1.22.361,3.294-.236,4.589a16.17,16.17,0,0,1-8.318,7.547c-1.33.556-2.978.869-4.572,1.667-1.236.619-1.484,1.481-2.4,2.168a6.675,6.675,0,0,1-6.105.833c-1.867-.641-2.533-1.685-3-3.815a3.759,3.759,0,0,0,2.5,2.164,6.677,6.677,0,0,0,6.105-.833c.918-.687,1.166-1.549,2.4-2.168,1.594-.8,3.472-.974,4.8-1.53,3.748-1.566,7.8-4.368,9.1-8.8A2.127,2.127,0,0,0,1650.948,1526.48Z" transform="translate(-1625.771 -1522.053)" fill="#e5e5e5" fill-rule="evenodd"/>
            <path id="Path_7767" data-name="Path 7767" d="M1625.334,1510.785a22.8,22.8,0,0,1,.308,6.146c-.215,2.015.554,3.3,2.743,3.724,2.522.484,7.044-1.948,6.624-4.619-.37-2.356.184-5.282.323-7.543Z" transform="translate(-1625.032 -1508.493)" fill-rule="evenodd" fill="url(#linear-gradient-24)"/>
            <path id="Path_7768" data-name="Path 7768" d="M1635.357,1531.485a4.431,4.431,0,0,0,1.733.251c1.211,4.537-8.318,14.29-12.747,7.771-.257-1.073-.389-6.158.063-7.282.3-.75.858-.767,1.764-.5,1.928.558,2.522,3.093,3.847,3.352,1.576.307,2.576-.828,3.154-2.051.62-1.314.443-2.788.768-3.442.366-.735,1.048-.289.928.055A1.881,1.881,0,0,0,1635.357,1531.485Z" transform="translate(-1624.108 -1524.09)" fill="#1c236c" fill-rule="evenodd"/>
            <path id="Path_7769" data-name="Path 7769" d="M1720.479,1523.706a1.424,1.424,0,0,1,1.045.874,9.383,9.383,0,0,1,.005,2.144c1.043-2.375-.019-3.62-1.026-4.013a1.907,1.907,0,0,0-.884-.148c.227.136.225.231.219.346A.744.744,0,0,0,1720.479,1523.706Z" transform="translate(-1696.111 -1519.094)" fill="#e5e5e5" fill-rule="evenodd"/>
          </g>
          <g id="Group_52103" data-name="Group 52103">
            <path id="Path_7770" data-name="Path 7770" d="M1616.667,1051.858c9.343-1.275,12.74,6.615,13.891,16.471,1.4,12.018,4.322,22.066.938,36.173-1.952,8.135-4.519,13.131-5.188,17.773-.651,4.521-1.1,11.179-1.475,16.428-.394,5.5-3.225,23.781-3.3,27.61-.165,3.844-6.607,5.773-9.34,2.541-.874-6.446-2.9-27.8-2.565-33.67.517-8.989,3-12.859,3.978-21.926,1-9.319-1.739-19.478-2.741-28.811-3.675-6.951-3.272-12.382-1.317-17.187C1611.79,1061.735,1614.684,1059.64,1616.667,1051.858Z" transform="translate(-1608.076 -1051.722)" fill-rule="evenodd" fill="url(#linear-gradient-25)"/>
            <path id="Path_7771" data-name="Path 7771" d="M1649.9,1101.229a34.564,34.564,0,0,1,.807,4.421c1.372,12.022,4.322,22.065.938,36.173-1.952,8.135-4.519,13.131-5.187,17.773-.651,4.521-1.1,11.18-1.475,16.428-.394,5.5-3.449,24.173-3.528,28a3.65,3.65,0,0,1-3.107,3.631c-.779-12.525-1.395-23.645.12-35.329.993-7.656,3.157-15.723,3.624-21.578,1.033-12.932-1.941-23.158-7.288-27.3a8.506,8.506,0,0,0,7.2-.447C1641.145,1115.463,1645.527,1107.54,1649.9,1101.229Z" transform="translate(-1628.227 -1089.043)" fill="#1e2353" fill-rule="evenodd" opacity="0.3" style="mix-blend-mode: multiply;isolation: isolate"/>
            <path id="Path_7772" data-name="Path 7772" d="M1633.412,1507.275c-.087,1.093-.228,2.128-.239,2.685-.165,3.844-7.277,5.55-10.01,2.318-.1-.726-.406-1.975-.529-3.035C1625.011,1511.035,1629.521,1512.4,1633.412,1507.275Z" transform="translate(-1619.051 -1395.147)" fill-rule="evenodd" fill="url(#linear-gradient-26)"/>
          </g>
        </g>
        <g id="Group_52107" data-name="Group 52107" transform="translate(19.401 105.711)">
          <g id="Group_52105" data-name="Group 52105" transform="translate(0 94.257)">
            <path id="Path_7773" data-name="Path 7773" d="M1666.02,1469.945c.455-4.4,4.062-12.858,4.915-15.276l-8.7-4.475c-1.477,5.551-.958,9.466-4.32,11.949Z" transform="translate(-1651.738 -1450.194)" fill-rule="evenodd" fill="url(#linear-gradient-24)"/>
            <path id="Path_7774" data-name="Path 7774" d="M1645.665,1494.637c-1.509-1.582-.6-2.632-1.173-5.23a3.354,3.354,0,0,0-1.878-2.477c-1.38-.49-1.724.5-2.776,1.2-1.382.917-2.173.845-3.1,2.153-3.87.986-4.173,4.45-3.258,7.923.849,3.223,1.763,3.541,1.821,5.237a7.736,7.736,0,0,1-.479,2.214c-.786,2.674.96,5.9,2.177,7.54,1.878,2.53,6.5,4.374,9.9,4.063.655-.06.972-.665,1.028-1.462.171-2.4-.827-6.511-1.115-9.182a21.55,21.55,0,0,1,.237-5c.416-2.659,1.153-5.463,1.03-6.811C1647.942,1493.307,1647.488,1496.547,1645.665,1494.637Z" transform="translate(-1632.995 -1477.789)" fill="#293288" fill-rule="evenodd"/>
            <path id="Path_7775" data-name="Path 7775" d="M1637.961,1500.344c-5.133.256-5.452,4.361-4.484,8.076.841,3.226,1.763,3.541,1.822,5.237a7.715,7.715,0,0,1-.479,2.213c-.786,2.674.96,5.9,2.177,7.54,1.877,2.53,6.5,4.375,9.894,4.063a1.036,1.036,0,0,0,.8-.531c.352-.564-.65-3.77-1.056-4.542a25.3,25.3,0,0,1-2.583-5.962c-.47-1.859-.115-4.721-.479-6.89C1642.65,1504.092,1641.9,1500.918,1637.961,1500.344Z" transform="translate(-1632.988 -1488)" fill="#fff" fill-rule="evenodd"/>
            <path id="Path_7776" data-name="Path 7776" d="M1632.824,1509.62a13.862,13.862,0,0,0,.485,3.019c.84,3.225,1.763,3.541,1.821,5.237a7.725,7.725,0,0,1-.479,2.213c-.786,2.674.961,5.9,2.177,7.54,1.878,2.53,6.5,4.375,9.9,4.063a.943.943,0,0,0,.466-.171,4.281,4.281,0,0,0-.479-2.051c-1.4-3.241-4.865-7.863-5.236-10.923-.179-1.474.1-2.653.035-3.983a11.359,11.359,0,0,0-2.02-6.473C1637.474,1505.379,1632.67,1504.576,1632.824,1509.62Z" transform="translate(-1632.82 -1492.219)" fill="#eaeaed" fill-rule="evenodd"/>
          </g>
          <g id="Group_52106" data-name="Group 52106" transform="translate(6.438)">
            <path id="Path_7777" data-name="Path 7777" d="M1674.927,1128.518c-1.023-8.625-3.943-17.022-6.586-25.19-12.466-7.568-10.562-19.94-5.31-28.527l13.257-4.44c1.345,2.143,2.351-4.344,3.277-2.9,2.043,3.175,6.041,12.669,7.606,18.3,3.228,11.619,4.188,22.715,2.931,37.335-.111,1.291-.307,3.282-.431,5.19-.005.345-.246,2.6-.308,2.911-.468,4.428-16.438,35.347-20.133,42.728-.334-3.175-5.337-6.377-8.05-5.041,1.667-11.145,3.944-21.489,5.572-25.5C1670.077,1135.188,1672.777,1132.658,1674.927,1128.518Z" transform="translate(-1658.979 -1067.246)" fill-rule="evenodd" fill="url(#linear-gradient-28)"/>
            <path id="Path_7778" data-name="Path 7778" d="M1677.819,1471.067c-.673,1.332-1.2,1.852-1.851,3.143-.334-3.175-5.337-6.377-8.05-5.04.222-1.484.008-1.895.249-3.337C1670.764,1464.633,1677.752,1467.857,1677.819,1471.067Z" transform="translate(-1665.718 -1367.533)" fill-rule="evenodd" fill="url(#linear-gradient-29)"/>
          </g>
        </g>
        <path id="Path_7779" data-name="Path 7779" d="M1638.8,914.465c-.415-1.009-.509-1.971-.839-3.054,2.5-8.083-3.246-10.484,1.368-20.528,3.174-6.908,4.039-11.037,2.545-14.446-3.291-7.505-23.962-16.712-31.957-17.616-5.523-.624-8.665,5.192-8.62,11.148.121,15.922,5.394,17.521,6.063,34.192a16.392,16.392,0,0,0,1.62,5.18c.043.989.064,2.582.1,3.487C1611.332,919.949,1638.529,922.215,1638.8,914.465Z" transform="translate(-1589.653 -804.376)" fill-rule="evenodd" fill="url(#linear-gradient-30)"/>
        <path id="Path_7780" data-name="Path 7780" d="M1638.8,914.464a17.492,17.492,0,0,1-.686-2.505c-5.208,4.725-15.838,3.169-21.818.844-.6-5.869-1.567-8.316-.335-11.946,6.371-2.99,11.655-5.8,15.133-9,6.159-5.659,6.652-12.522-2.517-23.716l.84-2.067c-7.021-3.805-15.143-6.764-19.5-7.256-5.523-.624-8.665,5.192-8.62,11.148.121,15.923,5.394,17.521,6.063,34.192a16.379,16.379,0,0,0,1.62,5.18c.043.989.064,2.582.1,3.487C1611.332,919.949,1638.529,922.215,1638.8,914.464Z" transform="translate(-1589.653 -804.376)" fill="#ff8fd5" fill-rule="evenodd" opacity="0.5" style="mix-blend-mode: multiply;isolation: isolate"/>
        <g id="Group_52108" data-name="Group 52108" transform="translate(43.193 46.781)">
          <path id="Path_7781" data-name="Path 7781" d="M1902.4,833.531a4.26,4.26,0,0,0-.266,1.264,10.144,10.144,0,0,0-.612,1.918,17.854,17.854,0,0,0-.155,3.157,6.914,6.914,0,0,0,.275,1.941c-.789,1.545-2.032,2.494-3.193,3.769l3.76,2.867c1.586-1.046,2.825-2.145,4.191-3.054a4.615,4.615,0,0,0,1.83-1.033c.871-.908,3.435-3.605,3.581-4.665a24.18,24.18,0,0,0-.417-5.392c-.679-3.81-2.131-7.813-2.38-6.046-.363.423-.066,3.866-.3,4.377-.89,1.025-1.314,1.446-2.429,2.667a12.765,12.765,0,0,1-1.481.9c-.384.1-.6-.164-.609-.5a16.117,16.117,0,0,1,.426-2.03c0-1.633-.405-2.558-1.278-2.473a.864.864,0,0,0-.82.764C1902.438,832.336,1902.462,832.864,1902.4,833.531Z" transform="translate(-1856.861 -827.827)" fill-rule="evenodd" fill="url(#linear-gradient-31)"/>
          <path id="Path_7782" data-name="Path 7782" d="M1736.4,892.382c5.176.8,15.894,7.132,22.786,10.22,3.844-5.478,8.886-12.042,12-14.251a10.312,10.312,0,0,0,1.547-1.111q.678-.83,1.317-1.707c1.944.27,4.76,2.7,4.723,3.844-.313.573-.632,1.172-.956,1.79a11.74,11.74,0,0,0-.271,1.826c-1.056,3.835-6.874,12.694-9.586,16.646-1.567,2.284-2.118,3.624-3.18,4.306-1.7,1.094-3.989.5-8.391-.61-3.7-.931-15.667-3.016-21.171-5.92-3.881-2.048-6.859-5.829-5.317-10.076C1730.885,894.616,1733.068,891.868,1736.4,892.382Z" transform="translate(-1729.482 -871.329)" fill-rule="evenodd" fill="url(#linear-gradient-32)"/>
        </g>
        <g id="Group_52112" data-name="Group 52112" transform="translate(0 23.602)">
          <g id="Group_52110" data-name="Group 52110">
            <g id="Group_52109" data-name="Group 52109" transform="translate(20.918 2.418)">
              <path id="Path_7783" data-name="Path 7783" d="M1645.76,822.9c-.612,2.595,8.859,5.4,12.1,3.986l.068-.628c.837-3.87,1.66-7.159,2.238-9.877,1.509.643,5.213.831,5.54.314-9.984-7.974-21.66-13.869-23.161-9.843.989,2.917,3.546,4.989,4.823,6.889a5.982,5.982,0,0,1,.669,2.61h0A28.2,28.2,0,0,1,1645.76,822.9Z" transform="translate(-1641.672 -790.276)" fill-rule="evenodd" fill="url(#linear-gradient-33)"/>
              <path id="Path_7784" data-name="Path 7784" d="M1662.968,769.946c-.86.561-6.973-1.471-7.467-1.447-4.755.236-9.872-.151-10.816-1.554-1.278-1.9-3.834-3.972-4.824-6.889-1.581-4.661-1.273-9.918,2.989-13.577,7.41-6.363,19.035-1.7,20.7,5.507.682,2.956-.164,3.2-.023,5.182.258,3.648.671,2.273.335,8.045C1663.734,767.413,1663.538,769.574,1662.968,769.946Z" transform="translate(-1638.984 -743.478)" fill="#ffa698" fill-rule="evenodd"/>
              <path id="Path_7785" data-name="Path 7785" d="M1655.438,861.915c.26,2.361,6.9,4.025,10.934,3.086.432-.1.7-.183.855-.456a8.648,8.648,0,0,1,2.389,3.815c-3.483,3.358-14.489,1.389-15.826-2.544A2.959,2.959,0,0,1,1655.438,861.915Z" transform="translate(-1649.982 -832.763)" fill="#ff89db" fill-rule="evenodd"/>
            </g>
            <path id="Path_7786" data-name="Path 7786" d="M1562.031,757.4c-6.335,5.3-9.9,14.838-7.021,20.25,2.612,4.906,8.983,7.791,7.022,10.9-1.621,2.566-5.434,5.141-.9,9.284,2.336,2.134,8.042,7.857,19.689,4.892,11.353-2.89,23.266-12.7,13.7-23.42-10.065-11.284-4.177-13.779,1.6-22.653,3.052-4.692,5.781-13.964,3.166-17.413-4.485-5.916-7.465-1.653-11.781-3.743-8.232-3.987-14.984-1.137-18.855,5.1C1565.185,746.171,1567.068,753.186,1562.031,757.4Z" transform="translate(-1553.998 -733.653)" fill-rule="evenodd" fill="url(#linear-gradient-34)"/>
          </g>
          <g id="Group_52111" data-name="Group 52111" transform="translate(12.787 0.459)" style="mix-blend-mode: screen;isolation: isolate">
            <path id="Path_7787" data-name="Path 7787" d="M1628.457,738.55c-5.328-3.6-11.655-4.384-16.774-.213-5.241,4.27-6.89,13.1-4.942,20.923.922,3.7,9.02,5.06,15.472.492C1629.431,754.644,1634.732,743.087,1628.457,738.55Z" transform="translate(-1605.95 -735.519)" fill-rule="evenodd" fill="url(#linear-gradient-35)"/>
            <path id="Path_7788" data-name="Path 7788" d="M1687.556,744.426c5.335,9.712.369,17.125-5.359,24.786l1.116,5.917C1689.567,768.093,1705.694,745.707,1687.556,744.426Z" transform="translate(-1663.429 -742.234)" fill-rule="evenodd" fill="url(#linear-gradient-36)"/>
          </g>
        </g>
      </g>
    </g>
  </g>
</svg>
