<svg id="facebook" xmlns="http://www.w3.org/2000/svg" width="55.311" height="56.236" viewBox="0 0 55.311 56.236">
  <g id="Group_56213" data-name="Group 56213" transform="translate(0 0)" opacity="0.13" style="mix-blend-mode: multiply;isolation: isolate">
    <rect id="Rectangle_2148" data-name="Rectangle 2148" width="48.483" height="48.483" rx="23.65" transform="translate(6.828 7.753)" fill="#f1f2f2" opacity="0"/>
    <rect id="Rectangle_2149" data-name="Rectangle 2149" width="48.483" height="48.483" rx="23.65" transform="translate(6.796 7.716)" fill="#f0f1f1" opacity="0.005"/>
    <rect id="Rectangle_2150" data-name="Rectangle 2150" width="48.483" height="48.483" rx="23.65" transform="translate(6.763 7.68)" fill="#eff0f0" opacity="0.009"/>
    <rect id="Rectangle_2151" data-name="Rectangle 2151" width="48.483" height="48.483" rx="23.65" transform="translate(6.731 7.643)" fill="#eeefef" opacity="0.014"/>
    <rect id="Rectangle_2152" data-name="Rectangle 2152" width="48.483" height="48.483" rx="23.65" transform="translate(6.699 7.606)" fill="#edeeee" opacity="0.019"/>
    <rect id="Rectangle_2153" data-name="Rectangle 2153" width="48.483" height="48.483" rx="23.65" transform="translate(6.666 7.569)" fill="#eceded" opacity="0.024"/>
    <rect id="Rectangle_2154" data-name="Rectangle 2154" width="48.483" height="48.483" rx="23.65" transform="translate(6.634 7.533)" fill="#ebecec" opacity="0.028"/>
    <rect id="Rectangle_2155" data-name="Rectangle 2155" width="48.483" height="48.483" rx="23.65" transform="translate(6.602 7.496)" fill="#eaebeb" opacity="0.033"/>
    <rect id="Rectangle_2156" data-name="Rectangle 2156" width="48.483" height="48.483" rx="23.65" transform="translate(6.569 7.459)" fill="#e9eaea" opacity="0.038"/>
    <rect id="Rectangle_2157" data-name="Rectangle 2157" width="48.483" height="48.483" rx="23.65" transform="translate(6.537 7.422)" fill="#e8e9e9" opacity="0.043"/>
    <rect id="Rectangle_2158" data-name="Rectangle 2158" width="48.483" height="48.483" rx="23.65" transform="translate(6.505 7.386)" fill="#e7e8e8" opacity="0.047"/>
    <rect id="Rectangle_2159" data-name="Rectangle 2159" width="48.483" height="48.483" rx="23.65" transform="translate(6.472 7.349)" fill="#e6e7e7" opacity="0.052"/>
    <rect id="Rectangle_2160" data-name="Rectangle 2160" width="48.483" height="48.483" rx="23.65" transform="translate(6.44 7.312)" fill="#e5e6e6" opacity="0.057"/>
    <rect id="Rectangle_2161" data-name="Rectangle 2161" width="48.483" height="48.483" rx="23.65" transform="translate(6.408 7.275)" fill="#e4e5e5" opacity="0.062"/>
    <rect id="Rectangle_2162" data-name="Rectangle 2162" width="48.483" height="48.483" rx="23.65" transform="translate(6.375 7.239)" fill="#e3e4e4" opacity="0.066"/>
    <rect id="Rectangle_2163" data-name="Rectangle 2163" width="48.483" height="48.483" rx="23.65" transform="translate(6.343 7.202)" fill="#e2e3e3" opacity="0.071"/>
    <rect id="Rectangle_2164" data-name="Rectangle 2164" width="48.483" height="48.483" rx="23.65" transform="translate(6.31 7.165)" fill="#e1e2e2" opacity="0.076"/>
    <rect id="Rectangle_2165" data-name="Rectangle 2165" width="48.483" height="48.483" rx="23.65" transform="translate(6.278 7.128)" fill="#e0e1e1" opacity="0.081"/>
    <rect id="Rectangle_2166" data-name="Rectangle 2166" width="48.483" height="48.483" rx="23.65" transform="translate(6.246 7.092)" fill="#dfe0e0" opacity="0.085"/>
    <rect id="Rectangle_2167" data-name="Rectangle 2167" width="48.483" height="48.483" rx="23.65" transform="translate(6.213 7.055)" fill="#dedfdf" opacity="0.09"/>
    <rect id="Rectangle_2168" data-name="Rectangle 2168" width="48.483" height="48.483" rx="23.65" transform="translate(6.181 7.018)" fill="#dddede" opacity="0.095"/>
    <rect id="Rectangle_2169" data-name="Rectangle 2169" width="48.483" height="48.483" rx="23.65" transform="translate(6.149 6.981)" fill="#dcdddd" opacity="0.1"/>
    <rect id="Rectangle_2170" data-name="Rectangle 2170" width="48.483" height="48.483" rx="23.65" transform="translate(6.116 6.945)" fill="#dcdcdc" opacity="0.104"/>
    <rect id="Rectangle_2171" data-name="Rectangle 2171" width="48.483" height="48.483" rx="23.65" transform="translate(6.084 6.908)" fill="#dbdbdb" opacity="0.109"/>
    <rect id="Rectangle_2172" data-name="Rectangle 2172" width="48.483" height="48.483" rx="23.65" transform="translate(6.052 6.871)" fill="#dadada" opacity="0.114"/>
    <rect id="Rectangle_2173" data-name="Rectangle 2173" width="48.483" height="48.483" rx="23.65" transform="translate(6.019 6.834)" fill="#d9d9d9" opacity="0.118"/>
    <rect id="Rectangle_2174" data-name="Rectangle 2174" width="48.483" height="48.483" rx="23.65" transform="translate(5.987 6.798)" fill="#d8d8d8" opacity="0.123"/>
    <rect id="Rectangle_2175" data-name="Rectangle 2175" width="48.483" height="48.483" rx="23.65" transform="translate(5.954 6.761)" fill="#d7d7d7" opacity="0.128"/>
    <rect id="Rectangle_2176" data-name="Rectangle 2176" width="48.483" height="48.483" rx="23.65" transform="translate(5.922 6.724)" fill="#d6d6d6" opacity="0.133"/>
    <rect id="Rectangle_2177" data-name="Rectangle 2177" width="48.483" height="48.483" rx="23.65" transform="translate(5.89 6.688)" fill="#d5d5d5" opacity="0.137"/>
    <rect id="Rectangle_2178" data-name="Rectangle 2178" width="48.483" height="48.483" rx="23.65" transform="translate(5.857 6.651)" fill="#d4d4d4" opacity="0.142"/>
    <rect id="Rectangle_2179" data-name="Rectangle 2179" width="48.483" height="48.483" rx="23.65" transform="translate(5.825 6.614)" fill="#d3d3d3" opacity="0.147"/>
    <rect id="Rectangle_2180" data-name="Rectangle 2180" width="48.483" height="48.483" rx="23.65" transform="translate(5.793 6.577)" fill="#d2d2d2" opacity="0.152"/>
    <rect id="Rectangle_2181" data-name="Rectangle 2181" width="48.483" height="48.483" rx="23.65" transform="translate(5.76 6.541)" fill="#d1d1d1" opacity="0.156"/>
    <rect id="Rectangle_2182" data-name="Rectangle 2182" width="48.483" height="48.483" rx="23.65" transform="translate(5.728 6.504)" fill="#d0d0d0" opacity="0.161"/>
    <rect id="Rectangle_2183" data-name="Rectangle 2183" width="48.483" height="48.483" rx="23.65" transform="translate(5.696 6.467)" fill="#cfcfcf" opacity="0.166"/>
    <rect id="Rectangle_2184" data-name="Rectangle 2184" width="48.483" height="48.483" rx="23.65" transform="translate(5.663 6.43)" fill="#cecece" opacity="0.171"/>
    <rect id="Rectangle_2185" data-name="Rectangle 2185" width="48.483" height="48.483" rx="23.65" transform="translate(5.631 6.394)" fill="#cdcdcd" opacity="0.175"/>
    <rect id="Rectangle_2186" data-name="Rectangle 2186" width="48.483" height="48.483" rx="23.65" transform="translate(5.598 6.357)" fill="#ccc" opacity="0.18"/>
    <rect id="Rectangle_2187" data-name="Rectangle 2187" width="48.483" height="48.483" rx="23.65" transform="translate(5.566 6.32)" fill="#cbcbcb" opacity="0.185"/>
    <rect id="Rectangle_2188" data-name="Rectangle 2188" width="48.483" height="48.483" rx="23.65" transform="translate(5.534 6.283)" fill="#cacaca" opacity="0.19"/>
    <rect id="Rectangle_2189" data-name="Rectangle 2189" width="48.483" height="48.483" rx="23.65" transform="translate(5.501 6.247)" fill="#c9c9c9" opacity="0.194"/>
    <rect id="Rectangle_2190" data-name="Rectangle 2190" width="48.483" height="48.483" rx="23.65" transform="translate(5.469 6.21)" fill="#c8c8c8" opacity="0.199"/>
    <rect id="Rectangle_2191" data-name="Rectangle 2191" width="48.483" height="48.483" rx="23.65" transform="translate(5.437 6.173)" fill="#c7c7c7" opacity="0.204"/>
    <rect id="Rectangle_2192" data-name="Rectangle 2192" width="48.483" height="48.483" rx="23.65" transform="translate(5.404 6.136)" fill="#c6c6c6" opacity="0.209"/>
    <rect id="Rectangle_2193" data-name="Rectangle 2193" width="48.483" height="48.483" rx="23.65" transform="translate(5.372 6.1)" fill="#c5c5c5" opacity="0.213"/>
    <rect id="Rectangle_2194" data-name="Rectangle 2194" width="48.483" height="48.483" rx="23.65" transform="translate(5.34 6.063)" fill="#c4c4c4" opacity="0.218"/>
    <rect id="Rectangle_2195" data-name="Rectangle 2195" width="48.483" height="48.483" rx="23.65" transform="translate(5.307 6.026)" fill="#c3c3c3" opacity="0.223"/>
    <rect id="Rectangle_2196" data-name="Rectangle 2196" width="48.483" height="48.483" rx="23.65" transform="translate(5.275 5.989)" fill="#c2c2c2" opacity="0.227"/>
    <rect id="Rectangle_2197" data-name="Rectangle 2197" width="48.483" height="48.483" rx="23.65" transform="translate(5.243 5.953)" fill="#c1c1c1" opacity="0.232"/>
    <rect id="Rectangle_2198" data-name="Rectangle 2198" width="48.483" height="48.483" rx="23.65" transform="translate(5.21 5.916)" fill="silver" opacity="0.237"/>
    <rect id="Rectangle_2199" data-name="Rectangle 2199" width="48.483" height="48.483" rx="23.65" transform="translate(5.178 5.879)" fill="#bfbfbf" opacity="0.242"/>
    <rect id="Rectangle_2200" data-name="Rectangle 2200" width="48.483" height="48.483" rx="23.65" transform="translate(5.145 5.842)" fill="#bebebe" opacity="0.246"/>
    <rect id="Rectangle_2201" data-name="Rectangle 2201" width="48.483" height="48.483" rx="23.65" transform="translate(5.113 5.806)" fill="#bdbdbd" opacity="0.251"/>
    <rect id="Rectangle_2202" data-name="Rectangle 2202" width="48.483" height="48.483" rx="23.65" transform="translate(5.081 5.769)" fill="#bcbcbc" opacity="0.256"/>
    <rect id="Rectangle_2203" data-name="Rectangle 2203" width="48.483" height="48.483" rx="23.65" transform="translate(5.048 5.732)" fill="#bbb" opacity="0.261"/>
    <rect id="Rectangle_2204" data-name="Rectangle 2204" width="48.483" height="48.483" rx="23.65" transform="translate(5.016 5.695)" fill="#bababa" opacity="0.265"/>
    <rect id="Rectangle_2205" data-name="Rectangle 2205" width="48.483" height="48.483" rx="23.65" transform="translate(4.984 5.659)" fill="#b9b9b9" opacity="0.27"/>
    <rect id="Rectangle_2206" data-name="Rectangle 2206" width="48.483" height="48.483" rx="23.65" transform="translate(4.951 5.622)" fill="#b8b8b8" opacity="0.275"/>
    <rect id="Rectangle_2207" data-name="Rectangle 2207" width="48.483" height="48.483" rx="23.65" transform="translate(4.919 5.585)" fill="#b7b7b7" opacity="0.28"/>
    <rect id="Rectangle_2208" data-name="Rectangle 2208" width="48.483" height="48.483" rx="23.65" transform="translate(4.887 5.548)" fill="#b6b6b6" opacity="0.284"/>
    <rect id="Rectangle_2209" data-name="Rectangle 2209" width="48.483" height="48.483" rx="23.65" transform="translate(4.854 5.512)" fill="#b5b5b5" opacity="0.289"/>
    <rect id="Rectangle_2210" data-name="Rectangle 2210" width="48.483" height="48.483" rx="23.65" transform="translate(4.822 5.475)" fill="#b4b4b4" opacity="0.294"/>
    <rect id="Rectangle_2211" data-name="Rectangle 2211" width="48.483" height="48.483" rx="23.65" transform="translate(4.789 5.438)" fill="#b3b3b3" opacity="0.299"/>
    <rect id="Rectangle_2212" data-name="Rectangle 2212" width="48.483" height="48.483" rx="23.65" transform="translate(4.757 5.401)" fill="#b3b2b2" opacity="0.303"/>
    <rect id="Rectangle_2213" data-name="Rectangle 2213" width="48.483" height="48.483" rx="23.65" transform="translate(4.725 5.365)" fill="#b2b1b1" opacity="0.308"/>
    <path id="Path_10431" data-name="Path 10431" d="M16.7,0H31.784a16.7,16.7,0,0,1,16.7,16.7V31.784a16.7,16.7,0,0,1-16.7,16.7H16.7A16.7,16.7,0,0,1,0,31.784V16.7A16.7,16.7,0,0,1,16.7,0Z" transform="translate(4.692 5.328)" fill="#b1b0b0" opacity="0.313"/>
    <rect id="Rectangle_2215" data-name="Rectangle 2215" width="48.483" height="48.483" rx="23.65" transform="translate(4.66 5.291)" fill="#b0afaf" opacity="0.318"/>
    <rect id="Rectangle_2216" data-name="Rectangle 2216" width="48.483" height="48.483" rx="23.65" transform="translate(4.628 5.254)" fill="#afaeae" opacity="0.322"/>
    <rect id="Rectangle_2217" data-name="Rectangle 2217" width="48.483" height="48.483" rx="23.65" transform="translate(4.595 5.218)" fill="#aeadad" opacity="0.327"/>
    <rect id="Rectangle_2218" data-name="Rectangle 2218" width="48.483" height="48.483" rx="23.65" transform="translate(4.563 5.181)" fill="#adacac" opacity="0.332"/>
    <rect id="Rectangle_2219" data-name="Rectangle 2219" width="48.483" height="48.483" rx="23.65" transform="translate(4.531 5.144)" fill="#acabab" opacity="0.336"/>
    <rect id="Rectangle_2220" data-name="Rectangle 2220" width="48.483" height="48.483" rx="23.65" transform="translate(4.498 5.107)" fill="#abaaaa" opacity="0.341"/>
    <rect id="Rectangle_2221" data-name="Rectangle 2221" width="48.483" height="48.483" rx="23.65" transform="translate(4.466 5.071)" fill="#aaa9a9" opacity="0.346"/>
    <rect id="Rectangle_2222" data-name="Rectangle 2222" width="48.483" height="48.483" rx="23.65" transform="translate(4.433 5.034)" fill="#a9a8a8" opacity="0.351"/>
    <rect id="Rectangle_2223" data-name="Rectangle 2223" width="48.483" height="48.483" rx="23.65" transform="translate(4.401 4.997)" fill="#a8a7a7" opacity="0.355"/>
    <rect id="Rectangle_2224" data-name="Rectangle 2224" width="48.483" height="48.483" rx="23.65" transform="translate(4.369 4.961)" fill="#a7a6a6" opacity="0.36"/>
    <rect id="Rectangle_2225" data-name="Rectangle 2225" width="48.483" height="48.483" rx="23.65" transform="translate(4.336 4.924)" fill="#a6a5a5" opacity="0.365"/>
    <rect id="Rectangle_2226" data-name="Rectangle 2226" width="48.483" height="48.483" rx="23.65" transform="translate(4.304 4.887)" fill="#a5a4a4" opacity="0.37"/>
    <rect id="Rectangle_2227" data-name="Rectangle 2227" width="48.483" height="48.483" rx="23.65" transform="translate(4.272 4.85)" fill="#a4a3a3" opacity="0.374"/>
    <rect id="Rectangle_2228" data-name="Rectangle 2228" width="48.483" height="48.483" rx="23.65" transform="translate(4.239 4.814)" fill="#a3a2a2" opacity="0.379"/>
    <rect id="Rectangle_2229" data-name="Rectangle 2229" width="48.483" height="48.483" rx="23.65" transform="translate(4.207 4.777)" fill="#a2a1a1" opacity="0.384"/>
    <rect id="Rectangle_2230" data-name="Rectangle 2230" width="48.483" height="48.483" rx="23.65" transform="translate(4.175 4.74)" fill="#a1a0a0" opacity="0.389"/>
    <rect id="Rectangle_2231" data-name="Rectangle 2231" width="48.483" height="48.483" rx="23.65" transform="translate(4.142 4.703)" fill="#a09f9f" opacity="0.393"/>
    <rect id="Rectangle_2232" data-name="Rectangle 2232" width="48.483" height="48.483" rx="23.65" transform="translate(4.11 4.667)" fill="#9f9e9e" opacity="0.398"/>
    <rect id="Rectangle_2233" data-name="Rectangle 2233" width="48.483" height="48.483" rx="23.65" transform="translate(4.078 4.63)" fill="#9e9d9d" opacity="0.403"/>
    <rect id="Rectangle_2234" data-name="Rectangle 2234" width="48.483" height="48.483" rx="23.65" transform="translate(4.045 4.593)" fill="#9d9c9c" opacity="0.408"/>
    <rect id="Rectangle_2235" data-name="Rectangle 2235" width="48.483" height="48.483" rx="23.65" transform="translate(4.013 4.556)" fill="#9c9b9b" opacity="0.412"/>
    <rect id="Rectangle_2236" data-name="Rectangle 2236" width="48.483" height="48.483" rx="23.65" transform="translate(3.98 4.52)" fill="#9b9a9a" opacity="0.417"/>
    <rect id="Rectangle_2237" data-name="Rectangle 2237" width="48.483" height="48.483" rx="23.65" transform="translate(3.948 4.483)" fill="#9a9999" opacity="0.422"/>
    <rect id="Rectangle_2238" data-name="Rectangle 2238" width="48.483" height="48.483" rx="23.65" transform="translate(3.916 4.446)" fill="#999898" opacity="0.427"/>
    <rect id="Rectangle_2239" data-name="Rectangle 2239" width="48.483" height="48.483" rx="23.65" transform="translate(3.883 4.409)" fill="#989797" opacity="0.431"/>
    <rect id="Rectangle_2240" data-name="Rectangle 2240" width="48.483" height="48.483" rx="23.65" transform="translate(3.851 4.373)" fill="#979696" opacity="0.436"/>
    <rect id="Rectangle_2241" data-name="Rectangle 2241" width="48.483" height="48.483" rx="23.65" transform="translate(3.819 4.336)" fill="#969595" opacity="0.441"/>
    <rect id="Rectangle_2242" data-name="Rectangle 2242" width="48.483" height="48.483" rx="23.65" transform="translate(3.786 4.299)" fill="#959494" opacity="0.445"/>
    <rect id="Rectangle_2243" data-name="Rectangle 2243" width="48.483" height="48.483" rx="23.65" transform="translate(3.754 4.262)" fill="#949393" opacity="0.45"/>
    <rect id="Rectangle_2244" data-name="Rectangle 2244" width="48.483" height="48.483" rx="23.65" transform="translate(3.722 4.226)" fill="#939292" opacity="0.455"/>
    <rect id="Rectangle_2245" data-name="Rectangle 2245" width="48.483" height="48.483" rx="23.65" transform="translate(3.689 4.189)" fill="#929191" opacity="0.46"/>
    <rect id="Rectangle_2246" data-name="Rectangle 2246" width="48.483" height="48.483" rx="23.65" transform="translate(3.657 4.152)" fill="#919090" opacity="0.464"/>
    <rect id="Rectangle_2247" data-name="Rectangle 2247" width="48.483" height="48.483" rx="23.65" transform="translate(3.624 4.115)" fill="#908f8f" opacity="0.469"/>
    <rect id="Rectangle_2248" data-name="Rectangle 2248" width="48.483" height="48.483" rx="23.65" transform="translate(3.592 4.079)" fill="#8f8e8e" opacity="0.474"/>
    <rect id="Rectangle_2249" data-name="Rectangle 2249" width="48.483" height="48.483" rx="23.65" transform="translate(3.56 4.042)" fill="#8e8d8d" opacity="0.479"/>
    <rect id="Rectangle_2250" data-name="Rectangle 2250" width="48.483" height="48.483" rx="23.65" transform="translate(3.527 4.005)" fill="#8d8c8c" opacity="0.483"/>
    <rect id="Rectangle_2251" data-name="Rectangle 2251" width="48.483" height="48.483" rx="23.65" transform="translate(3.495 3.968)" fill="#8c8b8b" opacity="0.488"/>
    <rect id="Rectangle_2252" data-name="Rectangle 2252" width="48.483" height="48.483" rx="23.65" transform="translate(3.463 3.932)" fill="#8b8a8a" opacity="0.493"/>
    <rect id="Rectangle_2253" data-name="Rectangle 2253" width="48.483" height="48.483" rx="23.65" transform="translate(3.43 3.895)" fill="#8a8989" opacity="0.498"/>
    <rect id="Rectangle_2254" data-name="Rectangle 2254" width="48.483" height="48.483" rx="23.65" transform="translate(3.398 3.858)" fill="#8a8889" opacity="0.502"/>
    <rect id="Rectangle_2255" data-name="Rectangle 2255" width="48.483" height="48.483" rx="23.65" transform="translate(3.366 3.821)" fill="#898788" opacity="0.507"/>
    <rect id="Rectangle_2256" data-name="Rectangle 2256" width="48.483" height="48.483" rx="23.65" transform="translate(3.333 3.785)" fill="#888687" opacity="0.512"/>
    <rect id="Rectangle_2257" data-name="Rectangle 2257" width="48.483" height="48.483" rx="23.65" transform="translate(3.301 3.748)" fill="#878586" opacity="0.517"/>
    <rect id="Rectangle_2258" data-name="Rectangle 2258" width="48.483" height="48.483" rx="23.65" transform="translate(3.268 3.711)" fill="#868485" opacity="0.521"/>
    <rect id="Rectangle_2259" data-name="Rectangle 2259" width="48.483" height="48.483" rx="23.65" transform="translate(3.236 3.674)" fill="#858384" opacity="0.526"/>
    <rect id="Rectangle_2260" data-name="Rectangle 2260" width="48.483" height="48.483" rx="23.65" transform="translate(3.204 3.638)" fill="#848283" opacity="0.531"/>
    <rect id="Rectangle_2261" data-name="Rectangle 2261" width="48.483" height="48.483" rx="23.65" transform="translate(3.171 3.601)" fill="#838182" opacity="0.536"/>
    <rect id="Rectangle_2262" data-name="Rectangle 2262" width="48.483" height="48.483" rx="23.65" transform="translate(3.139 3.564)" fill="#828081" opacity="0.54"/>
    <rect id="Rectangle_2263" data-name="Rectangle 2263" width="48.483" height="48.483" rx="23.65" transform="translate(3.107 3.527)" fill="#817f80" opacity="0.545"/>
    <rect id="Rectangle_2264" data-name="Rectangle 2264" width="48.483" height="48.483" rx="23.65" transform="translate(3.074 3.491)" fill="#807e7f" opacity="0.55"/>
    <rect id="Rectangle_2265" data-name="Rectangle 2265" width="48.483" height="48.483" rx="23.65" transform="translate(3.042 3.454)" fill="#7f7d7e" opacity="0.555"/>
    <rect id="Rectangle_2266" data-name="Rectangle 2266" width="48.483" height="48.483" rx="23.65" transform="translate(3.01 3.417)" fill="#7e7c7d" opacity="0.559"/>
    <rect id="Rectangle_2267" data-name="Rectangle 2267" width="48.483" height="48.483" rx="23.65" transform="translate(2.977 3.381)" fill="#7d7b7c" opacity="0.564"/>
    <rect id="Rectangle_2268" data-name="Rectangle 2268" width="48.483" height="48.483" rx="23.65" transform="translate(2.945 3.344)" fill="#7c7a7b" opacity="0.569"/>
    <rect id="Rectangle_2269" data-name="Rectangle 2269" width="48.483" height="48.483" rx="23.65" transform="translate(2.912 3.307)" fill="#7b797a" opacity="0.573"/>
    <rect id="Rectangle_2270" data-name="Rectangle 2270" width="48.483" height="48.483" rx="23.65" transform="translate(2.88 3.27)" fill="#7a7879" opacity="0.578"/>
    <rect id="Rectangle_2271" data-name="Rectangle 2271" width="48.483" height="48.483" rx="23.65" transform="translate(2.848 3.234)" fill="#797778" opacity="0.583"/>
    <rect id="Rectangle_2272" data-name="Rectangle 2272" width="48.483" height="48.483" rx="23.65" transform="translate(2.815 3.197)" fill="#787677" opacity="0.588"/>
    <rect id="Rectangle_2273" data-name="Rectangle 2273" width="48.483" height="48.483" rx="23.65" transform="translate(2.783 3.16)" fill="#777576" opacity="0.592"/>
    <rect id="Rectangle_2274" data-name="Rectangle 2274" width="48.483" height="48.483" rx="23.65" transform="translate(2.751 3.123)" fill="#767475" opacity="0.597"/>
    <rect id="Rectangle_2275" data-name="Rectangle 2275" width="48.483" height="48.483" rx="23.65" transform="translate(2.718 3.087)" fill="#757374" opacity="0.602"/>
    <rect id="Rectangle_2276" data-name="Rectangle 2276" width="48.483" height="48.483" rx="23.65" transform="translate(2.686 3.05)" fill="#747273" opacity="0.607"/>
    <rect id="Rectangle_2277" data-name="Rectangle 2277" width="48.483" height="48.483" rx="23.65" transform="translate(2.654 3.013)" fill="#737172" opacity="0.611"/>
    <rect id="Rectangle_2278" data-name="Rectangle 2278" width="48.483" height="48.483" rx="23.65" transform="translate(2.621 2.976)" fill="#727071" opacity="0.616"/>
    <rect id="Rectangle_2279" data-name="Rectangle 2279" width="48.483" height="48.483" rx="23.65" transform="translate(2.589 2.94)" fill="#716f70" opacity="0.621"/>
    <rect id="Rectangle_2280" data-name="Rectangle 2280" width="48.483" height="48.483" rx="23.65" transform="translate(2.557 2.903)" fill="#706e6f" opacity="0.626"/>
    <rect id="Rectangle_2281" data-name="Rectangle 2281" width="48.483" height="48.483" rx="23.65" transform="translate(2.524 2.866)" fill="#6f6d6e" opacity="0.63"/>
    <rect id="Rectangle_2282" data-name="Rectangle 2282" width="48.483" height="48.483" rx="23.65" transform="translate(2.492 2.829)" fill="#6e6c6d" opacity="0.635"/>
    <rect id="Rectangle_2283" data-name="Rectangle 2283" width="48.483" height="48.483" rx="23.65" transform="translate(2.459 2.793)" fill="#6d6b6c" opacity="0.64"/>
    <rect id="Rectangle_2284" data-name="Rectangle 2284" width="48.483" height="48.483" rx="23.65" transform="translate(2.427 2.756)" fill="#6c6a6b" opacity="0.645"/>
    <rect id="Rectangle_2285" data-name="Rectangle 2285" width="48.483" height="48.483" rx="23.65" transform="translate(2.395 2.719)" fill="#6b696a" opacity="0.649"/>
    <rect id="Rectangle_2286" data-name="Rectangle 2286" width="48.483" height="48.483" rx="23.65" transform="translate(2.362 2.682)" fill="#6a6869" opacity="0.654"/>
    <rect id="Rectangle_2287" data-name="Rectangle 2287" width="48.483" height="48.483" rx="23.65" transform="translate(2.33 2.646)" fill="#696768" opacity="0.659"/>
    <rect id="Rectangle_2288" data-name="Rectangle 2288" width="48.483" height="48.483" rx="23.65" transform="translate(2.298 2.609)" fill="#686667" opacity="0.664"/>
    <rect id="Rectangle_2289" data-name="Rectangle 2289" width="48.483" height="48.483" rx="23.65" transform="translate(2.265 2.572)" fill="#676566" opacity="0.668"/>
    <rect id="Rectangle_2290" data-name="Rectangle 2290" width="48.483" height="48.483" rx="23.65" transform="translate(2.233 2.535)" fill="#666465" opacity="0.673"/>
    <rect id="Rectangle_2291" data-name="Rectangle 2291" width="48.483" height="48.483" rx="23.65" transform="translate(2.201 2.499)" fill="#656364" opacity="0.678"/>
    <rect id="Rectangle_2292" data-name="Rectangle 2292" width="48.483" height="48.483" rx="23.65" transform="translate(2.168 2.462)" fill="#646263" opacity="0.682"/>
    <rect id="Rectangle_2293" data-name="Rectangle 2293" width="48.483" height="48.483" rx="23.65" transform="translate(2.136 2.425)" fill="#636162" opacity="0.687"/>
    <rect id="Rectangle_2294" data-name="Rectangle 2294" width="48.483" height="48.483" rx="23.65" transform="translate(2.103 2.388)" fill="#626061" opacity="0.692"/>
    <rect id="Rectangle_2295" data-name="Rectangle 2295" width="48.483" height="48.483" rx="23.65" transform="translate(2.071 2.352)" fill="#615f60" opacity="0.697"/>
    <rect id="Rectangle_2296" data-name="Rectangle 2296" width="48.483" height="48.483" rx="23.65" transform="translate(2.039 2.315)" fill="#615e5f" opacity="0.701"/>
    <rect id="Rectangle_2297" data-name="Rectangle 2297" width="48.483" height="48.483" rx="23.65" transform="translate(2.006 2.278)" fill="#605d5e" opacity="0.706"/>
    <rect id="Rectangle_2298" data-name="Rectangle 2298" width="48.483" height="48.483" rx="23.65" transform="translate(1.974 2.241)" fill="#5f5c5d" opacity="0.711"/>
    <rect id="Rectangle_2299" data-name="Rectangle 2299" width="48.483" height="48.483" rx="23.65" transform="translate(1.942 2.205)" fill="#5e5b5c" opacity="0.716"/>
    <rect id="Rectangle_2300" data-name="Rectangle 2300" width="48.483" height="48.483" rx="23.65" transform="translate(1.909 2.168)" fill="#5d5a5b" opacity="0.72"/>
    <rect id="Rectangle_2301" data-name="Rectangle 2301" width="48.483" height="48.483" rx="23.65" transform="translate(1.877 2.131)" fill="#5c595a" opacity="0.725"/>
    <rect id="Rectangle_2302" data-name="Rectangle 2302" width="48.483" height="48.483" rx="23.65" transform="translate(1.845 2.094)" fill="#5b5859" opacity="0.73"/>
    <rect id="Rectangle_2303" data-name="Rectangle 2303" width="48.483" height="48.483" rx="23.65" transform="translate(1.812 2.058)" fill="#5a5758" opacity="0.735"/>
    <rect id="Rectangle_2304" data-name="Rectangle 2304" width="48.483" height="48.483" rx="23.65" transform="translate(1.78 2.021)" fill="#595657" opacity="0.739"/>
    <rect id="Rectangle_2305" data-name="Rectangle 2305" width="48.483" height="48.483" rx="23.65" transform="translate(1.747 1.984)" fill="#585556" opacity="0.744"/>
    <rect id="Rectangle_2306" data-name="Rectangle 2306" width="48.483" height="48.483" rx="23.65" transform="translate(1.715 1.947)" fill="#575455" opacity="0.749"/>
    <rect id="Rectangle_2307" data-name="Rectangle 2307" width="48.483" height="48.483" rx="23.65" transform="translate(1.683 1.911)" fill="#565354" opacity="0.754"/>
    <rect id="Rectangle_2308" data-name="Rectangle 2308" width="48.483" height="48.483" rx="23.65" transform="translate(1.65 1.874)" fill="#555253" opacity="0.758"/>
    <rect id="Rectangle_2309" data-name="Rectangle 2309" width="48.483" height="48.483" rx="23.65" transform="translate(1.618 1.837)" fill="#545152" opacity="0.763"/>
    <rect id="Rectangle_2310" data-name="Rectangle 2310" width="48.483" height="48.483" rx="23.65" transform="translate(1.586 1.8)" fill="#535051" opacity="0.768"/>
    <rect id="Rectangle_2311" data-name="Rectangle 2311" width="48.483" height="48.483" rx="23.65" transform="translate(1.553 1.764)" fill="#524f50" opacity="0.773"/>
    <rect id="Rectangle_2312" data-name="Rectangle 2312" width="48.483" height="48.483" rx="23.65" transform="translate(1.521 1.727)" fill="#514e4f" opacity="0.777"/>
    <rect id="Rectangle_2313" data-name="Rectangle 2313" width="48.483" height="48.483" rx="23.65" transform="translate(1.489 1.69)" fill="#504d4e" opacity="0.782"/>
    <rect id="Rectangle_2314" data-name="Rectangle 2314" width="48.483" height="48.483" rx="23.65" transform="translate(1.456 1.654)" fill="#4f4c4d" opacity="0.787"/>
    <rect id="Rectangle_2315" data-name="Rectangle 2315" width="48.483" height="48.483" rx="23.65" transform="translate(1.424 1.617)" fill="#4e4b4c" opacity="0.791"/>
    <rect id="Rectangle_2316" data-name="Rectangle 2316" width="48.483" height="48.483" rx="23.65" transform="translate(1.392 1.58)" fill="#4d4a4b" opacity="0.796"/>
    <rect id="Rectangle_2317" data-name="Rectangle 2317" width="48.483" height="48.483" rx="23.65" transform="translate(1.359 1.543)" fill="#4c494a" opacity="0.801"/>
    <rect id="Rectangle_2318" data-name="Rectangle 2318" width="48.483" height="48.483" rx="23.65" transform="translate(1.327 1.507)" fill="#4b4849" opacity="0.806"/>
    <rect id="Rectangle_2319" data-name="Rectangle 2319" width="48.483" height="48.483" rx="23.65" transform="translate(1.294 1.47)" fill="#4a4748" opacity="0.81"/>
    <rect id="Rectangle_2320" data-name="Rectangle 2320" width="48.483" height="48.483" rx="23.65" transform="translate(1.262 1.433)" fill="#494647" opacity="0.815"/>
    <rect id="Rectangle_2321" data-name="Rectangle 2321" width="48.483" height="48.483" rx="23.65" transform="translate(1.23 1.396)" fill="#484546" opacity="0.82"/>
    <rect id="Rectangle_2322" data-name="Rectangle 2322" width="48.483" height="48.483" rx="23.65" transform="translate(1.197 1.36)" fill="#474445" opacity="0.825"/>
    <rect id="Rectangle_2323" data-name="Rectangle 2323" width="48.483" height="48.483" rx="23.65" transform="translate(1.165 1.323)" fill="#464344" opacity="0.829"/>
    <rect id="Rectangle_2324" data-name="Rectangle 2324" width="48.483" height="48.483" rx="23.65" transform="translate(1.133 1.286)" fill="#454243" opacity="0.834"/>
    <rect id="Rectangle_2325" data-name="Rectangle 2325" width="48.483" height="48.483" rx="23.65" transform="translate(1.1 1.249)" fill="#444142" opacity="0.839"/>
    <rect id="Rectangle_2326" data-name="Rectangle 2326" width="48.483" height="48.483" rx="23.65" transform="translate(1.068 1.213)" fill="#434041" opacity="0.844"/>
    <rect id="Rectangle_2327" data-name="Rectangle 2327" width="48.483" height="48.483" rx="23.65" transform="translate(1.036 1.176)" fill="#423f40" opacity="0.848"/>
    <rect id="Rectangle_2328" data-name="Rectangle 2328" width="48.483" height="48.483" rx="23.65" transform="translate(1.003 1.139)" fill="#413e3f" opacity="0.853"/>
    <rect id="Rectangle_2329" data-name="Rectangle 2329" width="48.483" height="48.483" rx="23.65" transform="translate(0.971 1.102)" fill="#403d3e" opacity="0.858"/>
    <rect id="Rectangle_2330" data-name="Rectangle 2330" width="48.483" height="48.483" rx="23.65" transform="translate(0.938 1.066)" fill="#3f3c3d" opacity="0.863"/>
    <rect id="Rectangle_2331" data-name="Rectangle 2331" width="48.483" height="48.483" rx="23.65" transform="translate(0.906 1.029)" fill="#3e3b3c" opacity="0.867"/>
    <rect id="Rectangle_2332" data-name="Rectangle 2332" width="48.483" height="48.483" rx="23.65" transform="translate(0.874 0.992)" fill="#3d3a3b" opacity="0.872"/>
    <rect id="Rectangle_2333" data-name="Rectangle 2333" width="48.483" height="48.483" rx="23.65" transform="translate(0.841 0.955)" fill="#3c393a" opacity="0.877"/>
    <rect id="Rectangle_2334" data-name="Rectangle 2334" width="48.483" height="48.483" rx="23.65" transform="translate(0.809 0.919)" fill="#3b3839" opacity="0.882"/>
    <rect id="Rectangle_2335" data-name="Rectangle 2335" width="48.483" height="48.483" rx="23.65" transform="translate(0.777 0.882)" fill="#3a3738" opacity="0.886"/>
    <rect id="Rectangle_2336" data-name="Rectangle 2336" width="48.483" height="48.483" rx="23.65" transform="translate(0.744 0.845)" fill="#393637" opacity="0.891"/>
    <rect id="Rectangle_2337" data-name="Rectangle 2337" width="48.483" height="48.483" rx="23.65" transform="translate(0.712 0.808)" fill="#383536" opacity="0.896"/>
    <rect id="Rectangle_2338" data-name="Rectangle 2338" width="48.483" height="48.483" rx="23.65" transform="translate(0.68 0.772)" fill="#383435" opacity="0.9"/>
    <rect id="Rectangle_2339" data-name="Rectangle 2339" width="48.483" height="48.483" rx="23.65" transform="translate(0.647 0.735)" fill="#373334" opacity="0.905"/>
    <rect id="Rectangle_2340" data-name="Rectangle 2340" width="48.483" height="48.483" rx="23.65" transform="translate(0.615 0.698)" fill="#363233" opacity="0.91"/>
    <rect id="Rectangle_2341" data-name="Rectangle 2341" width="48.483" height="48.483" rx="23.65" transform="translate(0.582 0.661)" fill="#353132" opacity="0.915"/>
    <rect id="Rectangle_2342" data-name="Rectangle 2342" width="48.483" height="48.483" rx="23.65" transform="translate(0.55 0.625)" fill="#343031" opacity="0.919"/>
    <rect id="Rectangle_2343" data-name="Rectangle 2343" width="48.483" height="48.483" rx="23.65" transform="translate(0.518 0.588)" fill="#332f30" opacity="0.924"/>
    <rect id="Rectangle_2344" data-name="Rectangle 2344" width="48.483" height="48.483" rx="23.65" transform="translate(0.485 0.551)" fill="#322e2f" opacity="0.929"/>
    <rect id="Rectangle_2345" data-name="Rectangle 2345" width="48.483" height="48.483" rx="23.65" transform="translate(0.453 0.514)" fill="#312d2e" opacity="0.934"/>
    <rect id="Rectangle_2346" data-name="Rectangle 2346" width="48.483" height="48.483" rx="23.65" transform="translate(0.421 0.478)" fill="#302c2d" opacity="0.938"/>
    <rect id="Rectangle_2347" data-name="Rectangle 2347" width="48.483" height="48.483" rx="23.65" transform="translate(0.388 0.441)" fill="#2f2b2c" opacity="0.943"/>
    <rect id="Rectangle_2348" data-name="Rectangle 2348" width="48.483" height="48.483" rx="23.65" transform="translate(0.356 0.404)" fill="#2e2a2b" opacity="0.948"/>
    <rect id="Rectangle_2349" data-name="Rectangle 2349" width="48.483" height="48.483" rx="23.65" transform="translate(0.324 0.367)" fill="#2d292a" opacity="0.953"/>
    <rect id="Rectangle_2350" data-name="Rectangle 2350" width="48.483" height="48.483" rx="23.65" transform="translate(0.291 0.331)" fill="#2c2829" opacity="0.957"/>
    <rect id="Rectangle_2351" data-name="Rectangle 2351" width="48.483" height="48.483" rx="23.65" transform="translate(0.259 0.294)" fill="#2b2728" opacity="0.962"/>
    <rect id="Rectangle_2352" data-name="Rectangle 2352" width="48.483" height="48.483" rx="23.65" transform="translate(0.227 0.257)" fill="#2a2627" opacity="0.967"/>
    <rect id="Rectangle_2353" data-name="Rectangle 2353" width="48.483" height="48.483" rx="23.65" transform="translate(0.194 0.22)" fill="#292526" opacity="0.972"/>
    <rect id="Rectangle_2354" data-name="Rectangle 2354" width="48.483" height="48.483" rx="23.65" transform="translate(0.162 0.184)" fill="#282425" opacity="0.976"/>
    <rect id="Rectangle_2355" data-name="Rectangle 2355" width="48.483" height="48.483" rx="23.65" transform="translate(0.129 0.147)" fill="#272324" opacity="0.981"/>
    <rect id="Rectangle_2356" data-name="Rectangle 2356" width="48.483" height="48.483" rx="23.65" transform="translate(0.097 0.11)" fill="#262223" opacity="0.986"/>
    <rect id="Rectangle_2357" data-name="Rectangle 2357" width="48.483" height="48.483" rx="23.65" transform="translate(0.065 0.074)" fill="#252122" opacity="0.991"/>
    <rect id="Rectangle_2358" data-name="Rectangle 2358" width="48.483" height="48.483" rx="23.65" transform="translate(0.032 0.037)" fill="#242021" opacity="0.995"/>
    <rect id="Rectangle_2359" data-name="Rectangle 2359" width="48.483" height="48.483" rx="23.65" fill="#231f20"/>
  </g>
  <g id="Group_56214" data-name="Group 56214" transform="translate(0 0)">
    <rect id="Rectangle_2360" data-name="Rectangle 2360" width="48.483" height="48.483" rx="23.65" fill="#3b5998"/>
    <path id="Path_10423" data-name="Path 10423" d="M459.054,182.57v-4.78s-4.888-.046-5.219-.046c-2.209,0-5.385,2.513-5.385,5.363v5.117h-4.577v5.426h4.515v13.462h5.344V193.588h4.722l.6-5.3h-5.26v-3.894a1.806,1.806,0,0,1,1.76-1.85C456.258,182.542,459.054,182.57,459.054,182.57Z" transform="translate(-427.222 -168.187)" fill="#f7f7f5"/>
  </g>
</svg>
