<svg xmlns="http://www.w3.org/2000/svg" xmlns:xlink="http://www.w3.org/1999/xlink" width="93.064" height="93.064" viewBox="0 0 93.064 93.064">
  <defs>
    <clipPath id="clip-path">
      <circle id="Ellipse_495" data-name="Ellipse 495" cx="38.68" cy="38.68" r="38.68" transform="translate(0 75.291) rotate(-76.717)" fill="#fae4d9"/>
    </clipPath>
  </defs>
  <g id="face" transform="translate(0 0)">
    <g id="Group_628" data-name="Group 628">
      <circle id="Ellipse_494" data-name="Ellipse 494" cx="38.68" cy="38.68" r="38.68" transform="translate(0 75.291) rotate(-76.717)" fill="#fae4d9"/>
      <g id="Group_627" data-name="Group 627" clip-path="url(#clip-path)">
        <g id="Group_626" data-name="Group 626" transform="translate(21.734 55.267)">
          <path id="Path_1368" data-name="Path 1368" d="M86.27,59.034c-1.222,3.5,0,33.052,0,33.052-8.282,4.774-20.986,2.36-29.648-.267a47.967,47.967,0,0,0-6.08-32.374c-10.181-17.632.989-35.268,4.047-39.943,1.8-.727,2.978-1.158,2.978-1.158l17.35,1.024,13.832,7.851C90.832,29.287,87.527,55.527,86.27,59.034Z" transform="translate(-36.685 -8.939)" fill="#d5d6d8"/>
          <path id="Path_1369" data-name="Path 1369" d="M66.049,26.872l-1.548-9.4L50.351,16.443,48.7,25.838h0v.01l-.1.613c1.247,1.751,5.59,6.639,11.309,6.669a6.175,6.175,0,0,0,5.971-4.052A4.1,4.1,0,0,0,66.049,26.872Z" transform="translate(-27.817 -16.443)" fill="#ffbf80"/>
          <path id="Path_1370" data-name="Path 1370" d="M64.332,90.9a85,85,0,0,1-9.484-3.453l2.38-18.789C47.71,62.044,44.831,34.345,44.4,29.818c-.3-3.488,12.066-8.9,17.9-11.24-3.057,4.675-14.228,22.312-4.047,39.943A47.967,47.967,0,0,1,64.332,90.9Z" transform="translate(-44.395 -8.016)" fill="#c4c5c7"/>
        </g>
      </g>
    </g>
    <g id="Group_635" data-name="Group 635" transform="translate(30.719 16.1)">
      <path id="Path_1371" data-name="Path 1371" d="M46.522,20.105s.856,10.834-.069,14.01S47.932,50.8,49.921,52.257s13.911,5.407,25.409-9.964-2.548-29.4-2.548-29.4S47.823,3.814,46.522,20.105Z" transform="translate(-46.057 -1.237)" fill="#ffbf80"/>
      <path id="Path_1372" data-name="Path 1372" d="M50.022,13.672s1.687,6.971-1.662,9.622-.262,4.858,3.359,3.884a17.085,17.085,0,0,0,2.38,0c1.5-.089,2.117-3.047-.356-3C53.742,24.17,52.668,14.023,50.022,13.672Z" transform="translate(-43.407 11.786)" fill="#ff9264"/>
      <path id="Path_1373" data-name="Path 1373" d="M73.934,12.623c.134,1.588.331,18.681-1.168,20.62S63.312,43.82,57.088,43.1c0,0-2.85-1.385-1.331-3.839,0,0-2.117.668-3.112-.059,0,0,.8,3.636-.989,3.641s-5.071-8.029-5.293-9.568c0,0,1.207,11.66,2.785,13.085,1.227,1.108,7.49,3.23,13.486.4s12.521-9.726,12.783-10.7,3.992-15.03,3.992-15.03Z" transform="translate(-45.611 7.646)" fill="#af3300"/>
      <path id="Path_1374" data-name="Path 1374" d="M58.365,17.087c.341-.109-3.522,3.953-8.212,3.968a2.686,2.686,0,0,1-2.874-2.765A36.46,36.46,0,0,0,58.365,17.087Z" transform="translate(-41.999 25.256)" fill="#fff"/>
      <path id="Path_1375" data-name="Path 1375" d="M61.253,15.257l-.727,1.855s-7.089-2.973-12.447-.381l0-3.512S55.49,11.69,61.253,15.257Z" transform="translate(-38.857 8.712)" fill="#af3300"/>
      <path id="Path_1376" data-name="Path 1376" d="M51.307,13.253c.351.109,0,3.112,0,3.112s-3.443,0-4.635,1.331l-.465-2.78S48.685,12.436,51.307,13.253Z" transform="translate(-46.211 9.48)" fill="#af3300"/>
      <path id="Path_1377" data-name="Path 1377" d="M51.614,19.251s18.1-6.728,22.554,4.72c0,0,1.845,7.708.2,12.482L78.3,34.444s4.418-11.334,1.168-16.1S71.24,11.395,66.6,10.539s-13.016-2.85-17.246,2.187-2.939,8.554-2.85,11.131C46.509,23.857,46.885,16.807,51.614,19.251Z" transform="translate(-46.044 -4.988)" fill="#af3300"/>
      <path id="Path_1378" data-name="Path 1378" d="M55.846,8.526s-4.166,4.339-2.9,7-5.823,5.021-5.823,5.021S44.527,11.821,55.846,8.526Z" transform="translate(-43.636 -8.526)" fill="#af3300"/>
      <path id="Path_1379" data-name="Path 1379" d="M55.583,8.6s-3.8,3.963-2.652,6.392-5.313,4.586-5.313,4.586S45.248,11.618,55.583,8.6Z" transform="translate(-41.582 -8.214)" fill="#af3300"/>
      <path id="Path_1380" data-name="Path 1380" d="M53.342,8.768s-3.211,4.734-1.563,7.07-4.67,5.625-4.67,5.625S43.17,13.572,53.342,8.768Z" transform="translate(-45.629 -7.571)" fill="#af3300"/>
      <path id="Path_1381" data-name="Path 1381" d="M51.194,11.4c.069.465,3.671,17.226,3.671,17.226l5.477-2.79.8-9.2Z" transform="translate(-26.542 2.834)" fill="#ca7355"/>
      <g id="Group_630" data-name="Group 630" transform="translate(28.905 27.13)">
        <path id="Path_1382" data-name="Path 1382" d="M52.545,20.076s4.8-8.3,7.629-5.481-.994,13.466-5.056,13.159S52.02,20.922,52.545,20.076Z" transform="translate(-52.054 -14.01)" fill="#ff9264"/>
        <g id="Group_629" data-name="Group 629" transform="translate(2.519 2.744)">
          <path id="Path_1383" data-name="Path 1383" d="M53.5,14.78l-.04-.04Z" transform="translate(-49.011 -13.872)" fill="#ff5367"/>
          <path id="Path_1384" data-name="Path 1384" d="M52.662,21.349s2.513-.134,2.147-1.39-1.8-2.513-1.1-3.908c.7-1.375,1.791-2.211,3.3-.618a1.58,1.58,0,0,0-2.424.045,2.875,2.875,0,0,0-.519.8c.47-.1,1.88-.218,2.577,1.806,0,0-.97-1.944-2.686-1.321-.03.678.49,1.252.984,2.127.757,1.356-.663,4.339-2.385,3.414Z" transform="translate(-52.563 -14.565)" fill="#ff5367"/>
        </g>
      </g>
      <g id="Group_632" data-name="Group 632" transform="translate(11.468 26.213)">
        <path id="Path_1385" data-name="Path 1385" d="M54.849,15.119a3.2,3.2,0,0,1-2.676,3.216,3.111,3.111,0,0,1-3.547-2.226l1.2-1.791,2.8-.4A9.412,9.412,0,0,1,54.849,15.119Z" transform="translate(-48.15 -13.44)" fill="#fff"/>
        <path id="Path_1386" data-name="Path 1386" d="M55.227,15.5A4.43,4.43,0,0,0,49,16.493l-.475-1.286S52.323,11.907,55.227,15.5Z" transform="translate(-48.529 -13.825)" fill="#ff9264"/>
        <g id="Group_631" data-name="Group 631" transform="translate(1.535 1.013)">
          <path id="Path_1387" data-name="Path 1387" d="M48.867,15.621a1.778,1.778,0,0,0,1.469,2.1,1.893,1.893,0,0,0,2.108-1.573,1.778,1.778,0,0,0-1.469-2.1A1.9,1.9,0,0,0,48.867,15.621Z" transform="translate(-48.839 -14.029)" fill="#3e0a00"/>
          <path id="Path_1388" data-name="Path 1388" d="M49.036,15.019a.9.9,0,0,0,.742,1.064.963.963,0,0,0,1.064-.8.9.9,0,0,0-.742-1.064A.963.963,0,0,0,49.036,15.019Z" transform="translate(-48.122 -13.299)"/>
        </g>
      </g>
      <g id="Group_634" data-name="Group 634" transform="translate(0.707 26.712)">
        <path id="Path_1389" data-name="Path 1389" d="M46.354,15.226s-.069,2.706,2.241,3.206S51.554,16.2,51.554,16.2l-1-1.786-2.335-.386S46.468,14.89,46.354,15.226Z" transform="translate(-46.354 -13.537)" fill="#fff"/>
        <path id="Path_1390" data-name="Path 1390" d="M46.354,15.615s2.884-2.548,5.2.97l.391-1.286S48.773,12.008,46.354,15.615Z" transform="translate(-46.354 -13.926)" fill="#ff9264"/>
        <g id="Group_633" data-name="Group 633" transform="translate(0.886 1.046)">
          <path id="Path_1391" data-name="Path 1391" d="M49.541,15.725a1.775,1.775,0,0,1-1.222,2.1,1.656,1.656,0,0,1-1.761-1.573,1.767,1.767,0,0,1,1.222-2.1A1.648,1.648,0,0,1,49.541,15.725Z" transform="translate(-46.533 -14.137)" fill="#3e0a00"/>
          <path id="Path_1392" data-name="Path 1392" d="M48.205,15.123a.9.9,0,0,1-.618,1.064A.834.834,0,0,1,46.7,15.4a.9.9,0,0,1,.618-1.064A.834.834,0,0,1,48.205,15.123Z" transform="translate(-45.935 -13.407)"/>
        </g>
      </g>
    </g>
  </g>
</svg>
