<svg xmlns="http://www.w3.org/2000/svg" xmlns:xlink="http://www.w3.org/1999/xlink" width="49.74" height="49.739" viewBox="0 0 49.74 49.739">
  <defs>
    <linearGradient id="linear-gradient" y1="0.5" x2="1" y2="0.5" gradientUnits="objectBoundingBox">
      <stop offset="0" stop-color="#5d2eed"/>
      <stop offset="1" stop-color="#5d2eed"/>
    </linearGradient>
    <linearGradient id="linear-gradient-5" x1="0" y1="0.5" x2="1" y2="0.5" xlink:href="#linear-gradient"/>
    <linearGradient id="linear-gradient-6" x1="0" y1="0.5" x2="1" y2="0.5" xlink:href="#linear-gradient"/>
    <linearGradient id="linear-gradient-7" x1="0" y1="0.5" x2="1" y2="0.5" xlink:href="#linear-gradient"/>
  </defs>
  <g id="fast" transform="translate(0)">
    <g id="Group_576" data-name="Group 576">
      <path id="Path_1342" data-name="Path 1342" d="M265.7,402.025a.987.987,0,0,1-.267-.035,38.845,38.845,0,0,1-28.808-37.475,1.035,1.035,0,0,1,1.038-1.036,38.844,38.844,0,0,1,37.475,28.806,1.038,1.038,0,0,1-.269,1l-8.434,8.437A1.036,1.036,0,0,1,265.7,402.025Zm-26.988-36.46a36.78,36.78,0,0,0,26.681,34.266l7.583-7.585A36.778,36.778,0,0,0,238.713,365.565Z" transform="translate(-236.625 -363.479)" fill="url(#linear-gradient)"/>
    </g>
    <g id="Group_579" data-name="Group 579" transform="translate(13.538 13.536)">
      <g id="Group_577" data-name="Group 577" transform="translate(16.349)">
        <path id="Path_1343" data-name="Path 1343" d="M257.823,384a1.04,1.04,0,0,1-.914-.549l-5.733-10.713a1.034,1.034,0,0,1,.317-1.334,9.44,9.44,0,0,1,7.206-1.131c4.4,1,8.466,4.785,12.076,11.247a1.036,1.036,0,0,1-1.433,1.4c-.046-.027-4.629-2.7-7.977-1.732a4.158,4.158,0,0,0-2.618,2.249,1.039,1.039,0,0,1-.914.565Zm-4.331-11.324,4.441,8.3a6.043,6.043,0,0,1,2.863-1.779,11.04,11.04,0,0,1,6.438.514c-2.8-4.141-5.858-6.68-8.942-7.4A7.71,7.71,0,0,0,253.492,372.674Z" transform="translate(-251.054 -370.014)" fill="url(#linear-gradient)"/>
      </g>
      <g id="Group_578" data-name="Group 578" transform="translate(0 16.349)">
        <path id="Path_1344" data-name="Path 1344" d="M255.169,397.761a1.058,1.058,0,0,1-.505-.133c-6.463-3.61-10.245-7.672-11.245-12.076a9.437,9.437,0,0,1,1.131-7.206,1.037,1.037,0,0,1,1.336-.317l10.711,5.733a1.038,1.038,0,0,1-.017,1.837,4.15,4.15,0,0,0-2.249,2.62c-.969,3.345,1.7,7.929,1.732,7.975a1.038,1.038,0,0,1-.893,1.566Zm-9.348-17.414a7.7,7.7,0,0,0-.369,4.8c.721,3.084,3.258,6.141,7.4,8.942a11.039,11.039,0,0,1-.512-6.438,6.043,6.043,0,0,1,1.779-2.863Z" transform="translate(-243.161 -377.907)" fill="url(#linear-gradient)"/>
      </g>
    </g>
    <g id="Group_580" data-name="Group 580" transform="translate(11.16 11.159)">
      <path id="Path_1345" data-name="Path 1345" d="M247.229,379.3a5.217,5.217,0,1,1,3.691-1.527A5.2,5.2,0,0,1,247.229,379.3Zm0-8.362a3.145,3.145,0,1,0,2.225.92A3.137,3.137,0,0,0,247.229,370.937Z" transform="translate(-242.013 -368.866)" fill="url(#linear-gradient)"/>
    </g>
    <g id="Group_581" data-name="Group 581" transform="translate(36.414 36.412)">
      <path id="Path_1346" data-name="Path 1346" d="M258.717,386.607a1.034,1.034,0,0,1-.733-.3l-3.476-3.476a1.037,1.037,0,1,1,1.467-1.466l3.476,3.478a1.037,1.037,0,0,1-.733,1.769Z" transform="translate(-254.205 -381.058)" fill="url(#linear-gradient-5)"/>
    </g>
    <g id="Group_582" data-name="Group 582" transform="translate(34.61 41.826)">
      <path id="Path_1347" data-name="Path 1347" d="M257.846,389.219a1.04,1.04,0,0,1-.733-.3l-3.476-3.476a1.037,1.037,0,1,1,1.467-1.467l3.476,3.476a1.036,1.036,0,0,1-.733,1.769Z" transform="translate(-253.334 -383.672)" fill="url(#linear-gradient-6)"/>
    </g>
    <g id="Group_583" data-name="Group 583" transform="translate(41.828 34.607)">
      <path id="Path_1348" data-name="Path 1348" d="M261.331,385.734a1.031,1.031,0,0,1-.733-.3l-3.476-3.476a1.036,1.036,0,1,1,1.465-1.466l3.476,3.478a1.035,1.035,0,0,1-.731,1.767Z" transform="translate(-256.819 -380.187)" fill="url(#linear-gradient-7)"/>
    </g>
  </g>
</svg>
