<svg xmlns="http://www.w3.org/2000/svg" xmlns:xlink="http://www.w3.org/1999/xlink" width="222.79" height="205.562" viewBox="0 0 222.79 205.562">
  <defs>
    <linearGradient id="linear-gradient" x1="6.867" y1="0.5" x2="5.867" y2="0.5" gradientUnits="objectBoundingBox">
      <stop offset="0" stop-color="#67b5eb"/>
      <stop offset="0.997" stop-color="#4d88ec"/>
    </linearGradient>
    <linearGradient id="linear-gradient-2" x1="8.112" y1="0.5" x2="7.112" y2="0.5" xlink:href="#linear-gradient"/>
    <clipPath id="clip-path">
      <path id="Path_9887" data-name="Path 9887" d="M1262.032,766.077l3.974-1.075a8.261,8.261,0,0,1-2.424.282l-3.974,1.075A8.268,8.268,0,0,0,1262.032,766.077Z" transform="translate(-1259.608 -765.002)" fill="none"/>
    </clipPath>
    <clipPath id="clip-path-2">
      <path id="Path_9896" data-name="Path 9896" d="M1495.9,885.2l3.974-1.075a11.32,11.32,0,0,1-3.322.385l-3.974,1.075A11.334,11.334,0,0,0,1495.9,885.2Z" transform="translate(-1492.574 -884.126)" fill="none"/>
    </clipPath>
    <radialGradient id="radial-gradient" cx="0.645" cy="0.697" r="0.558" gradientTransform="matrix(-0.818, 0, 0, 1, 1.147, 0)" gradientUnits="objectBoundingBox">
      <stop offset="0" stop-color="#f0a37d"/>
      <stop offset="1" stop-color="#f5b58f"/>
    </radialGradient>
    <radialGradient id="radial-gradient-2" cx="0.272" cy="0.397" r="0.484" gradientTransform="matrix(-0.952, 0, 0, 1, 0.541, 0)" gradientUnits="objectBoundingBox">
      <stop offset="0.06" stop-color="#032f4a"/>
      <stop offset="1" stop-color="#033b5e"/>
    </radialGradient>
    <radialGradient id="radial-gradient-3" cx="0.357" cy="0.5" r="0.376" gradientTransform="matrix(1.734, 0.507, -1.014, 0.857, 139.316, 25.446)" xlink:href="#radial-gradient-2"/>
  </defs>
  <g id="Group_55817" data-name="Group 55817" transform="translate(0)">
    <ellipse id="Ellipse_836" data-name="Ellipse 836" cx="75.958" cy="2.47" rx="75.958" ry="2.47" transform="translate(25.512 200.471)" fill="#d2d5dd"/>
    <g id="Group_55710" data-name="Group 55710" transform="translate(8.114 5.275)">
      <g id="Group_55706" data-name="Group 55706" transform="translate(0)">
        <path id="Path_9852" data-name="Path 9852" d="M1439.642,189.384a.311.311,0,0,0,.09-.014c.319-.1.594-.181-.835-10.54-.655-4.747-1.387-9.532-1.469-10.072l5.685-23.661a8.27,8.27,0,0,0-6.109-9.972l-79.459-19.089a8.277,8.277,0,0,0-9.973,6.109l-5.7,23.71a8.269,8.269,0,0,0,6.109,9.972l74.766,17.962c10.122,8.7,15.99,14.122,16.527,15.264C1439.317,189.141,1439.432,189.384,1439.642,189.384Zm-82.159-73.1-.06.251,79.459,19.089a7.763,7.763,0,0,1,5.729,9.351l-5.708,23.759.008.05c1.023,6.649,2.5,17.06,2.573,19.645-1.661-2.2-9.721-9.294-16.444-15.074l-.047-.04-.061-.015L1348.1,155.326a7.753,7.753,0,0,1-5.729-9.351l5.7-23.71a7.762,7.762,0,0,1,9.35-5.728Z" transform="translate(-1341.643 -115.806)" fill="#d2d5dd"/>
      </g>
      <g id="Group_55707" data-name="Group 55707" transform="translate(15.468 7.7)">
        <rect id="Rectangle_2022" data-name="Rectangle 2022" width="8.501" height="5.22" transform="translate(1.219 0) rotate(13.509)" fill="#d2d5dd"/>
        <rect id="Rectangle_2023" data-name="Rectangle 2023" width="60.928" height="5.22" transform="translate(14.953 3.299) rotate(13.509)" fill="#d2d5dd"/>
      </g>
      <g id="Group_55708" data-name="Group 55708" transform="translate(12.898 18.397)">
        <rect id="Rectangle_2024" data-name="Rectangle 2024" width="34.714" height="5.22" transform="translate(1.219 0) rotate(13.509)" fill="#d2d5dd"/>
        <rect id="Rectangle_2025" data-name="Rectangle 2025" width="34.714" height="5.22" transform="translate(40.441 9.423) rotate(13.509)" fill="#d2d5dd"/>
      </g>
      <g id="Group_55709" data-name="Group 55709" transform="translate(10.329 29.094)">
        <rect id="Rectangle_2026" data-name="Rectangle 2026" width="24.229" height="5.22" transform="translate(1.219 0) rotate(13.509)" fill="#d2d5dd"/>
        <rect id="Rectangle_2027" data-name="Rectangle 2027" width="45.2" height="5.22" transform="translate(30.246 6.973) rotate(13.509)" fill="#d2d5dd"/>
      </g>
    </g>
    <g id="Group_55715" data-name="Group 55715" transform="translate(92.66 68.997)">
      <g id="Group_55711" data-name="Group 55711" transform="translate(0)">
        <path id="Path_9853" data-name="Path 9853" d="M997.85,451.294c.21,0,.325-.244.365-.33.536-1.142,6.4-6.562,16.527-15.265l74.766-17.962a8.27,8.27,0,0,0,6.109-9.972l-5.7-23.71a8.27,8.27,0,0,0-9.972-6.109l-79.459,19.089a8.27,8.27,0,0,0-6.109,9.972l5.685,23.661c-.083.54-.815,5.325-1.47,10.071-1.429,10.359-1.154,10.443-.835,10.54A.3.3,0,0,0,997.85,451.294Zm84.045-73.064a7.761,7.761,0,0,1,7.525,5.945l5.7,23.71a7.753,7.753,0,0,1-5.728,9.35L1014.5,435.227l-.047.041c-6.724,5.78-14.783,12.876-16.444,15.073.073-2.584,1.55-13,2.573-19.644l.007-.05-.012-.049-5.7-23.71a7.753,7.753,0,0,1,5.729-9.35l79.459-19.09A7.814,7.814,0,0,1,1081.894,378.23Z" transform="translate(-994.148 -377.714)" fill="#d2d5dd"/>
      </g>
      <g id="Group_55712" data-name="Group 55712" transform="translate(12.037 7.702)">
        <rect id="Rectangle_2028" data-name="Rectangle 2028" width="8.501" height="5.22" transform="translate(74.195 5.076) rotate(166.491)" fill="#d2d5dd"/>
        <rect id="Rectangle_2029" data-name="Rectangle 2029" width="60.928" height="5.22" transform="translate(60.461 8.375) rotate(166.491)" fill="#d2d5dd"/>
      </g>
      <g id="Group_55713" data-name="Group 55713" transform="translate(14.607 18.399)">
        <rect id="Rectangle_2030" data-name="Rectangle 2030" width="34.714" height="5.22" transform="translate(74.195 5.076) rotate(166.491)" fill="#d2d5dd"/>
        <rect id="Rectangle_2031" data-name="Rectangle 2031" width="34.714" height="5.22" transform="translate(34.973 14.498) rotate(166.491)" fill="#d2d5dd"/>
      </g>
      <g id="Group_55714" data-name="Group 55714" transform="translate(17.177 29.096)">
        <rect id="Rectangle_2032" data-name="Rectangle 2032" width="24.229" height="5.22" transform="translate(74.195 5.076) rotate(166.491)" fill="#d2d5dd"/>
        <rect id="Rectangle_2033" data-name="Rectangle 2033" width="45.2" height="5.22" transform="translate(45.169 12.049) rotate(166.491)" fill="#d2d5dd"/>
      </g>
    </g>
    <path id="Path_9854" data-name="Path 9854" d="M1365.4,376.176c-.545,1.158-1.115,2.314-1.685,3.47l2.291-.478c.357-.771.715-1.543,1.059-2.325,2.392-5.406,4.541-10.909,6.438-16.464.026-.015.048-.039.075-.052a1.719,1.719,0,0,1,.553-.15.88.88,0,0,1,.244.011,3.161,3.161,0,0,0,.328-.015c.228-.018.453-.045.678-.056.895-.083,1.762-.162,2.643-.291a21.977,21.977,0,0,0,5.536-1.491,17.242,17.242,0,0,0,5.862-4.065,15.57,15.57,0,0,0,2.4-3.315,9.783,9.783,0,0,0,1.2-3.855,23.284,23.284,0,0,1-2.69,1.889c-.829.5-1.623.9-2.41,1.278s-1.569.727-2.362,1.067l-2.424,1.026a34.713,34.713,0,0,0-5.372,2.749,19.806,19.806,0,0,0-2.787,2.18c-.224.217-.446.43-.663.666v0a.019.019,0,0,0,.011-.018,202.1,202.1,0,0,0,5.853-21.984h0a8.174,8.174,0,0,1,2.122-1.332c.79-.357,1.535-.581,2.4-.939a13.435,13.435,0,0,0,2.892-1.561,12.79,12.79,0,0,0,1.579-1.36,15.176,15.176,0,0,0,1.391-1.63,18.387,18.387,0,0,0,3.218-7.37,17.325,17.325,0,0,0,.321-3.524,15.869,15.869,0,0,0-.11-1.673,10.831,10.831,0,0,0-.308-1.639,31.035,31.035,0,0,0-2.012,3.14c-.581,1.017-1.118,1.987-1.622,2.894a43.806,43.806,0,0,1-2.912,4.672,18.143,18.143,0,0,1-1.486,1.784c-.559.585-1.3,1.243-2.13,2.047a15.99,15.99,0,0,0-2.5,2.981c-.093.15-.173.31-.26.466,0-.014.006-.029.008-.043.353-1.877.672-3.74.966-5.607.046-.294.091-.6.137-.908.055-.339.111-.678.155-1.013.278-1.919.521-3.811.74-5.72.34-.545.684-1.061,1.029-1.57.512-.741,1.017-1.473,1.514-2.211,1-1.471,1.955-2.967,2.869-4.516q.344-.58.677-1.175c.11-.2.225-.4.334-.6s.218-.395.347-.656a13.766,13.766,0,0,0,1.1-2.968,12.721,12.721,0,0,0,.363-2.866,9.379,9.379,0,0,0-.342-2.72,19.233,19.233,0,0,0-1.757,2.483c-.5.8-.927,1.578-1.334,2.3s-.774,1.4-1.139,2.04l-.308.552-.329.6c-.219.405-.435.816-.644,1.234a36.829,36.829,0,0,0-1.811,4.205v-.012c.33-4.17.507-8.28.519-12.366-.012-.009,0-.014,0-.014s0-.008,0-.012c.032.106.052.211.087.317a20.982,20.982,0,0,0,2.388-4.647,28.167,28.167,0,0,0,1.294-4.6,25.245,25.245,0,0,0,.479-4.561,14.1,14.1,0,0,0-.6-4.513,21.179,21.179,0,0,0-2.383,4.646,28.579,28.579,0,0,0-1.3,4.6,25.016,25.016,0,0,0-.485,4.562,15.3,15.3,0,0,0,.424,3.837c0,.013,0,.025,0,.038v.013q-.181,7.228-1.022,14.606c0,.02-.005.041-.008.061-.128.471-.237.946-.329,1.427-.026-.755-.071-1.489-.129-2.21a45.467,45.467,0,0,0-.725-4.926,39.993,39.993,0,0,0-1.208-4.639,19.5,19.5,0,0,0-2-4.423,20.51,20.51,0,0,0-1.053,5.947,22.9,22.9,0,0,0,.438,5.382,17.88,17.88,0,0,0,1.61,4.687,9.723,9.723,0,0,0,2.8,3.415c0,.006,0,.01,0,.016-.1.813-.233,1.636-.362,2.459v.013c-.073.484-.145.967-.23,1.456a.019.019,0,0,1-.011.018c-.146.954-.316,1.917-.486,2.867-.294,1.605-.6,3.175-.934,4.78l0,.041,0,.009c-.02-.112-.033-.231-.053-.342-.109-.554-.227-1.1-.365-1.62s-.275-1.041-.431-1.541a38.011,38.011,0,0,0-2.23-5.534,41.866,41.866,0,0,0-2.819-4.888c-.256-.392-.521-.78-.813-1.153-.27-.387-.562-.763-.866-1.137s-.605-.754-.948-1.115a9.182,9.182,0,0,0-1.077-1.082,17.5,17.5,0,0,0-.324,2.012c-.059.648-.083,1.282-.1,1.914.009.615.03,1.228.075,1.828s.125,1.176.214,1.75a21.88,21.88,0,0,0,1.979,6.155,19.063,19.063,0,0,0,3.343,4.809,15.6,15.6,0,0,0,2.156,1.85,12.682,12.682,0,0,0,1.646.941l0,.019v.014a196.842,196.842,0,0,1-6.342,22.232l-.007.018c-.042-.461-.081-.924-.138-1.371-.084-.645-.178-1.28-.292-1.895s-.223-1.23-.354-1.826a66,66,0,0,0-1.879-6.785c-.716-2.164-1.5-4.254-2.372-6.322-.212-.521-.432-1.04-.68-1.548-.223-.521-.467-1.036-.724-1.549s-.5-1.039-.792-1.551a13.032,13.032,0,0,0-.908-1.55,22.508,22.508,0,0,0-.536,2.25c-.125.734-.216,1.461-.3,2.188-.052.712-.094,1.424-.11,2.129s.01,1.385.042,2.068a29.272,29.272,0,0,0,1.445,7.547,25.565,25.565,0,0,0,3.045,6.274,20.329,20.329,0,0,0,2.087,2.587,15.154,15.154,0,0,0,1.7,1.507l0,.007Q1369.288,367.867,1365.4,376.176Z" transform="translate(-1289.661 -237.301)" fill="#ffd143"/>
    <g id="Group_55747" data-name="Group 55747" transform="translate(86.963 144.201)">
      <g id="Group_55717" data-name="Group 55717" transform="translate(19.795 46.267)">
        <g id="Group_55716" data-name="Group 55716">
          <path id="Path_9855" data-name="Path 9855" d="M1332.667,880.76c.043.059.083.131.126.19.121.182.254.367.374.55.425.636.845,1.265,1.278,1.9.243.352.491.712.742,1.059l.9,1.228.023.032a4.28,4.28,0,0,0-.43.377q-.094.043-.183.094l-.854-1.369c-.711-1.171-1.377-2.375-2.059-3.555-.067-.109-.122-.215-.189-.324l-.106-.193-2-3.766Z" transform="translate(-1330.286 -876.978)" fill="#e0eef8"/>
        </g>
      </g>
      <g id="Group_55719" data-name="Group 55719">
        <g id="Group_55718" data-name="Group 55718">
          <path id="Path_9856" data-name="Path 9856" d="M1303.433,686.982l0,0q3.638,2.5,6.757,4.9l.3.234q4.023,3.115,7.238,6.058c.1.085.187.169.28.256a75.891,75.891,0,0,1,7.947,8.39c.081.1.165.2.241.3a43.475,43.475,0,0,1,6.054,9.868c.06.135.117.272.172.406,5.1,12.362-.562,20.491-3.386,23.542-.214.126-.416.245-.6.337a5.152,5.152,0,0,0-1.294.912,1.942,1.942,0,0,0-.463.291,21.137,21.137,0,0,1-7.332.228l-1.957-.433c-5.718-1.661-9.406-6.337-11.733-12.32-.063-.156-.122-.312-.179-.473a50.043,50.043,0,0,1-2.4-9.4c-.025-.145-.049-.29-.071-.437a88.4,88.4,0,0,1-.975-10.793c0-.138-.011-.279-.015-.417-.105-3.576-.036-7.008.114-10.039q.007-.225.022-.442c.28-5.4.8-9.473.967-10.739.039-.272.059-.415.059-.415C1303.268,686.873,1303.351,686.925,1303.433,686.982Z" transform="translate(-1301.971 -686.813)" fill="#82b4f3"/>
        </g>
      </g>
      <g id="Group_55722" data-name="Group 55722" transform="translate(1.153)">
        <g id="Group_55721" data-name="Group 55721">
          <g id="Group_55720" data-name="Group 55720">
            <path id="Path_9857" data-name="Path 9857" d="M1330.617,686.982l0,0c.3.935,1.534,4.658,3.75,10.436.056.153.119.309.178.465,1.158,3.015,2.575,6.558,4.254,10.543.059.14.119.28.181.423,1.381,3.261,2.933,6.808,4.668,10.589.058.126.116.253.176.382,1.669,3.633,3.5,7.478,5.5,11.488l.187.378q2.454,4.913,5.247,10.131c-.1.078-.2.159-.294.243q-1.168-2.178-2.277-4.31c-.089-.169-.177-.338-.263-.509q-2.665-5.13-4.986-9.936c-.083-.173-.164-.344-.247-.513-2.072-4.3-3.942-8.369-5.612-12.147-.078-.173-.156-.346-.231-.522-1.7-3.852-3.182-7.392-4.462-10.558-.093-.22-.177-.436-.264-.654-3.448-8.552-5.352-14.243-5.821-15.685.039-.272.059-.415.059-.415C1330.452,686.873,1330.534,686.925,1330.617,686.982Z" transform="translate(-1330.308 -686.813)" fill="#fff"/>
          </g>
        </g>
      </g>
      <g id="Group_55725" data-name="Group 55725" transform="translate(3.512 42.678)">
        <g id="Group_55724" data-name="Group 55724">
          <g id="Group_55723" data-name="Group 55723">
            <path id="Path_9858" data-name="Path 9858" d="M1359.774,870.166l-.141.347c-.061-.026-19.409-7.815-19.409-7.815-.063-.156-.122-.312-.179-.473l19.263,7.753Z" transform="translate(-1340.046 -862.225)" fill="#fff"/>
          </g>
        </g>
      </g>
      <g id="Group_55728" data-name="Group 55728" transform="translate(1.041 32.845)">
        <g id="Group_55727" data-name="Group 55727">
          <g id="Group_55726" data-name="Group 55726">
            <path id="Path_9859" data-name="Path 9859" d="M1378.547,829.141l-.148.344-16.74-7.239c-.025-.145-.05-.29-.071-.437l16.5,7.134Z" transform="translate(-1361.588 -821.809)" fill="#fff"/>
          </g>
        </g>
      </g>
      <g id="Group_55731" data-name="Group 55731" transform="translate(0.051 21.635)">
        <g id="Group_55730" data-name="Group 55730">
          <g id="Group_55729" data-name="Group 55729">
            <path id="Path_9860" data-name="Path 9860" d="M1397.753,781.626l-.163.333-11.914-5.805c0-.138-.011-.279-.015-.417l11.647,5.674Z" transform="translate(-1385.662 -775.737)" fill="#fff"/>
          </g>
        </g>
      </g>
      <g id="Group_55734" data-name="Group 55734" transform="translate(0.164 11.154)">
        <g id="Group_55733" data-name="Group 55733">
          <g id="Group_55732" data-name="Group 55732">
            <path id="Path_9861" data-name="Path 9861" d="M1412.127,737.978l-.219.3-7.1-5.179q.007-.225.022-.442l6.788,4.946Z" transform="translate(-1404.807 -732.658)" fill="#fff"/>
          </g>
        </g>
      </g>
      <g id="Group_55737" data-name="Group 55737" transform="translate(9.455 11.368)">
        <g id="Group_55736" data-name="Group 55736">
          <g id="Group_55735" data-name="Group 55735">
            <path id="Path_9862" data-name="Path 9862" d="M1370.018,744.209l-.055.09-.317-.191.191-.322,6.113-10.248c.1.085.187.169.28.256Z" transform="translate(-1369.646 -733.539)" fill="#fff"/>
          </g>
        </g>
      </g>
      <g id="Group_55740" data-name="Group 55740" transform="translate(5.017 5.076)">
        <g id="Group_55739" data-name="Group 55739">
          <g id="Group_55738" data-name="Group 55738">
            <path id="Path_9863" data-name="Path 9863" d="M1400.92,713.673l-.047.083-.328-.181.2-.367,3.007-5.533.3.234Z" transform="translate(-1400.545 -707.676)" fill="#fff"/>
          </g>
        </g>
      </g>
      <g id="Group_55743" data-name="Group 55743" transform="translate(14.304 20.015)">
        <g id="Group_55742" data-name="Group 55742">
          <g id="Group_55741" data-name="Group 55741">
            <path id="Path_9864" data-name="Path 9864" d="M1336.36,782.071l-.072.094-.3-.223.191-.253,9.49-12.613c.081.1.166.2.241.3Z" transform="translate(-1335.993 -769.076)" fill="#fff"/>
          </g>
        </g>
      </g>
      <g id="Group_55746" data-name="Group 55746" transform="translate(19.992 30.186)">
        <g id="Group_55745" data-name="Group 55745">
          <g id="Group_55744" data-name="Group 55744">
            <path id="Path_9865" data-name="Path 9865" d="M1310.774,825.573l-.066.095-.3-.216.183-.257,10.105-14.311c.06.135.117.272.172.406Z" transform="translate(-1310.403 -810.884)" fill="#fff"/>
          </g>
        </g>
      </g>
    </g>
    <g id="Group_55757" data-name="Group 55757" transform="translate(0 115.125)">
      <g id="Group_55748" data-name="Group 55748" transform="translate(0 55.177)">
        <path id="Path_9866" data-name="Path 9866" d="M1610.964,796.457a9.918,9.918,0,0,1,3.043-1.846c9.646-3.892,29.682,15.1,35.341,23.439l4.286,9.38c-3.77-1.893-26.092-7.111-31.236-9.3-7.94-3.385-17.336-14.91-12.02-21.071A7.065,7.065,0,0,1,1610.964,796.457Z" transform="translate(-1608.824 -794.092)" fill="#549ffe"/>
      </g>
      <g id="Group_55749" data-name="Group 55749" transform="translate(7.255 41.342)">
        <path id="Path_9867" data-name="Path 9867" d="M1611.969,739.084c.055-.04.115-.079.175-.118a8.693,8.693,0,0,1,2.079-.929,17.274,17.274,0,0,1,16.52,3.353,25.53,25.53,0,0,1,3.883,4.683,68.815,68.815,0,0,1,10.976,27.6l.777,10.727c-1.578-2.445-12.306-11.277-14.432-13.277-3.168-2.974-7-5.194-10.655-7.581s-7.259-5.034-9.7-8.6-3.608-8.235-2.074-12.407a7.568,7.568,0,0,1,1.97-3.059A4.991,4.991,0,0,1,1611.969,739.084Z" transform="translate(-1608.824 -737.227)" fill="#d2d5dd"/>
      </g>
      <g id="Group_55750" data-name="Group 55750" transform="translate(44.564 87.83)">
        <path id="Path_9868" data-name="Path 9868" d="M1608.824,928.3c.089.235.171.464.245.684C1609,928.765,1608.913,928.536,1608.824,928.3Z" transform="translate(-1608.824 -928.303)" fill="#549ffe"/>
      </g>
      <g id="Group_55751" data-name="Group 55751" transform="translate(44.479 87.614)">
        <path id="Path_9869" data-name="Path 9869" d="M1609.918,927.63c-.027-.07-.057-.145-.085-.216C1609.861,927.486,1609.891,927.559,1609.918,927.63Z" transform="translate(-1609.833 -927.414)" fill="#549ffe"/>
      </g>
      <g id="Group_55752" data-name="Group 55752" transform="translate(9.916 43.08)">
        <path id="Path_9870" data-name="Path 9870" d="M1626.884,761.58a67.955,67.955,0,0,0-9.08-10.167c-2.558-2.178-5.465-4-7.621-6.531a5,5,0,0,1,.483-.39c.055-.04.115-.079.175-.118,2.4,2.84,5.8,4.792,8.546,7.333a82.007,82.007,0,0,1,9.345,10.9c4.227,5.586,13.221,19.107,16.013,26.3C1641.74,781.215,1631.557,767.564,1626.884,761.58Z" transform="translate(-1610.183 -744.374)" fill="#fff"/>
      </g>
      <g id="Group_55753" data-name="Group 55753" transform="translate(1.239 57.605)">
        <path id="Path_9871" data-name="Path 9871" d="M1627.068,816.6c5.071,3.954,21.012,13.665,25.327,18.381-4.664-5.077-21.791-14.7-27.335-18.87-3.358-2.53-6.881-4.807-10.461-7.03a28.634,28.634,0,0,1-5.775-4.408,7.138,7.138,0,0,1,.59-.6,34.481,34.481,0,0,0,7.251,5.3A117.1,117.1,0,0,1,1627.068,816.6Z" transform="translate(-1608.824 -804.074)" fill="#d2d5dd"/>
      </g>
      <g id="Group_55754" data-name="Group 55754" transform="translate(43.552 72.729)">
        <path id="Path_9872" data-name="Path 9872" d="M1610.082,882.02l-.99-10.617c-.132-1.72-.216-3.443-.268-5.168C1609.251,872.356,1609.8,878.469,1610.082,882.02Z" transform="translate(-1608.824 -866.235)" fill="#e2f0f4"/>
      </g>
      <path id="Path_9873" data-name="Path 9873" d="M1630.4,626.459l0,.005c1.858,3.195,3.862,6.319,5.96,9.393l-2.389-1.073c-1.522-2.4-3-4.825-4.372-7.291-.023-.008-.045-.025-.07-.031a1.5,1.5,0,0,0-.484-.042.771.771,0,0,0-.2.045c-.065.018-.188.023-.277.036-.194.018-.387.029-.578.053-.761.063-1.5.124-2.257.146a19.292,19.292,0,0,1-4.85-.4,14.664,14.664,0,0,1-5.475-2.436,12.715,12.715,0,0,1-2.466-2.331,7.765,7.765,0,0,1-1.535-2.939,19.567,19.567,0,0,0,2.516,1.137c.764.284,1.484.491,2.2.684s1.417.36,2.129.52l2.174.478a29.934,29.934,0,0,1,4.885,1.444,16.7,16.7,0,0,1,2.636,1.357c.217.143.433.283.647.442v0a.015.015,0,0,1-.012-.013,160.19,160.19,0,0,1-7.913-16.906h0a7,7,0,0,0-1.962-.77c-.712-.174-1.368-.248-2.146-.411a11.547,11.547,0,0,1-2.64-.843,10.776,10.776,0,0,1-1.511-.871,12.618,12.618,0,0,1-1.39-1.116,14.715,14.715,0,0,1-3.707-5.486,13.648,13.648,0,0,1-.75-2.8,12.59,12.59,0,0,1-.136-1.366,8.556,8.556,0,0,1,.035-1.367,25.238,25.238,0,0,1,2.117,2.244c.626.737,1.209,1.443,1.756,2.1a35.659,35.659,0,0,0,3.083,3.352,14.864,14.864,0,0,0,1.49,1.226c.548.392,1.262.816,2.067,1.345a13.2,13.2,0,0,1,2.5,2.046c.1.108.187.226.281.338l-.013-.033c-.553-1.464-1.074-2.923-1.576-4.387-.079-.231-.158-.472-.238-.714-.094-.266-.187-.532-.269-.8-.5-1.509-.958-3-1.4-4.511-.359-.391-.719-.759-1.078-1.12-.531-.525-1.054-1.043-1.573-1.567-1.041-1.044-2.046-2.114-3.025-3.232-.245-.279-.487-.563-.729-.852-.12-.145-.242-.287-.362-.437s-.238-.288-.38-.48a10.967,10.967,0,0,1-1.326-2.238,10.03,10.03,0,0,1-.7-2.261,7.4,7.4,0,0,1-.084-2.246,15.752,15.752,0,0,1,1.814,1.752c.525.578.993,1.14,1.433,1.663s.841,1.02,1.235,1.483l.334.4.359.438c.239.3.476.6.708.9a29.338,29.338,0,0,1,2.094,3.135v-.01c-.846-3.319-1.555-6.612-2.123-9.91.01-.009,0-.011,0-.011v-.009c-.012.089-.014.178-.03.268a16.909,16.909,0,0,1-2.64-3.407,22.366,22.366,0,0,1-1.714-3.525,19.915,19.915,0,0,1-1.025-3.613,11.152,11.152,0,0,1-.109-3.732,17.04,17.04,0,0,1,2.635,3.407,22.62,22.62,0,0,1,1.718,3.525,19.671,19.671,0,0,1,1.029,3.613,12.048,12.048,0,0,1,.168,3.159l.006.031v.011q1.138,5.809,2.851,11.645l.015.048q.258.542.471,1.1c-.082-.613-.144-1.213-.194-1.8a36.078,36.078,0,0,1-.063-4.082,31.808,31.808,0,0,1,.381-3.92,15.726,15.726,0,0,1,1.076-3.86,16.174,16.174,0,0,1,1.7,4.65,18.12,18.12,0,0,1,.367,4.409,14.324,14.324,0,0,1-.712,4.016,8.07,8.07,0,0,1-1.88,3.161l0,.012c.2.642.419,1.287.64,1.933v.011c.127.38.254.76.392,1.142a.016.016,0,0,0,.012.013c.253.749.526,1.5.8,2.244.467,1.254.94,2.476,1.436,3.725l0,.033a.027.027,0,0,1,0,.008c0-.093,0-.192,0-.284.016-.463.041-.919.085-1.36s.089-.88.152-1.306a30.507,30.507,0,0,1,1.117-4.791,34.129,34.129,0,0,1,1.7-4.353c.161-.354.331-.705.525-1.048.174-.352.367-.7.572-1.043s.4-.7.643-1.038a7.686,7.686,0,0,1,.757-1.029,13.785,13.785,0,0,1,.547,1.578c.138.515.245,1.023.342,1.532.076.5.142,1,.186,1.487s.055.967.059,1.443a17.489,17.489,0,0,1-.821,5.256,15.7,15.7,0,0,1-2.15,4.366,13.173,13.173,0,0,1-1.557,1.8,10.849,10.849,0,0,1-1.254,1l.006.015v.011a155.9,155.9,0,0,0,8.358,17.035l.008.014c-.028-.378-.058-.758-.072-1.127-.017-.532-.025-1.058-.013-1.572s.02-1.025.048-1.525a52.343,52.343,0,0,1,.651-5.75c.306-1.851.675-3.651,1.128-5.448.107-.451.221-.9.36-1.348.116-.453.25-.9.4-1.355s.279-.911.453-1.367a10.6,10.6,0,0,1,.551-1.383,17.989,17.989,0,0,1,.757,1.739c.205.575.381,1.149.547,1.724.141.568.272,1.137.382,1.7s.18,1.12.247,1.676a23.181,23.181,0,0,1-.183,6.3,20.673,20.673,0,0,1-1.7,5.5,16.769,16.769,0,0,1-1.4,2.39A12.688,12.688,0,0,1,1630.4,626.459Z" transform="translate(-1590.962 -567.307)" fill="#ff7e33"/>
      <g id="Group_55755" data-name="Group 55755" transform="translate(33.806 36.63)">
        <path id="Path_9874" data-name="Path 9874" d="M1583.722,717.861a8.785,8.785,0,0,1,.881.049c3.175.314,6.677,2.228,9.3,6.58,5.05,8.381-4.89,41.131-6.462,45.256l-4.207-8.962c-2.175-5.407-8.243-34.247-6.48-38.91C1577.649,719.5,1580.442,717.834,1583.722,717.861Z" transform="translate(-1576.436 -717.861)" fill="#1657ab"/>
      </g>
      <g id="Group_55756" data-name="Group 55756" transform="translate(41.092 36.63)">
        <path id="Path_9875" data-name="Path 9875" d="M1613.644,726.019c-.41-2.75-1.019-5.462-1.676-8.157a8.819,8.819,0,0,1,.881.049c.608,2.519,1.174,5.048,1.57,7.613a53.355,53.355,0,0,1,.372,11.274c-.322,5.725-.536,11.456-.364,17.163a154.745,154.745,0,0,1-.542-15.853A59.5,59.5,0,0,0,1613.644,726.019Z" transform="translate(-1611.969 -717.862)" fill="#e2f0f4"/>
      </g>
    </g>
    <g id="Group_55764" data-name="Group 55764" transform="translate(135.796 192.723)">
      <path id="Path_9876" data-name="Path 9876" d="M1028.261,886.806H998.716l3.909,4.773-3.909,4.772h29.545a3.818,3.818,0,0,0,3.818-3.818v-1.909A3.818,3.818,0,0,0,1028.261,886.806Z" transform="translate(-974.626 -886.67)" fill="#1657ab"/>
      <path id="Path_9877" data-name="Path 9877" d="M1018.025,886.806h-1a3.818,3.818,0,0,1,3.818,3.818v1.909a3.818,3.818,0,0,1-3.818,3.818h1a3.818,3.818,0,0,0,3.818-3.818v-1.909A3.818,3.818,0,0,0,1018.025,886.806Z" transform="translate(-968.844 -886.67)" fill="url(#linear-gradient)"/>
      <path id="Path_9878" data-name="Path 9878" d="M1030.355,886.806h-1a3.818,3.818,0,0,1,3.818,3.818v1.909a3.818,3.818,0,0,1-3.818,3.818h1a3.818,3.818,0,0,0,3.818-3.818v-1.909A3.818,3.818,0,0,0,1030.355,886.806Z" transform="translate(-984.174 -886.67)" fill="url(#linear-gradient-2)"/>
      <path id="Path_9879" data-name="Path 9879" d="M1147.923,890.624v1.909a3.819,3.819,0,0,1-3.818,3.818h-23.953v-9.545H1144.1A3.819,3.819,0,0,1,1147.923,890.624Z" transform="translate(-1120.014 -886.67)" fill="#fff"/>
      <g id="Group_55758" data-name="Group 55758">
        <path id="Path_9880" data-name="Path 9880" d="M1143.681,896.064h-23.953a.136.136,0,1,1,0-.273h23.953a3.686,3.686,0,0,0,3.682-3.682V890.2a3.686,3.686,0,0,0-3.682-3.682h-23.953a.136.136,0,1,1,0-.273h23.953a3.959,3.959,0,0,1,3.955,3.954v1.909A3.959,3.959,0,0,1,1143.681,896.064Z" transform="translate(-1119.591 -886.246)" fill="#1657ab"/>
      </g>
      <g id="Group_55759" data-name="Group 55759" transform="translate(0 1.727)">
        <path id="Path_9881" data-name="Path 9881" d="M1153.719,893.618h-25.771a.136.136,0,1,1,0-.273h25.771a.136.136,0,1,1,0,.273Z" transform="translate(-1127.811 -893.345)" fill="#1657ab"/>
      </g>
      <g id="Group_55760" data-name="Group 55760" transform="translate(0 3.364)">
        <path id="Path_9882" data-name="Path 9882" d="M1153.719,900.344h-25.771a.136.136,0,1,1,0-.273h25.771a.136.136,0,1,1,0,.273Z" transform="translate(-1127.811 -900.071)" fill="#1657ab"/>
      </g>
      <g id="Group_55761" data-name="Group 55761" transform="translate(0 5)">
        <path id="Path_9883" data-name="Path 9883" d="M1153.719,907.069h-25.771a.136.136,0,1,1,0-.273h25.771a.136.136,0,1,1,0,.273Z" transform="translate(-1127.811 -906.797)" fill="#1657ab"/>
      </g>
      <g id="Group_55762" data-name="Group 55762" transform="translate(0 6.636)">
        <path id="Path_9884" data-name="Path 9884" d="M1153.719,913.795h-25.771a.136.136,0,1,1,0-.273h25.771a.136.136,0,1,1,0,.273Z" transform="translate(-1127.811 -913.522)" fill="#1657ab"/>
      </g>
      <g id="Group_55763" data-name="Group 55763" transform="translate(0 8.273)">
        <path id="Path_9885" data-name="Path 9885" d="M1153.719,920.521h-25.771a.136.136,0,1,1,0-.273h25.771a.136.136,0,1,1,0,.273Z" transform="translate(-1127.811 -920.248)" fill="#1657ab"/>
      </g>
    </g>
    <g id="Group_55773" data-name="Group 55773" transform="translate(94.709 77.21)">
      <g id="Group_55770" data-name="Group 55770" transform="translate(0)" style="isolation: isolate">
        <g id="Group_55767" data-name="Group 55767" transform="translate(28.667 86.015)" style="isolation: isolate">
          <g id="Group_55766" data-name="Group 55766" clip-path="url(#clip-path)">
            <g id="Group_55765" data-name="Group 55765" style="isolation: isolate">
              <path id="Path_9886" data-name="Path 9886" d="M1263.582,765.284l-3.974,1.075a8.268,8.268,0,0,0,2.424-.282l3.974-1.075a8.261,8.261,0,0,1-2.424.282Z" transform="translate(-1259.608 -765.002)" fill="#1657ab"/>
            </g>
          </g>
        </g>
        <g id="Group_55768" data-name="Group 55768" transform="translate(0 1.024)">
          <path id="Path_9888" data-name="Path 9888" d="M1188.966,502.049a9.712,9.712,0,0,1,2.845-.289q.311.01.612.048c.049.006.1.018.145.026.15.023.3.046.447.08.074.017.145.043.218.063.118.033.238.062.354.1.082.029.161.066.242.1.1.041.208.078.308.126.081.038.159.086.239.129.1.051.195.1.289.156s.158.109.237.163.181.117.268.184.154.131.231.2.169.137.25.213.144.149.216.223.16.157.237.245l0,0c.013.015.025.032.038.047q.187.216.364.455c.043.058.085.121.127.182.062.088.125.172.185.265.024.037.046.079.07.117.042.067.084.137.125.207q.119.2.232.413c.039.074.078.147.117.224.021.042.044.081.065.123.052.107.1.222.151.332.038.083.076.164.113.25.083.2.163.4.241.61.019.05.039.1.057.148l.007.019c.042.117.079.244.119.365.054.165.111.326.162.5.041.137.077.284.115.426.047.174.1.345.141.526,0,.011.006.021.009.033q.11.458.207.948c.054.276.121.546.193.814.019.072.038.144.058.215.078.272.162.54.256.8.012.032.025.063.037.1.086.233.18.461.279.686.031.071.064.143.1.213.091.2.187.386.287.574.034.063.065.128.1.19q.2.36.422.7c.056.085.117.165.175.249.107.155.214.31.328.458.071.092.146.179.219.268.105.129.211.257.321.381.162.18.331.351.5.519.055.053.106.11.161.162q.346.322.716.61c.062.048.128.09.191.137.187.139.377.274.573.4.1.061.194.116.291.173.17.1.341.2.517.289.109.056.219.107.329.158q.257.12.521.225c.114.045.229.089.345.13.181.063.364.119.549.171.114.032.228.066.343.094.2.049.41.087.617.122.1.017.2.039.3.053a9.014,9.014,0,0,0,2.974-.081q.329-.064.65-.151h0l-3.974,1.075a9.147,9.147,0,0,1-2.686.312,9.049,9.049,0,0,1-.937-.081c-.1-.014-.2-.036-.3-.053-.207-.035-.414-.073-.617-.122-.115-.028-.229-.062-.342-.094-.185-.052-.369-.108-.55-.172-.116-.041-.23-.084-.345-.13-.176-.07-.35-.145-.522-.225-.11-.051-.22-.1-.328-.158-.176-.09-.347-.188-.518-.289-.1-.057-.195-.111-.29-.172-.2-.125-.386-.261-.574-.4-.063-.047-.128-.088-.19-.137q-.37-.287-.716-.61c-.055-.052-.106-.109-.16-.161-.172-.168-.342-.339-.5-.52-.021-.023-.043-.042-.063-.065-.089-.1-.172-.21-.258-.315-.073-.089-.148-.176-.219-.267-.114-.149-.221-.3-.328-.459-.058-.083-.119-.163-.174-.248l-.023-.033c-.14-.216-.272-.439-.4-.667-.035-.063-.067-.128-.1-.191-.065-.123-.133-.244-.195-.37-.032-.066-.061-.136-.093-.2s-.065-.142-.1-.213c-.1-.225-.193-.453-.279-.686-.012-.032-.026-.063-.037-.1l-.011-.028c-.09-.253-.171-.512-.245-.775-.02-.071-.039-.142-.058-.213-.026-.1-.054-.19-.077-.287q-.063-.262-.115-.529c-.067-.338-.139-.664-.216-.979-.045-.184-.094-.357-.142-.534-.038-.139-.074-.284-.114-.419-.052-.174-.108-.336-.164-.5-.042-.126-.081-.258-.125-.38-.019-.052-.039-.1-.058-.15-.077-.208-.157-.413-.24-.608-.037-.086-.076-.167-.114-.251-.07-.155-.141-.309-.214-.455-.038-.076-.078-.15-.117-.224q-.113-.213-.232-.412c-.041-.07-.083-.14-.125-.207-.083-.132-.168-.257-.255-.381-.042-.061-.084-.124-.127-.182q-.178-.24-.366-.457l-.036-.044c-.082-.092-.167-.174-.251-.26-.069-.07-.135-.147-.206-.212-.087-.082-.179-.153-.268-.228-.071-.06-.14-.125-.213-.18-.095-.073-.193-.134-.291-.2-.072-.048-.141-.1-.214-.147-.1-.064-.213-.117-.32-.173-.07-.037-.137-.079-.208-.112-.107-.051-.218-.09-.328-.134-.075-.029-.147-.065-.223-.091-.106-.037-.215-.063-.323-.093-.083-.023-.164-.052-.249-.072-.137-.032-.278-.053-.418-.075-.058-.009-.115-.023-.173-.031q-.3-.039-.612-.048C1186.769,502.8,1188.966,502.049,1188.966,502.049Z" transform="translate(-1158.505 -480.811)" fill="#1657ab"/>
          <path id="Path_9889" data-name="Path 9889" d="M1269.589,444.265c.012-.508.04-1.014.076-1.519q.014-.194.03-.387c.04-.481.087-.961.148-1.438,0-.02,0-.041.006-.062,0,0,0-.009,0-.014.065-.5.145-1,.233-1.492q.034-.189.07-.377c.087-.46.183-.918.29-1.372.009-.039.017-.078.026-.117.117-.486.248-.968.388-1.447.035-.121.072-.242.109-.362.133-.436.273-.869.424-1.3.014-.038.024-.077.038-.115l.015-.038c.078-.217.162-.431.244-.645.055-.142.106-.286.163-.427.094-.234.195-.465.295-.7.051-.119.1-.239.152-.358.139-.313.286-.622.436-.93.017-.035.032-.071.049-.105q.252-.512.524-1.014c.056-.1.117-.2.174-.308.128-.229.255-.459.388-.684.076-.128.157-.253.235-.379.121-.2.24-.395.366-.589.088-.135.18-.267.27-.4.122-.181.242-.363.368-.542.1-.137.2-.271.3-.406.125-.171.249-.343.378-.51l.038-.052c.045-.058.094-.113.139-.17q.324-.412.663-.812c.093-.109.188-.217.282-.325q.311-.354.634-.7c.093-.1.186-.2.28-.3.3-.305.6-.606.909-.9l.034-.033c.322-.3.655-.592.993-.878.034-.029.066-.06.1-.089s.1-.077.152-.118c.4-.328.806-.646,1.225-.952.041-.03.081-.062.123-.092.445-.32.9-.624,1.373-.918.053-.033.1-.071.156-.1s.117-.066.174-.1q.494-.3,1-.58c.077-.042.151-.087.229-.128q.621-.332,1.268-.633c.035-.016.067-.035.1-.051.089-.041.181-.076.27-.116q.44-.2.89-.381.222-.09.446-.176c.3-.116.607-.226.915-.332.1-.033.189-.072.285-.1.042-.014.086-.025.128-.038.443-.144.89-.281,1.347-.4h.005l3.974-1.075c-.458.124-.908.262-1.352.407-.139.045-.275.095-.413.142-.308.106-.614.216-.915.332q-.224.086-.445.176-.451.183-.89.381c-.124.056-.25.109-.373.167q-.646.3-1.268.633c-.077.041-.151.085-.227.127q-.512.28-1.007.581c-.11.067-.219.135-.328.2-.469.294-.929.6-1.374.918-.042.03-.082.062-.123.092q-.63.459-1.226.953c-.083.069-.168.136-.251.206-.338.286-.671.577-.994.878l-.031.03c-.312.293-.615.593-.911.9-.095.1-.187.2-.281.3q-.323.343-.634.7c-.095.108-.189.216-.282.325q-.339.4-.663.812c-.059.075-.12.147-.178.223-.13.168-.254.341-.38.512-.1.135-.2.267-.3.4-.126.178-.245.36-.367.54-.09.135-.184.267-.272.4-.125.193-.243.389-.364.585-.079.128-.16.254-.237.383-.132.223-.258.45-.384.676-.059.106-.121.209-.179.315q-.272.5-.524,1.014c-.013.027-.026.055-.039.083q-.231.472-.447.952c-.054.12-.1.243-.155.364-.1.229-.2.458-.291.689-.059.146-.112.295-.169.442-.08.21-.162.419-.239.63-.019.052-.035.106-.054.158-.151.427-.291.859-.423,1.294-.037.121-.073.242-.109.363-.139.479-.271.961-.388,1.447-.009.038-.017.078-.026.116-.107.454-.2.913-.29,1.373q-.036.188-.07.377c-.088.5-.169.992-.234,1.492,0,.024,0,.048-.008.072-.061.479-.109.96-.148,1.443q-.016.192-.03.384c-.036.506-.064,1.012-.076,1.521q-.027,1.161-.014,2.271c0,.084,0,.165.006.249q.014.9.053,1.764c.009.208.021.413.033.618q.038.693.092,1.367c.016.2.032.4.05.6q.072.79.165,1.553c.011.092.02.188.032.279.073.578.158,1.142.249,1.7.022.136.046.27.069.4.09.519.185,1.031.289,1.529.008.038.015.077.023.115.113.535.236,1.055.364,1.567q.041.163.083.326c.129.5.264.986.407,1.462.017.056.035.11.052.165q.2.665.424,1.3c.029.084.057.169.086.252q.236.67.491,1.31c.036.09.072.178.108.267.167.412.338.816.516,1.21.011.026.022.052.034.078.183.4.373.794.565,1.179q.08.158.16.315c.183.356.37.707.561,1.047.017.031.034.064.052.1.208.368.421.724.636,1.073.057.093.115.184.173.276.165.262.333.517.5.769.071.105.14.212.212.315.231.335.465.664.7.981.307.411.6.814.892,1.211.093.128.182.253.273.38.194.27.386.537.572.8.1.142.2.282.3.422q.257.369.5.73c.095.139.189.278.282.415.169.251.332.5.493.745.057.087.118.177.175.264l.047.074q.393.608.754,1.2c.056.091.109.18.163.27q.289.477.559.943c.057.1.115.2.171.3.216.379.424.753.62,1.122.029.055.056.108.085.163q.254.481.486.952c.026.052.055.106.08.157s.06.128.091.192q.107.222.208.441t.188.411c.065.145.129.29.192.434s.117.27.173.4.118.287.175.429.107.267.158.4.107.284.159.425c.031.083.064.167.094.25.011.03.019.059.029.089q.23.65.424,1.293.033.108.064.216.19.644.348,1.288c.006.027.015.053.021.08s.014.072.022.107q.171.717.3,1.439c.011.063.022.126.034.188q.128.721.225,1.454c0,.028.009.055.013.083.006.05.01.1.017.152q.066.532.118,1.072c0,.029.006.058.009.087.035.385.064.776.089,1.169q.009.138.017.277c.022.394.042.792.055,1.2,0,.029,0,.06,0,.089q.018.581.025,1.181c0,.051,0,.1,0,.152s0,.082,0,.121q.006.68,0,1.384c0,.083,0,.167,0,.25-.005.491-.013.988-.025,1.5a.7.7,0,0,0,.046.262v0a1.068,1.068,0,0,0,.133.238c.011.016.024.031.036.047a1.786,1.786,0,0,0,.153.167c.028.028.055.057.087.085.062.056.132.11.2.164.028.021.052.042.082.063q.158.111.341.218l.076.041c.1.057.2.113.313.168.048.024.1.048.148.072.09.043.182.086.276.128l.17.073q.139.059.282.115l.175.068c.1.038.2.074.305.11l.16.056q.191.065.382.124l.083.027q.233.072.46.134l.121.032c.109.029.216.057.321.083l.154.036c.089.021.177.041.262.059l.152.032.232.044.132.023c.077.013.147.023.216.031l.1.013c.094.01.181.018.254.02l5.939.188-3.974,1.075-5.939-.188c-.073,0-.16-.01-.254-.02l-.1-.013c-.068-.009-.137-.019-.213-.031l-.134-.023-.231-.044-.151-.031-.261-.059-.156-.037c-.1-.026-.21-.054-.318-.083l-.123-.033q-.226-.062-.46-.134l-.088-.028c-.125-.039-.251-.079-.376-.122l-.163-.057q-.153-.054-.3-.11l-.174-.067c-.1-.038-.19-.076-.283-.116l-.169-.073c-.095-.042-.187-.085-.278-.129l-.146-.07c-.109-.055-.212-.111-.312-.168l-.077-.042q-.182-.107-.341-.218c-.029-.02-.053-.041-.08-.062-.073-.055-.143-.11-.206-.165-.031-.028-.058-.056-.086-.084s-.068-.062-.1-.094-.038-.049-.057-.074-.025-.031-.036-.046-.021-.025-.029-.038a1.109,1.109,0,0,1-.065-.112c-.015-.029-.027-.058-.038-.088v-.006a.825.825,0,0,1-.026-.085.727.727,0,0,1-.014-.076.7.7,0,0,1-.005-.077V499.1c.012-.51.02-1.005.025-1.495,0-.086,0-.172,0-.257,0-.469,0-.927,0-1.379,0-.093,0-.186,0-.279,0-.4-.013-.791-.025-1.178,0-.029,0-.06,0-.089-.014-.405-.033-.8-.055-1.2q-.008-.139-.017-.277c-.025-.394-.053-.784-.089-1.169,0-.029-.006-.058-.009-.087-.034-.361-.074-.717-.118-1.072q-.015-.118-.03-.235-.1-.733-.225-1.453c-.011-.063-.022-.126-.034-.189q-.133-.722-.3-1.438c-.015-.063-.029-.126-.044-.189q-.157-.644-.347-1.287c-.021-.072-.043-.145-.064-.217q-.2-.644-.425-1.293c-.039-.112-.08-.224-.122-.336-.053-.143-.106-.286-.161-.429s-.1-.264-.157-.4-.116-.287-.176-.431-.114-.269-.172-.4-.126-.29-.192-.435-.124-.273-.188-.409-.138-.295-.209-.443c-.056-.115-.113-.231-.171-.348q-.234-.473-.487-.955l-.083-.159c-.2-.369-.405-.744-.621-1.123-.056-.1-.114-.2-.17-.295q-.271-.468-.562-.947c-.054-.089-.106-.177-.161-.266q-.362-.589-.755-1.2c-.073-.112-.149-.227-.223-.34-.161-.245-.324-.492-.492-.743-.092-.137-.187-.276-.281-.414q-.246-.361-.5-.729c-.1-.141-.2-.282-.3-.425-.185-.263-.376-.53-.57-.8-.091-.127-.18-.252-.274-.38-.289-.4-.585-.8-.892-1.211-.237-.317-.47-.646-.7-.981-.072-.1-.142-.211-.212-.316-.1-.148-.2-.292-.3-.444-.069-.107-.136-.218-.205-.327-.057-.091-.114-.181-.171-.273-.216-.35-.43-.707-.638-1.076l-.05-.092c-.192-.342-.379-.694-.563-1.052q-.08-.155-.158-.312c-.05-.1-.1-.2-.152-.3q-.211-.432-.414-.88c-.012-.027-.023-.054-.035-.081-.177-.393-.348-.8-.515-1.208-.036-.089-.072-.176-.108-.266-.149-.376-.3-.758-.436-1.15-.019-.053-.037-.109-.056-.162-.029-.082-.057-.166-.085-.249q-.22-.639-.424-1.3c-.017-.055-.035-.109-.052-.165-.143-.476-.277-.965-.406-1.462q-.042-.163-.083-.327c-.031-.122-.063-.241-.093-.364q-.143-.59-.271-1.2c-.008-.039-.016-.08-.024-.119-.1-.5-.2-1.008-.288-1.527-.023-.134-.046-.268-.068-.4-.088-.536-.171-1.079-.242-1.636,0-.02,0-.042-.007-.062-.011-.091-.02-.186-.031-.278q-.093-.764-.165-1.555c-.018-.2-.033-.4-.05-.6q-.054-.674-.093-1.369c-.011-.2-.023-.408-.033-.616q-.039-.87-.053-1.77c0-.082,0-.16-.006-.243,0-.017,0-.033,0-.05Q1269.563,445.4,1269.589,444.265Z" transform="translate(-1269.571 -415.677)" fill="#1657ab"/>
        </g>
        <g id="Group_55769" data-name="Group 55769" transform="translate(3.974)">
          <path id="Path_9890" data-name="Path 9890" d="M1185,411.487c-18.4-.583-29.073,13.548-29.424,28.519-.295,12.586,3,20.86,7.175,26.439,8.861,11.859,9.932,17.68,9.681,28.4-.033,1.408,4.6,2.7,5.854,2.736l5.939.188c5.1.162,9.338-4.353,9.472-10.08.391-16.672-4.747-21.092-8.234-27.158-1.807-3.121-8.832-7.26-8.6-17.3.152-6.463,2.382-9.969,8.024-9.79,3.316.105,5.839,2.641,6.941,8.243,1.007,5.125,5,8.819,9.664,8.967,6.564.208,11.636-6.543,10.235-13.757C1209.214,423.988,1201.976,412.025,1185,411.487Z" transform="translate(-1155.554 -411.469)" fill="#549ffe"/>
        </g>
      </g>
      <g id="Group_55772" data-name="Group 55772" transform="translate(15.625 91.217)" style="isolation: isolate">
        <path id="Path_9891" data-name="Path 9891" d="M1265.938,801.168c-.021-.166-.035-.333-.049-.5,0-.036-.008-.072-.011-.108-.018-.242-.03-.485-.032-.731q0-.19,0-.382c.007-.281.027-.558.054-.834.006-.064.012-.128.02-.191s.01-.119.018-.178c.027-.21.061-.418.1-.624.006-.03.013-.059.019-.089.047-.241.1-.479.165-.714.016-.059.031-.118.047-.176.066-.232.136-.461.215-.686.005-.016.013-.032.019-.048.052-.145.113-.284.17-.426s.105-.27.164-.4.134-.272.2-.408.125-.258.194-.383.155-.26.234-.39.144-.245.222-.363.175-.246.263-.368c.075-.1.144-.211.222-.311.007-.009.015-.017.022-.026.219-.28.453-.547.7-.8.065-.069.134-.134.2-.2q.29-.29.6-.558c.047-.04.088-.086.135-.125s.088-.066.13-.1c.088-.071.178-.14.269-.208q.195-.148.4-.287.141-.1.286-.191c.058-.038.114-.079.173-.116.1-.06.2-.115.3-.172.062-.036.124-.073.187-.108.22-.121.443-.236.671-.341l.03-.013.092-.039c.209-.094.422-.18.638-.26l.2-.071c.057-.02.113-.043.171-.062q.286-.095.578-.174l3.974-1.075c-.254.069-.5.15-.75.236l-.195.071q-.325.121-.64.261c-.03.013-.061.025-.091.039-.239.109-.472.229-.7.354-.063.034-.123.071-.185.107q-.241.138-.474.289c-.1.062-.192.126-.286.191q-.2.139-.4.287c-.091.069-.181.137-.269.209s-.177.151-.266.227q-.31.268-.6.557c-.067.067-.136.132-.2.2-.244.257-.478.524-.7.8-.086.11-.165.226-.246.339s-.178.241-.261.366-.15.243-.224.365-.159.255-.232.387-.13.256-.195.384-.139.268-.2.407-.11.268-.165.4-.118.28-.17.424q-.13.361-.234.735c-.016.058-.031.117-.047.175-.062.235-.118.473-.165.714-.006.03-.013.059-.019.089-.049.264-.087.531-.118.8-.007.063-.014.127-.02.191-.027.275-.047.552-.054.834-.009.375,0,.746.029,1.113,0,.036.007.072.011.109q.041.492.123.972c.005.03.009.06.014.089.059.327.135.649.221.966.013.047.025.1.039.143.087.3.188.6.3.9q.032.083.064.166c.117.292.243.579.383.859.025.05.053.1.079.149q.195.377.417.736c.03.048.058.1.088.146q.264.415.562.8c.039.051.082.1.121.148.174.219.354.433.543.639l.1.1q.32.339.668.65l.107.094q.351.307.727.584l.114.082q.381.273.784.515l.116.067c.274.159.554.307.841.442l.113.051c.293.134.592.257.9.365l.1.034c.313.107.632.2.958.281l.082.018c.335.079.675.144,1.02.191l.05.006c.358.047.721.079,1.089.09a10.867,10.867,0,0,0,3.188-.37l-3.974,1.075a10.875,10.875,0,0,1-3.187.369c-.368-.012-.731-.043-1.089-.09l-.05-.006c-.346-.047-.685-.112-1.02-.191l-.082-.018c-.325-.079-.644-.174-.958-.281l-.1-.034c-.306-.108-.6-.231-.9-.365l-.113-.051c-.287-.135-.567-.283-.841-.442l-.117-.068c-.269-.16-.53-.332-.784-.514l-.115-.083q-.375-.276-.726-.583l-.108-.1q-.347-.311-.667-.649l-.1-.1c-.054-.059-.111-.117-.164-.177-.131-.148-.254-.3-.377-.46-.04-.051-.084-.1-.123-.15-.179-.234-.351-.474-.512-.723-.017-.027-.032-.055-.049-.082-.031-.048-.059-.1-.089-.146q-.222-.359-.416-.736c-.026-.05-.054-.1-.079-.15-.014-.028-.03-.054-.043-.082-.124-.253-.235-.514-.34-.777-.022-.055-.043-.11-.064-.165s-.054-.134-.079-.2c-.082-.229-.154-.461-.221-.7-.014-.047-.026-.1-.039-.143-.029-.105-.06-.21-.085-.316-.052-.214-.1-.431-.135-.65-.005-.03-.009-.059-.014-.089C1265.985,801.483,1265.958,801.326,1265.938,801.168Z" transform="translate(-1265.845 -787.55)" fill="#1657ab"/>
        <g id="Group_55771" data-name="Group 55771" transform="translate(3.974)">
          <path id="Path_9892" data-name="Path 9892" d="M1243.834,786.391a10.988,10.988,0,0,0-11.281,10.815,11.206,11.206,0,0,0,10.758,11.51A10.986,10.986,0,0,0,1254.6,797.9,11.21,11.21,0,0,0,1243.834,786.391Z" transform="translate(-1232.55 -786.385)" fill="#549ffe"/>
        </g>
      </g>
    </g>
    <g id="Group_55781" data-name="Group 55781" transform="translate(53.769 76.245)">
      <g id="Group_55775" data-name="Group 55775" transform="translate(0.7)" style="isolation: isolate">
        <path id="Path_9893" data-name="Path 9893" d="M1492.92,421.866c0-.031.007-.06.009-.091.018-.266.041-.532.074-.793.006-.048.016-.1.022-.143.01-.069.021-.137.032-.205.045-.286.1-.569.161-.848.01-.041.017-.083.027-.124.073-.307.159-.608.253-.905.022-.069.045-.138.068-.207.029-.086.054-.173.084-.257.041-.114.092-.223.136-.336.057-.146.114-.292.176-.435.075-.173.157-.343.24-.512.067-.138.133-.277.205-.412.09-.168.187-.331.284-.5.076-.129.15-.259.231-.385.1-.163.218-.32.33-.479.084-.118.164-.239.252-.354.017-.023.033-.048.05-.071.164-.212.336-.418.513-.619.043-.049.088-.1.132-.145q.259-.287.535-.556c.048-.047.094-.094.143-.14.2-.185.395-.366.6-.539.022-.018.046-.035.068-.053.085-.069.173-.134.259-.2.17-.132.341-.263.517-.386.1-.072.207-.139.312-.208s.194-.135.3-.2c.082-.051.169-.1.252-.146s.153-.089.23-.132c.259-.145.522-.282.792-.409l.037-.018.008,0c.277-.128.562-.242.849-.35l.218-.079c.077-.027.152-.058.23-.083q.328-.109.664-.2l3.974-1.075c-.3.082-.6.179-.894.283l-.218.079c-.29.109-.577.225-.857.354l-.038.019c-.27.126-.533.264-.792.408-.077.043-.153.088-.229.132-.187.109-.369.225-.549.344-.1.069-.209.136-.311.208-.177.124-.349.255-.519.387-.086.067-.174.131-.258.2q-.346.284-.67.592c-.048.046-.095.094-.143.14q-.275.27-.535.556c-.044.049-.09.1-.133.146q-.293.334-.563.69c-.087.115-.168.236-.252.354-.112.158-.224.315-.329.478-.081.126-.155.257-.232.386-.1.163-.194.326-.283.494-.072.135-.138.274-.206.413-.083.169-.165.338-.24.511-.062.143-.119.289-.176.435-.077.2-.153.392-.22.593q-.035.1-.068.207c-.094.3-.18.6-.253.905-.01.041-.017.083-.026.124-.063.279-.117.563-.162.849-.01.068-.022.135-.032.2q-.065.465-.1.94c0,.029-.007.058-.008.088q-.033.55-.02,1.112l1.54,64.282a10.644,10.644,0,0,0,.081,1.07c.037.3.088.587.149.875.011.051.021.1.033.153.033.147.078.29.118.435.059.216.12.432.192.643.084.247.172.492.274.731.012.027.025.053.036.08.107.246.225.485.35.72.028.054.055.108.084.161q.2.369.437.719c.049.075.1.146.153.219.121.173.245.343.376.508.065.082.131.162.2.242.109.13.224.255.339.38s.255.268.387.4q.162.158.331.308c.138.123.28.242.424.357.118.094.236.187.357.276.151.11.305.214.462.316.125.081.25.164.379.24.163.1.33.185.5.272.131.068.261.138.395.2.176.082.358.154.539.227.134.054.266.11.4.158.193.068.392.123.59.18.131.037.26.08.394.112.224.054.453.092.682.131.114.019.225.046.34.062a10.284,10.284,0,0,0,1.054.089,10.165,10.165,0,0,0,2.254-.178q.365-.07.719-.167h0l-3.974,1.075a10.15,10.15,0,0,1-2.974.345,10.324,10.324,0,0,1-1.054-.089c-.115-.016-.226-.043-.34-.062-.229-.039-.458-.078-.682-.131-.133-.032-.262-.075-.393-.112-.2-.056-.4-.112-.591-.18-.136-.048-.268-.1-.4-.158-.182-.072-.363-.145-.54-.227-.134-.063-.264-.132-.394-.2-.169-.088-.336-.176-.5-.273-.129-.076-.254-.158-.379-.24-.156-.1-.311-.206-.461-.316-.122-.089-.24-.182-.358-.276-.144-.116-.286-.234-.424-.357q-.169-.151-.331-.308c-.133-.129-.261-.262-.387-.4-.057-.062-.121-.118-.177-.181s-.107-.133-.162-.2-.134-.16-.2-.242c-.131-.165-.255-.334-.376-.507-.051-.073-.1-.144-.154-.219-.017-.026-.037-.051-.054-.077-.135-.208-.261-.424-.382-.642-.03-.053-.056-.107-.085-.161-.055-.1-.112-.2-.163-.31-.066-.135-.127-.272-.187-.41-.012-.027-.025-.053-.036-.08-.082-.192-.159-.386-.23-.583-.017-.048-.028-.1-.044-.148-.072-.211-.133-.426-.192-.643-.027-.1-.063-.192-.087-.291-.011-.047-.02-.1-.03-.143s-.021-.1-.033-.153c-.058-.276-.11-.555-.146-.839,0-.012,0-.024,0-.036a10.677,10.677,0,0,1-.081-1.069l-1.54-64.283c0-.062,0-.125,0-.187C1492.893,422.48,1492.9,422.172,1492.92,421.866Z" transform="translate(-1492.896 -408.843)" fill="#1657ab"/>
        <g id="Group_55774" data-name="Group 55774" transform="translate(3.974)">
          <path id="Path_9894" data-name="Path 9894" d="M1456.025,407.509a12.647,12.647,0,0,0-12.976,13.054l1.54,64.282a10.471,10.471,0,0,0,10.055,10.259,10.261,10.261,0,0,0,10.521-9.607l4.548-64.089a12.9,12.9,0,0,0-12.345-13.857Z" transform="translate(-1443.045 -407.503)" fill="#549ffe"/>
        </g>
      </g>
      <g id="Group_55780" data-name="Group 55780" transform="translate(0 93.039)" style="isolation: isolate">
        <g id="Group_55777" data-name="Group 55777" transform="translate(12.03 22.923)" style="isolation: isolate">
          <g id="Group_55776" data-name="Group 55776" clip-path="url(#clip-path-2)">
            <path id="Path_9895" data-name="Path 9895" d="M1496.548,884.511l-3.974,1.075a11.334,11.334,0,0,0,3.322-.385l3.974-1.075a11.32,11.32,0,0,1-3.322.385Z" transform="translate(-1492.574 -884.126)" fill="#1657ab"/>
          </g>
        </g>
        <g id="Group_55778" data-name="Group 55778" transform="translate(11.221 23.283)">
          <path id="Path_9897" data-name="Path 9897" d="M1510.2,885.6l-3.974,1.075.808.026,3.974-1.075Z" transform="translate(-1506.225 -885.604)" fill="#1a4279"/>
        </g>
        <path id="Path_9898" data-name="Path 9898" d="M1509.736,805.873c-.029-.162-.054-.325-.076-.489-.005-.036-.012-.073-.017-.109v-.009c-.027-.213-.048-.428-.063-.645,0-.065-.007-.131-.01-.2-.008-.153-.015-.307-.018-.461,0-.029,0-.058,0-.088,0-.132,0-.265,0-.4.007-.293.028-.582.056-.869.006-.066.013-.133.021-.2s.011-.124.019-.185c.028-.219.064-.435.1-.65.006-.032.014-.063.02-.095.049-.251.108-.5.172-.743.016-.061.032-.122.049-.182.068-.242.141-.481.224-.716.006-.017.014-.033.02-.05.055-.152.118-.3.179-.447s.109-.279.17-.415.141-.286.213-.428.13-.267.2-.4.162-.272.245-.407.15-.255.231-.377.182-.257.274-.384c.078-.108.15-.22.232-.324l.023-.026c.228-.292.472-.57.726-.839.068-.072.14-.139.209-.209q.3-.3.626-.582c.048-.042.092-.09.141-.131s.091-.069.135-.1c.092-.075.187-.146.281-.218q.2-.154.411-.3c.1-.068.2-.135.3-.2.061-.039.119-.083.181-.121.1-.063.208-.12.313-.181.064-.037.128-.075.193-.111.229-.126.462-.246.7-.356l.031-.013.1-.041c.218-.1.44-.187.665-.271l.2-.074c.06-.021.118-.045.178-.065q.3-.1.6-.181l3.974-1.075c-.265.072-.524.156-.781.246l-.205.074c-.225.084-.447.174-.664.271l-.1.041c-.248.114-.491.238-.73.369-.066.036-.13.075-.194.112q-.25.144-.492.3-.151.1-.3.2-.209.144-.411.3c-.094.072-.189.143-.281.218s-.185.157-.276.236q-.324.279-.625.582c-.07.07-.142.138-.21.209-.254.268-.5.546-.726.838-.089.114-.17.234-.255.351s-.187.253-.274.384-.155.252-.232.379-.167.267-.244.406-.136.266-.2.4-.146.28-.211.425-.115.279-.172.419-.123.293-.177.443q-.135.377-.244.766c-.017.061-.033.122-.049.183-.065.245-.123.492-.172.743-.006.031-.014.062-.02.093-.051.275-.091.554-.123.836-.008.066-.014.132-.021.2-.028.287-.049.576-.056.869,0,.163,0,.325,0,.487s.009.307.018.46c0,.065.005.131.01.2.016.216.036.431.063.644.005.042.013.083.019.125.022.162.047.323.075.482.013.074.03.147.045.221.026.126.051.253.081.378.019.081.041.161.061.241.03.115.06.23.093.344.024.083.05.164.076.246.035.11.07.22.108.328.028.08.057.159.086.239q.064.174.135.345c.031.076.062.152.095.228.05.116.1.231.157.345.032.068.064.137.1.205.1.2.2.388.3.576l.01.017c.1.183.214.362.328.539.03.047.062.093.093.14q.19.288.4.564c.023.031.045.063.069.094.154.2.316.4.484.59.051.059.1.117.155.174.067.074.135.148.2.221s.125.129.188.192.142.14.214.209.131.123.2.183.149.133.224.2.136.116.205.173.155.126.234.187.142.11.214.164.161.117.242.175.148.1.223.154.167.109.251.163.152.1.229.142.174.1.262.152.155.088.234.13.181.094.271.139.159.08.24.118.187.085.281.127.162.072.244.106.193.076.29.113.165.064.249.094.2.067.3.1c.084.027.167.056.252.081.1.031.208.058.312.086.083.022.166.046.25.067.109.027.219.049.328.072.082.017.163.037.246.052.117.022.234.04.352.058.077.012.154.026.231.037.131.018.265.031.4.045.065.007.13.016.2.021q.3.025.6.035l-3.974,1.075q-.3-.01-.6-.035c-.066-.005-.13-.015-.2-.021-.133-.013-.266-.026-.4-.045-.078-.01-.154-.025-.231-.037-.118-.019-.236-.036-.353-.058-.082-.016-.163-.035-.245-.052-.11-.023-.22-.046-.329-.073-.084-.02-.166-.044-.249-.066-.1-.028-.209-.055-.313-.086-.085-.026-.168-.054-.251-.081-.1-.032-.2-.064-.3-.1-.083-.03-.165-.062-.248-.093s-.195-.074-.291-.114-.162-.07-.243-.106-.188-.083-.282-.127-.159-.078-.238-.118-.182-.092-.272-.14-.156-.086-.234-.13-.175-.1-.261-.152-.153-.094-.229-.142-.169-.108-.252-.163-.149-.1-.222-.154-.163-.116-.242-.175-.143-.108-.214-.164-.156-.123-.233-.187-.138-.115-.206-.173-.15-.131-.224-.2-.132-.121-.2-.183-.143-.138-.213-.208-.127-.127-.189-.192-.136-.145-.2-.219c-.036-.039-.073-.076-.108-.116-.017-.019-.032-.04-.049-.06-.167-.192-.329-.388-.484-.59-.023-.03-.045-.062-.067-.092q-.208-.277-.4-.566c-.018-.028-.039-.054-.057-.081s-.022-.038-.034-.057c-.114-.178-.225-.359-.33-.543l-.008-.013c-.107-.189-.207-.382-.3-.577-.01-.019-.021-.037-.03-.056-.024-.049-.044-.1-.067-.148-.054-.114-.107-.229-.157-.345-.033-.075-.064-.151-.1-.228q-.07-.172-.135-.345c-.016-.043-.034-.084-.05-.127s-.023-.073-.036-.11c-.038-.109-.074-.22-.109-.331-.026-.081-.051-.162-.075-.244-.033-.114-.064-.23-.094-.345-.015-.059-.033-.116-.047-.175-.005-.021-.009-.043-.014-.065-.03-.126-.056-.254-.081-.381C1509.766,806.018,1509.75,805.946,1509.736,805.873Z" transform="translate(-1509.546 -791.123)" fill="#1657ab"/>
        <g id="Group_55779" data-name="Group 55779" transform="translate(3.974)">
          <path id="Path_9899" data-name="Path 9899" d="M1469.628,789.914a11.457,11.457,0,0,0-11.764,11.274,11.685,11.685,0,0,0,11.218,12l.808.026a11.455,11.455,0,0,0,11.764-11.274,11.688,11.688,0,0,0-11.219-12Z" transform="translate(-1457.86 -789.908)" fill="#549ffe"/>
        </g>
      </g>
    </g>
    <g id="character5" transform="translate(37.595 21.624)">
      <path id="Path_9900" data-name="Path 9900" d="M1519.8,257.724c-2.7,4.647-6.546,13.639-10.135,16.541-.4.321-4.372,3.144-5.8,3.547-.837.236-2.945-1.067-3.656-1.13-1.8-.159-6.193.981-5.292,1.487a14.239,14.239,0,0,0,2.948.046c.676-.121,2.569,1.373,2.552,1.711-.046.908-1.695.71-1.932,1.746-.073.318.8.063,1.367-.055.864-.182,1.876-.215,2.26-.361.848-.323,1.155-1.33,1.771-1.33a45.679,45.679,0,0,0,11.919-2.309c3.872-2.015,8.445-10.384,8.445-10.384Z" transform="translate(-1489.284 -239.544)" fill="url(#radial-gradient)"/>
      <path id="Path_9901" data-name="Path 9901" d="M1508.4,254.89c-4.005,3.31-7.228,10.729-7.955,11.855-.221.343,5.626,4.224,7.686,4.047.619-.053,1.881-2.751,1.881-2.751Z" transform="translate(-1476.429 -237.4)" fill="#b63f70"/>
      <g id="Group_55782" data-name="Group 55782" transform="translate(0 39.494)">
        <path id="Path_9902" data-name="Path 9902" d="M1603.139,510.96c.333-.007,1.022,1.888.779,2.711-.224.759-11.046.759-11.046-.014,0-.971,5.337-2.191,6.919-2.7A16.482,16.482,0,0,1,1603.139,510.96Z" transform="translate(-1592.872 -470.587)" fill="#00274a"/>
        <path id="Path_9903" data-name="Path 9903" d="M1599.958,488.583a16.451,16.451,0,0,0-.389,4.7c.068.353-2.978.987-4.229.511-.3-.114,1.076-.535,1.106-.608.346-.825.566-2.724.165-5.849C1596.56,486.936,1599.958,488.583,1599.958,488.583Z" transform="translate(-1589.452 -452.737)" fill="#e1a17b"/>
        <path id="Path_9904" data-name="Path 9904" d="M1506.8,345.327a11.34,11.34,0,0,1,5.322,7.935c.684,3.954-1.623,7.475-7.562,7.475s-17.033-1.943-17.986-1.521c.289.068,1.379,4.4,1.147,6.326-.781,6.522-3.789,15.849-4.168,17.349-.207.819-2.884.6-3.195-.073-.114-.246-.612-9-1.2-17.644-.39-5.787-2.216-9.948-.621-13.419,1.494-3.251,24.8-2.114,24.8-2.114Z" transform="translate(-1473.167 -345.327)" fill="#00274a"/>
      </g>
      <g id="Group_55783" data-name="Group 55783" transform="translate(3.567 39.494)">
        <path id="Path_9905" data-name="Path 9905" d="M1588.476,510.96c.333-.007,1.022,1.888.779,2.711-.224.759-11.046.759-11.046-.014,0-.971,5.337-2.191,6.919-2.7A16.484,16.484,0,0,1,1588.476,510.96Z" transform="translate(-1578.209 -470.587)" fill="#033b5e"/>
        <path id="Path_9906" data-name="Path 9906" d="M1585.3,488.583a16.464,16.464,0,0,0-.389,4.7c.068.353-2.978.987-4.229.511-.3-.114,1.076-.535,1.106-.608.346-.825.566-2.724.165-5.849C1581.9,486.936,1585.3,488.583,1585.3,488.583Z" transform="translate(-1574.789 -452.737)" fill="#f5b58f"/>
        <path id="Path_9907" data-name="Path 9907" d="M1492.135,345.327a11.341,11.341,0,0,1,5.322,7.935c.684,3.954-1.624,7.475-7.562,7.475s-17.033-1.943-17.986-1.521c.289.068,1.378,4.4,1.147,6.326-.781,6.522-3.789,15.849-4.168,17.349-.207.819-2.884.6-3.2-.073-.114-.246-.612-9-1.2-17.644-.39-5.787-2.216-9.948-.621-13.419,1.494-3.251,24.8-2.114,24.8-2.114Z" transform="translate(-1458.503 -345.327)" fill="#033b5e"/>
      </g>
      <path id="Path_9908" data-name="Path 9908" d="M1457.1,250.316c-1.156,7.173.641,18.607,1.15,19.493.608,1.061,13.305,4.214,14.193,2.729.4-.67-1.453-4.822-.876-11.689.159-1.894,3.006-8.778,2.856-11.668-.1-1.981-2.486-6.951-3.813-8.119-1.836-1.616-5.281-.332-6.819.423C1461.4,242.658,1457.535,247.609,1457.1,250.316Z" transform="translate(-1430.204 -226.347)" fill="#b63f70"/>
      <path id="Path_9909" data-name="Path 9909" d="M1465.5,186.447c-2.436-.634-2.958-2.339-1.745-2.973.856-.448,8.466-1.348,9.369,1.791.394,1.369-.655,3.461-3.442,7.216C1464.247,192.231,1465.5,186.447,1465.5,186.447Z" transform="translate(-1430.542 -183.003)" fill="#232850"/>
      <path id="Path_9910" data-name="Path 9910" d="M1474.318,211.754a20.816,20.816,0,0,1-.674,6.177c-.341,1.245,6.651-.033,6.876-.981.068-.285-.51-1.343-.721-3.085a13.912,13.912,0,0,1,.4-5.365C1480.659,207.276,1474.318,211.754,1474.318,211.754Z" transform="translate(-1440.418 -202.136)" fill="#f6a087"/>
      <path id="Path_9911" data-name="Path 9911" d="M1472.761,191.652c-2.008,4.377-2.158,9.921-.153,9.995,1.284.047,5.338-2.58,6.169-5.2.371.229,1.408-.365,1.017-1.3-.362-.866-.862-.077-1.13-.162S1473.543,189.947,1472.761,191.652Z" transform="translate(-1439.176 -189.277)" fill="#f5b58f"/>
      <path id="Path_9912" data-name="Path 9912" d="M1510,248.151s-3.1,3.377-3.642,3.287c-.924-.151-6.353-5.921-7.916-8.96-1.025-1.993-2.416-9.085-3.052-8.893-.677.2.76,2.769.09,3.515-.257.286-2.018,1.322-2.18,2.166-.2,1.02,1.48,4.715,2.692,4.206.624-.262,2.477,12.528,8.516,14.584,3.284,1.118,10.672-4.285,10.672-4.285Z" transform="translate(-1479.847 -221.276)" fill="#f5b58f"/>
      <path id="Path_9913" data-name="Path 9913" d="M1482.4,203.205c-.377,1.658.1,2.918-.666,3.734s-3.933,4.427-6.272,3.85-1.267-4.748-1.119-5.057a.923.923,0,0,1,1.025-.464c1.224.484,2.341,2.169,2.843,2.169s3.2-1.308,3.2-1.863a7.878,7.878,0,0,1,.4-2.894C1482.163,202.206,1482.6,202.355,1482.4,203.205Z" transform="translate(-1442.426 -197.691)" fill="#232850"/>
    </g>
    <g id="Group_55789" data-name="Group 55789" transform="translate(137.751 176.788)">
      <path id="Rectangle_2034" data-name="Rectangle 2034" d="M0,0H39.93a7.444,7.444,0,0,1,7.444,7.444v0a7.444,7.444,0,0,1-7.444,7.444H0a0,0,0,0,1,0,0V0A0,0,0,0,1,0,0Z" transform="translate(3.085 0.544)" fill="#fff"/>
      <g id="Group_55784" data-name="Group 55784" transform="translate(0)">
        <path id="Path_9914" data-name="Path 9914" d="M1017.74,836.726h47.2a3.266,3.266,0,0,0,3.262-3.262v-9.45a3.266,3.266,0,0,0-3.262-3.262h-47.2a.544.544,0,1,0,0,1.088h47.2a2.177,2.177,0,0,1,2.175,2.175v9.45a2.177,2.177,0,0,1-2.175,2.175h-47.2a.544.544,0,1,0,0,1.087Z" transform="translate(-1017.196 -820.751)" fill="#ff7e33"/>
      </g>
      <g id="Group_55785" data-name="Group 55785" transform="translate(2.813 3.016)">
        <path id="Path_9915" data-name="Path 9915" d="M1033.717,833.691h43.692a.272.272,0,1,0,0-.544h-43.692a.272.272,0,1,0,0,.544Z" transform="translate(-1033.445 -833.147)" fill="#ff7e33"/>
      </g>
      <g id="Group_55786" data-name="Group 55786" transform="translate(2.813 5.916)">
        <path id="Path_9916" data-name="Path 9916" d="M1033.717,845.61h43.692a.272.272,0,1,0,0-.544h-43.692a.272.272,0,0,0,0,.544Z" transform="translate(-1033.445 -845.066)" fill="#ff7e33"/>
      </g>
      <g id="Group_55787" data-name="Group 55787" transform="translate(2.813 8.816)">
        <path id="Path_9917" data-name="Path 9917" d="M1033.717,857.528h43.692a.272.272,0,1,0,0-.544h-43.692a.272.272,0,0,0,0,.544Z" transform="translate(-1033.445 -856.984)" fill="#ff7e33"/>
      </g>
      <g id="Group_55788" data-name="Group 55788" transform="translate(2.813 11.715)">
        <path id="Path_9918" data-name="Path 9918" d="M1033.717,869.447h43.692a.272.272,0,1,0,0-.544h-43.692a.272.272,0,0,0,0,.544Z" transform="translate(-1033.445 -868.903)" fill="#ff7e33"/>
      </g>
      <path id="Path_9919" data-name="Path 9919" d="M1067.021,844.965h4.057v15.043l-4.057-3.806-4.057,3.806V844.965Z" transform="translate(-1031.211 -839.073)" fill="#b63f70"/>
    </g>
    <g id="Group_55796" data-name="Group 55796" transform="translate(135.796 167.329)">
      <path id="Path_9920" data-name="Path 9920" d="M1028.261,782.433H998.716l3.909,4.773-3.909,4.773h29.545a3.818,3.818,0,0,0,3.818-3.818v-1.909A3.818,3.818,0,0,0,1028.261,782.433Z" transform="translate(-974.626 -782.297)" fill="#ffcd30"/>
      <path id="Path_9921" data-name="Path 9921" d="M1018.025,782.433h-1a3.818,3.818,0,0,1,3.818,3.818v1.909a3.818,3.818,0,0,1-3.818,3.818h1a3.818,3.818,0,0,0,3.818-3.818v-1.909A3.818,3.818,0,0,0,1018.025,782.433Z" transform="translate(-968.844 -782.297)" fill="url(#linear-gradient)"/>
      <path id="Path_9922" data-name="Path 9922" d="M1030.355,782.433h-1a3.818,3.818,0,0,1,3.818,3.818v1.909a3.818,3.818,0,0,1-3.818,3.818h1a3.818,3.818,0,0,0,3.818-3.818v-1.909A3.818,3.818,0,0,0,1030.355,782.433Z" transform="translate(-984.174 -782.297)" fill="url(#linear-gradient-2)"/>
      <path id="Path_9923" data-name="Path 9923" d="M1147.923,786.251v1.909a3.819,3.819,0,0,1-3.818,3.818h-23.953v-9.545H1144.1A3.819,3.819,0,0,1,1147.923,786.251Z" transform="translate(-1120.014 -782.297)" fill="#fff"/>
      <g id="Group_55790" data-name="Group 55790">
        <path id="Path_9924" data-name="Path 9924" d="M1143.681,791.69h-23.953a.136.136,0,1,1,0-.273h23.953a3.686,3.686,0,0,0,3.682-3.682v-1.909a3.686,3.686,0,0,0-3.682-3.682h-23.953a.136.136,0,1,1,0-.273h23.953a3.959,3.959,0,0,1,3.955,3.955v1.909A3.959,3.959,0,0,1,1143.681,791.69Z" transform="translate(-1119.591 -781.872)" fill="#ffcd30"/>
      </g>
      <g id="Group_55791" data-name="Group 55791" transform="translate(0 1.727)">
        <path id="Path_9925" data-name="Path 9925" d="M1153.719,789.245h-25.771a.136.136,0,1,1,0-.273h25.771a.136.136,0,1,1,0,.273Z" transform="translate(-1127.811 -788.972)" fill="#ffcd30"/>
      </g>
      <g id="Group_55792" data-name="Group 55792" transform="translate(0 3.364)">
        <path id="Path_9926" data-name="Path 9926" d="M1153.719,795.97h-25.771a.136.136,0,1,1,0-.272h25.771a.136.136,0,1,1,0,.272Z" transform="translate(-1127.811 -795.698)" fill="#ffcd30"/>
      </g>
      <g id="Group_55793" data-name="Group 55793" transform="translate(0 5)">
        <path id="Path_9927" data-name="Path 9927" d="M1153.719,802.7h-25.771a.136.136,0,1,1,0-.273h25.771a.136.136,0,1,1,0,.273Z" transform="translate(-1127.811 -802.423)" fill="#ffcd30"/>
      </g>
      <g id="Group_55794" data-name="Group 55794" transform="translate(0 6.636)">
        <path id="Path_9928" data-name="Path 9928" d="M1153.719,809.421h-25.771a.136.136,0,1,1,0-.273h25.771a.136.136,0,1,1,0,.273Z" transform="translate(-1127.811 -809.149)" fill="#ffcd30"/>
      </g>
      <g id="Group_55795" data-name="Group 55795" transform="translate(0 8.273)">
        <path id="Path_9929" data-name="Path 9929" d="M1153.719,816.147h-25.771a.136.136,0,1,1,0-.273h25.771a.136.136,0,1,1,0,.273Z" transform="translate(-1127.811 -815.874)" fill="#ffcd30"/>
      </g>
    </g>
    <g id="Group_55803" data-name="Group 55803" transform="translate(154.114 125.102)">
      <g id="Group_55801" data-name="Group 55801">
        <path id="Path_9930" data-name="Path 9930" d="M1000.658,675.333c2.866,2.408,8.753,9.8,11.757,11.828a16.823,16.823,0,0,0,7.106,1.064,18.86,18.86,0,0,0,2.929-.939c1.936-.465,4.648,1.337,3.822,1.872a7.051,7.051,0,0,1-3.7,1.45c-4.744.377-12.455.468-13.4.114-5.158-1.921-8.639-8.084-8.639-8.084Z" transform="translate(-987.731 -659.027)" fill="#f6a087"/>
        <path id="Path_9931" data-name="Path 9931" d="M1073.861,665.611c1.891,1.043,7.683,7.965,7.681,8.286s-4.12,3.685-5.744,3.685c-.489,0-1.658-2.027-1.658-2.027Z" transform="translate(-1060.69 -651.67)" fill="#4079e2"/>
        <g id="Group_55797" data-name="Group 55797" transform="translate(0.495)">
          <path id="Path_9932" data-name="Path 9932" d="M1114.4,612.363c0,4.35,3.294,6.053,4.017,6.04.621-.011,1.594-2.3,3.091-3.734,1.819-1.741,3.42-1.862,3.385-2.285a5.7,5.7,0,0,0-6.057-4.047A5.124,5.124,0,0,0,1114.4,612.363Z" transform="translate(-1114.397 -608.312)" fill="#232850"/>
          <path id="Path_9933" data-name="Path 9933" d="M1124.978,637.658c.389,1.762.9,2.115,1.345,3.768,1.628,2.118-4.274,3-5.262.6.238-.994.076-5.787-1.033-7.462C1119.461,633.708,1124.978,637.658,1124.978,637.658Z" transform="translate(-1117.471 -628.085)" fill="#f6a087"/>
          <path id="Path_9934" data-name="Path 9934" d="M1124.845,623.676c1.755,3.5,1.176,7.51-.377,7.787-1.721.306-4.191-2.032-4.842-4.088-.292.179-1.528-1.438-1.183-1.945.269-.4,1.062.862,1.273.8C1122.1,626.476,1124.929,624.1,1124.845,623.676Z" transform="translate(-1116.398 -619.938)" fill="#f5b58f"/>
        </g>
        <g id="Group_55798" data-name="Group 55798" transform="translate(10.221 32.796)">
          <path id="Path_9935" data-name="Path 9935" d="M996.27,745.091c-.1,1.856,6.525,6.407,8.208,7.023,5.9,2.161,14.183.546,14.931.878-.02,0-1.207,3.525-.848,5.406a80.371,80.371,0,0,0,3.888,12.549c.163.16,2.6.463,2.994.035.145-.156.8-18.648-.252-21.458-1.371-3.651-21.2-6.416-21.2-6.416S996.381,743.075,996.27,745.091Z" transform="translate(-996.269 -743.108)" fill="url(#radial-gradient-2)"/>
          <path id="Path_9936" data-name="Path 9936" d="M985.764,866.552c.314.317,4.152,3.09,3.6,3.8-.74.947-6.458-.911-6.592-1.261-.364-.952.262-2.38.663-2.327A13.7,13.7,0,0,0,985.764,866.552Z" transform="translate(-956.595 -836.518)" fill="#033b5e"/>
          <path id="Path_9937" data-name="Path 9937" d="M995.979,856.077a.184.184,0,0,0-.16.23,7.005,7.005,0,0,1,.444,2.7,5.469,5.469,0,0,0,2.561.658c.349-.012.169-.443.13-.5a4.667,4.667,0,0,1-.553-2.89C998.4,856.012,996.585,856.016,995.979,856.077Z" transform="translate(-969.414 -828.565)" fill="#f5b58f"/>
        </g>
        <path id="Path_9938" data-name="Path 9938" d="M1040.478,753.16c-.1,1.857.734,4.646,2.417,5.263,5.9,2.161,14.183.546,14.931.878-.02,0-1.207,3.525-.848,5.406a80.365,80.365,0,0,0,3.888,12.548c.163.16,2.366.511,2.741-.388.082-.2,1.055-18.225,0-21.035-1.371-3.651-15.68-5.3-15.68-5.3S1040.588,751.145,1040.478,753.16Z" transform="translate(-1035.119 -715.931)" fill="#033b5e"/>
        <path id="Path_9939" data-name="Path 9939" d="M1097.321,671.385c-.885,5.3,3.436,10.34,3.035,11.214s-3.5,1.04-5.134,2.58c-2.037,1.925-7.656,2.911-8.51,1.854-.521-.645-7.6-15.54-4.637-20.117,1.2-1.854,2.462-2.115,3.363-3.171.433.665,6.347,1.821,5.262-.6,1.084.238,3.652.389,3.969.7C1095.136,664.309,1097.636,669.5,1097.321,671.385Z" transform="translate(-1081.353 -649.803)" fill="#4079e2"/>
        <path id="Path_9940" data-name="Path 9940" d="M1000.26,730.185h4.291c.872,0,.243-1.147-1.2-1.657-1.365-.483-3.76-.118-3.76.987A.67.67,0,0,0,1000.26,730.185Z" transform="translate(-966.027 -699.122)" fill="#232850"/>
        <path id="Path_9941" data-name="Path 9941" d="M1009.324,727.472c1.56.637,1.688,1.036,1.688,1.139s-.764.088-1.083,0a3.486,3.486,0,0,0-.923-.216c-.318,0-.932,1.149-1.951.985-.569-.091-.055-1.558-.055-1.558Z" transform="translate(-973.841 -698.48)" fill="#f6a087"/>
        <path id="Path_9942" data-name="Path 9942" d="M1037.071,701.079l5.281,5.808,8.463-.226s3.151-2.289,4.249-2.43c.7-.09,2.855,1.488,2.974,2.517.051.441-1.814-.543-2.133-.14-.123.155,1.368,1.106,1.046,1.31-.174.11-1.552-.438-1.859-.351-1.064.3-1.939,1.262-3.305.747-.5-.187-4.907,2.721-9.746,3.282-3.108.36-9.112-5.993-10.274-7.442C1032.94,704.083,1037.071,701.079,1037.071,701.079Z" transform="translate(-1026.946 -678.509)" fill="#f5b58f"/>
        <g id="Group_55799" data-name="Group 55799" transform="translate(0.939 20.315)">
          <path id="Path_9943" data-name="Path 9943" d="M1145.376,696.831a.132.132,0,0,0,.088-.231,8.874,8.874,0,0,1-2.973-4.684.132.132,0,0,0-.26.05,9.121,9.121,0,0,0,3.057,4.831A.132.132,0,0,0,1145.376,696.831Z" transform="translate(-1142.229 -691.809)" fill="#1657ab"/>
        </g>
        <g id="Group_55800" data-name="Group 55800" transform="translate(7.644 19.116)">
          <path id="Path_9944" data-name="Path 9944" d="M1121.19,689.543a.132.132,0,0,0,.1-.215c-.178-.225-.358-.455-.531-.679-.447-.576-.909-1.171-1.4-1.725a.132.132,0,0,0-.2.176c.489.547.948,1.139,1.392,1.711.174.224.354.455.533.681A.133.133,0,0,0,1121.19,689.543Z" transform="translate(-1119.128 -686.881)" fill="#1657ab"/>
        </g>
      </g>
      <g id="Group_55802" data-name="Group 55802" transform="translate(5.351 34.602)">
        <path id="Path_9945" data-name="Path 9945" d="M1040.478,753.16c-.1,1.857.734,4.646,2.417,5.263,5.9,2.161,14.183.546,14.931.878-.02,0-1.207,3.525-.848,5.406a80.365,80.365,0,0,0,3.888,12.548c.163.16,2.366.511,2.741-.388.082-.2,1.055-18.225,0-21.035-1.371-3.651-15.68-5.3-15.68-5.3S1040.588,751.145,1040.478,753.16Z" transform="translate(-1040.469 -750.533)" fill="#033b5e"/>
        <path id="Path_9946" data-name="Path 9946" d="M1029.552,869.387c.314.317,4.152,3.09,3.6,3.8-.741.947-6.458-.911-6.592-1.261-.364-.952.262-2.38.663-2.327A13.711,13.711,0,0,0,1029.552,869.387Z" transform="translate(-1006.167 -840.47)" fill="#033b5e"/>
        <path id="Path_9947" data-name="Path 9947" d="M1039.688,858.512a.117.117,0,0,0-.078.141,6.61,6.61,0,0,1,.447,2.67,5.452,5.452,0,0,0,2.561.658c.349-.012.165-.441.13-.5a6.252,6.252,0,0,1-.708-3.227C1042.034,858.057,1040.14,858.369,1039.688,858.512Z" transform="translate(-1018.993 -831.997)" fill="#f5b58f"/>
      </g>
      <g id="computer" transform="translate(30.276 18.898)">
        <path id="Path_9948" data-name="Path 9948" d="M964.052,699.278h14.137l3.155-13.021-1.116-.27-2.943,12.143H964.052Z" transform="translate(-964.052 -685.986)" fill="#70a5cf"/>
        <path id="Path_9949" data-name="Path 9949" d="M936.552,687.1h7.458l-3.155,13.021H933.4Z" transform="translate(-919.259 -686.827)" fill="#347bb3"/>
        <path id="Path_9950" data-name="Path 9950" d="M940.855,685.986H933.4l1.116.27h7.458Z" transform="translate(-917.22 -685.986)" fill="#cadff0"/>
      </g>
    </g>
    <g id="character2" transform="translate(119.617 128.391)">
      <path id="Path_9951" data-name="Path 9951" d="M1196.71,768.867c.287-1.931,2.775-10.113,11.1-20.581l7.174,6.151c-3.762,9.165-2.958,1.356-5.134,5.318-3.58,6.519-7.671,11.353-7.641,12.195.073,2.042.811,4.729.049,6.989-.823,2.441-6.166,10.7-6.936,12.479s-2.481-.087-2.1-.537C1195.7,787.976,1196.355,771.254,1196.71,768.867Z" transform="translate(-1188.659 -717.52)" fill="url(#radial-gradient-3)"/>
      <path id="Path_9952" data-name="Path 9952" d="M1279.036,920.78c-1.285-.083-4.912-.283-4.942.078s5.281,3.031,6.128,2.844.341-.988.469-1.724C1280.47,922.367,1279.015,921.96,1279.036,920.78Z" transform="translate(-1274.094 -847.947)" fill="#ff7e33"/>
      <path id="Path_9953" data-name="Path 9953" d="M1171.275,630.413a5.8,5.8,0,0,1,5.539-.951c.448.157,3.538,1.4,4.655,3.36,1.033,1.809,6.239,10.866,3.824,14.783a3.88,3.88,0,0,1-4.2,1.823c-.731-.169-4.659-6.482-5.113-6.047-1.354,1.3-1.687,5.215-3.329,3.743-1.873-1.68-1.077-3.1-1.3-3.584-.264-.58-1.95-.358-2.268-1.842-.513-2.4,2.783-3.517,2.566-5.266C1171.489,635.142,1168.8,632.509,1171.275,630.413Z" transform="translate(-1153.73 -627.365)" fill="#232850"/>
      <path id="Path_9954" data-name="Path 9954" d="M1199.136,751.836a4.5,4.5,0,0,1-2.874,5.14c-1.5.637-8.048,9.992-8.08,10.691-.1,2.282,1.706,2.936,1.706,6.9,0,3.547-6.358,12.771-6.792,14.574s-2.927,1.123-2.555.583c2.451-3.556,2.721-18.025,2.146-20.627-.772-3.494,6.857-20.3,9-25.762C1191.692,743.337,1197.052,744.348,1199.136,751.836Z" transform="translate(-1169.869 -713.775)" fill="#033b5e"/>
      <path id="Path_9955" data-name="Path 9955" d="M1214.768,696.96c.293-.3,1.572.557,1.849.267,1.59-1.663,2.727-8.262,3.23-9.156.38-.675,1.214-1.394,1.963-1.2s1.66,1.255,1.174,3.091c-.614,2.319-3.565,8.61-4.926,9.4C1216.019,700.555,1213.273,697.761,1214.768,696.96Z" transform="translate(-1201.95 -671.025)" fill="#f6a087"/>
      <path id="Path_9956" data-name="Path 9956" d="M1195.469,675.643c3.271,2.648-2.243,8.951-1.966,13.192.2,3.02,3.6,6.9,3.386,7.44s-10.2,2.319-12.757.5c-.792-.563,3.413-8.488,2.441-13.134-.237-1.133-1.016-1.587-1.174-2.865-.12-.972,1-5.621,3.367-6.634C1191.823,672.833,1195.138,675.375,1195.469,675.643Z" transform="translate(-1168.354 -661.134)" fill="#ff7e33"/>
      <path id="Path_9957" data-name="Path 9957" d="M1198.6,654.322a6.818,6.818,0,0,1-.968,4.837c-.255.664,4.273,1.143,4.528.289s-.709-4.3-1.057-5.429S1198.6,654.322,1198.6,654.322Z" transform="translate(-1176.961 -645.861)" fill="#f5b58f"/>
      <path id="Path_9958" data-name="Path 9958" d="M1201.253,634.091c-.983,3.4.544,6.638,1.489,6.864s4.574-1.368,4.88-4.915C1207.823,633.708,1201.97,631.613,1201.253,634.091Z" transform="translate(-1183.195 -630.264)" fill="#f5b58f"/>
      <path id="Path_9959" data-name="Path 9959" d="M1170.833,626.195c-1.627-2.154-5.791-1.1-6.563-1.3-1.512-.4-1.286-3.442-5.255-3.018a3.923,3.923,0,0,0-3.341,3.456c-.194,1.293,3.807-.564,4.874,1.37,1.006,1.824-.512,6.484.9,10.239a2.283,2.283,0,0,0,2.474,1.682c.986-.172,1.49-.97,2.252.368.927,1.629.413,3.76,2.613,3.6,1.537-.111,1.393-2.406,1.717-2.834.649-.858,2.865-1.312,3.1-2.818.44-2.847-2.853-3.145-2.861-4.907C1170.729,630.367,1172.847,628.86,1170.833,626.195Z" transform="translate(-1138.192 -621.833)" fill="#232850"/>
      <path id="Path_9960" data-name="Path 9960" d="M1184.8,702.874c-.109,0-.819-1.156.163-1.12,1.918.07,4.8-.508,6.99-.513a25.48,25.48,0,0,0,2.764.091c.823-.745-.226-7.353.65-10.475a1.561,1.561,0,0,1,2.3-.87c.548.548.706,1.632.764,3.53.111,3.629-.739,10.228-1.737,10.462a10.1,10.1,0,0,1-4.589.384C1188.979,703.921,1185.3,702.861,1184.8,702.874Z" transform="translate(-1170.006 -673.212)" fill="#f5b58f"/>
      <path id="Path_9961" data-name="Path 9961" d="M1250.746,927.456c-1.194.375-5.464,1.256-5.268,1.542.519.758,6,1.722,7.022,1.035.7-.471.334-1.286.189-2.006C1252.431,928.523,1251.146,928.547,1250.746,927.456Z" transform="translate(-1239.318 -853.098)" fill="#ff7e33"/>
      <path id="Path_9962" data-name="Path 9962" d="M1251.658,724.318c-.228-.431-.765-1.014-1-.954s-.233.454-.142.607.222.208.157.347-.518.321-.474.594.054,1.34.474,1.427a1.673,1.673,0,0,0,1.224-.274,1.854,1.854,0,0,0-.227-1.092c-.16-.114-.414-.251-.387-.338.019-.061.216.027.333-.081A.18.18,0,0,0,1251.658,724.318Z" transform="translate(-1239.474 -698.658)" fill="#f5b58f"/>
      <path id="Path_9963" data-name="Path 9963" d="M1242.594,719.351l2.393.782a.481.481,0,0,0,.63-.457v-5.905a.48.48,0,0,0-.383-.471l-2.448-.508a.481.481,0,0,0-.578.475l.055,5.631A.481.481,0,0,0,1242.594,719.351Z" transform="translate(-1231.226 -690.654)" fill="#1657ab"/>
      <path id="Path_9964" data-name="Path 9964" d="M1241.555,734.092c-.356-.1-.433-.958-.816-1.111-.129-.052-.937.028-1.123-.139s-.267-.526-.381-.5c-.256.057-.107.758.113.965s.74.115.74.343-.882.64-1.132.585a9.808,9.808,0,0,0-1.636-.64c-.4,0,.912,1.875,1.386,2.072,1.257.521,2.787-.756,3.029-.732S1241.652,734.12,1241.555,734.092Z" transform="translate(-1226.225 -705.453)" fill="#f5b58f"/>
    </g>
    <g id="Group_55810" data-name="Group 55810" transform="translate(116.061 25.265)">
      <g id="Group_55806" data-name="Group 55806" transform="translate(0 22.393)">
        <g id="Group_55805" data-name="Group 55805">
          <g id="Group_55804" data-name="Group 55804">
            <path id="Path_9965" data-name="Path 9965" d="M1161.253,304.551c5.119.6,28.293,1.092,22.494-7.159-.942-1.339-2.916-2.151-4.869-2.409a24.347,24.347,0,0,0-5.847.164c.371-2.646-3.4-4.985-6.964-5.13-3.838-.157-12.221,1.82-11.825,5.462-3.121-.728-6.671-1.044-9.322.209s-3.486,4.584-.884,6.121a10.294,10.294,0,0,0,3.875,1.022l13.171,1.7Z" transform="translate(-1142.455 -290.008)" fill="#d7e1fd"/>
          </g>
        </g>
      </g>
      <g id="Group_55809" data-name="Group 55809" transform="translate(74.039 19.501)">
        <g id="Group_55808" data-name="Group 55808">
          <g id="Group_55807" data-name="Group 55807">
            <path id="Path_9966" data-name="Path 9966" d="M888.121,288.753c2.879.091,5.931.452,8.6.526,1.944.054,17.858-1.812,11.963-6.81-1.228-1.041-3-1.021-4.606-.906s-3.349.235-4.676-.677c-.707-.486-1.214-1.219-1.907-1.723-2.647-1.924-9.892-1.3-10.1,2.9.087-1.8-11.477-.694-9.965,4.474C878.61,290.555,885.348,288.666,888.121,288.753Z" transform="translate(-877.299 -278.121)" fill="#d7e1fd"/>
          </g>
        </g>
      </g>
      <path id="Path_9967" data-name="Path 9967" d="M1124.9,205.443s2.63-.025,2.59-1.236-1.09-1.766-2.483-1.871-.387-1.046-1.181-1.936a2.624,2.624,0,0,0-2.86-.578c-.8.39-1.684.518-2.04.115a3.739,3.739,0,0,0-3.548-1.965c-2.468.088-3.361,1.142-3.458,2.588-.084,1.251-1.727.042-3.148.749a2.038,2.038,0,0,0-.889,3.188C1108.659,205.734,1117.74,205.715,1124.9,205.443Z" transform="translate(-1076.753 -197.969)" fill="#d7e1fd"/>
    </g>
    <g id="Group_55812" data-name="Group 55812" transform="translate(173.913 117.795)">
      <g id="Group_55811" data-name="Group 55811" transform="translate(0)">
        <path id="Path_9968" data-name="Path 9968" d="M1009.934,594.049v-4.486h2.546a1.873,1.873,0,0,0,1.871-1.871v-7.54a1.873,1.873,0,0,0-1.871-1.871H995.7a1.873,1.873,0,0,0-1.871,1.871v7.54a1.873,1.873,0,0,0,1.871,1.871h9.751Zm2.546-15.2a1.309,1.309,0,0,1,1.307,1.307v7.54A1.309,1.309,0,0,1,1012.48,589h-3.11v3.688L1005.681,589H995.7a1.309,1.309,0,0,1-1.307-1.307v-7.54a1.309,1.309,0,0,1,1.307-1.307Z" transform="translate(-993.825 -578.28)" fill="#d2d5dd"/>
      </g>
      <path id="Path_9969" data-name="Path 9969" d="M1014.958,590.463a.459.459,0,0,1,.459-.459h9.325a.459.459,0,0,1,0,.918h-9.325A.459.459,0,0,1,1014.958,590.463Zm10.243,1.553a.459.459,0,0,1-.459.459h-9.325a.459.459,0,0,1,0-.918h9.325A.459.459,0,0,1,1025.2,592.016Zm0,1.553h0a.459.459,0,0,1-.459.459h-9.325a.459.459,0,0,1-.459-.459h0a.459.459,0,0,1,.459-.459h9.325A.459.459,0,0,1,1025.2,593.569Zm0,1.553a.459.459,0,0,1-.459.459h-5.04a.459.459,0,1,1,0-.918h5.04A.459.459,0,0,1,1025.2,595.122Z" transform="translate(-1009.816 -587.152)" fill="#d2d5dd"/>
    </g>
    <g id="Group_55814" data-name="Group 55814" transform="translate(14.598 58.764)">
      <g id="Group_55813" data-name="Group 55813" transform="translate(0)">
        <path id="Path_9970" data-name="Path 9970" d="M1664.743,351.423v-4.486h2.546a1.873,1.873,0,0,0,1.871-1.871v-7.54a1.873,1.873,0,0,0-1.871-1.871h-16.783a1.873,1.873,0,0,0-1.871,1.871v7.54a1.873,1.873,0,0,0,1.871,1.871h9.751Zm2.546-15.2a1.309,1.309,0,0,1,1.308,1.307v7.54a1.309,1.309,0,0,1-1.308,1.307h-3.11v3.688l-3.689-3.688h-9.984a1.309,1.309,0,0,1-1.307-1.307v-7.54a1.309,1.309,0,0,1,1.307-1.307Z" transform="translate(-1648.635 -335.654)" fill="#d2d5dd"/>
      </g>
      <path id="Path_9971" data-name="Path 9971" d="M1669.768,347.838a.459.459,0,0,1,.459-.459h9.324a.459.459,0,1,1,0,.918h-9.324A.459.459,0,0,1,1669.768,347.838Zm10.243,1.553a.459.459,0,0,1-.459.459h-9.324a.459.459,0,0,1,0-.918h9.324A.459.459,0,0,1,1680.011,349.391Zm0,1.553h0a.459.459,0,0,1-.459.459h-9.324a.459.459,0,0,1-.459-.459h0a.459.459,0,0,1,.459-.459h9.324A.459.459,0,0,1,1680.011,350.944Zm0,1.553a.459.459,0,0,1-.459.459h-5.04a.459.459,0,0,1,0-.918h5.04A.459.459,0,0,1,1680.011,352.5Z" transform="translate(-1664.626 -344.526)" fill="#d2d5dd"/>
    </g>
    <g id="Group_55816" data-name="Group 55816" transform="translate(77.702)">
      <g id="Group_55815" data-name="Group 55815" transform="translate(0)">
        <path id="Path_9972" data-name="Path 9972" d="M1405.375,109.894v-4.485h2.547a1.873,1.873,0,0,0,1.871-1.871V96a1.873,1.873,0,0,0-1.871-1.871h-16.784A1.873,1.873,0,0,0,1389.267,96v7.54a1.873,1.873,0,0,0,1.871,1.871h9.751Zm2.547-15.2A1.309,1.309,0,0,1,1409.229,96v7.54a1.309,1.309,0,0,1-1.307,1.307h-3.111v3.688l-3.689-3.688h-9.984a1.309,1.309,0,0,1-1.307-1.307V96a1.309,1.309,0,0,1,1.307-1.307Z" transform="translate(-1389.267 -94.125)" fill="#d2d5dd"/>
      </g>
      <path id="Path_9973" data-name="Path 9973" d="M1410.4,106.309a.459.459,0,0,1,.459-.459h9.324a.459.459,0,1,1,0,.918h-9.324A.459.459,0,0,1,1410.4,106.309Zm10.243,1.553a.459.459,0,0,1-.459.459h-9.324a.459.459,0,0,1,0-.918h9.324A.459.459,0,0,1,1420.643,107.862Zm0,1.553h0a.459.459,0,0,1-.459.459h-9.324a.459.459,0,0,1-.459-.459h0a.459.459,0,0,1,.459-.459h9.324A.459.459,0,0,1,1420.643,109.415Zm0,1.553a.459.459,0,0,1-.459.459h-5.039a.459.459,0,1,1,0-.918h5.039A.459.459,0,0,1,1420.643,110.968Z" transform="translate(-1405.258 -102.997)" fill="#d2d5dd"/>
    </g>
  </g>
</svg>
