<svg xmlns="http://www.w3.org/2000/svg" xmlns:xlink="http://www.w3.org/1999/xlink" width="208.008" height="188.61" viewBox="0 0 208.008 188.61">
  <defs>
    <linearGradient id="linear-gradient" x1="0.5" y1="-0.129" x2="0.5" y2="0.981" gradientUnits="objectBoundingBox">
      <stop offset="0" stop-color="#2364d8"/>
      <stop offset="0.27" stop-color="#1c70e0"/>
      <stop offset="0.77" stop-color="#0a90f4"/>
      <stop offset="1" stop-color="#00a1ff"/>
    </linearGradient>
    <linearGradient id="linear-gradient-2" x1="-1.762" y1="4.01" x2="-1.744" y2="4.01" gradientUnits="objectBoundingBox">
      <stop offset="0" stop-color="#312783"/>
      <stop offset="0.34" stop-color="#294598"/>
      <stop offset="0.76" stop-color="#2065af"/>
      <stop offset="1" stop-color="#1d71b8"/>
    </linearGradient>
    <linearGradient id="linear-gradient-3" x1="0.5" y1="-0.128" x2="0.5" y2="0.981" xlink:href="#linear-gradient"/>
    <linearGradient id="linear-gradient-4" x1="0.5" y1="-0.129" x2="0.5" y2="0.981" xlink:href="#linear-gradient"/>
    <linearGradient id="linear-gradient-5" x1="0.5" y1="-0.128" x2="0.5" y2="0.981" xlink:href="#linear-gradient"/>
    <linearGradient id="linear-gradient-6" y1="0.5" x2="1" y2="0.5" gradientUnits="objectBoundingBox">
      <stop offset="0.19" stop-color="#2364d8"/>
      <stop offset="0.26" stop-color="#2158cc"/>
      <stop offset="0.38" stop-color="#1b38ae"/>
      <stop offset="0.5" stop-color="#141289"/>
      <stop offset="0.58" stop-color="#192fa5"/>
      <stop offset="0.66" stop-color="#1e46bc"/>
      <stop offset="0.75" stop-color="#2157cc"/>
      <stop offset="0.84" stop-color="#2261d5"/>
      <stop offset="0.97" stop-color="#2364d8"/>
    </linearGradient>
    <linearGradient id="linear-gradient-7" x1="0.5" y1="0.039" x2="0.5" y2="0.923" xlink:href="#linear-gradient-6"/>
    <linearGradient id="linear-gradient-8" x1="0.5" y1="-0.053" x2="0.5" y2="1.009" gradientUnits="objectBoundingBox">
      <stop offset="0.05" stop-color="#2364d8"/>
      <stop offset="0.16" stop-color="#2267d8"/>
      <stop offset="0.24" stop-color="#2070da"/>
      <stop offset="0.31" stop-color="#1b81dc"/>
      <stop offset="0.38" stop-color="#1597df"/>
      <stop offset="0.44" stop-color="#0db5e4"/>
      <stop offset="0.5" stop-color="#03d8e9"/>
      <stop offset="0.51" stop-color="#00e2ea"/>
      <stop offset="0.56" stop-color="#00cdf1"/>
      <stop offset="0.62" stop-color="#00b9f7"/>
      <stop offset="0.69" stop-color="#00acfc"/>
      <stop offset="0.77" stop-color="#00a3fe"/>
      <stop offset="0.92" stop-color="#00a1ff"/>
    </linearGradient>
    <linearGradient id="linear-gradient-9" y1="0.5" x2="1" y2="0.5" gradientUnits="objectBoundingBox">
      <stop offset="0.08" stop-color="#00a1ff"/>
      <stop offset="0.23" stop-color="#00a3fe"/>
      <stop offset="0.31" stop-color="#00acfc"/>
      <stop offset="0.38" stop-color="#00b9f7"/>
      <stop offset="0.44" stop-color="#00cdf1"/>
      <stop offset="0.49" stop-color="#00e2ea"/>
      <stop offset="0.5" stop-color="#03d8e9"/>
      <stop offset="0.56" stop-color="#0db5e4"/>
      <stop offset="0.62" stop-color="#1597df"/>
      <stop offset="0.69" stop-color="#1b81dc"/>
      <stop offset="0.76" stop-color="#2070da"/>
      <stop offset="0.84" stop-color="#2267d8"/>
      <stop offset="0.95" stop-color="#2364d8"/>
    </linearGradient>
  </defs>
  <g id="headerBrand" transform="translate(-623 -473)">
    <path id="Path_745" data-name="Path 745" d="M287.647,653.6H324.03a3.176,3.176,0,0,1,2.356.985,3.222,3.222,0,0,1,.967,2.336V675.69a3.222,3.222,0,0,1-.967,2.336,3.177,3.177,0,0,1-2.356.987H287.647Zm-7.409-6.6a.288.288,0,0,0-.211.1.34.34,0,0,0-.1.251v37.933a.332.332,0,0,0,.1.251.288.288,0,0,0,.211.1h43.8A11.022,11.022,0,0,0,335.1,674.578V658.041A11.016,11.016,0,0,0,324.042,647Z" transform="translate(343.08 -40.842)" fill="url(#linear-gradient)"/>
    <rect id="Rectangle_781" data-name="Rectangle 781" width="38.655" height="7.828" transform="translate(689.659 644.787) rotate(-89.85)" fill="url(#linear-gradient-2)"/>
    <path id="Path_746" data-name="Path 746" d="M511.409,646.984a.289.289,0,0,0-.211.1.352.352,0,0,0-.1.251V685.3a.338.338,0,0,0,.309.312h7.072a.352.352,0,0,0,.251-.1.288.288,0,0,0,.1-.214V647.325a.326.326,0,0,0-.347-.346Z" transform="translate(178.66 -40.826)" fill="url(#linear-gradient-3)"/>
    <path id="Path_747" data-name="Path 747" d="M578.315,647a.289.289,0,0,0-.211.1.338.338,0,0,0-.1.251v5.948a.332.332,0,0,0,.306.312H601.73V685.28a.332.332,0,0,0,.346.349h7.069a.289.289,0,0,0,.214-.1.341.341,0,0,0,.1-.251V653.6h23.415a.288.288,0,0,0,.214-.1.309.309,0,0,0,.1-.214v-5.948a.361.361,0,0,0-.1-.251.289.289,0,0,0-.214-.089Z" transform="translate(131.071 -40.842)" fill="url(#linear-gradient-4)"/>
    <path id="Path_748" data-name="Path 748" d="M820.213,646.986A11.016,11.016,0,0,0,809.2,658v.578a11.016,11.016,0,0,0,11.013,11.013h33.146a3.133,3.133,0,0,1,2.31.985,3.234,3.234,0,0,1,.967,2.339v2.781a3.3,3.3,0,0,1-3.286,3.283H811.712a.309.309,0,0,0-.211.1.341.341,0,0,0-.1.251v5.951a.332.332,0,0,0,.1.251.289.289,0,0,0,.211.1h41.647a11.048,11.048,0,0,0,11.013-11.051v-.543a11.013,11.013,0,0,0-11.013-11.048H820.213a3.15,3.15,0,0,1-2.31-.967,3.2,3.2,0,0,1-.965-2.356v-2.743a3.205,3.205,0,0,1,.965-2.356,3.159,3.159,0,0,1,2.31-.964H861.86a.333.333,0,0,0,.309-.312v-5.992a.327.327,0,0,0-.309-.309Z" transform="translate(-33.364 -40.828)" fill="url(#linear-gradient-5)"/>
    <path id="Path_749" data-name="Path 749" d="M286.766,818.17a1.715,1.715,0,0,1,1.718,1.732v2.55a1.715,1.715,0,0,1-1.718,1.733h-6.817a.06.06,0,0,1-.035,0,.057.057,0,0,1-.014-.04v-5.919a.063.063,0,0,1,.014-.04.06.06,0,0,1,.035-.014Zm.517,1.545a.517.517,0,0,0-.517-.517H281.1v3.956h5.662a.517.517,0,0,0,.517-.517Z" transform="translate(343.1 -162.586)" fill="#2364d8"/>
    <path id="Path_750" data-name="Path 750" d="M325.611,820.516h6.477a.049.049,0,0,1,.055.055v.924a.064.064,0,0,1-.014.04.049.049,0,0,1-.04,0h-6.477v.944a.517.517,0,0,0,.517.517h6.826a.063.063,0,0,1,.04.014.061.061,0,0,1,.014.035v.924a.058.058,0,0,1-.014.04.063.063,0,0,1-.04,0h-6.826a1.709,1.709,0,0,1-1.718-1.732V819.7a1.709,1.709,0,0,1,1.718-1.732h6.826a.049.049,0,0,1,.055.055v.924a.052.052,0,0,1-.014.035.064.064,0,0,1-.04.014h-6.826a.517.517,0,0,0-.517.517Z" transform="translate(311.443 -162.443)" fill="#2364d8"/>
    <path id="Path_751" data-name="Path 751" d="M376.268,818.225a.078.078,0,0,1,0-.037.052.052,0,0,1,.04-.017h1.1a.046.046,0,0,1,.038.017.057.057,0,0,1,.014.037v2.807a1.2,1.2,0,0,1-.578,1.022l-3.176,1.978a1.039,1.039,0,0,1-1.089,0l-3.191-1.978a1.2,1.2,0,0,1-.578-1.022v-2.807a.078.078,0,0,1,.014-.037.049.049,0,0,1,.035-.017H370a.046.046,0,0,1,.038.017.058.058,0,0,1,0,.037v2.518a.511.511,0,0,0,.248.439l2.668,1.66a.341.341,0,0,0,.361,0l2.677-1.66a.514.514,0,0,0,.24-.439Z" transform="translate(279.834 -162.586)" fill="#2364d8"/>
    <path id="Path_752" data-name="Path 752" d="M414.7,820.517h6.474a.049.049,0,0,1,.055.055v.924a.063.063,0,0,1,0,.04.049.049,0,0,1-.04,0H414.7v.944a.517.517,0,0,0,.517.517h6.817a.07.07,0,0,1,.04.014.061.061,0,0,1,.014.035v.924a.058.058,0,0,1-.014.041.07.07,0,0,1-.04,0h-6.817a1.709,1.709,0,0,1-1.718-1.732V819.7a1.709,1.709,0,0,1,1.718-1.732h6.817a.069.069,0,0,1,.04.014.063.063,0,0,1,.014.04v.924a.052.052,0,0,1-.014.035.069.069,0,0,1-.04.014h-6.817a.517.517,0,0,0-.517.517Z" transform="translate(248.078 -162.444)" fill="#2364d8"/>
    <path id="Path_753" data-name="Path 753" d="M466.59,824.133a.031.031,0,0,1-.046.035h-6.812A1.715,1.715,0,0,1,458,822.435v-4.21a.063.063,0,0,1,.014-.04.06.06,0,0,1,.035-.014h1.106a.055.055,0,0,1,.038.014.052.052,0,0,1,.017.04v4.412a.514.514,0,0,0,.514.517h6.82a.052.052,0,0,1,.032.014.061.061,0,0,1,.014.035Z" transform="translate(216.427 -162.586)" fill="#2364d8"/>
    <path id="Path_754" data-name="Path 754" d="M509.364,818.113a1.715,1.715,0,0,1,1.718,1.733v2.55a1.715,1.715,0,0,1-1.718,1.733h-5.151a1.733,1.733,0,0,1-1.732-1.733v-2.573a1.733,1.733,0,0,1,1.733-1.732Zm.517,1.545a.517.517,0,0,0-.517-.517h-5.151a.522.522,0,0,0-.517.517v2.922a.488.488,0,0,0,.153.364.5.5,0,0,0,.364.153h5.151a.517.517,0,0,0,.517-.517Z" transform="translate(184.79 -162.529)" fill="#2364d8"/>
    <path id="Path_755" data-name="Path 755" d="M547.05,818.219a.06.06,0,0,1,.014-.035.052.052,0,0,1,.035-.015h6.823a1.715,1.715,0,0,1,1.712,1.715v.6a1.715,1.715,0,0,1-1.712,1.732h-5.671v1.923a.049.049,0,0,1-.014.04.056.056,0,0,1-.038,0h-1.1a.054.054,0,0,1-.035,0,.064.064,0,0,1-.014-.04Zm6.872,2.957a.485.485,0,0,0,.358-.153.5.5,0,0,0,.153-.364v-.944a.5.5,0,0,0-.153-.367.494.494,0,0,0-.358-.15h-5.671v1.978Z" transform="translate(153.09 -162.586)" fill="#2364d8"/>
    <path id="Path_756" data-name="Path 756" d="M622.137,824.133a.044.044,0,0,1,0,.035.064.064,0,0,1-.04,0H621a.05.05,0,0,1-.035,0,.052.052,0,0,1-.014-.035v-5.908a.064.064,0,0,1,.014-.04.049.049,0,0,1,.035-.015h1.1a.064.064,0,0,1,.04.015.05.05,0,0,1,0,.04Z" transform="translate(100.529 -162.586)" fill="#2364d8"/>
    <path id="Path_757" data-name="Path 757" d="M639.829,818.225a.049.049,0,0,1,0-.04.046.046,0,0,1,.032-.015h8.489a.046.046,0,0,1,.032.015.05.05,0,0,1,0,.04v.924a.038.038,0,0,1,0,.035.046.046,0,0,1-.032.015h-3.63v4.929a.065.065,0,0,1,0,.04.046.046,0,0,1-.032,0h-1.1a.058.058,0,0,1-.04,0,.064.064,0,0,1,0-.04V819.2h-3.673a.046.046,0,0,1-.032-.015.038.038,0,0,1,0-.035Z" transform="translate(87.104 -162.586)" fill="#2364d8"/>
    <path id="Path_758" data-name="Path 758" d="M714.884,820.185a.514.514,0,0,0,.511.517h5.157a1.715,1.715,0,0,1,1.715,1.733v.061a1.732,1.732,0,0,1-1.715,1.733h-6.491a.046.046,0,0,1-.032,0,.049.049,0,0,1-.017-.04v-.924a.052.052,0,0,1,.017-.04.046.046,0,0,1,.032-.015h6.48a.514.514,0,0,0,.511-.511v-.433a.5.5,0,0,0-.15-.364.49.49,0,0,0-.361-.153H715.4a1.715,1.715,0,0,1-1.715-1.712v-.092a1.715,1.715,0,0,1,1.715-1.712h6.48a.049.049,0,0,1,.049.049v.93a.052.052,0,0,1-.014.035.061.061,0,0,1-.035.014H715.4a.514.514,0,0,0-.511.517Z" transform="translate(34.575 -162.629)" fill="#2364d8"/>
    <path id="Path_759" data-name="Path 759" d="M759.391,820.516h6.477a.055.055,0,0,1,.037.014.064.064,0,0,1,.014.04v.924a.063.063,0,0,1-.014.04.043.043,0,0,1-.037,0h-6.477v.944a.506.506,0,0,0,.15.364.5.5,0,0,0,.367.153h6.817a.063.063,0,0,1,.04.014.06.06,0,0,1,.014.035v.924a.058.058,0,0,1-.014.04.063.063,0,0,1-.041,0h-6.817a1.715,1.715,0,0,1-1.718-1.733V819.7a1.715,1.715,0,0,1,1.718-1.732h6.817a.049.049,0,0,1,.055.055v.924a.052.052,0,0,1-.014.035.064.064,0,0,1-.04.014h-6.817a.5.5,0,0,0-.367.153.517.517,0,0,0-.15.364Z" transform="translate(2.917 -162.443)" fill="#2364d8"/>
    <path id="Path_760" data-name="Path 760" d="M811.33,820.492a1.7,1.7,0,0,1-1.008,1.562l.023.049.956,2.021a.073.073,0,0,1,0,.049.046.046,0,0,1-.043.023h-1.21a.055.055,0,0,1-.049-.029l-.927-1.943h-5.122v1.923a.052.052,0,0,1,0,.035.071.071,0,0,1-.04,0h-1.1a.046.046,0,0,1-.032,0,.046.046,0,0,1-.017-.035v-5.922a.051.051,0,0,1,.017-.04.046.046,0,0,1,.032-.015h6.823a1.71,1.71,0,0,1,1.712,1.733Zm-7.38.684h5.668a.493.493,0,0,0,.361-.15.509.509,0,0,0,.15-.367v-.944a.514.514,0,0,0-.511-.511h-5.668Z" transform="translate(-28.783 -162.586)" fill="#2364d8"/>
    <path id="Path_761" data-name="Path 761" d="M854.543,818.225a.057.057,0,0,1,0-.037.046.046,0,0,1,.038-.017h1.1a.052.052,0,0,1,.04.017.078.078,0,0,1,0,.038v2.807a1.2,1.2,0,0,1-.578,1.022l-3.176,1.978a1.04,1.04,0,0,1-1.089,0l-3.194-1.978a1.207,1.207,0,0,1-.563-1.022v-2.807a.058.058,0,0,1,0-.037.04.04,0,0,1,.035-.017h1.1a.052.052,0,0,1,.037.017.076.076,0,0,1,0,.037v2.518a.514.514,0,0,0,.246.439l2.671,1.66a.34.34,0,0,0,.361,0l2.732-1.66a.511.511,0,0,0,.242-.439Z" transform="translate(-60.333 -162.586)" fill="#2364d8"/>
    <path id="Path_762" data-name="Path 762" d="M893.034,824.133a.046.046,0,0,1-.017.035.055.055,0,0,1-.037,0h-1.1a.06.06,0,0,1-.035,0,.051.051,0,0,1-.014-.035v-5.908a.063.063,0,0,1,.014-.04.061.061,0,0,1,.035-.015h1.1a.054.054,0,0,1,.037.015.052.052,0,0,1,.017.04Z" transform="translate(-92.134 -162.586)" fill="#2364d8"/>
    <path id="Path_763" data-name="Path 763" d="M919.255,823.053a.063.063,0,0,1,.04.014.061.061,0,0,1,.015.035v.924a.058.058,0,0,1-.015.04.062.062,0,0,1-.04,0h-6.818a1.715,1.715,0,0,1-1.718-1.733v-2.573a1.715,1.715,0,0,1,1.718-1.733h6.817a.049.049,0,0,1,.055.055v.924a.052.052,0,0,1-.014.035.064.064,0,0,1-.04.014h-6.817a.5.5,0,0,0-.367.153.517.517,0,0,0-.15.364V822.5a.517.517,0,0,0,.517.517Z" transform="translate(-105.569 -162.486)" fill="#2364d8"/>
    <path id="Path_764" data-name="Path 764" d="M956.416,820.517h6.474a.07.07,0,0,1,.041.014.065.065,0,0,1,0,.04v.924a.065.065,0,0,1,0,.04.055.055,0,0,1-.041,0h-6.474v.944a.517.517,0,0,0,.517.517h6.817a.055.055,0,0,1,.038.014.046.046,0,0,1,0,.035v.924a.046.046,0,0,1,0,.041.055.055,0,0,1-.038,0h-6.817a1.715,1.715,0,0,1-1.732-1.733V819.7a1.715,1.715,0,0,1,1.732-1.732h6.817a.054.054,0,0,1,.038.014.049.049,0,0,1,0,.04v.924a.043.043,0,0,1,0,.035.056.056,0,0,1-.038.014h-6.817a.493.493,0,0,0-.367.153.5.5,0,0,0-.15.364Z" transform="translate(-137.206 -162.444)" fill="#2364d8"/>
    <path id="Path_765" data-name="Path 765" d="M503.766,261.093l-5.914,7.8c-1.981,2.6-3.91,5.218-5.865,7.825l-2.922,3.918L487.6,282.6A4.935,4.935,0,0,0,486.55,285a4.815,4.815,0,0,0,.39,2.613,5.309,5.309,0,0,0,.687,1.117l.731.982,2.913,3.924c1.952,2.6,3.884,5.238,5.865,7.828,3.93,5.2,7.874,10.4,11.9,15.526-3.728-5.351-7.536-10.643-11.354-15.93-1.9-2.651-3.84-5.267-5.775-7.9l-2.888-3.944-.722-.985a4.392,4.392,0,0,1-.578-.962,3.971,3.971,0,0,1-.289-2.154,4.126,4.126,0,0,1,.866-2.021l1.444-1.972,2.888-3.944c1.923-2.633,3.869-5.247,5.775-7.9l5.711-7.944,5.639-7.981-5.989,7.733" transform="translate(196.149 239.134)" fill="url(#linear-gradient-6)"/>
    <path id="Path_766" data-name="Path 766" d="M493.655,277.618l-4.022,5.443a4.406,4.406,0,0,0,0,5.229l3.3,4.464,17.931,24.255,7.072-9.572-10.874-14.683-3-4.043c-1.219-1.764-.953-4.923.263-6.685l3.254-4.4L518.551,262.8l-6.959-9.419-17.929,24.255" transform="translate(194.539 239.12)" fill="url(#linear-gradient-7)"/>
    <path id="Path_767" data-name="Path 767" d="M551.637,185.85c.451,0,3.7.185,7.057,4.12l21.319,28.841,10.476,14.172c1.756,2.4,1.094,5.486-.661,7.9l-9.278,12.526L558.385,283.4c-3.546,4.663-7.178,4.868-7.655,4.877h31.026a10.046,10.046,0,0,0,8.085-4.083L612.6,253.412l9.312-12.6c1.756-2.4,2.232-5.452.476-7.851l-10.433-14.149-21.246-28.849a10.06,10.06,0,0,0-8.1-4.092H551.637" transform="translate(150.473 287.15)" fill="url(#linear-gradient-8)"/>
    <path id="Path_768" data-name="Path 768" d="M739.333,196.307a4.043,4.043,0,0,1-1.591-.306,3.913,3.913,0,0,1-2.131-2.14,4.3,4.3,0,0,1,0-3.176,3.936,3.936,0,0,1,2.131-2.14,4.043,4.043,0,0,1,1.591-.306,4.117,4.117,0,0,1,1.6.306,3.786,3.786,0,0,1,1.276.866,4.006,4.006,0,0,1,.843,1.285,4.3,4.3,0,0,1,0,3.176,3.984,3.984,0,0,1-.843,1.288,3.78,3.78,0,0,1-1.276.866,4.118,4.118,0,0,1-1.6.306m0-.7a3.338,3.338,0,0,0,1.32-.254,3.1,3.1,0,0,0,1.042-.7,3.291,3.291,0,0,0,.7-1.066,3.6,3.6,0,0,0,0-2.657,3.15,3.15,0,0,0-.7-1.054,3.206,3.206,0,0,0-1.042-.7,3.546,3.546,0,0,0-2.636,0,3.176,3.176,0,0,0-1.732,1.75,3.638,3.638,0,0,0,0,2.657,3.387,3.387,0,0,0,.7,1.065,3.107,3.107,0,0,0,1.045.7,3.315,3.315,0,0,0,1.317.254m-1.412-1.138a.13.13,0,0,1-.147-.147v-4.2a.13.13,0,0,1,.147-.147h1.686a1.692,1.692,0,0,1,1.141.346,1.239,1.239,0,0,1,.4.982,1.274,1.274,0,0,1-.231.78,1.325,1.325,0,0,1-.655.462l.91,1.753c.04.1,0,.147-.084.147H740.5a.208.208,0,0,1-.191-.147l-.843-1.646h-.8l-.084.084v1.562a.13.13,0,0,1-.147.147Zm1.686-2.509c.494,0,.739-.211.739-.632s-.245-.612-.739-.612h-.95l-.084.084V191.9l.084.087Z" transform="translate(19.193 285.451)" fill="#2364d8"/>
    <path id="Path_769" data-name="Path 769" d="M555.235,187.3a13.638,13.638,0,0,1,3,2.743l4.776,6.777,9.653,13.47c3.2,4.507,6.5,8.928,9.751,13.4l4.894,6.688c.8,1.1,1.669,2.258,2.405,3.312a4.661,4.661,0,0,1,.638,3.358,7.915,7.915,0,0,1-1.476,3.384l-2.446,3.344-4.894,6.685c-3.254,4.464-6.555,8.9-9.754,13.4l-9.656,13.473c-1.6,2.241-3.153,4.559-4.8,6.742a13.81,13.81,0,0,1-3,2.752,8.374,8.374,0,0,1-3.809,1.444,8.477,8.477,0,0,0,3.947-1.224,14,14,0,0,0,3.217-2.674c1.787-2.151,3.416-4.357,5.131-6.532l10.052-13.182c3.373-4.38,6.641-8.836,9.959-13.254l4.961-6.641,2.48-3.321a9.7,9.7,0,0,0,1.828-4.126,6.381,6.381,0,0,0-.936-4.58c-.866-1.2-1.66-2.241-2.492-3.37l-4.961-6.641c-3.306-4.409-6.586-8.873-9.947-13.254l-10.066-13.184-5.094-6.54a13.956,13.956,0,0,0-3.222-2.677,8.44,8.44,0,0,0-3.947-1.221,8.3,8.3,0,0,1,3.806,1.444" transform="translate(150.622 287.15)" fill="url(#linear-gradient-9)"/>
  </g>
</svg>
