<svg xmlns="http://www.w3.org/2000/svg" xmlns:xlink="http://www.w3.org/1999/xlink" width="566.446" height="556.733" viewBox="0 0 566.446 556.733">
  <defs>
    <linearGradient id="linear-gradient" x1="0.5" y1="0.176" x2="0.5" y2="0.915" gradientUnits="objectBoundingBox">
      <stop offset="0" stop-color="#324179"/>
      <stop offset="1" stop-color="#0c124d"/>
    </linearGradient>
    <linearGradient id="linear-gradient-2" x1="0.5" y1="0.176" x2="0.499" y2="0.915" xlink:href="#linear-gradient"/>
    <linearGradient id="linear-gradient-3" x1="0.486" y1="0.295" x2="0.346" y2="0.879" gradientUnits="objectBoundingBox">
      <stop offset="0" stop-color="#d1e8ff"/>
      <stop offset="1" stop-color="#eaefff"/>
    </linearGradient>
    <linearGradient id="linear-gradient-4" x1="0.628" y1="0.18" x2="0.338" y2="0.902" gradientUnits="objectBoundingBox">
      <stop offset="0" stop-color="#2364d8"/>
      <stop offset="1" stop-color="#00a1ff"/>
    </linearGradient>
    <linearGradient id="linear-gradient-5" x1="0.403" y1="0.663" x2="0.709" y2="0.148" gradientUnits="objectBoundingBox">
      <stop offset="0" stop-color="#965cf2"/>
      <stop offset="1" stop-color="#ff8adc"/>
    </linearGradient>
    <linearGradient id="linear-gradient-6" x1="0.439" y1="0.643" x2="0.768" y2="0.166" xlink:href="#linear-gradient-5"/>
    <linearGradient id="linear-gradient-7" x1="0.408" y1="0.675" x2="0.716" y2="0.158" xlink:href="#linear-gradient-5"/>
    <linearGradient id="linear-gradient-8" x1="0.532" y1="0.401" x2="0.466" y2="0.605" gradientUnits="objectBoundingBox">
      <stop offset="0" stop-color="#1c8ef4"/>
      <stop offset="1" stop-color="#00cfdd"/>
    </linearGradient>
    <linearGradient id="linear-gradient-9" x1="0.381" y1="0.74" x2="0.822" y2="-0.004" xlink:href="#linear-gradient-5"/>
    <linearGradient id="linear-gradient-10" x1="0.636" y1="0.163" x2="0.33" y2="0.923" gradientUnits="objectBoundingBox">
      <stop offset="0" stop-color="#6d6afe"/>
      <stop offset="1" stop-color="#3fb0f7"/>
    </linearGradient>
    <linearGradient id="linear-gradient-11" x1="0.47" y1="0.583" x2="0.598" y2="0.235" xlink:href="#linear-gradient-5"/>
    <linearGradient id="linear-gradient-12" x1="0.961" y1="0.214" x2="0.547" y2="0.718" gradientUnits="objectBoundingBox">
      <stop offset="0" stop-color="#ff66bc"/>
      <stop offset="0.56" stop-color="#ff8adc"/>
      <stop offset="1" stop-color="#ffbba8"/>
    </linearGradient>
    <linearGradient id="linear-gradient-13" x1="0.775" y1="0.491" x2="0.129" y2="0.512" gradientUnits="objectBoundingBox">
      <stop offset="0" stop-color="#0b3785"/>
      <stop offset="1" stop-color="#00a1ff"/>
    </linearGradient>
    <linearGradient id="linear-gradient-14" x1="0.586" y1="0.591" x2="0.785" y2="0.162" xlink:href="#linear-gradient-5"/>
    <linearGradient id="linear-gradient-15" x1="0.515" y1="0.71" x2="0.471" y2="0.086" gradientUnits="objectBoundingBox">
      <stop offset="0" stop-color="#2364d8"/>
      <stop offset="1" stop-color="#084abf"/>
    </linearGradient>
    <linearGradient id="linear-gradient-16" x1="0.499" y1="0.081" x2="0.501" y2="0.837" gradientUnits="objectBoundingBox">
      <stop offset="0" stop-color="#5a2d68"/>
      <stop offset="1" stop-color="#22043d"/>
    </linearGradient>
    <linearGradient id="linear-gradient-17" x1="0.657" y1="0.509" x2="0.395" y2="0.469" gradientUnits="objectBoundingBox">
      <stop offset="0" stop-color="#ff8a78"/>
      <stop offset="1" stop-color="#ffa799"/>
    </linearGradient>
    <linearGradient id="linear-gradient-18" x1="0.514" y1="0.843" x2="0.496" y2="0.134" gradientUnits="objectBoundingBox">
      <stop offset="0" stop-color="#0d4dbf"/>
      <stop offset="1" stop-color="#00a1ff"/>
    </linearGradient>
    <linearGradient id="linear-gradient-19" x1="0.606" y1="0.853" x2="0.432" y2="0.198" xlink:href="#linear-gradient-13"/>
    <linearGradient id="linear-gradient-20" x1="0.398" y1="0.535" x2="0.622" y2="0.759" xlink:href="#linear-gradient-17"/>
    <linearGradient id="linear-gradient-21" x1="0.601" y1="0.77" x2="0.276" y2="-0.099" xlink:href="#linear-gradient-5"/>
    <linearGradient id="linear-gradient-22" x1="0.626" y1="0.31" x2="0.489" y2="0.566" xlink:href="#linear-gradient-10"/>
    <linearGradient id="linear-gradient-23" x1="0.595" y1="0.393" x2="0.477" y2="0.526" xlink:href="#linear-gradient-10"/>
    <linearGradient id="linear-gradient-24" x1="0.857" y1="0.286" x2="0.181" y2="0.692" xlink:href="#linear-gradient-10"/>
    <linearGradient id="linear-gradient-25" x1="0.555" y1="0.351" x2="0.43" y2="0.687" xlink:href="#linear-gradient-10"/>
    <linearGradient id="linear-gradient-26" x1="0.309" y1="0.829" x2="0.633" y2="0.197" gradientUnits="objectBoundingBox">
      <stop offset="0" stop-color="#3375eb"/>
      <stop offset="1" stop-color="#0b96e8"/>
    </linearGradient>
    <linearGradient id="linear-gradient-27" x1="0.321" y1="0.724" x2="0.675" y2="0.281" gradientUnits="objectBoundingBox">
      <stop offset="0" stop-color="#185acf"/>
      <stop offset="1" stop-color="#3fb0f7"/>
    </linearGradient>
    <linearGradient id="linear-gradient-28" x1="0.662" y1="0.557" x2="0.49" y2="0.513" xlink:href="#linear-gradient-17"/>
    <linearGradient id="linear-gradient-29" x1="0.5" x2="0.5" y2="1" gradientUnits="objectBoundingBox">
      <stop offset="0" stop-color="#002e80"/>
      <stop offset="1" stop-color="#00a1ff"/>
    </linearGradient>
    <linearGradient id="linear-gradient-30" x1="0.704" y1="0.221" x2="0.253" y2="0.779" gradientUnits="objectBoundingBox">
      <stop offset="0" stop-color="#40457f"/>
      <stop offset="1" stop-color="#1e2353"/>
    </linearGradient>
    <linearGradient id="linear-gradient-31" x1="0.644" y1="0.321" x2="0.217" y2="0.982" gradientUnits="objectBoundingBox">
      <stop offset="0" stop-color="#3773b9"/>
      <stop offset="1" stop-color="#003c76"/>
    </linearGradient>
    <linearGradient id="linear-gradient-32" x1="0.851" y1="0.22" x2="-0.056" y2="0.742" xlink:href="#linear-gradient-30"/>
    <linearGradient id="linear-gradient-33" x1="0.587" y1="0.35" x2="0.051" y2="0.693" xlink:href="#linear-gradient-31"/>
    <linearGradient id="linear-gradient-34" x1="0.201" y1="0.854" x2="0.66" y2="0.351" xlink:href="#linear-gradient-17"/>
    <linearGradient id="linear-gradient-35" x1="0.497" y1="0.492" x2="0.704" y2="0.762" gradientUnits="objectBoundingBox">
      <stop offset="0" stop-color="#a77ef7"/>
      <stop offset="1" stop-color="#5e65d6"/>
    </linearGradient>
    <linearGradient id="linear-gradient-36" x1="0.518" y1="0.169" x2="0.379" y2="0.906" xlink:href="#linear-gradient-35"/>
    <linearGradient id="linear-gradient-37" x1="0.603" y1="0.301" x2="0.48" y2="0.661" xlink:href="#linear-gradient-17"/>
    <linearGradient id="linear-gradient-38" x1="0.555" y1="0.429" x2="0.25" y2="0.705" gradientUnits="objectBoundingBox">
      <stop offset="0" stop-color="#ffb89e"/>
      <stop offset="1" stop-color="#ffa799"/>
    </linearGradient>
    <linearGradient id="linear-gradient-39" x1="1.001" y1="0.119" x2="0.284" y2="0.728" gradientUnits="objectBoundingBox">
      <stop offset="0" stop-color="#8a4791"/>
      <stop offset="1" stop-color="#562e65"/>
    </linearGradient>
    <linearGradient id="linear-gradient-40" x1="0.288" y1="0.705" x2="0.792" y2="0.272" xlink:href="#linear-gradient-17"/>
    <linearGradient id="linear-gradient-41" x1="0.495" y1="0.126" x2="0.536" y2="1.56" xlink:href="#linear-gradient-35"/>
    <linearGradient id="linear-gradient-42" x1="0.581" y1="0.584" x2="0.737" y2="0.249" xlink:href="#linear-gradient-13"/>
  </defs>
  <g id="imageHeader" transform="translate(-1191.391 -12.143)">
    <g id="Group_94" data-name="Group 94" transform="translate(1221.668 12.143)">
      <g id="Group_43" data-name="Group 43" transform="translate(267.973 63.636)">
        <path id="Path_318" data-name="Path 318" d="M2162.538,344.407c.306.179.72.307,1.208.563,1.592,3.829,2.194,4.952,1.879,5.334-.256.311-.227.144-.364.914-.187,1.05,3.494,5.593,4.062,7.034a5.242,5.242,0,0,1,.128,3.823,19.771,19.771,0,0,1-3.919,6.642c-1.459,1.641-3.07,2.686-4.468,2.371-1.725-.388-1.43-1.935-1.173-3.464.092-.547,1.132-1.756,1.051-2.294-.461-3.065-2.7-5.74-4.35-8.395-1.413-1.315-3.791-2.7-5.109-4.218-1.9-2.2-2.262-4.508.1-5.853.754-.429,2.652-2.564,3.623-2.484C2157.069,344.534,2160.185,343.031,2162.538,344.407Z" transform="translate(-2098.333 -282.582)" fill="#202249" fill-rule="evenodd"/>
        <path id="Path_319" data-name="Path 319" d="M2013.429,242.591c-1.28,3.486-.282,6.578,2.518,7.909l.055.053c.11.04.224.078.34.118a7,7,0,0,0,.919.29c3.352.994,8.363,1.9,11.426,2.483,12.223,2.334,30.434,3.791,38.988,7.055,3.355-2.465,4.35-7.039,2.154-9.784-9.33-4.446-21.932-10.221-27.217-12.18a15.165,15.165,0,0,0-4.413-.742c7.874-7.1,16.212-14.789,19.453-21.343,2.293-4.639,2.663-11.081,4.259-15.112-12.852,3.762-15.314-3.993-17.675-6.72-2.024,2.968-1.976,2.419-4.026,5.592-6.93,10.731-17.148,25.946-24.1,37.247A18.093,18.093,0,0,0,2013.429,242.591Z" transform="translate(-2012.878 -189.552)" fill-rule="evenodd" fill="url(#linear-gradient)"/>
        <path id="Path_320" data-name="Path 320" d="M2073.8,243.991c-5.242-2.372-10-4.435-12.757-5.458a15.167,15.167,0,0,0-4.413-.742c7.874-7.1,16.212-14.789,19.452-21.343,2.293-4.639,2.663-11.081,4.26-15.112a18.832,18.832,0,0,1-8.618.807l.346,2.51c-9.917,9.875-27.953,32.822-29.63,47.807,6.063,1.412,22.621,3.536,25.275,3.834.692-4.445,3.6-7.988,6.084-12.3Zm-9.038-46.449c-.833-1.123-1.467-2.2-2.094-2.925-1.289,1.889-1.738,2.353-2.422,3.26Z" transform="translate(-2031.312 -189.552)" fill="#1e2353" fill-rule="evenodd" opacity="0.3" style="mix-blend-mode: multiply;isolation: isolate"/>
        <path id="Path_321" data-name="Path 321" d="M2113.521,469.958c1.8,2.5-3.063,15.068-4.249,17.714-1.046,2.333-.713,3.765,1.761,3.8,1.948.029,5.043-2.733,6.929-4.539,3.537-3.389,3.74-6.841,4.766-8.312l1.205-.386c.88-.5,3.488-3.9,3.628-5.187a28.358,28.358,0,0,0-1.342-3.5c-1.924-3.552-2.347-2-4.882-4.17C2118.445,467.474,2120.5,468.312,2113.521,469.958Z" transform="translate(-2072.632 -358.374)" fill="#202249" fill-rule="evenodd"/>
        <path id="Path_322" data-name="Path 322" d="M2058.4,249.685c5.28,10.222,18.412,33.272,23.051,43.518,4.09.863,8.237-1.526,8.6-4.742-2.985-9.825-7.831-26-10.226-31.157a68.711,68.711,0,0,0-7.2-11.421c7.8-10.915,20.162-28.1,23.731-38.173,4.856-13.7-.717-21.524-8.2-25.83-2.659-1.53-5.523.924-6.875-.716a109.451,109.451,0,0,0-7.947,22.332c-2.606,10.633-15.032,33.2-15.972,40.784a8.217,8.217,0,0,0,.746,4.292C2058.179,248.933,2058.276,249.3,2058.4,249.685Z" transform="translate(-2040.592 -181.165)" fill-rule="evenodd" fill="url(#linear-gradient-2)"/>
      </g>
      <path id="Path_323" data-name="Path 323" d="M1965.471,1103.882,1606.063,901.731c-4.536-2.066-11.2-4.013-15.652-1.3l-11.384,6.952c-2.29,1.4-9.821,6.04-4.785,8.772,14.82,8.038,346.681,195.738,361.729,203.9,2.846,1.544,7.01,2.1,11.38,1.73a28.63,28.63,0,0,0,12.326-3.688l4.547-2.81c3.215-1.987,5-4.155,5.167-6.233C1969.559,1107.029,1968.255,1105.149,1965.471,1103.882Z" transform="translate(-1470.353 -565.167)" fill="#955cf1" fill-rule="evenodd" opacity="0.3"/>
      <g id="Group_46" data-name="Group 46" transform="translate(110.865 5.738)">
        <path id="Path_324" data-name="Path 324" d="M1747.581,28.823a9.524,9.524,0,0,0-8.1-.9l-6.082,2.376c-2.208,11.429,313.185,535.778,316.006,538.684l5.428-2.049c3.564-1.4,5.433-5.114,5.957-8.72l45.831-312.844a.157.157,0,0,0,.006-.035A22.349,22.349,0,0,0,2102.9,230.2a17.607,17.607,0,0,0-6.122-5.9Z" transform="translate(-1681.505 -27.382)" fill-rule="evenodd" fill="url(#linear-gradient-3)"/>
        <path id="Path_325" data-name="Path 325" d="M2004.855,230.427l-349.19-195.47c-6.6-3.66-12.894-.146-14.06,7.821l-45.832,312.845c-1.167,7.967,3.224,17.4,9.828,21.062l349.193,195.47c6.6,3.661,12.908.155,14.075-7.81L2014.7,251.5C2015.869,243.532,2011.46,234.089,2004.855,230.427Z" transform="translate(-1595.585 -31.201)" fill-rule="evenodd" fill="url(#linear-gradient-4)"/>
        <g id="Group_45" data-name="Group 45" transform="translate(44.474 2.306)">
          <path id="Path_326" data-name="Path 326" d="M2078.509,230.428,1729.319,34.957c-6.6-3.66-12.894-.146-14.06,7.821l-1.546,10.55L2086.791,262.17l1.563-10.673C2089.522,243.532,2085.114,234.089,2078.509,230.428Z" transform="translate(-1713.713 -33.508)" fill="#0846b4" fill-rule="evenodd"/>
          <g id="Group_44" data-name="Group 44" transform="translate(8.382 9.135)">
            <path id="Path_327" data-name="Path 327" d="M1741.028,57.873c2.649.606,4.683,3.759,4.543,7.043s-2.4,5.455-5.047,4.848-4.682-3.759-4.543-7.043S1738.38,57.267,1741.028,57.873Z" transform="translate(-1735.975 -57.772)" fill="#5858f0" fill-rule="evenodd"/>
            <path id="Path_328" data-name="Path 328" d="M1773.058,76.269c2.648.605,4.682,3.759,4.543,7.043s-2.4,5.455-5.047,4.849-4.683-3.759-4.543-7.043S1770.41,75.663,1773.058,76.269Z" transform="translate(-1755.945 -69.242)" fill="#5858f0" fill-rule="evenodd"/>
            <path id="Path_329" data-name="Path 329" d="M1807.716,96.475c2.648.606,4.682,3.759,4.543,7.043s-2.4,5.455-5.047,4.849-4.682-3.759-4.543-7.043S1805.068,95.869,1807.716,96.475Z" transform="translate(-1777.556 -81.84)" fill="#5858f0" fill-rule="evenodd"/>
          </g>
        </g>
      </g>
      <path id="Path_330" data-name="Path 330" d="M2424.536,784.563l-62.727-34.437c-3.639-2.016-7.2-2.3-10.177-1.141-3.816,1.486-6.67,5.346-7.494,10.97l-7.11,51.012c-1.467,10.013,4.052,21.87,12.351,26.472l62.73,34.437c8.3,4.6,16.224.194,17.691-9.817l7.108-51.015C2438.376,801.034,2432.835,789.164,2424.536,784.563Z" transform="translate(-1946.868 -471.145)" fill-rule="evenodd" opacity="0.5" fill="url(#linear-gradient-5)" style="mix-blend-mode: multiply;isolation: isolate"/>
      <path id="Path_331" data-name="Path 331" d="M2267.507,368.064l137.537,67.082-3.643,3.72-13.2,92.267c-1.347,9.464-8.548,13.659-16.066,9.358l-128.739-73.607-11.181-24.943Z" transform="translate(-1881.662 -234.062)" fill-rule="evenodd" opacity="0.5" fill="url(#linear-gradient-6)" style="mix-blend-mode: multiply;isolation: isolate"/>
      <g id="Group_50" data-name="Group 50" transform="translate(0 164.609)">
        <path id="Path_332" data-name="Path 332" d="M1698.565,668.112l-85.032-47.134-2.844,4.339-13.962,95.1,88.072,48.818c9.323,5.165,18.218.218,19.865-11.023l7.793-60.369C1714.107,686.607,1707.885,673.278,1698.565,668.112Z" transform="translate(-1485.433 -556.365)" fill-rule="evenodd" opacity="0.5" fill="url(#linear-gradient-7)" style="mix-blend-mode: multiply;isolation: isolate"/>
        <g id="Group_49" data-name="Group 49">
          <g id="Group_47" data-name="Group 47">
            <path id="Path_333" data-name="Path 333" d="M1533.345,581.96,1523.187,648.7l1.612.2,4.4-1.707c4.822-1.9,7.352-6.92,8.059-11.8l7.473-57.872a.3.3,0,0,0,.007-.047c1.01-7.118-1.129-14.529-5.044-20.477a23.824,23.824,0,0,0-8.283-7.987l-176.249-97.694a12.88,12.88,0,0,0-10.961-1.224l-3.877,1.514c-1.951.733-2.555,1.319-2.542,1.441C1339.607,470.1,1535.913,564.466,1533.345,581.96Z" transform="translate(-1323.976 -449.359)" fill="#d0e7ff" fill-rule="evenodd"/>
            <path id="Path_334" data-name="Path 334" d="M1504.114,553.619l-176.245-97.695c-3.917-2.17-7.752-2.477-10.957-1.228-4.108,1.6-7.181,5.755-8.068,11.81l-7.472,57.874c-1.581,10.78,4.361,23.545,13.3,28.5l176.248,97.7c8.938,4.952,17.466.209,19.046-10.569l7.471-57.877C1519.015,571.35,1513.05,558.572,1504.114,553.619Z" transform="translate(-1301.119 -452.229)" fill-rule="evenodd" fill="url(#linear-gradient-8)"/>
          </g>
          <g id="Group_48" data-name="Group 48" transform="translate(13.111 30.419)">
            <path id="Path_335" data-name="Path 335" d="M1612.513,654.924l-121.634-66.9a3.049,3.049,0,0,0-2.62-.292,3.356,3.356,0,0,0-1.928,2.823l-.671,4.061a7.108,7.108,0,0,0,3.178,6.812l121.635,66.9c2.137,1.183,4.176.05,4.553-2.527l.671-4.063a7.111,7.111,0,0,0-3.184-6.814Zm-67.735,15.737a7.112,7.112,0,0,1,3.184,6.815l-.671,4.062c-.378,2.576-2.415,3.71-4.553,2.526l-61.173-32.928a7.107,7.107,0,0,1-3.178-6.812l.671-4.06a3.359,3.359,0,0,1,1.929-2.824,3.053,3.053,0,0,1,2.619.293l61.173,32.929Zm64.1,9.119a7.11,7.11,0,0,1,3.184,6.814l-.671,4.062c-.377,2.577-2.416,3.71-4.553,2.528l-121.634-66.9a7.106,7.106,0,0,1-3.179-6.812l.672-4.061a3.358,3.358,0,0,1,1.928-2.824,3.054,3.054,0,0,1,2.62.292Z" transform="translate(-1424.719 -565.943)" fill="#fffcf1" fill-rule="evenodd" opacity="0.5"/>
            <path id="Path_336" data-name="Path 336" d="M1363.339,551.049c-5.751-3.189-11.853,1.112-11.79,9.434a16.652,16.652,0,0,0,4.738,11.522,11.278,11.278,0,0,0,2.331,1.747c5.741,3.182,11.814-1.116,11.77-9.4a16.615,16.615,0,0,0-4.7-11.541,11.455,11.455,0,0,0-2.35-1.762ZM1357.8,577.66a15.236,15.236,0,0,1-3.129-2.341,22.44,22.44,0,0,1-6.374-15.5c-.069-11.163,8.119-16.963,15.85-12.679a15.124,15.124,0,0,1,3.172,2.384,22.279,22.279,0,0,1,6.329,15.492c.048,11.133-8.128,16.922-15.848,12.643Zm26.333-9.485a4.222,4.222,0,0,1,1.784,4.391l-1.405,6.539c-.36,1.667-1.741,2.414-3.09,1.669l-.688-.383a1.929,1.929,0,0,0-2.723.751,20.786,20.786,0,0,1-1.251,1.857,3.859,3.859,0,0,0-.279,3.7l.362.887c.693,1.689.278,3.615-.917,4.262l-4.735,2.558a1.953,1.953,0,0,1-1.919-.069,3.661,3.661,0,0,1-1.536-1.847l-.366-.866a3.628,3.628,0,0,0-1.522-1.824,2.214,2.214,0,0,0-1.137-.291c-.669,0-1.35-.023-2.024-.085a2.168,2.168,0,0,0-2.26,1.941l-.18.853c-.36,1.666-1.743,2.413-3.09,1.669l-5.278-2.927a4.219,4.219,0,0,1-1.79-4.373l.183-.851a4.458,4.458,0,0,0-1.031-3.766c-.569-.626-1.1-1.272-1.625-1.937a3.3,3.3,0,0,0-1.006-.9,1.936,1.936,0,0,0-1.9-.071l-.619.318a1.955,1.955,0,0,1-1.921-.066,3.67,3.67,0,0,1-1.536-1.847l-2.743-6.7c-.69-1.689-.275-3.616.916-4.261l.626-.339a3.048,3.048,0,0,0,1.206-3.188c-.127-.9-.216-1.8-.272-2.7a4.087,4.087,0,0,0-1.855-3.286l-.688-.383a4.216,4.216,0,0,1-1.79-4.371l1.408-6.539c.363-1.687,1.746-2.435,3.092-1.687l.688.381a1.926,1.926,0,0,0,2.723-.75,19.627,19.627,0,0,1,1.254-1.856,3.83,3.83,0,0,0,.273-3.686l-.362-.885c-.685-1.707-.276-3.617.921-4.279l4.735-2.561a1.961,1.961,0,0,1,1.919.069,3.674,3.674,0,0,1,1.537,1.848l.362.884A3.619,3.619,0,0,0,1356.1,535a2.185,2.185,0,0,0,1.137.293,16.543,16.543,0,0,1,2.026.067,2.135,2.135,0,0,0,2.256-1.922l.183-.854c.362-1.687,1.747-2.434,3.092-1.687l5.28,2.927a4.219,4.219,0,0,1,1.783,4.389l-.183.854a4.4,4.4,0,0,0,1.023,3.738q.852.939,1.636,1.965a3.277,3.277,0,0,0,1.007.9,1.931,1.931,0,0,0,1.9.072l.626-.337a1.95,1.95,0,0,1,1.918.069,3.66,3.66,0,0,1,1.538,1.847l2.741,6.7c.688,1.708.277,3.617-.919,4.279l-.626.337a3.027,3.027,0,0,0-1.2,3.172q.185,1.348.273,2.7a4.083,4.083,0,0,0,1.854,3.289Z" transform="translate(-1335.943 -530.153)" fill="#fffcf1" fill-rule="evenodd" opacity="0.5"/>
          </g>
        </g>
      </g>
      <g id="Group_52" data-name="Group 52" transform="translate(86.358 11.628)">
        <path id="Path_337" data-name="Path 337" d="M1723.348,129.52l-38.038-18.388L1670.3,205.077l-1.933,13.2,39.55,21.342c6.872,3.807,13.43.16,14.644-8.127l11.031-80.047C1734.805,143.154,1730.218,133.329,1723.348,129.52Z" transform="translate(-1616.457 -85.491)" fill-rule="evenodd" opacity="0.5" fill="url(#linear-gradient-9)" style="mix-blend-mode: multiply;isolation: isolate"/>
        <g id="Group_51" data-name="Group 51">
          <path id="Path_338" data-name="Path 338" d="M1657.019,109.4l-11.853,76.577,1.24.151,3.382-1.314c3.707-1.46,5.653-5.32,6.2-9.072l9.788-69.759a.246.246,0,0,0,0-.037A23.244,23.244,0,0,0,1661.9,90.2a18.319,18.319,0,0,0-6.369-6.142l-72.742-39.53a9.907,9.907,0,0,0-8.43-.942l-2.981,1.164c-1.5.564-1.965,1.016-1.954,1.108C1570.827,58.972,1658.993,95.944,1657.019,109.4Z" transform="translate(-1554.766 -43.027)" fill="#d0e7ff" fill-rule="evenodd"/>
          <path id="Path_339" data-name="Path 339" d="M1627.847,87.6l-72.739-39.53a9.822,9.822,0,0,0-8.425-.944c-3.159,1.23-5.522,4.426-6.2,9.082l-9.788,69.761c-1.214,8.29,3.355,18.1,10.225,21.914l72.743,39.53c6.871,3.807,13.429.16,14.643-8.127l9.786-69.763C1639.3,101.238,1634.717,91.412,1627.847,87.6Z" transform="translate(-1530.495 -45.233)" fill-rule="evenodd" fill="url(#linear-gradient-10)"/>
          <path id="Path_340" data-name="Path 340" d="M1626.161,190.637l-73.079-39.226c-1.687-.905-3.3.027-3.624,2.119a5.424,5.424,0,0,0,2.464,5.312L1625,198.067c1.686.907,3.329-.013,3.655-2.106a5.477,5.477,0,0,0-2.492-5.324Zm3.267-21.235a5.479,5.479,0,0,1,2.492,5.324c-.327,2.093-1.969,3.012-3.655,2.106l-73.076-39.225a5.422,5.422,0,0,1-2.463-5.312c.327-2.092,1.936-3.024,3.623-2.119l73.079,39.225Zm7.517-48.155-73.079-39.225c-1.684-.907-3.3.026-3.61,2.048l-.815,5.194a5.436,5.436,0,0,0,2.465,5.31l73.079,39.226c1.682.9,3.324-.013,3.642-2.035l.809-5.194a5.469,5.469,0,0,0-2.492-5.324Zm-4.23,27.088a5.431,5.431,0,0,1,2.5,5.292c-.336,2.13-1.97,3.009-3.652,2.1L1558.483,116.5a5.373,5.373,0,0,1-2.472-5.271c.335-2.128,1.942-3.025,3.625-2.124Z" transform="translate(-1542.284 -67.123)" fill="#fffcf1" fill-rule="evenodd"/>
        </g>
      </g>
      <g id="Group_53" data-name="Group 53" transform="translate(390.041 276.995)">
        <path id="Path_341" data-name="Path 341" d="M2440.783,808.053l-8.646,53.332,1.348.164,3.677-1.428c4.031-1.588,6.147-5.786,6.738-9.866l6.4-45.918a.23.23,0,0,0,.006-.04,25.282,25.282,0,0,0-4.218-17.122,19.927,19.927,0,0,0-6.926-6.679l-56.469-31a10.772,10.772,0,0,0-9.166-1.024l-3.242,1.267c-1.631.613-2.136,1.1-2.125,1.2C2369.689,765.207,2442.929,793.425,2440.783,808.053Z" transform="translate(-2356.467 -747.867)" fill="#d0e7ff" fill-rule="evenodd"/>
        <path id="Path_342" data-name="Path 342" d="M2416.088,784.355l-56.466-31c-3.275-1.815-6.482-2.071-9.161-1.027-3.435,1.338-6,4.813-6.746,9.876l-6.4,45.92c-1.321,9.014,3.647,19.687,11.118,23.829l56.469,31c7.474,4.141,14.6.175,15.925-8.837l6.4-45.923C2428.548,799.182,2423.559,788.5,2416.088,784.355Z" transform="translate(-2337.102 -750.267)" fill="#fff" fill-rule="evenodd"/>
        <path id="Path_343" data-name="Path 343" d="M2403.879,836.245a4.507,4.507,0,0,1,.466,2.628,17.229,17.229,0,0,1-1.026,3.362l-12.031,33.418c-.389,1.116-.745,1.966-1,2.577a2.047,2.047,0,0,1-1.089,1.167,1.947,1.947,0,0,1-1.737-.4,4.529,4.529,0,0,1-2.374-4.608,23.638,23.638,0,0,1,.994-3.484l12-33.435a12.058,12.058,0,0,1,1.615-3.455c.437-.543,1.193-.474,2.207.153a5.044,5.044,0,0,1,1.978,2.081Zm3.211,8.68-1.1,9.294,17.777,20.619-19.926-2.523-1.107,9.334,28.674,2.242.938-7.91-25.254-31.054Zm-50.118-7.09,25.262,31.087,1.107-9.334-17.693-20.751,19.835,2.695,1.117-9.414-28.68-2.289Z" transform="translate(-2349.491 -798.972)" fill-rule="evenodd" fill="url(#linear-gradient-11)"/>
      </g>
      <g id="Group_60" data-name="Group 60" transform="translate(241.588 308.279)">
        <g id="Group_56" data-name="Group 56">
          <path id="Path_344" data-name="Path 344" d="M1953.857,839.047c1.015-6.942,6.3-10.009,11.808-6.837l81.843,46.15c5.5,3.169,9.143,11.38,8.128,18.322l-10.887,74.085c-1.015,6.942-6.309,10.006-11.809,6.837L1951.1,931.455c-5.507-3.173-9.144-11.381-8.128-18.322Z" transform="translate(-1942.8 -830.958)" fill="#fff" fill-rule="evenodd"/>
          <g id="Group_55" data-name="Group 55" transform="translate(8.518 11.971)">
            <g id="Group_54" data-name="Group 54" transform="translate(12.497 32.091)">
              <path id="Path_345" data-name="Path 345" d="M1998.618,987.535l28.55-39.546,5.536,41.935,13.908-15.119,8.191,44.843Z" transform="translate(-1998.618 -947.989)" fill-rule="evenodd" fill="url(#linear-gradient-12)"/>
              <path id="Path_346" data-name="Path 346" d="M2113.705,952.5c3.052.622,5.351,4.2,5.133,7.982s-2.869,6.352-5.922,5.73-5.351-4.2-5.134-7.982S2110.652,951.874,2113.705,952.5Z" transform="translate(-2066.674 -950.741)" fill="#ffdb59" fill-rule="evenodd"/>
            </g>
            <path id="Path_347" data-name="Path 347" d="M1974.612,869.473c.844-5.768,5.236-8.317,9.812-5.68l68,38.345c4.57,2.633,7.6,9.456,6.754,15.224l-9.045,61.557c-.844,5.767-5.242,8.314-9.813,5.681l-68-38.345c-4.575-2.636-7.6-9.457-6.754-15.224Z" transform="translate(-1965.425 -862.753)" fill-rule="evenodd" opacity="0.2" fill="url(#linear-gradient-13)"/>
          </g>
        </g>
        <g id="Group_59" data-name="Group 59" transform="translate(110.452 64.151)">
          <path id="Path_348" data-name="Path 348" d="M2247.227,1009.436c1.016-6.942,6.3-10.01,11.808-6.837l81.843,46.15c5.5,3.169,9.143,11.38,8.128,18.322l-10.886,74.086c-1.016,6.941-6.309,10.006-11.81,6.837l-81.842-46.15c-5.507-3.173-9.144-11.381-8.129-18.322Z" transform="translate(-2236.17 -1001.348)" fill="#fff" fill-rule="evenodd"/>
          <g id="Group_58" data-name="Group 58" transform="translate(8.519 11.971)">
            <g id="Group_57" data-name="Group 57" transform="translate(12.497 32.091)">
              <path id="Path_349" data-name="Path 349" d="M2291.99,1157.924l28.549-39.546,5.536,41.935,13.908-15.119,8.19,44.843Z" transform="translate(-2291.99 -1118.379)" fill-rule="evenodd" fill="url(#linear-gradient-14)"/>
              <path id="Path_350" data-name="Path 350" d="M2407.076,1122.885c3.053.622,5.351,4.2,5.134,7.982s-2.87,6.352-5.922,5.731-5.351-4.2-5.134-7.982S2404.023,1122.264,2407.076,1122.885Z" transform="translate(-2360.045 -1121.131)" fill="#ffdb59" fill-rule="evenodd"/>
            </g>
            <path id="Path_351" data-name="Path 351" d="M2267.983,1039.863c.843-5.768,5.236-8.317,9.811-5.68l68,38.345c4.57,2.634,7.6,9.456,6.753,15.224l-9.045,61.556c-.843,5.767-5.241,8.314-9.812,5.681l-68-38.345c-4.575-2.636-7.6-9.457-6.753-15.224Z" transform="translate(-2258.796 -1033.143)" fill-rule="evenodd" opacity="0.2" fill="url(#linear-gradient-15)"/>
          </g>
        </g>
      </g>
      <g id="Group_66" data-name="Group 66" transform="translate(235.293)">
        <path id="Path_352" data-name="Path 352" d="M1930.137,20.3c-7.284,4.275-3.794,14.154,2.824,24.6,9.391,14.817-13.338,31.494,17.556,39.931-3.218-9.042,10.17-12.352,16.749-24.7,7.59-14.247,3.382-28.537-6.369-40.707C1952.957,9.512,1938.431,9.639,1930.137,20.3Z" transform="translate(-1926.077 -12.143)" fill-rule="evenodd" fill="url(#linear-gradient-16)"/>
        <g id="Group_62" data-name="Group 62" transform="translate(16.078 24.895)">
          <path id="Path_353" data-name="Path 353" d="M1974.642,261.493l1.781,6.715c.559,1.439.9,1.826,2.962.894,1.128-.548.773-2.9.461-4.615a10.1,10.1,0,0,1,.077-4.24,3.481,3.481,0,0,1,1.3-1.766c1.234-.992,2.679-1.654,1.79-4.805a16.356,16.356,0,0,1-.388-4.579l-4.3-.283c.1,3.841-1.607,6.431-3.385,9.663C1974.074,260.039,1974.263,259.746,1974.642,261.493Z" transform="translate(-1972.237 -184.603)" fill-rule="evenodd" fill="url(#linear-gradient-17)"/>
          <g id="Group_61" data-name="Group 61">
            <path id="Path_354" data-name="Path 354" d="M1986.515,112.526l-.031-.215a3.639,3.639,0,0,0-.136-.924c-1.093-7.3-3.317-19.612-5.048-26.031-3.024-11.209-12.615-7.335-12.517-.646.094,6.329,5.981,20.034,7.337,25.972-.483,4.326-2.288,25.932-1.664,29.706a8.25,8.25,0,0,1,.4,1.978,7.2,7.2,0,0,1-.366,1.561c1.695.225,3.389.465,5.056.857a10.519,10.519,0,0,1,.252-1.681c.289-.813,1.035-1.229,1.371-1.918,1.654-3.384,4.387-21.145,5.14-26.926A7.19,7.19,0,0,0,1986.515,112.526Z" transform="translate(-1968.782 -78.266)" fill-rule="evenodd" fill="url(#linear-gradient-18)"/>
            <path id="Path_355" data-name="Path 355" d="M1985.377,129.494a33.915,33.915,0,0,0,1.361-8.531c-.016-4.452-1.7-8.135-2.219-10.962l-15.554-15.482c.1,2.9,3.482,10.624,4.869,16.326C1976,119.742,1980.708,127.4,1985.377,129.494Z" transform="translate(-1968.897 -88.4)" fill="#3469c0" fill-rule="evenodd" opacity="0.35" style="mix-blend-mode: multiply;isolation: isolate"/>
          </g>
        </g>
        <path id="Path_356" data-name="Path 356" d="M2033.2,118.206c-2.193,7.25-12.49,12.964-22.807,10.692-2.464-2.739-3.195-1.888-5.448-4.1-2.051-2.01-4.581-4.759-8.122-8.35-1.968-3.09-9.733-4.353-13.159-5.7-3.871-1.519-7.305-4.682-8.905-10.831-.776-2.982-4.155-12.106-5.37-15.147-3.513-8.792,4.106-12.078,9.261-8.823a94.644,94.644,0,0,0,14.173,3.776,59.733,59.733,0,0,0,6.288.935c4.281.414,8.93,3.539,12.254,6.186C2020.3,93.964,2032.418,108.263,2033.2,118.206Z" transform="translate(-1952.526 -51.161)" fill-rule="evenodd" fill="url(#linear-gradient-19)"/>
        <g id="Group_64" data-name="Group 64" transform="translate(7.323 16.027)">
          <path id="Path_357" data-name="Path 357" d="M1992.092,68.572a21.857,21.857,0,0,0,6.134,10.347c-1.09,3.9-8.54,6.716-10.911,4.079a13.862,13.862,0,0,0-.69-2.069c-.391-1.145-.78-2.149-1.114-2.951Z" transform="translate(-1970.458 -63.354)" fill-rule="evenodd" fill="url(#linear-gradient-20)"/>
          <g id="Group_63" data-name="Group 63" transform="translate(0 0)">
            <path id="Path_358" data-name="Path 358" d="M1945.528,54.712a12.646,12.646,0,0,0,3.869,8.021,3.72,3.72,0,0,1,1.078,1.792c.969,3.544,1.732,4.268,4,5.888,2.21,1.576,3.038,2.667,4.3,2.8a5.217,5.217,0,0,0,3.438-1.244c1.942-1.39,4.118-5.193,5.139-7.7.757-1.862.288-2.329-.192-4.1.56-3.25-1.687-3.455-2.436-3.054-2.146,1.152-.705,3.531-1.418,4.9C1955.764,63.68,1947.959,56.914,1945.528,54.712Z" transform="translate(-1945.528 -54.712)" fill="#ffa698" fill-rule="evenodd"/>
            <path id="Path_359" data-name="Path 359" d="M1945.528,54.712c4.192,6.978,13.418,8.74,17.782,7.3C1955.764,63.68,1947.959,56.914,1945.528,54.712Z" transform="translate(-1945.528 -54.712)" fill="#ff9080" fill-rule="evenodd"/>
          </g>
        </g>
        <path id="Path_360" data-name="Path 360" d="M2045.3,142.18a1.746,1.746,0,0,1-.19.037,14.515,14.515,0,0,1-3.494-2.343c-2.051-2.01-4.581-4.759-8.122-8.35-1-1.574-3.512-2.675-6.184-3.553.422-7.218.235-23.713,2.6-25.86,3.266-2.962,7.76-4.931,11.511-1.076C2048.509,108.311,2041.458,135.24,2045.3,142.18Z" transform="translate(-1989.198 -66.234)" fill="#3469c0" fill-rule="evenodd" opacity="0.35" style="mix-blend-mode: multiply;isolation: isolate"/>
        <g id="Group_65" data-name="Group 65" transform="translate(39.581 62.224)">
          <path id="Path_361" data-name="Path 361" d="M2041.14,207.094l-4.485-16.878,3.1-2.762,28.311,15.889-2.634,2.954-12.3,8.228Z" transform="translate(-2034.604 -183.674)" fill="#4a9ff8" fill-rule="evenodd"/>
          <path id="Path_362" data-name="Path 362" d="M2033.271,184l-2.063-6.589,35.33,19.61-4.551,3.045Z" transform="translate(-2031.208 -177.416)" fill="#d0e7ff" fill-rule="evenodd"/>
        </g>
      </g>
      <g id="Group_75" data-name="Group 75" transform="translate(201.766 93.188)">
        <path id="Path_363" data-name="Path 363" d="M1854.347,275.218c1.833-13.523,12.093-19.346,22.914-12.977L1989.029,327.5c10.81,6.362,18.1,22.51,16.271,36.033l-17.035,128.905c-1.832,13.522-12.1,19.339-22.916,12.977l-111.766-65.258c-10.824-6.368-18.105-22.511-16.273-36.032Z" transform="translate(-1837.028 -259.659)" fill-rule="evenodd" opacity="0.5" fill="url(#linear-gradient-21)" style="mix-blend-mode: multiply;isolation: isolate"/>
        <g id="Group_74" data-name="Group 74" transform="translate(1.512 0.359)">
          <path id="Path_364" data-name="Path 364" d="M1866.9,275.069c.2-1.461.486-7.993,2.24-9.32,2.365-1.793,6.682-4.4,7.959-4.742,3.329-.89,7.171-.3,11.093,2l104.44,60.522c10.045,5.912,16.822,20.917,15.119,33.482L1991.926,476.8a19.285,19.285,0,0,1-4.342,10.367,32.251,32.251,0,0,1-7.851,5.5c-2.992,1.547-7.2-2.688-9.1-3.805l-104.437-60.523c-10.059-5.917-16.824-20.917-15.121-33.481Z" transform="translate(-1847.134 -260.611)" fill="#d0e7ff" fill-rule="evenodd"/>
          <path id="Path_365" data-name="Path 365" d="M1857.138,281.89c1.7-12.566,11.236-17.977,21.292-12.059l103.856,60.639c10.045,5.912,16.822,20.916,15.119,33.482l-15.829,119.781c-1.7,12.564-11.248,17.97-21.294,12.058l-103.854-60.639c-10.058-5.917-16.824-20.917-15.121-33.481Z" transform="translate(-1841.045 -264.864)" fill="#fff" fill-rule="evenodd"/>
          <g id="Group_68" data-name="Group 68" transform="translate(14.451 2.568)">
            <path id="Path_366" data-name="Path 366" d="M1881.071,281.89c1.7-12.566,11.236-17.977,21.292-12.059l103.856,60.639c10.045,5.912,16.822,20.916,15.119,33.482l-1.621,11.9-140.288-81.911Z" transform="translate(-1879.429 -267.432)" fill-rule="evenodd" fill="url(#linear-gradient-22)"/>
            <g id="Group_67" data-name="Group 67" transform="translate(13.95 14.834)">
              <path id="Path_367" data-name="Path 367" d="M1920.869,306.925c2.288.542,4.035,3.283,3.9,6.121s-2.094,4.7-4.382,4.157-4.035-3.283-3.9-6.122S1918.582,306.383,1920.869,306.925Z" transform="translate(-1916.48 -306.831)" fill="#fff" fill-rule="evenodd"/>
              <path id="Path_368" data-name="Path 368" d="M1953.3,327.141c2.288.543,4.035,3.283,3.9,6.122s-2.095,4.7-4.382,4.157-4.035-3.283-3.9-6.121S1951.011,326.6,1953.3,327.141Z" transform="translate(-1936.7 -319.436)" fill="#fff" fill-rule="evenodd"/>
              <path id="Path_369" data-name="Path 369" d="M1985.727,347.357c2.288.543,4.035,3.283,3.9,6.122s-2.094,4.7-4.382,4.157-4.035-3.283-3.9-6.121S1983.44,346.815,1985.727,347.357Z" transform="translate(-1956.92 -332.041)" fill="#fff" fill-rule="evenodd"/>
            </g>
          </g>
          <g id="Group_73" data-name="Group 73" transform="translate(9.15 52.439)">
            <g id="Group_71" data-name="Group 71" transform="translate(8.631)">
              <g id="Group_69" data-name="Group 69">
                <path id="Path_370" data-name="Path 370" d="M1908.616,400.328c10.6,2.514,18.7,15.216,18.088,28.371s-9.707,21.782-20.309,19.267-18.7-15.216-18.088-28.371S1898.013,397.814,1908.616,400.328Z" transform="translate(-1888.274 -399.893)" fill-rule="evenodd" opacity="0.2" fill="url(#linear-gradient-23)"/>
                <path id="Path_371" data-name="Path 371" d="M1922.781,429.816c5.716,1.356,10.082,8.2,9.752,15.3s-5.233,11.744-10.95,10.388-10.082-8.2-9.752-15.3S1917.064,428.461,1922.781,429.816Z" transform="translate(-1902.951 -418.404)" fill-rule="evenodd" fill="url(#linear-gradient-24)"/>
              </g>
              <g id="Group_70" data-name="Group 70" transform="translate(41.637 22.787)">
                <path id="Path_372" data-name="Path 372" d="M2005.966,463.592c.378-2.795,2.494-3.965,4.726-2.608l67.883,39.129a8.168,8.168,0,0,1,3.353,7.52l-.734,5.528c-.379,2.794-2.5,3.963-4.726,2.608l-67.883-39.13a8.163,8.163,0,0,1-3.353-7.52Z" transform="translate(-2002.798 -460.418)" fill="#955cf1" fill-rule="evenodd" opacity="0.2"/>
                <path id="Path_373" data-name="Path 373" d="M1999.334,519.751c.224-1.65,1.473-2.341,2.791-1.54l40.086,23.106a4.824,4.824,0,0,1,1.979,4.441l-.433,3.264c-.224,1.65-1.475,2.34-2.791,1.54l-40.085-23.106a4.822,4.822,0,0,1-1.98-4.441Z" transform="translate(-1998.865 -496.244)" fill="#955cf1" fill-rule="evenodd" opacity="0.2"/>
              </g>
            </g>
            <g id="Group_72" data-name="Group 72" transform="translate(0 49.167)">
              <path id="Path_374" data-name="Path 374" d="M1879.086,532.8c.275-2.035,1.817-2.888,3.441-1.9l117.234,67.259a5.948,5.948,0,0,1,2.442,5.476l-.365,2.666c-.276,2.035-1.819,2.887-3.442,1.9l-117.233-67.259a5.943,5.943,0,0,1-2.442-5.476Z" transform="translate(-1873.66 -530.485)" fill="#955cf1" fill-rule="evenodd" opacity="0.2"/>
              <path id="Path_375" data-name="Path 375" d="M1872.576,585.194c.275-2.035,1.817-2.888,3.441-1.9l117.234,67.259a5.948,5.948,0,0,1,2.442,5.476l-.365,2.665c-.276,2.036-1.818,2.887-3.442,1.9l-117.233-67.259a5.942,5.942,0,0,1-2.442-5.476Z" transform="translate(-1869.601 -563.155)" fill="#955cf1" fill-rule="evenodd" opacity="0.2"/>
              <path id="Path_376" data-name="Path 376" d="M1865.756,635.108c.275-2.035,1.816-2.887,3.441-1.9l117.234,67.259a5.951,5.951,0,0,1,2.442,5.477l-.365,2.665c-.276,2.035-1.818,2.887-3.443,1.9l-117.233-67.258a5.944,5.944,0,0,1-2.442-5.477Z" transform="translate(-1865.348 -594.277)" fill="#955cf1" fill-rule="evenodd" opacity="0.2"/>
            </g>
          </g>
        </g>
      </g>
      <g id="Group_79" data-name="Group 79" transform="translate(346.362 86.396)">
        <g id="Group_76" data-name="Group 76">
          <path id="Path_377" data-name="Path 377" d="M2245.224,252.319c.371-2.607-1.364-4.616-.232-6.343,1.223-1.866,5.381-3.2,7.179-3.851a10.181,10.181,0,0,1,8.612,1.129l124.7,71.294c7.279,4.166,12.133,14.993,10.827,24.16l-14,97.832c-.64,4.492-2.641,7.758-5.372,9.431-1.669,1.022-6.238,2.977-8.308,2.726-1.456-.177-.348-2.216-1.881-3.093l-124.693-71.293c-7.29-4.17-12.135-14.993-10.83-24.159Z" transform="translate(-2227.277 -241.617)" fill="#d0e7ff" fill-rule="evenodd"/>
          <path id="Path_378" data-name="Path 378" d="M2235.3,256.277c1.305-9.167,8.272-13.234,15.56-9.064l124.694,71.293c7.281,4.166,12.135,14.993,10.829,24.16l-14,97.832c-1.305,9.166-8.281,13.229-15.562,9.064L2232.13,378.268c-7.289-4.17-12.134-14.993-10.83-24.159Z" transform="translate(-2221.088 -244.085)" fill-rule="evenodd" fill="url(#linear-gradient-25)"/>
        </g>
        <g id="Group_77" data-name="Group 77" transform="translate(4.143 113.597)">
          <path id="Path_379" data-name="Path 379" d="M2232.478,544.252c.113-.8.717-1.135,1.347-.756l138.3,79.3a2.283,2.283,0,0,1,.937,2.128l-.367,2.414c-.113.8-.717,1.135-1.347.756l-138.3-79.3a2.282,2.282,0,0,1-.936-2.129Z" transform="translate(-2232.093 -543.34)" fill="#6d6afd" fill-rule="evenodd"/>
          <path id="Path_380" data-name="Path 380" d="M2232.677,544.506c.109-.768.691-1.1,1.3-.729l55.783,31.976a2.2,2.2,0,0,1,.9,2.053l-.354,2.329c-.109.768-.691,1.095-1.3.73l-55.783-31.977a2.2,2.2,0,0,1-.9-2.053Z" transform="translate(-2232.225 -543.519)" fill="#2364d8" fill-rule="evenodd"/>
        </g>
        <g id="Group_78" data-name="Group 78" transform="translate(54.035 64.965)">
          <path id="Path_381" data-name="Path 381" d="M2369.842,416.717c.31-2.182,1.968-3.149,3.7-2.157l38.388,21.957a6.062,6.062,0,0,1,2.577,5.748l-5.18,36.527c-.311,2.181-1.971,3.148-3.7,2.157l-38.388-21.957a6.061,6.061,0,0,1-2.576-5.748Z" transform="translate(-2364.611 -414.171)" fill-rule="evenodd" fill="url(#linear-gradient-26)"/>
          <path id="Path_382" data-name="Path 382" d="M2412.863,460.678c-6.646-3.8-12.99-.1-14.182,8.261s3.224,18.224,9.87,22.026,12.991.1,14.182-8.269S2419.5,464.476,2412.863,460.678Z" transform="translate(-2385.733 -442.237)" fill-rule="evenodd" fill="url(#linear-gradient-27)"/>
          <path id="Path_383" data-name="Path 383" d="M2416.866,473.935l-2.1,15.131,12.82.347Z" transform="translate(-2395.884 -451.434)" fill="#fff" fill-rule="evenodd"/>
        </g>
      </g>
      <g id="Group_80" data-name="Group 80" transform="translate(260.623 32.473)">
        <path id="Path_384" data-name="Path 384" d="M2004.8,266.543c-1.089,1.82-.515,5.76-.87,7.635a30.566,30.566,0,0,1-1.667,5.475c-.229.484-7.46,6.906-7.879,6.582-.954-.735-1.573-5.806-.322-7.281a10.326,10.326,0,0,0,2.521-4.121c.217-1.23.144-5.217.667-5.835,1.187-1.4,2.426-1.846,2.956-3.6Z" transform="translate(-1993.357 -202.525)" fill-rule="evenodd" fill="url(#linear-gradient-28)"/>
        <path id="Path_385" data-name="Path 385" d="M2029.114,137.876a11.035,11.035,0,0,0,.272-1.27c1.883-7.786,3.8-21.11,3.55-28.829-.187-5.895-3.057-10.885-9.973-8.964-2.125.59-4.585,2.206-4.9,5-.376,3.352.123,8.915.44,14.6.253,4.543.231,12.736.4,16.058-.029.1-.059.2-.086.31a179.767,179.767,0,0,0-8.449,23.472,8.993,8.993,0,0,0-.019,2.158,4.015,4.015,0,0,1-.559,1.735,10.507,10.507,0,0,0,4.74,2.443,12.707,12.707,0,0,1,.969-1.709c.3-.458,1.684-.892,2.224-1.537,2.866-3.433,10.427-19.13,11.353-23.3C2029.094,137.987,2029.1,137.932,2029.114,137.876Z" transform="translate(-2003.607 -98.394)" fill-rule="evenodd" fill="url(#linear-gradient-29)"/>
      </g>
      <g id="Group_93" data-name="Group 93" transform="translate(169.717 176.666)">
        <path id="Path_386" data-name="Path 386" d="M1757.839,1203.194l62.781-35.755c6.844-3.128,16.64-5.617,23.613-1.988,6.353,3.306,16.82,10.073,21.447,12.713,3.515,2,15.717,9.315,8.117,13.448-22.357,12.157-44.482,25.829-67.185,38.179-4.293,2.336-10.574,3.18-17.168,2.632a45.464,45.464,0,0,1-18.595-5.538q-5.659-3.291-11.133-6.48c-4.924-2.867-7.535-6.258-7.794-9.393C1751.67,1207.95,1753.638,1205.112,1757.839,1203.194Z" transform="translate(-1751.902 -906.784)" fill="#955cf1" fill-rule="evenodd" opacity="0.3"/>
        <g id="Group_92" data-name="Group 92" transform="translate(23.524)">
          <g id="Group_85" data-name="Group 85" transform="translate(0 153.662)">
            <g id="Group_81" data-name="Group 81" transform="translate(0 131.108)">
              <path id="Path_387" data-name="Path 387" d="M1820.147,1259.489c1.229-.027,5.371-3.921,9.3-1.956,4.713,2.362,13.661.27,18.176,1.355.8.193,2.377-.4,2.688.153.974,1.73,1.915,4.318-.478,6.011a40.965,40.965,0,0,1-8,3.77,67.5,67.5,0,0,1-10.124,2.865c-3.333.522-4.854.736-6.1,1.7a8.882,8.882,0,0,1-4.655,1.12,7.848,7.848,0,0,1-5.935-4.143c-.375-.8-.385-4.3.046-6.571a33.18,33.18,0,0,1,2.1-5.736Z" transform="translate(-1814.599 -1249.743)" fill="#fff" fill-rule="evenodd"/>
              <path id="Path_388" data-name="Path 388" d="M1833.887,1239.129c-1.491,3.579-1.033,9.117-4.566,11.04-2.361,1.285-6.06,1.3-7.672-2.374-.9-2.047.3-5.543.031-10.038Z" transform="translate(-1818.701 -1237.758)" fill="#ffa495" fill-rule="evenodd"/>
              <path id="Path_389" data-name="Path 389" d="M1830.552,1251.067c2.707.787,10.182.261,14.907.643,2.031.165,3.853.149,4.8,1.993.874,1.7.416,3.15-1.562,4.549a33.5,33.5,0,0,1-7.22,3.542,67.714,67.714,0,0,1-10.123,2.866c-3.334.521-4.855.736-6.1,1.7a8.886,8.886,0,0,1-4.655,1.12,8.2,8.2,0,0,1-5.935-4.4c-.375-.8-.386-4.039.047-6.31a11.552,11.552,0,0,1,.347-1.337c.372-3.557,1.546-4.994,2.653-4.385,1.515.833,2.087,2.333,2.664,3.565a3.478,3.478,0,0,0,2.059,1.964c1.812.571,3.466-.439,4.537-1.994a12.8,12.8,0,0,0,1.243-3.6c.006-.122.007-.242,0-.362.355-3.108,1.868-2.838,1.638-2.182A2.677,2.677,0,0,0,1830.552,1251.067Z" transform="translate(-1814.383 -1244.152)" fill="#193161" fill-rule="evenodd"/>
              <path id="Path_390" data-name="Path 390" d="M1907.161,1261.04c-.036,1.2,1.805,1.315,1.273,3.427.886-.867-.35-3.359-.9-3.738C1907.313,1260.574,1907.122,1260.51,1907.161,1261.04Z" transform="translate(-1872.228 -1252.012)" fill="#fff" fill-rule="evenodd"/>
            </g>
            <g id="Group_82" data-name="Group 82" transform="translate(30.536 116.539)">
              <path id="Path_391" data-name="Path 391" d="M1904.966,1212.852c1.144-.448,3.7-5.53,8.056-5.035a22.175,22.175,0,0,0,7.458-1.075c4.578-1.3,10.956-5.393,12.044-4.724,2.372,1.459,2.561,4.119.9,6.532a33.49,33.49,0,0,1-5.561,5.81,58.775,58.775,0,0,1-7.848,5.969c-2.518,1.4-3.354,1.273-5.146,3.695a8.408,8.408,0,0,1-3.985,2.522c-2.617.512-6.418-1.169-7.786-2.923-.87-2.815-2.379-5.48-1.412-9.705Z" transform="translate(-1899.157 -1200.861)" fill="#fff" fill-rule="evenodd"/>
              <path id="Path_392" data-name="Path 392" d="M1907.345,1199.063c-.07,3.876,2.392,8.858-.186,11.946-1.724,2.063-5.159,3.434-8.007.614-1.589-1.574-1.764-5.265-3.663-9.346Z" transform="translate(-1895.489 -1199.063)" fill="#ffa495" fill-rule="evenodd"/>
              <path id="Path_393" data-name="Path 393" d="M1918.4,1204.839q.391-.1.783-.214c4.577-1.3,10.695-4.455,11.783-3.785,2.372,1.459,2.823,3.181,1.158,5.594a33.454,33.454,0,0,1-5.561,5.81,58.72,58.72,0,0,1-7.848,5.969c-2.518,1.4-3.354,1.272-5.146,3.695a8.42,8.42,0,0,1-3.985,2.522c-2.617.51-6.532-1.185-7.9-2.94-.647-2.1-1.534-4.091-1.605-6.725-.381-3.448-.145-5.2,1.356-5.158,2.79.081,3.941,1.551,5.094,2.27,2.482,1.548,4.144-.452,4.551-2.926a14.467,14.467,0,0,0-.228-3.27c-.039-.115-.082-.228-.128-.339-.812-3.021.693-3.325.721-2.632a2.591,2.591,0,0,0,2.3,2.639C1915.256,1205.579,1917.172,1204.944,1918.4,1204.839Z" transform="translate(-1898.249 -1200.114)" fill="#193161" fill-rule="evenodd"/>
              <path id="Path_394" data-name="Path 394" d="M1981.432,1201.26c.485,1.1,2.2.409,2.625,2.544.425-1.165-1.763-2.88-2.42-2.987C1981.368,1200.773,1981.168,1200.8,1981.432,1201.26Z" transform="translate(-1948.998 -1200.147)" fill="#fff" fill-rule="evenodd"/>
            </g>
            <g id="Group_83" data-name="Group 83" transform="translate(12.793)">
              <path id="Path_395" data-name="Path 395" d="M1875.325,901.357c1,11.233,6.633,47.111,5.066,56.96-2.355,14.81-1.683,32.7-1.656,48.424-.4,6.605-9.479,10.056-12.122,5.86-2.122-14.047-5.142-26.353-6.37-34.159-1.375-8.741-.921-19.361,1.3-25.106-.91-6.275-5.189-22.464-8.763-33.683-1.29-4.048-8.6-17.128-1.033-30.13Z" transform="translate(-1848.363 -889.524)" fill-rule="evenodd" fill="url(#linear-gradient-30)"/>
              <path id="Path_396" data-name="Path 396" d="M1908.2,1189.665c.008,1.166-.036,2.942-.034,4.086-.4,6.606-9.593,10.188-12.237,5.991-.156-1.036-.383-2.062-.548-3.076C1898.935,1200.5,1905.9,1195.519,1908.2,1189.665Z" transform="translate(-1877.678 -1076.664)" fill-rule="evenodd" fill="url(#linear-gradient-31)"/>
              <path id="Path_397" data-name="Path 397" d="M1895.7,976.227c-2.961,14.853-11.337,34.694-15.909,49.628-2.38-12.8-8.336-34.587-3.184-47.924-.518-3.574-2.129-10.364-4.08-17.619,3.963-7.514.175-13.511,2.047-24.093,10.492-1.828-5.343-14.636,16.86-1.147C1893.418,951.011,1895.283,961.034,1895.7,976.227Z" transform="translate(-1863.428 -914.117)" fill="#1e2353" fill-rule="evenodd" opacity="0.3" style="mix-blend-mode: multiply;isolation: isolate"/>
            </g>
            <g id="Group_84" data-name="Group 84" transform="translate(1.638 6.809)">
              <path id="Path_398" data-name="Path 398" d="M1856.493,977c-6.053,13.7-17.221,40.584-23.161,57.4-3.073,4.467-14.03,4-14.009-.165,2.419-14.061,5.262-35.747,10.309-48.079,1.546-3.774,7.245-12.855,9.3-15.55,1.6-6.206,3.6-22.967,5.144-32.037-1.386-7.5-7.439-20.053,4.192-30.959,4.693,3.338,19.2,5.426,25.781,1.708C1875.11,938.962,1867.833,951.325,1856.493,977Z" transform="translate(-1819.102 -907.609)" fill-rule="evenodd" fill="url(#linear-gradient-32)"/>
              <path id="Path_399" data-name="Path 399" d="M1834.2,1236.588c-.265.735-.791,2.22-1.04,2.923-3.164,4.6-14.443,4.119-14.422-.17q.18-1.043.362-2.137C1821.786,1239.946,1829.919,1239.982,1834.2,1236.588Z" transform="translate(-1818.735 -1112.73)" fill-rule="evenodd" fill="url(#linear-gradient-33)"/>
            </g>
          </g>
          <g id="Group_87" data-name="Group 87" transform="translate(11.597)">
            <g id="Group_86" data-name="Group 86" transform="translate(46.342)">
              <path id="Path_400" data-name="Path 400" d="M1986.477,482.594c-.431.908-.843,1.826-1.293,2.725l-1.852,3.7c-.395-1.815-1.844-2.51-2.958-1.595a3.176,3.176,0,0,0-.9,1.21c-.177-.5-1.579-1.611-3.476,1.083a2.08,2.08,0,0,0-2.3,1.328,14.959,14.959,0,0,0-.795,1.941,7.8,7.8,0,0,0-.553,2.631c.012,1.786.089,3.722.038,5.855-.055,2.315-2.681,5.247-4.107,6.935l8.594,2.725a47.731,47.731,0,0,1,3.346-4.184c1.348-1.366,3.053-1.529,4.339-2.584a16.515,16.515,0,0,0,2.357-3.1c1.013-1.435,1.568-2.986,2.534-4.556.941-1.626.884-1.267.98-3.091a33.017,33.017,0,0,1,.645-3.652c-1.765-.88-3.157,1.3-3.145,3.423a5.273,5.273,0,0,0-1.9,2.585c-1.4-1.835-.567-2.6,0-4.961a23.74,23.74,0,0,0,2.022-4.731c.274-.726.548-1.478.842-2.291a2.277,2.277,0,0,0-.51-2.518C1988.046,481.258,1987.195,481.356,1986.477,482.594Z" transform="translate(-1968.276 -481.384)" fill-rule="evenodd" fill="url(#linear-gradient-34)"/>
              <path id="Path_401" data-name="Path 401" d="M2000.271,500.547c-1.255.181-2.141,1.912-2.13,3.608a5.139,5.139,0,0,0-1.854,2.456,11.665,11.665,0,0,1,2.257-2.248,5.384,5.384,0,0,1,1.727-3.816Zm-6.565-1.078-.16.319a3.259,3.259,0,0,0-.468-1.138,4.592,4.592,0,0,1-1.225,2.726,3.068,3.068,0,0,0,1.852-1.907Zm-4.031-.093a1.059,1.059,0,0,0-.454-.463,7.28,7.28,0,0,1-.965,2.463,4.116,4.116,0,0,0,1.42-2Zm-3.425,1.055-.04.056a3,3,0,0,0-.55-.012,5.6,5.6,0,0,1-1,2.753A4.454,4.454,0,0,0,1986.25,500.431Z" transform="translate(-1978.49 -492.149)" fill="#ff8978" fill-rule="evenodd"/>
            </g>
            <path id="Path_402" data-name="Path 402" d="M1877.276,567.958c4.325-7.537,7.712-16.978,13.756-24.633.5-.638,1.688-1.127,2.123-1.8q.946-1.462,1.884-2.871a13.406,13.406,0,0,1,8.7,3.921q-.509,1.514-1,3.013c-.382,1.164.351,3.654.02,4.819a193.94,193.94,0,0,1-10.6,28.871c-6,7.732-32.632,57.367-46.559,39.356-1.254-6.406.443-11.735,3.666-16.921,1.784-2.87,4.5-5.373,6.321-7.266C1859.968,589.908,1870.7,574.738,1877.276,567.958Z" transform="translate(-1845.187 -517.093)" fill-rule="evenodd" fill="url(#linear-gradient-35)"/>
          </g>
          <path id="Path_403" data-name="Path 403" d="M1847.5,747.691c.975,8.79-1.668,17.433,1.023,25.458.12.829.2,4.082.339,4.967,1.772,10.395,23.76,20.914,42.1,10.94.1-1.288-.016-2.636.084-5.023-.339-2.229.624-4.62.618-5.979-.026-5.657-1.787-8.549-.943-14.844,1.718-12.806,8.813-25.114,4.888-35.189-.843-2.163-2.318-3.211-3.991-4.554-4.334-3.482-26.747-14.894-33.541-15.7C1838.347,705.209,1846.442,738.156,1847.5,747.691Z" transform="translate(-1833.451 -622.446)" fill-rule="evenodd" fill="url(#linear-gradient-36)"/>
          <path id="Path_404" data-name="Path 404" d="M1952.2,778.87c2.543-9.411,5.867-18.295,2.9-25.906-.843-2.163-2.318-3.211-3.99-4.554-4.333-3.482-3.759,5.881-10.553,5.076C1939.246,766,1945.431,777.376,1952.2,778.87Z" transform="translate(-1892.942 -647.39)" fill="#6266d7" fill-rule="evenodd" opacity="0.35" style="mix-blend-mode: multiply;isolation: isolate"/>
          <g id="Group_90" data-name="Group 90" transform="translate(15.838 47.864)">
            <path id="Path_405" data-name="Path 405" d="M1887.1,650.353a48.344,48.344,0,0,0,.5,10.793c-6.424-.209-15.352-1.89-16.327-6.672.045-.574.086-1.155.115-1.726a2.263,2.263,0,0,0-.262-.206c-2.3-1.532-6.114-2.668-8.564-5.469-3.915-4.476-5.995-10.49-2.922-16.543,5.61-11.053,19.179-11.241,26.738-2.3,1.476,1.745.395,3.553,1.234,5.238.165.33.768.476,1.468,1.054.968.8,3.787,7.709,3.714,11.316-.029,1.452-3.367,3.5-4.848,4.3A3.938,3.938,0,0,1,1887.1,650.353Z" transform="translate(-1857.519 -616.831)" fill="#ffa698" fill-rule="evenodd"/>
            <path id="Path_406" data-name="Path 406" d="M1905.794,689.546a48.351,48.351,0,0,0,.5,10.793c-6.424-.209-15.352-1.89-16.326-6.673.045-.574.087-1.155.115-1.726-.087-.078-.185-.133-.262-.206-4.882-4.57,1.648-9.808,9.9-5.3A6.4,6.4,0,0,0,1905.794,689.546Z" transform="translate(-1876.211 -656.024)" fill-rule="evenodd" fill="url(#linear-gradient-37)"/>
            <path id="Path_407" data-name="Path 407" d="M1932.229,650.464c-.029.634-2.658,1.591-3.758,1.74.75-6.828-5.748-7.871-4.769-14.537.588-4.006-3.532-5.455-1.915-8.388a18.727,18.727,0,0,1,4.026,3.578c1.475,1.745.395,3.552,1.234,5.238.165.33.768.475,1.468,1.054C1929.483,639.948,1932.4,646.86,1932.229,650.464Z" transform="translate(-1896.952 -621.462)" fill-rule="evenodd" fill="url(#linear-gradient-38)"/>
            <g id="Group_88" data-name="Group 88" transform="translate(24.247 24.648)">
              <path id="Path_408" data-name="Path 408" d="M1923.03,675.562c-.126-1.528-.745-1.822-1.258-1.416a4.1,4.1,0,0,0-.89,3.341c.249,2.537,2.6,4.808,4.221,2.757-1.771.939-2.607-1.332-2.682-2.936C1922.37,676.222,1922.645,675.307,1923.03,675.562Z" transform="translate(-1920.853 -673.981)" fill="#ffb49c" fill-rule="evenodd"/>
              <path id="Path_409" data-name="Path 409" d="M1925.084,680.776c.943.714,1.378,1.2,1.363,1.6-.009.279-.243.7-1.072.405A3.605,3.605,0,0,1,1925.084,680.776Z" transform="translate(-1923.473 -678.218)" fill="#ff9d8e" fill-rule="evenodd"/>
            </g>
            <path id="Path_410" data-name="Path 410" d="M1887.193,708.043c-1.9.586-3.677,2.541-3.329,3.795,1.893,7.733,16.067,9.46,24.882,7.6.106-.022-3.3-4.526-4.987-5.075C1898.211,714.905,1888.9,712.609,1887.193,708.043Z" transform="translate(-1873.516 -670.571)" fill="#726cde" fill-rule="evenodd"/>
            <g id="Group_89" data-name="Group 89">
              <path id="Path_411" data-name="Path 411" d="M1869.447,645.507c-2.35-2.508-6.327-3.705-8.879-6.623-2.517-2.878-5.272-7.294-3.59-11.831-2.964-9.321,7.166-16.713,15.7-18.393a6.627,6.627,0,0,1,7.1,9.774,8.935,8.935,0,0,1,2.052,6.813c-.488,2.661-.419,3,.432,4.99.672,1.573,2.347,5.374-.684,2.967-1.96-1.556-3.33,1.882-2.667,4.259a10.859,10.859,0,0,1,.426,4.6C1878.766,647.046,1870.755,646.9,1869.447,645.507Z" transform="translate(-1856.452 -608.515)" fill="#562e65" fill-rule="evenodd"/>
              <path id="Path_412" data-name="Path 412" d="M1864.984,623.846c-2.021-9.027,9.848-13.6,14.492-13.705,4.7-.109,8.38,7.623,2.809,10.227C1878.486,622.143,1870.963,618.671,1864.984,623.846Z" transform="translate(-1861.628 -609.528)" fill-rule="evenodd" fill="url(#linear-gradient-39)"/>
            </g>
          </g>
          <g id="Group_91" data-name="Group 91" transform="translate(47.57 66.733)">
            <path id="Path_413" data-name="Path 413" d="M2105.881,666.865a6.159,6.159,0,0,0-.383,1.824,14.605,14.605,0,0,0-.884,2.769,25.743,25.743,0,0,0-.224,4.557,10.031,10.031,0,0,0,.4,2.8c-1.14,2.229-2.934,3.6-4.608,5.44l5.427,4.139c2.289-1.51,4.077-3.1,6.049-4.408a6.657,6.657,0,0,0,2.642-1.491c1.257-1.31,4.957-5.2,5.17-6.734a34.9,34.9,0,0,0-.6-7.784c-.98-5.5-3.075-11.277-3.435-8.726-.524.611-.1,5.58-.427,6.317-1.284,1.479-1.9,2.087-3.507,3.85a18.44,18.44,0,0,1-2.137,1.292c-.555.15-.861-.237-.88-.724a23.174,23.174,0,0,1,.615-2.931c-.005-2.357-.585-3.692-1.845-3.568a1.246,1.246,0,0,0-1.183,1.1C2105.936,665.14,2105.971,665.9,2105.881,666.865Z" transform="translate(-2040.149 -658.632)" fill-rule="evenodd" fill="url(#linear-gradient-40)"/>
            <path id="Path_414" data-name="Path 414" d="M1951.771,723.894c7.471,1.153,21.886,9.371,31.834,13.828,5.547-7.906,12.826-17.381,17.318-20.57a14.938,14.938,0,0,0,2.233-1.6q.978-1.2,1.9-2.464c2.805.39,6.871,3.893,6.818,5.548-.453.827-.913,1.692-1.38,2.584a16.85,16.85,0,0,0-.391,2.636c-1.524,5.535-9.922,18.323-13.837,24.027-2.262,3.3-3.057,5.23-4.589,6.216-2.458,1.579-5.756.717-12.112-.881-5.347-1.344-22.614-4.485-30.559-8.677-5.6-2.955-9.9-8.281-7.675-14.411A9.65,9.65,0,0,1,1951.771,723.894Z" transform="translate(-1940.734 -692.584)" fill-rule="evenodd" fill="url(#linear-gradient-41)"/>
          </g>
        </g>
      </g>
    </g>
    <g id="Group_96" data-name="Group 96" transform="translate(1191.391 40.908)">
      <path id="Path_415" data-name="Path 415" d="M2477.6,106.274c-4.878-2.705-10.055.943-10,8a14.13,14.13,0,0,0,4.02,9.775,9.581,9.581,0,0,0,1.977,1.481c4.87,2.7,10.022-.947,9.986-7.974a14.1,14.1,0,0,0-3.987-9.791,9.666,9.666,0,0,0-1.993-1.495Zm-4.7,22.575a12.919,12.919,0,0,1-2.654-1.985,19.036,19.036,0,0,1-5.408-13.148c-.059-9.469,6.888-14.391,13.447-10.757a12.855,12.855,0,0,1,2.691,2.022,18.9,18.9,0,0,1,5.369,13.143c.041,9.444-6.9,14.356-13.445,10.726Zm22.34-8.046a3.584,3.584,0,0,1,1.513,3.726l-1.192,5.548c-.305,1.414-1.478,2.048-2.62,1.415l-.584-.325a1.637,1.637,0,0,0-2.31.638,17.58,17.58,0,0,1-1.062,1.575,3.276,3.276,0,0,0-.237,3.14l.307.752c.588,1.433.235,3.067-.778,3.615l-4.017,2.17a1.659,1.659,0,0,1-1.627-.058,3.108,3.108,0,0,1-1.3-1.567l-.311-.735a3.079,3.079,0,0,0-1.291-1.548,1.878,1.878,0,0,0-.964-.247c-.568,0-1.145-.02-1.717-.072a1.839,1.839,0,0,0-1.917,1.647l-.154.723c-.3,1.413-1.478,2.047-2.622,1.416l-4.477-2.483a3.58,3.58,0,0,1-1.519-3.71l.156-.722a3.779,3.779,0,0,0-.875-3.194c-.482-.531-.932-1.08-1.379-1.644a2.793,2.793,0,0,0-.854-.762,1.642,1.642,0,0,0-1.612-.061l-.525.27a1.661,1.661,0,0,1-1.63-.056,3.113,3.113,0,0,1-1.3-1.567L2456.009,123c-.585-1.433-.234-3.068.778-3.614l.531-.288a2.586,2.586,0,0,0,1.023-2.7c-.107-.762-.182-1.526-.231-2.292a3.466,3.466,0,0,0-1.573-2.789l-.584-.325a3.577,3.577,0,0,1-1.518-3.708l1.194-5.547c.308-1.431,1.481-2.065,2.623-1.431l.583.323a1.634,1.634,0,0,0,2.31-.636,16.866,16.866,0,0,1,1.063-1.574,3.249,3.249,0,0,0,.232-3.127l-.307-.751c-.581-1.448-.233-3.068.782-3.63l4.017-2.172a1.663,1.663,0,0,1,1.628.058,3.12,3.12,0,0,1,1.3,1.567l.307.751a3.068,3.068,0,0,0,1.292,1.548,1.861,1.861,0,0,0,.964.249,14.08,14.08,0,0,1,1.719.056,1.812,1.812,0,0,0,1.914-1.631l.156-.724c.307-1.43,1.481-2.064,2.623-1.43l4.48,2.483a3.58,3.58,0,0,1,1.512,3.723l-.155.723a3.731,3.731,0,0,0,.867,3.172q.723.8,1.388,1.666a2.767,2.767,0,0,0,.853.76,1.64,1.64,0,0,0,1.61.061l.531-.286a1.656,1.656,0,0,1,1.628.058,3.111,3.111,0,0,1,1.305,1.567l2.325,5.687c.584,1.448.236,3.068-.779,3.63l-.531.286a2.568,2.568,0,0,0-1.02,2.691q.157,1.142.232,2.29a3.461,3.461,0,0,0,1.573,2.79Z" transform="translate(-1989.897 -88.547)" fill="#fff" fill-rule="evenodd" opacity="0.5"/>
      <g id="Group_95" data-name="Group 95" transform="translate(0 346.759)">
        <path id="Path_417" data-name="Path 417" d="M1220.7,1051.019l25.093-41.45,12.672,46.024,12.876-15.673,16.042,49.346Z" transform="translate(-1220.699 -1009.57)" fill-rule="evenodd" opacity="0.5" fill="url(#linear-gradient-42)"/>
        <path id="Path_418" data-name="Path 418" d="M1332.607,1017.221c3.447.855,6.531,4.882,6.888,9s-2.148,6.757-5.594,5.9-6.531-4.882-6.887-9S1329.16,1016.367,1332.607,1017.221Z" transform="translate(-1286.965 -1014.24)" fill="#ff89db" fill-rule="evenodd" opacity="0.5"/>
      </g>
    </g>
  </g>
</svg>
