<svg xmlns="http://www.w3.org/2000/svg" xmlns:xlink="http://www.w3.org/1999/xlink" width="56.458" height="56.461" viewBox="0 0 56.458 56.461">
  <defs>
    <linearGradient id="linear-gradient" y1="0.5" x2="1" y2="0.5" gradientUnits="objectBoundingBox">
      <stop offset="0" stop-color="#8929cc"/>
      <stop offset="1" stop-color="#8929cc"/>
    </linearGradient>
    <linearGradient id="linear-gradient-2" x1="0" y1="0.5" x2="1" y2="0.5" xlink:href="#linear-gradient"/>
  </defs>
  <g id="Professional" transform="translate(0)">
    <g id="Group_563" data-name="Group 563" transform="translate(19.056 19.056)">
      <path id="Path_1334" data-name="Path 1334" d="M382.921,317.024A8.679,8.679,0,1,0,391.6,325.7,8.689,8.689,0,0,0,382.921,317.024Zm0,16.005a7.326,7.326,0,1,1,7.324-7.326A7.334,7.334,0,0,1,382.921,333.029Z" transform="translate(-373.747 -316.529)" fill="url(#linear-gradient)"/>
      <path id="Path_1335" data-name="Path 1335" d="M383.174,335.131a9.173,9.173,0,1,1,9.174-9.172A9.181,9.181,0,0,1,383.174,335.131Zm0-17.356a8.183,8.183,0,1,0,8.184,8.184A8.192,8.192,0,0,0,383.174,317.775Zm0,16.005A7.821,7.821,0,1,1,391,325.959,7.831,7.831,0,0,1,383.174,333.78Zm0-14.653a6.831,6.831,0,1,0,6.833,6.831A6.839,6.839,0,0,0,383.174,319.128Z" transform="translate(-374.002 -316.785)" fill="url(#linear-gradient-2)"/>
    </g>
    <g id="Group_564" data-name="Group 564">
      <path id="Path_1336" data-name="Path 1336" d="M419.834,334.882H413.51a20.654,20.654,0,0,0-20.059-20.059V308.5a.676.676,0,0,0-1.353,0v6.324a20.654,20.654,0,0,0-20.059,20.059h-6.324a.677.677,0,0,0,0,1.355h6.324A20.654,20.654,0,0,0,392.1,356.3v6.322a.676.676,0,1,0,1.353,0V356.3a20.654,20.654,0,0,0,20.059-20.059h6.324a.677.677,0,1,0,0-1.355Zm-10.425,1.355h2.749a19.311,19.311,0,0,1-18.706,18.7v-2.747a.676.676,0,1,0-1.353,0v2.747a19.307,19.307,0,0,1-18.7-18.7h2.749a.677.677,0,0,0,0-1.355h-2.749a19.307,19.307,0,0,1,18.7-18.7v2.749a.676.676,0,1,0,1.353,0v-2.749a19.311,19.311,0,0,1,18.706,18.7h-2.749a.677.677,0,0,0,0,1.355Z" transform="translate(-364.546 -307.329)" fill="url(#linear-gradient-2)"/>
      <path id="Path_1337" data-name="Path 1337" d="M393.03,364.046a1.174,1.174,0,0,1-1.17-1.172v-5.849a21.274,21.274,0,0,1-20.038-20.036h-5.849a1.171,1.171,0,0,1,0-2.343h5.849A21.276,21.276,0,0,1,391.86,314.6v-5.849a1.171,1.171,0,0,1,2.343,0V314.6a21.276,21.276,0,0,1,20.038,20.04h5.849a1.171,1.171,0,0,1,0,2.343h-5.849A21.274,21.274,0,0,1,394.2,357.024v5.849A1.174,1.174,0,0,1,393.03,364.046Zm-27.058-28.41a.181.181,0,0,0,0,.362h6.8l.017.478a20.278,20.278,0,0,0,19.58,19.578l.478.017v6.8c0,.2.361.2.363,0v-6.8l.479-.017a20.278,20.278,0,0,0,19.58-19.578l.017-.478h6.8a.181.181,0,0,0,0-.362h-6.8l-.017-.481a20.283,20.283,0,0,0-19.58-19.58l-.479-.017v-6.8c0-.2-.365-.2-.363,0v6.8l-.478.017a20.283,20.283,0,0,0-19.58,19.58l-.017.481Zm26.878,20.075-.512-.017a19.692,19.692,0,0,1-19.183-19.185l-.017-.512H376.4a.184.184,0,0,0,.184-.182.181.181,0,0,0-.184-.18h-3.258l.017-.512a19.691,19.691,0,0,1,19.183-19.185l.512-.017v3.26c0,.2.363.2.363,0v-3.26l.512.017a19.691,19.691,0,0,1,19.183,19.185l.017.512h-3.256a.181.181,0,0,0-.184.18.184.184,0,0,0,.184.182h3.256l-.017.512a19.689,19.689,0,0,1-19.183,19.183l-.512.017V352.45c0-.2-.363-.2-.363,0Zm-18.681-18.723a18.694,18.694,0,0,0,17.691,17.691V352.45a1.171,1.171,0,1,1,2.343,0v2.227a18.69,18.69,0,0,0,17.691-17.689h-2.227a1.171,1.171,0,1,1,0-2.343h2.227A18.69,18.69,0,0,0,394.2,316.954v2.229a1.171,1.171,0,1,1-2.343,0v-2.229a18.69,18.69,0,0,0-17.691,17.691H376.4a1.171,1.171,0,1,1,0,2.343Z" transform="translate(-364.802 -307.585)" fill="url(#linear-gradient-2)"/>
    </g>
  </g>
</svg>
