<svg xmlns="http://www.w3.org/2000/svg" xmlns:xlink="http://www.w3.org/1999/xlink" width="32.97" height="54.979" viewBox="0 0 32.97 54.979">
  <defs>
    <linearGradient id="linear-gradient" y1="0.5" x2="1" y2="0.5" gradientUnits="objectBoundingBox">
      <stop offset="0.415" stop-color="#dd619e"/>
      <stop offset="1" stop-color="#dd619e"/>
    </linearGradient>
    <linearGradient id="linear-gradient-3" x1="0" y1="0.5" x2="1" y2="0.5" xlink:href="#linear-gradient"/>
    <linearGradient id="linear-gradient-4" x1="0" y1="0.5" x2="1" y2="0.5" xlink:href="#linear-gradient"/>
  </defs>
  <g id="SpecializeLamp" transform="translate(0)">
    <g id="Group_547" data-name="Group 547">
      <path id="Path_1325" data-name="Path 1325" d="M444.439,217.761H429.987a2.559,2.559,0,0,1-2.556-2.556,16.418,16.418,0,0,0-3.5-9.878,16.485,16.485,0,1,1,26.422-.1,17.16,17.16,0,0,0-3.583,10.212A2.329,2.329,0,0,1,444.439,217.761Zm-7.322-36.538a15.36,15.36,0,0,0-1.653.091,14.193,14.193,0,0,0-9.708,22.636,18.679,18.679,0,0,1,3.967,11.256.266.266,0,0,0,.265.265h14.452a19.748,19.748,0,0,1,4.068-11.612,14.06,14.06,0,0,0,2.786-8.441,14.215,14.215,0,0,0-4.733-10.58A14.041,14.041,0,0,0,437.116,181.223Z" transform="translate(-420.614 -178.934)" fill="url(#linear-gradient)"/>
    </g>
    <g id="Group_548" data-name="Group 548" transform="translate(6.773 36.536)">
      <path id="Path_1326" data-name="Path 1326" d="M439.374,204.436H427.815a3.931,3.931,0,0,1,0-7.863h11.558a3.931,3.931,0,0,1,0,7.863Zm-11.558-5.572a1.641,1.641,0,1,0,0,3.281h11.558a1.641,1.641,0,0,0,0-3.281Z" transform="translate(-423.884 -196.573)" fill="url(#linear-gradient)"/>
    </g>
    <g id="Group_549" data-name="Group 549" transform="translate(6.775 42.106)">
      <path id="Path_1327" data-name="Path 1327" d="M439.375,207.123h-11.56a3.93,3.93,0,0,1,0-7.861h11.56a3.93,3.93,0,0,1,0,7.861Zm-11.56-5.57a1.639,1.639,0,0,0,0,3.279h11.56a1.639,1.639,0,0,0,0-3.279Z" transform="translate(-423.885 -199.262)" fill="url(#linear-gradient-3)"/>
    </g>
    <g id="Group_550" data-name="Group 550" transform="translate(10.464 47.675)">
      <path id="Path_1328" data-name="Path 1328" d="M431.685,209.255c-3.318,0-6.019-2.262-6.019-5.044a4.127,4.127,0,0,1,.292-1.541,1.145,1.145,0,0,1,1.063-.719h9.331a1.145,1.145,0,0,1,1.063.721,4.1,4.1,0,0,1,.292,1.539C437.707,206.993,435.006,209.255,431.685,209.255Zm-3.728-5.013c.025,1.479,1.721,2.722,3.728,2.722s3.706-1.243,3.73-2.722Z" transform="translate(-425.666 -201.951)" fill="url(#linear-gradient-4)"/>
    </g>
    <g id="Group_551" data-name="Group 551" transform="translate(10.708 16.363)">
      <path id="Path_1329" data-name="Path 1329" d="M433.85,209.3h-4.582a1.147,1.147,0,0,1-1.137-1l-2.339-18.184a1.152,1.152,0,0,1,.313-.945,1.181,1.181,0,0,1,.932-.344,4.265,4.265,0,0,0,3.612-1.549,1.149,1.149,0,0,1,.907-.445h.006a1.147,1.147,0,0,1,.905.447,4.26,4.26,0,0,0,3.612,1.547,1.146,1.146,0,0,1,1.245,1.288L434.985,208.3A1.143,1.143,0,0,1,433.85,209.3Zm-3.575-2.291h2.566l2.048-15.92a6.565,6.565,0,0,1-3.331-1.5,6.581,6.581,0,0,1-3.333,1.5Z" transform="translate(-425.784 -186.834)" fill="url(#linear-gradient)"/>
    </g>
  </g>
</svg>
