<svg id="twitter" xmlns="http://www.w3.org/2000/svg" width="55.311" height="56.236" viewBox="0 0 55.311 56.236">
  <g id="Group_56220" data-name="Group 56220" transform="translate(0 0)" opacity="0.12" style="mix-blend-mode: multiply;isolation: isolate">
    <rect id="Rectangle_2574" data-name="Rectangle 2574" width="48.483" height="48.483" rx="23.65" transform="translate(6.828 7.753)" fill="#f1f2f2" opacity="0"/>
    <rect id="Rectangle_2575" data-name="Rectangle 2575" width="48.483" height="48.483" rx="23.65" transform="translate(6.796 7.716)" fill="#f0f1f1" opacity="0.005"/>
    <rect id="Rectangle_2576" data-name="Rectangle 2576" width="48.483" height="48.483" rx="23.65" transform="translate(6.763 7.68)" fill="#eff0f0" opacity="0.009"/>
    <rect id="Rectangle_2577" data-name="Rectangle 2577" width="48.483" height="48.483" rx="23.65" transform="translate(6.731 7.643)" fill="#eeefef" opacity="0.014"/>
    <rect id="Rectangle_2578" data-name="Rectangle 2578" width="48.483" height="48.483" rx="23.65" transform="translate(6.699 7.606)" fill="#edeeee" opacity="0.019"/>
    <rect id="Rectangle_2579" data-name="Rectangle 2579" width="48.483" height="48.483" rx="23.65" transform="translate(6.666 7.569)" fill="#eceded" opacity="0.024"/>
    <rect id="Rectangle_2580" data-name="Rectangle 2580" width="48.483" height="48.483" rx="23.65" transform="translate(6.634 7.533)" fill="#ebecec" opacity="0.028"/>
    <rect id="Rectangle_2581" data-name="Rectangle 2581" width="48.483" height="48.483" rx="23.65" transform="translate(6.602 7.496)" fill="#eaebeb" opacity="0.033"/>
    <rect id="Rectangle_2582" data-name="Rectangle 2582" width="48.483" height="48.483" rx="23.65" transform="translate(6.569 7.459)" fill="#e9eaea" opacity="0.038"/>
    <rect id="Rectangle_2583" data-name="Rectangle 2583" width="48.483" height="48.483" rx="23.65" transform="translate(6.537 7.422)" fill="#e8e9e9" opacity="0.043"/>
    <rect id="Rectangle_2584" data-name="Rectangle 2584" width="48.483" height="48.483" rx="23.65" transform="translate(6.505 7.386)" fill="#e7e8e8" opacity="0.047"/>
    <rect id="Rectangle_2585" data-name="Rectangle 2585" width="48.483" height="48.483" rx="23.65" transform="translate(6.472 7.349)" fill="#e6e7e7" opacity="0.052"/>
    <rect id="Rectangle_2586" data-name="Rectangle 2586" width="48.483" height="48.483" rx="23.65" transform="translate(6.44 7.312)" fill="#e5e6e6" opacity="0.057"/>
    <rect id="Rectangle_2587" data-name="Rectangle 2587" width="48.483" height="48.483" rx="23.65" transform="translate(6.408 7.275)" fill="#e4e5e5" opacity="0.062"/>
    <rect id="Rectangle_2588" data-name="Rectangle 2588" width="48.483" height="48.483" rx="23.65" transform="translate(6.375 7.239)" fill="#e3e4e4" opacity="0.066"/>
    <rect id="Rectangle_2589" data-name="Rectangle 2589" width="48.483" height="48.483" rx="23.65" transform="translate(6.343 7.202)" fill="#e2e3e3" opacity="0.071"/>
    <rect id="Rectangle_2590" data-name="Rectangle 2590" width="48.483" height="48.483" rx="23.65" transform="translate(6.31 7.165)" fill="#e1e2e2" opacity="0.076"/>
    <rect id="Rectangle_2591" data-name="Rectangle 2591" width="48.483" height="48.483" rx="23.65" transform="translate(6.278 7.128)" fill="#e0e1e1" opacity="0.081"/>
    <rect id="Rectangle_2592" data-name="Rectangle 2592" width="48.483" height="48.483" rx="23.65" transform="translate(6.246 7.092)" fill="#dfe0e0" opacity="0.085"/>
    <rect id="Rectangle_2593" data-name="Rectangle 2593" width="48.483" height="48.483" rx="23.65" transform="translate(6.213 7.055)" fill="#dedfdf" opacity="0.09"/>
    <rect id="Rectangle_2594" data-name="Rectangle 2594" width="48.483" height="48.483" rx="23.65" transform="translate(6.181 7.018)" fill="#dddede" opacity="0.095"/>
    <rect id="Rectangle_2595" data-name="Rectangle 2595" width="48.483" height="48.483" rx="23.65" transform="translate(6.149 6.981)" fill="#dcdddd" opacity="0.1"/>
    <rect id="Rectangle_2596" data-name="Rectangle 2596" width="48.483" height="48.483" rx="23.65" transform="translate(6.116 6.945)" fill="#dcdcdc" opacity="0.104"/>
    <rect id="Rectangle_2597" data-name="Rectangle 2597" width="48.483" height="48.483" rx="23.65" transform="translate(6.084 6.908)" fill="#dbdbdb" opacity="0.109"/>
    <rect id="Rectangle_2598" data-name="Rectangle 2598" width="48.483" height="48.483" rx="23.65" transform="translate(6.052 6.871)" fill="#dadada" opacity="0.114"/>
    <rect id="Rectangle_2599" data-name="Rectangle 2599" width="48.483" height="48.483" rx="23.65" transform="translate(6.019 6.834)" fill="#d9d9d9" opacity="0.118"/>
    <rect id="Rectangle_2600" data-name="Rectangle 2600" width="48.483" height="48.483" rx="23.65" transform="translate(5.987 6.798)" fill="#d8d8d8" opacity="0.123"/>
    <rect id="Rectangle_2601" data-name="Rectangle 2601" width="48.483" height="48.483" rx="23.65" transform="translate(5.954 6.761)" fill="#d7d7d7" opacity="0.128"/>
    <rect id="Rectangle_2602" data-name="Rectangle 2602" width="48.483" height="48.483" rx="23.65" transform="translate(5.922 6.724)" fill="#d6d6d6" opacity="0.133"/>
    <rect id="Rectangle_2603" data-name="Rectangle 2603" width="48.483" height="48.483" rx="23.65" transform="translate(5.89 6.688)" fill="#d5d5d5" opacity="0.137"/>
    <rect id="Rectangle_2604" data-name="Rectangle 2604" width="48.483" height="48.483" rx="23.65" transform="translate(5.857 6.651)" fill="#d4d4d4" opacity="0.142"/>
    <rect id="Rectangle_2605" data-name="Rectangle 2605" width="48.483" height="48.483" rx="23.65" transform="translate(5.825 6.614)" fill="#d3d3d3" opacity="0.147"/>
    <rect id="Rectangle_2606" data-name="Rectangle 2606" width="48.483" height="48.483" rx="23.65" transform="translate(5.793 6.577)" fill="#d2d2d2" opacity="0.152"/>
    <rect id="Rectangle_2607" data-name="Rectangle 2607" width="48.483" height="48.483" rx="23.65" transform="translate(5.76 6.541)" fill="#d1d1d1" opacity="0.156"/>
    <rect id="Rectangle_2608" data-name="Rectangle 2608" width="48.483" height="48.483" rx="23.65" transform="translate(5.728 6.504)" fill="#d0d0d0" opacity="0.161"/>
    <rect id="Rectangle_2609" data-name="Rectangle 2609" width="48.483" height="48.483" rx="23.65" transform="translate(5.696 6.467)" fill="#cfcfcf" opacity="0.166"/>
    <rect id="Rectangle_2610" data-name="Rectangle 2610" width="48.483" height="48.483" rx="23.65" transform="translate(5.663 6.43)" fill="#cecece" opacity="0.171"/>
    <rect id="Rectangle_2611" data-name="Rectangle 2611" width="48.483" height="48.483" rx="23.65" transform="translate(5.631 6.394)" fill="#cdcdcd" opacity="0.175"/>
    <rect id="Rectangle_2612" data-name="Rectangle 2612" width="48.483" height="48.483" rx="23.65" transform="translate(5.598 6.357)" fill="#ccc" opacity="0.18"/>
    <rect id="Rectangle_2613" data-name="Rectangle 2613" width="48.483" height="48.483" rx="23.65" transform="translate(5.566 6.32)" fill="#cbcbcb" opacity="0.185"/>
    <rect id="Rectangle_2614" data-name="Rectangle 2614" width="48.483" height="48.483" rx="23.65" transform="translate(5.534 6.283)" fill="#cacaca" opacity="0.19"/>
    <rect id="Rectangle_2615" data-name="Rectangle 2615" width="48.483" height="48.483" rx="23.65" transform="translate(5.501 6.247)" fill="#c9c9c9" opacity="0.194"/>
    <rect id="Rectangle_2616" data-name="Rectangle 2616" width="48.483" height="48.483" rx="23.65" transform="translate(5.469 6.21)" fill="#c8c8c8" opacity="0.199"/>
    <rect id="Rectangle_2617" data-name="Rectangle 2617" width="48.483" height="48.483" rx="23.65" transform="translate(5.437 6.173)" fill="#c7c7c7" opacity="0.204"/>
    <rect id="Rectangle_2618" data-name="Rectangle 2618" width="48.483" height="48.483" rx="23.65" transform="translate(5.404 6.136)" fill="#c6c6c6" opacity="0.209"/>
    <rect id="Rectangle_2619" data-name="Rectangle 2619" width="48.483" height="48.483" rx="23.65" transform="translate(5.372 6.1)" fill="#c5c5c5" opacity="0.213"/>
    <rect id="Rectangle_2620" data-name="Rectangle 2620" width="48.483" height="48.483" rx="23.65" transform="translate(5.34 6.063)" fill="#c4c4c4" opacity="0.218"/>
    <rect id="Rectangle_2621" data-name="Rectangle 2621" width="48.483" height="48.483" rx="23.65" transform="translate(5.307 6.026)" fill="#c3c3c3" opacity="0.223"/>
    <rect id="Rectangle_2622" data-name="Rectangle 2622" width="48.483" height="48.483" rx="23.65" transform="translate(5.275 5.989)" fill="#c2c2c2" opacity="0.227"/>
    <rect id="Rectangle_2623" data-name="Rectangle 2623" width="48.483" height="48.483" rx="23.65" transform="translate(5.243 5.953)" fill="#c1c1c1" opacity="0.232"/>
    <rect id="Rectangle_2624" data-name="Rectangle 2624" width="48.483" height="48.483" rx="23.65" transform="translate(5.21 5.916)" fill="silver" opacity="0.237"/>
    <rect id="Rectangle_2625" data-name="Rectangle 2625" width="48.483" height="48.483" rx="23.65" transform="translate(5.178 5.879)" fill="#bfbfbf" opacity="0.242"/>
    <rect id="Rectangle_2626" data-name="Rectangle 2626" width="48.483" height="48.483" rx="23.65" transform="translate(5.145 5.842)" fill="#bebebe" opacity="0.246"/>
    <rect id="Rectangle_2627" data-name="Rectangle 2627" width="48.483" height="48.483" rx="23.65" transform="translate(5.113 5.806)" fill="#bdbdbd" opacity="0.251"/>
    <rect id="Rectangle_2628" data-name="Rectangle 2628" width="48.483" height="48.483" rx="23.65" transform="translate(5.081 5.769)" fill="#bcbcbc" opacity="0.256"/>
    <rect id="Rectangle_2629" data-name="Rectangle 2629" width="48.483" height="48.483" rx="23.65" transform="translate(5.048 5.732)" fill="#bbb" opacity="0.261"/>
    <rect id="Rectangle_2630" data-name="Rectangle 2630" width="48.483" height="48.483" rx="23.65" transform="translate(5.016 5.695)" fill="#bababa" opacity="0.265"/>
    <rect id="Rectangle_2631" data-name="Rectangle 2631" width="48.483" height="48.483" rx="23.65" transform="translate(4.984 5.659)" fill="#b9b9b9" opacity="0.27"/>
    <rect id="Rectangle_2632" data-name="Rectangle 2632" width="48.483" height="48.483" rx="23.65" transform="translate(4.951 5.622)" fill="#b8b8b8" opacity="0.275"/>
    <rect id="Rectangle_2633" data-name="Rectangle 2633" width="48.483" height="48.483" rx="23.65" transform="translate(4.919 5.585)" fill="#b7b7b7" opacity="0.28"/>
    <rect id="Rectangle_2634" data-name="Rectangle 2634" width="48.483" height="48.483" rx="23.65" transform="translate(4.887 5.548)" fill="#b6b6b6" opacity="0.284"/>
    <rect id="Rectangle_2635" data-name="Rectangle 2635" width="48.483" height="48.483" rx="23.65" transform="translate(4.854 5.512)" fill="#b5b5b5" opacity="0.289"/>
    <rect id="Rectangle_2636" data-name="Rectangle 2636" width="48.483" height="48.483" rx="23.65" transform="translate(4.822 5.475)" fill="#b4b4b4" opacity="0.294"/>
    <rect id="Rectangle_2637" data-name="Rectangle 2637" width="48.483" height="48.483" rx="23.65" transform="translate(4.789 5.438)" fill="#b3b3b3" opacity="0.299"/>
    <rect id="Rectangle_2638" data-name="Rectangle 2638" width="48.483" height="48.483" rx="23.65" transform="translate(4.757 5.401)" fill="#b3b2b2" opacity="0.303"/>
    <rect id="Rectangle_2639" data-name="Rectangle 2639" width="48.483" height="48.483" rx="23.65" transform="translate(4.725 5.365)" fill="#b2b1b1" opacity="0.308"/>
    <rect id="Rectangle_2640" data-name="Rectangle 2640" width="48.483" height="48.483" rx="23.65" transform="translate(4.692 5.328)" fill="#b1b0b0" opacity="0.313"/>
    <rect id="Rectangle_2641" data-name="Rectangle 2641" width="48.483" height="48.483" rx="23.65" transform="translate(4.66 5.291)" fill="#b0afaf" opacity="0.318"/>
    <rect id="Rectangle_2642" data-name="Rectangle 2642" width="48.483" height="48.483" rx="23.65" transform="translate(4.628 5.254)" fill="#afaeae" opacity="0.322"/>
    <rect id="Rectangle_2643" data-name="Rectangle 2643" width="48.483" height="48.483" rx="23.65" transform="translate(4.595 5.218)" fill="#aeadad" opacity="0.327"/>
    <rect id="Rectangle_2644" data-name="Rectangle 2644" width="48.483" height="48.483" rx="23.65" transform="translate(4.563 5.181)" fill="#adacac" opacity="0.332"/>
    <rect id="Rectangle_2645" data-name="Rectangle 2645" width="48.483" height="48.483" rx="23.65" transform="translate(4.531 5.144)" fill="#acabab" opacity="0.336"/>
    <rect id="Rectangle_2646" data-name="Rectangle 2646" width="48.483" height="48.483" rx="23.65" transform="translate(4.498 5.107)" fill="#abaaaa" opacity="0.341"/>
    <rect id="Rectangle_2647" data-name="Rectangle 2647" width="48.483" height="48.483" rx="23.65" transform="translate(4.466 5.071)" fill="#aaa9a9" opacity="0.346"/>
    <rect id="Rectangle_2648" data-name="Rectangle 2648" width="48.483" height="48.483" rx="23.65" transform="translate(4.433 5.034)" fill="#a9a8a8" opacity="0.351"/>
    <rect id="Rectangle_2649" data-name="Rectangle 2649" width="48.483" height="48.483" rx="23.65" transform="translate(4.401 4.997)" fill="#a8a7a7" opacity="0.355"/>
    <rect id="Rectangle_2650" data-name="Rectangle 2650" width="48.483" height="48.483" rx="23.65" transform="translate(4.369 4.961)" fill="#a7a6a6" opacity="0.36"/>
    <rect id="Rectangle_2651" data-name="Rectangle 2651" width="48.483" height="48.483" rx="23.65" transform="translate(4.336 4.924)" fill="#a6a5a5" opacity="0.365"/>
    <rect id="Rectangle_2652" data-name="Rectangle 2652" width="48.483" height="48.483" rx="23.65" transform="translate(4.304 4.887)" fill="#a5a4a4" opacity="0.37"/>
    <rect id="Rectangle_2653" data-name="Rectangle 2653" width="48.483" height="48.483" rx="23.65" transform="translate(4.272 4.85)" fill="#a4a3a3" opacity="0.374"/>
    <rect id="Rectangle_2654" data-name="Rectangle 2654" width="48.483" height="48.483" rx="23.65" transform="translate(4.239 4.814)" fill="#a3a2a2" opacity="0.379"/>
    <rect id="Rectangle_2655" data-name="Rectangle 2655" width="48.483" height="48.483" rx="23.65" transform="translate(4.207 4.777)" fill="#a2a1a1" opacity="0.384"/>
    <rect id="Rectangle_2656" data-name="Rectangle 2656" width="48.483" height="48.483" rx="23.65" transform="translate(4.175 4.74)" fill="#a1a0a0" opacity="0.389"/>
    <rect id="Rectangle_2657" data-name="Rectangle 2657" width="48.483" height="48.483" rx="23.65" transform="translate(4.142 4.703)" fill="#a09f9f" opacity="0.393"/>
    <rect id="Rectangle_2658" data-name="Rectangle 2658" width="48.483" height="48.483" rx="23.65" transform="translate(4.11 4.667)" fill="#9f9e9e" opacity="0.398"/>
    <rect id="Rectangle_2659" data-name="Rectangle 2659" width="48.483" height="48.483" rx="23.65" transform="translate(4.077 4.63)" fill="#9e9d9d" opacity="0.403"/>
    <rect id="Rectangle_2660" data-name="Rectangle 2660" width="48.483" height="48.483" rx="23.65" transform="translate(4.045 4.593)" fill="#9d9c9c" opacity="0.408"/>
    <rect id="Rectangle_2661" data-name="Rectangle 2661" width="48.483" height="48.483" rx="23.65" transform="translate(4.013 4.556)" fill="#9c9b9b" opacity="0.412"/>
    <rect id="Rectangle_2662" data-name="Rectangle 2662" width="48.483" height="48.483" rx="23.65" transform="translate(3.98 4.52)" fill="#9b9a9a" opacity="0.417"/>
    <rect id="Rectangle_2663" data-name="Rectangle 2663" width="48.483" height="48.483" rx="23.65" transform="translate(3.948 4.483)" fill="#9a9999" opacity="0.422"/>
    <rect id="Rectangle_2664" data-name="Rectangle 2664" width="48.483" height="48.483" rx="23.65" transform="translate(3.916 4.446)" fill="#999898" opacity="0.427"/>
    <rect id="Rectangle_2665" data-name="Rectangle 2665" width="48.483" height="48.483" rx="23.65" transform="translate(3.883 4.409)" fill="#989797" opacity="0.431"/>
    <rect id="Rectangle_2666" data-name="Rectangle 2666" width="48.483" height="48.483" rx="23.65" transform="translate(3.851 4.373)" fill="#979696" opacity="0.436"/>
    <rect id="Rectangle_2667" data-name="Rectangle 2667" width="48.483" height="48.483" rx="23.65" transform="translate(3.819 4.336)" fill="#969595" opacity="0.441"/>
    <rect id="Rectangle_2668" data-name="Rectangle 2668" width="48.483" height="48.483" rx="23.65" transform="translate(3.786 4.299)" fill="#959494" opacity="0.445"/>
    <rect id="Rectangle_2669" data-name="Rectangle 2669" width="48.483" height="48.483" rx="23.65" transform="translate(3.754 4.262)" fill="#949393" opacity="0.45"/>
    <rect id="Rectangle_2670" data-name="Rectangle 2670" width="48.483" height="48.483" rx="23.65" transform="translate(3.722 4.226)" fill="#939292" opacity="0.455"/>
    <rect id="Rectangle_2671" data-name="Rectangle 2671" width="48.483" height="48.483" rx="23.65" transform="translate(3.689 4.189)" fill="#929191" opacity="0.46"/>
    <rect id="Rectangle_2672" data-name="Rectangle 2672" width="48.483" height="48.483" rx="23.65" transform="translate(3.657 4.152)" fill="#919090" opacity="0.464"/>
    <rect id="Rectangle_2673" data-name="Rectangle 2673" width="48.483" height="48.483" rx="23.65" transform="translate(3.624 4.115)" fill="#908f8f" opacity="0.469"/>
    <rect id="Rectangle_2674" data-name="Rectangle 2674" width="48.483" height="48.483" rx="23.65" transform="translate(3.592 4.079)" fill="#8f8e8e" opacity="0.474"/>
    <rect id="Rectangle_2675" data-name="Rectangle 2675" width="48.483" height="48.483" rx="23.65" transform="translate(3.56 4.042)" fill="#8e8d8d" opacity="0.479"/>
    <rect id="Rectangle_2676" data-name="Rectangle 2676" width="48.483" height="48.483" rx="23.65" transform="translate(3.527 4.005)" fill="#8d8c8c" opacity="0.483"/>
    <rect id="Rectangle_2677" data-name="Rectangle 2677" width="48.483" height="48.483" rx="23.65" transform="translate(3.495 3.968)" fill="#8c8b8b" opacity="0.488"/>
    <rect id="Rectangle_2678" data-name="Rectangle 2678" width="48.483" height="48.483" rx="23.65" transform="translate(3.463 3.932)" fill="#8b8a8a" opacity="0.493"/>
    <rect id="Rectangle_2679" data-name="Rectangle 2679" width="48.483" height="48.483" rx="23.65" transform="translate(3.43 3.895)" fill="#8a8989" opacity="0.498"/>
    <rect id="Rectangle_2680" data-name="Rectangle 2680" width="48.483" height="48.483" rx="23.65" transform="translate(3.398 3.858)" fill="#8a8889" opacity="0.502"/>
    <rect id="Rectangle_2681" data-name="Rectangle 2681" width="48.483" height="48.483" rx="23.65" transform="translate(3.366 3.821)" fill="#898788" opacity="0.507"/>
    <rect id="Rectangle_2682" data-name="Rectangle 2682" width="48.483" height="48.483" rx="23.65" transform="translate(3.333 3.785)" fill="#888687" opacity="0.512"/>
    <rect id="Rectangle_2683" data-name="Rectangle 2683" width="48.483" height="48.483" rx="23.65" transform="translate(3.301 3.748)" fill="#878586" opacity="0.517"/>
    <rect id="Rectangle_2684" data-name="Rectangle 2684" width="48.483" height="48.483" rx="23.65" transform="translate(3.268 3.711)" fill="#868485" opacity="0.521"/>
    <rect id="Rectangle_2685" data-name="Rectangle 2685" width="48.483" height="48.483" rx="23.65" transform="translate(3.236 3.674)" fill="#858384" opacity="0.526"/>
    <rect id="Rectangle_2686" data-name="Rectangle 2686" width="48.483" height="48.483" rx="23.65" transform="translate(3.204 3.638)" fill="#848283" opacity="0.531"/>
    <rect id="Rectangle_2687" data-name="Rectangle 2687" width="48.483" height="48.483" rx="23.65" transform="translate(3.171 3.601)" fill="#838182" opacity="0.536"/>
    <rect id="Rectangle_2688" data-name="Rectangle 2688" width="48.483" height="48.483" rx="23.65" transform="translate(3.139 3.564)" fill="#828081" opacity="0.54"/>
    <rect id="Rectangle_2689" data-name="Rectangle 2689" width="48.483" height="48.483" rx="23.65" transform="translate(3.107 3.527)" fill="#817f80" opacity="0.545"/>
    <rect id="Rectangle_2690" data-name="Rectangle 2690" width="48.483" height="48.483" rx="23.65" transform="translate(3.074 3.491)" fill="#807e7f" opacity="0.55"/>
    <rect id="Rectangle_2691" data-name="Rectangle 2691" width="48.483" height="48.483" rx="23.65" transform="translate(3.042 3.454)" fill="#7f7d7e" opacity="0.555"/>
    <rect id="Rectangle_2692" data-name="Rectangle 2692" width="48.483" height="48.483" rx="23.65" transform="translate(3.01 3.417)" fill="#7e7c7d" opacity="0.559"/>
    <rect id="Rectangle_2693" data-name="Rectangle 2693" width="48.483" height="48.483" rx="23.65" transform="translate(2.977 3.381)" fill="#7d7b7c" opacity="0.564"/>
    <rect id="Rectangle_2694" data-name="Rectangle 2694" width="48.483" height="48.483" rx="23.65" transform="translate(2.945 3.344)" fill="#7c7a7b" opacity="0.569"/>
    <rect id="Rectangle_2695" data-name="Rectangle 2695" width="48.483" height="48.483" rx="23.65" transform="translate(2.913 3.307)" fill="#7b797a" opacity="0.573"/>
    <rect id="Rectangle_2696" data-name="Rectangle 2696" width="48.483" height="48.483" rx="23.65" transform="translate(2.88 3.27)" fill="#7a7879" opacity="0.578"/>
    <rect id="Rectangle_2697" data-name="Rectangle 2697" width="48.483" height="48.483" rx="23.65" transform="translate(2.848 3.234)" fill="#797778" opacity="0.583"/>
    <rect id="Rectangle_2698" data-name="Rectangle 2698" width="48.483" height="48.483" rx="23.65" transform="translate(2.815 3.197)" fill="#787677" opacity="0.588"/>
    <rect id="Rectangle_2699" data-name="Rectangle 2699" width="48.483" height="48.483" rx="23.65" transform="translate(2.783 3.16)" fill="#777576" opacity="0.592"/>
    <rect id="Rectangle_2700" data-name="Rectangle 2700" width="48.483" height="48.483" rx="23.65" transform="translate(2.751 3.123)" fill="#767475" opacity="0.597"/>
    <rect id="Rectangle_2701" data-name="Rectangle 2701" width="48.483" height="48.483" rx="23.65" transform="translate(2.718 3.087)" fill="#757374" opacity="0.602"/>
    <rect id="Rectangle_2702" data-name="Rectangle 2702" width="48.483" height="48.483" rx="23.65" transform="translate(2.686 3.05)" fill="#747273" opacity="0.607"/>
    <rect id="Rectangle_2703" data-name="Rectangle 2703" width="48.483" height="48.483" rx="23.65" transform="translate(2.654 3.013)" fill="#737172" opacity="0.611"/>
    <rect id="Rectangle_2704" data-name="Rectangle 2704" width="48.483" height="48.483" rx="23.65" transform="translate(2.621 2.976)" fill="#727071" opacity="0.616"/>
    <rect id="Rectangle_2705" data-name="Rectangle 2705" width="48.483" height="48.483" rx="23.65" transform="translate(2.589 2.94)" fill="#716f70" opacity="0.621"/>
    <rect id="Rectangle_2706" data-name="Rectangle 2706" width="48.483" height="48.483" rx="23.65" transform="translate(2.557 2.903)" fill="#706e6f" opacity="0.626"/>
    <rect id="Rectangle_2707" data-name="Rectangle 2707" width="48.483" height="48.483" rx="23.65" transform="translate(2.524 2.866)" fill="#6f6d6e" opacity="0.63"/>
    <rect id="Rectangle_2708" data-name="Rectangle 2708" width="48.483" height="48.483" rx="23.65" transform="translate(2.492 2.829)" fill="#6e6c6d" opacity="0.635"/>
    <rect id="Rectangle_2709" data-name="Rectangle 2709" width="48.483" height="48.483" rx="23.65" transform="translate(2.459 2.793)" fill="#6d6b6c" opacity="0.64"/>
    <rect id="Rectangle_2710" data-name="Rectangle 2710" width="48.483" height="48.483" rx="23.65" transform="translate(2.427 2.756)" fill="#6c6a6b" opacity="0.645"/>
    <rect id="Rectangle_2711" data-name="Rectangle 2711" width="48.483" height="48.483" rx="23.65" transform="translate(2.395 2.719)" fill="#6b696a" opacity="0.649"/>
    <rect id="Rectangle_2712" data-name="Rectangle 2712" width="48.483" height="48.483" rx="23.65" transform="translate(2.362 2.682)" fill="#6a6869" opacity="0.654"/>
    <rect id="Rectangle_2713" data-name="Rectangle 2713" width="48.483" height="48.483" rx="23.65" transform="translate(2.33 2.646)" fill="#696768" opacity="0.659"/>
    <rect id="Rectangle_2714" data-name="Rectangle 2714" width="48.483" height="48.483" rx="23.65" transform="translate(2.298 2.609)" fill="#686667" opacity="0.664"/>
    <rect id="Rectangle_2715" data-name="Rectangle 2715" width="48.483" height="48.483" rx="23.65" transform="translate(2.265 2.572)" fill="#676566" opacity="0.668"/>
    <rect id="Rectangle_2716" data-name="Rectangle 2716" width="48.483" height="48.483" rx="23.65" transform="translate(2.233 2.535)" fill="#666465" opacity="0.673"/>
    <rect id="Rectangle_2717" data-name="Rectangle 2717" width="48.483" height="48.483" rx="23.65" transform="translate(2.201 2.499)" fill="#656364" opacity="0.678"/>
    <rect id="Rectangle_2718" data-name="Rectangle 2718" width="48.483" height="48.483" rx="23.65" transform="translate(2.168 2.462)" fill="#646263" opacity="0.682"/>
    <rect id="Rectangle_2719" data-name="Rectangle 2719" width="48.483" height="48.483" rx="23.65" transform="translate(2.136 2.425)" fill="#636162" opacity="0.687"/>
    <rect id="Rectangle_2720" data-name="Rectangle 2720" width="48.483" height="48.483" rx="23.65" transform="translate(2.103 2.388)" fill="#626061" opacity="0.692"/>
    <rect id="Rectangle_2721" data-name="Rectangle 2721" width="48.483" height="48.483" rx="23.65" transform="translate(2.071 2.352)" fill="#615f60" opacity="0.697"/>
    <rect id="Rectangle_2722" data-name="Rectangle 2722" width="48.483" height="48.483" rx="23.65" transform="translate(2.039 2.315)" fill="#615e5f" opacity="0.701"/>
    <rect id="Rectangle_2723" data-name="Rectangle 2723" width="48.483" height="48.483" rx="23.65" transform="translate(2.006 2.278)" fill="#605d5e" opacity="0.706"/>
    <rect id="Rectangle_2724" data-name="Rectangle 2724" width="48.483" height="48.483" rx="23.65" transform="translate(1.974 2.241)" fill="#5f5c5d" opacity="0.711"/>
    <rect id="Rectangle_2725" data-name="Rectangle 2725" width="48.483" height="48.483" rx="23.65" transform="translate(1.942 2.205)" fill="#5e5b5c" opacity="0.716"/>
    <rect id="Rectangle_2726" data-name="Rectangle 2726" width="48.483" height="48.483" rx="23.65" transform="translate(1.909 2.168)" fill="#5d5a5b" opacity="0.72"/>
    <rect id="Rectangle_2727" data-name="Rectangle 2727" width="48.483" height="48.483" rx="23.65" transform="translate(1.877 2.131)" fill="#5c595a" opacity="0.725"/>
    <rect id="Rectangle_2728" data-name="Rectangle 2728" width="48.483" height="48.483" rx="23.65" transform="translate(1.845 2.094)" fill="#5b5859" opacity="0.73"/>
    <rect id="Rectangle_2729" data-name="Rectangle 2729" width="48.483" height="48.483" rx="23.65" transform="translate(1.812 2.058)" fill="#5a5758" opacity="0.735"/>
    <rect id="Rectangle_2730" data-name="Rectangle 2730" width="48.483" height="48.483" rx="23.65" transform="translate(1.78 2.021)" fill="#595657" opacity="0.739"/>
    <rect id="Rectangle_2731" data-name="Rectangle 2731" width="48.483" height="48.483" rx="23.65" transform="translate(1.747 1.984)" fill="#585556" opacity="0.744"/>
    <rect id="Rectangle_2732" data-name="Rectangle 2732" width="48.483" height="48.483" rx="23.65" transform="translate(1.715 1.947)" fill="#575455" opacity="0.749"/>
    <rect id="Rectangle_2733" data-name="Rectangle 2733" width="48.483" height="48.483" rx="23.65" transform="translate(1.683 1.911)" fill="#565354" opacity="0.754"/>
    <rect id="Rectangle_2734" data-name="Rectangle 2734" width="48.483" height="48.483" rx="23.65" transform="translate(1.65 1.874)" fill="#555253" opacity="0.758"/>
    <rect id="Rectangle_2735" data-name="Rectangle 2735" width="48.483" height="48.483" rx="23.65" transform="translate(1.618 1.837)" fill="#545152" opacity="0.763"/>
    <rect id="Rectangle_2736" data-name="Rectangle 2736" width="48.483" height="48.483" rx="23.65" transform="translate(1.586 1.8)" fill="#535051" opacity="0.768"/>
    <rect id="Rectangle_2737" data-name="Rectangle 2737" width="48.483" height="48.483" rx="23.65" transform="translate(1.553 1.764)" fill="#524f50" opacity="0.773"/>
    <rect id="Rectangle_2738" data-name="Rectangle 2738" width="48.483" height="48.483" rx="23.65" transform="translate(1.521 1.727)" fill="#514e4f" opacity="0.777"/>
    <rect id="Rectangle_2739" data-name="Rectangle 2739" width="48.483" height="48.483" rx="23.65" transform="translate(1.489 1.69)" fill="#504d4e" opacity="0.782"/>
    <rect id="Rectangle_2740" data-name="Rectangle 2740" width="48.483" height="48.483" rx="23.65" transform="translate(1.456 1.654)" fill="#4f4c4d" opacity="0.787"/>
    <rect id="Rectangle_2741" data-name="Rectangle 2741" width="48.483" height="48.483" rx="23.65" transform="translate(1.424 1.617)" fill="#4e4b4c" opacity="0.791"/>
    <rect id="Rectangle_2742" data-name="Rectangle 2742" width="48.483" height="48.483" rx="23.65" transform="translate(1.392 1.58)" fill="#4d4a4b" opacity="0.796"/>
    <rect id="Rectangle_2743" data-name="Rectangle 2743" width="48.483" height="48.483" rx="23.65" transform="translate(1.359 1.543)" fill="#4c494a" opacity="0.801"/>
    <rect id="Rectangle_2744" data-name="Rectangle 2744" width="48.483" height="48.483" rx="23.65" transform="translate(1.327 1.507)" fill="#4b4849" opacity="0.806"/>
    <rect id="Rectangle_2745" data-name="Rectangle 2745" width="48.483" height="48.483" rx="23.65" transform="translate(1.294 1.47)" fill="#4a4748" opacity="0.81"/>
    <rect id="Rectangle_2746" data-name="Rectangle 2746" width="48.483" height="48.483" rx="23.65" transform="translate(1.262 1.433)" fill="#494647" opacity="0.815"/>
    <rect id="Rectangle_2747" data-name="Rectangle 2747" width="48.483" height="48.483" rx="23.65" transform="translate(1.23 1.396)" fill="#484546" opacity="0.82"/>
    <rect id="Rectangle_2748" data-name="Rectangle 2748" width="48.483" height="48.483" rx="23.65" transform="translate(1.197 1.36)" fill="#474445" opacity="0.825"/>
    <rect id="Rectangle_2749" data-name="Rectangle 2749" width="48.483" height="48.483" rx="23.65" transform="translate(1.165 1.323)" fill="#464344" opacity="0.829"/>
    <rect id="Rectangle_2750" data-name="Rectangle 2750" width="48.483" height="48.483" rx="23.65" transform="translate(1.133 1.286)" fill="#454243" opacity="0.834"/>
    <rect id="Rectangle_2751" data-name="Rectangle 2751" width="48.483" height="48.483" rx="23.65" transform="translate(1.1 1.249)" fill="#444142" opacity="0.839"/>
    <rect id="Rectangle_2752" data-name="Rectangle 2752" width="48.483" height="48.483" rx="23.65" transform="translate(1.068 1.213)" fill="#434041" opacity="0.844"/>
    <rect id="Rectangle_2753" data-name="Rectangle 2753" width="48.483" height="48.483" rx="23.65" transform="translate(1.036 1.176)" fill="#423f40" opacity="0.848"/>
    <rect id="Rectangle_2754" data-name="Rectangle 2754" width="48.483" height="48.483" rx="23.65" transform="translate(1.003 1.139)" fill="#413e3f" opacity="0.853"/>
    <rect id="Rectangle_2755" data-name="Rectangle 2755" width="48.483" height="48.483" rx="23.65" transform="translate(0.971 1.102)" fill="#403d3e" opacity="0.858"/>
    <rect id="Rectangle_2756" data-name="Rectangle 2756" width="48.483" height="48.483" rx="23.65" transform="translate(0.938 1.066)" fill="#3f3c3d" opacity="0.863"/>
    <rect id="Rectangle_2757" data-name="Rectangle 2757" width="48.483" height="48.483" rx="23.65" transform="translate(0.906 1.029)" fill="#3e3b3c" opacity="0.867"/>
    <rect id="Rectangle_2758" data-name="Rectangle 2758" width="48.483" height="48.483" rx="23.65" transform="translate(0.874 0.992)" fill="#3d3a3b" opacity="0.872"/>
    <rect id="Rectangle_2759" data-name="Rectangle 2759" width="48.483" height="48.483" rx="23.65" transform="translate(0.841 0.955)" fill="#3c393a" opacity="0.877"/>
    <rect id="Rectangle_2760" data-name="Rectangle 2760" width="48.483" height="48.483" rx="23.65" transform="translate(0.809 0.919)" fill="#3b3839" opacity="0.882"/>
    <rect id="Rectangle_2761" data-name="Rectangle 2761" width="48.483" height="48.483" rx="23.65" transform="translate(0.777 0.882)" fill="#3a3738" opacity="0.886"/>
    <rect id="Rectangle_2762" data-name="Rectangle 2762" width="48.483" height="48.483" rx="23.65" transform="translate(0.744 0.845)" fill="#393637" opacity="0.891"/>
    <rect id="Rectangle_2763" data-name="Rectangle 2763" width="48.483" height="48.483" rx="23.65" transform="translate(0.712 0.808)" fill="#383536" opacity="0.896"/>
    <rect id="Rectangle_2764" data-name="Rectangle 2764" width="48.483" height="48.483" rx="23.65" transform="translate(0.68 0.772)" fill="#383435" opacity="0.9"/>
    <rect id="Rectangle_2765" data-name="Rectangle 2765" width="48.483" height="48.483" rx="23.65" transform="translate(0.647 0.735)" fill="#373334" opacity="0.905"/>
    <rect id="Rectangle_2766" data-name="Rectangle 2766" width="48.483" height="48.483" rx="23.65" transform="translate(0.615 0.698)" fill="#363233" opacity="0.91"/>
    <rect id="Rectangle_2767" data-name="Rectangle 2767" width="48.483" height="48.483" rx="23.65" transform="translate(0.582 0.661)" fill="#353132" opacity="0.915"/>
    <rect id="Rectangle_2768" data-name="Rectangle 2768" width="48.483" height="48.483" rx="23.65" transform="translate(0.55 0.625)" fill="#343031" opacity="0.919"/>
    <rect id="Rectangle_2769" data-name="Rectangle 2769" width="48.483" height="48.483" rx="23.65" transform="translate(0.518 0.588)" fill="#332f30" opacity="0.924"/>
    <rect id="Rectangle_2770" data-name="Rectangle 2770" width="48.483" height="48.483" rx="23.65" transform="translate(0.485 0.551)" fill="#322e2f" opacity="0.929"/>
    <rect id="Rectangle_2771" data-name="Rectangle 2771" width="48.483" height="48.483" rx="23.65" transform="translate(0.453 0.514)" fill="#312d2e" opacity="0.934"/>
    <rect id="Rectangle_2772" data-name="Rectangle 2772" width="48.483" height="48.483" rx="23.65" transform="translate(0.421 0.478)" fill="#302c2d" opacity="0.938"/>
    <rect id="Rectangle_2773" data-name="Rectangle 2773" width="48.483" height="48.483" rx="23.65" transform="translate(0.388 0.441)" fill="#2f2b2c" opacity="0.943"/>
    <rect id="Rectangle_2774" data-name="Rectangle 2774" width="48.483" height="48.483" rx="23.65" transform="translate(0.356 0.404)" fill="#2e2a2b" opacity="0.948"/>
    <rect id="Rectangle_2775" data-name="Rectangle 2775" width="48.483" height="48.483" rx="23.65" transform="translate(0.324 0.367)" fill="#2d292a" opacity="0.953"/>
    <rect id="Rectangle_2776" data-name="Rectangle 2776" width="48.483" height="48.483" rx="23.65" transform="translate(0.291 0.331)" fill="#2c2829" opacity="0.957"/>
    <rect id="Rectangle_2777" data-name="Rectangle 2777" width="48.483" height="48.483" rx="23.65" transform="translate(0.259 0.294)" fill="#2b2728" opacity="0.962"/>
    <rect id="Rectangle_2778" data-name="Rectangle 2778" width="48.483" height="48.483" rx="23.65" transform="translate(0.227 0.257)" fill="#2a2627" opacity="0.967"/>
    <rect id="Rectangle_2779" data-name="Rectangle 2779" width="48.483" height="48.483" rx="23.65" transform="translate(0.194 0.22)" fill="#292526" opacity="0.972"/>
    <rect id="Rectangle_2780" data-name="Rectangle 2780" width="48.483" height="48.483" rx="23.65" transform="translate(0.162 0.184)" fill="#282425" opacity="0.976"/>
    <rect id="Rectangle_2781" data-name="Rectangle 2781" width="48.483" height="48.483" rx="23.65" transform="translate(0.129 0.147)" fill="#272324" opacity="0.981"/>
    <rect id="Rectangle_2782" data-name="Rectangle 2782" width="48.483" height="48.483" rx="23.65" transform="translate(0.097 0.11)" fill="#262223" opacity="0.986"/>
    <rect id="Rectangle_2783" data-name="Rectangle 2783" width="48.483" height="48.483" rx="23.65" transform="translate(0.065 0.074)" fill="#252122" opacity="0.991"/>
    <rect id="Rectangle_2784" data-name="Rectangle 2784" width="48.483" height="48.483" rx="23.65" transform="translate(0.032 0.037)" fill="#242021" opacity="0.995"/>
    <rect id="Rectangle_2785" data-name="Rectangle 2785" width="48.483" height="48.483" rx="23.65" fill="#231f20"/>
  </g>
  <g id="Group_56221" data-name="Group 56221" transform="translate(0 0)">
    <rect id="Rectangle_2786" data-name="Rectangle 2786" width="48.483" height="48.483" rx="23.65" fill="#1da1f2"/>
    <path id="Path_10427" data-name="Path 10427" d="M695.367,183.065a6.478,6.478,0,0,0-4.951-2.078c-3.729.122-7.193,2.4-6.792,8.252,0,0-5.616,1.711-14.357-6.6,0,0-2.812,4.584,2.16,8.9a4.641,4.641,0,0,1-3.26-.652s-1,3.871,5.4,6.805c0,0-2.16.611-3.138,0,0,0,.57,4.116,6.316,5.094,0,0-2.954,2.934-9.943,2.853,0,0,14.533,7.438,24.61-2.12a20.525,20.525,0,0,0,6.2-15.933,6.419,6.419,0,0,0,3.382-2.954,13.225,13.225,0,0,1-3.79.632s2.649-1.653,2.853-3.608A8.076,8.076,0,0,1,695.367,183.065Z" transform="translate(-659.654 -170.449)" fill="#f3f7f7"/>
  </g>
</svg>
