<svg id="whatsapp" xmlns="http://www.w3.org/2000/svg" width="55.311" height="56.942" viewBox="0 0 55.311 56.942">
  <g id="Group_56223" data-name="Group 56223" transform="translate(0 0.706)" opacity="0.13" style="mix-blend-mode: multiply;isolation: isolate">
    <rect id="Rectangle_2787" data-name="Rectangle 2787" width="48.483" height="48.483" rx="23.65" transform="translate(6.828 7.753)" fill="#f1f2f2" opacity="0"/>
    <rect id="Rectangle_2788" data-name="Rectangle 2788" width="48.483" height="48.483" rx="23.65" transform="translate(6.796 7.716)" fill="#f0f1f1" opacity="0.005"/>
    <rect id="Rectangle_2789" data-name="Rectangle 2789" width="48.483" height="48.483" rx="23.65" transform="translate(6.764 7.68)" fill="#eff0f0" opacity="0.009"/>
    <rect id="Rectangle_2790" data-name="Rectangle 2790" width="48.483" height="48.483" rx="23.65" transform="translate(6.731 7.643)" fill="#eeefef" opacity="0.014"/>
    <rect id="Rectangle_2791" data-name="Rectangle 2791" width="48.483" height="48.483" rx="23.65" transform="translate(6.699 7.606)" fill="#edeeee" opacity="0.019"/>
    <rect id="Rectangle_2792" data-name="Rectangle 2792" width="48.483" height="48.483" rx="23.65" transform="translate(6.666 7.569)" fill="#eceded" opacity="0.024"/>
    <rect id="Rectangle_2793" data-name="Rectangle 2793" width="48.483" height="48.483" rx="23.65" transform="translate(6.634 7.533)" fill="#ebecec" opacity="0.028"/>
    <rect id="Rectangle_2794" data-name="Rectangle 2794" width="48.483" height="48.483" rx="23.65" transform="translate(6.602 7.496)" fill="#eaebeb" opacity="0.033"/>
    <rect id="Rectangle_2795" data-name="Rectangle 2795" width="48.483" height="48.483" rx="23.65" transform="translate(6.569 7.459)" fill="#e9eaea" opacity="0.038"/>
    <rect id="Rectangle_2796" data-name="Rectangle 2796" width="48.483" height="48.483" rx="23.65" transform="translate(6.537 7.422)" fill="#e8e9e9" opacity="0.043"/>
    <rect id="Rectangle_2797" data-name="Rectangle 2797" width="48.483" height="48.483" rx="23.65" transform="translate(6.505 7.386)" fill="#e7e8e8" opacity="0.047"/>
    <rect id="Rectangle_2798" data-name="Rectangle 2798" width="48.483" height="48.483" rx="23.65" transform="translate(6.472 7.349)" fill="#e6e7e7" opacity="0.052"/>
    <rect id="Rectangle_2799" data-name="Rectangle 2799" width="48.483" height="48.483" rx="23.65" transform="translate(6.44 7.312)" fill="#e5e6e6" opacity="0.057"/>
    <rect id="Rectangle_2800" data-name="Rectangle 2800" width="48.483" height="48.483" rx="23.65" transform="translate(6.408 7.275)" fill="#e4e5e5" opacity="0.062"/>
    <rect id="Rectangle_2801" data-name="Rectangle 2801" width="48.483" height="48.483" rx="23.65" transform="translate(6.375 7.239)" fill="#e3e4e4" opacity="0.066"/>
    <rect id="Rectangle_2802" data-name="Rectangle 2802" width="48.483" height="48.483" rx="23.65" transform="translate(6.343 7.202)" fill="#e2e3e3" opacity="0.071"/>
    <rect id="Rectangle_2803" data-name="Rectangle 2803" width="48.483" height="48.483" rx="23.65" transform="translate(6.31 7.165)" fill="#e1e2e2" opacity="0.076"/>
    <rect id="Rectangle_2804" data-name="Rectangle 2804" width="48.483" height="48.483" rx="23.65" transform="translate(6.278 7.128)" fill="#e0e1e1" opacity="0.081"/>
    <rect id="Rectangle_2805" data-name="Rectangle 2805" width="48.483" height="48.483" rx="23.65" transform="translate(6.246 7.092)" fill="#dfe0e0" opacity="0.085"/>
    <rect id="Rectangle_2806" data-name="Rectangle 2806" width="48.483" height="48.483" rx="23.65" transform="translate(6.213 7.055)" fill="#dedfdf" opacity="0.09"/>
    <rect id="Rectangle_2807" data-name="Rectangle 2807" width="48.483" height="48.483" rx="23.65" transform="translate(6.181 7.018)" fill="#dddede" opacity="0.095"/>
    <rect id="Rectangle_2808" data-name="Rectangle 2808" width="48.483" height="48.483" rx="23.65" transform="translate(6.149 6.981)" fill="#dcdddd" opacity="0.1"/>
    <rect id="Rectangle_2809" data-name="Rectangle 2809" width="48.483" height="48.483" rx="23.65" transform="translate(6.116 6.945)" fill="#dcdcdc" opacity="0.104"/>
    <rect id="Rectangle_2810" data-name="Rectangle 2810" width="48.483" height="48.483" rx="23.65" transform="translate(6.084 6.908)" fill="#dbdbdb" opacity="0.109"/>
    <rect id="Rectangle_2811" data-name="Rectangle 2811" width="48.483" height="48.483" rx="23.65" transform="translate(6.052 6.871)" fill="#dadada" opacity="0.114"/>
    <rect id="Rectangle_2812" data-name="Rectangle 2812" width="48.483" height="48.483" rx="23.65" transform="translate(6.019 6.834)" fill="#d9d9d9" opacity="0.118"/>
    <rect id="Rectangle_2813" data-name="Rectangle 2813" width="48.483" height="48.483" rx="23.65" transform="translate(5.987 6.798)" fill="#d8d8d8" opacity="0.123"/>
    <rect id="Rectangle_2814" data-name="Rectangle 2814" width="48.483" height="48.483" rx="23.65" transform="translate(5.954 6.761)" fill="#d7d7d7" opacity="0.128"/>
    <rect id="Rectangle_2815" data-name="Rectangle 2815" width="48.483" height="48.483" rx="23.65" transform="translate(5.922 6.724)" fill="#d6d6d6" opacity="0.133"/>
    <rect id="Rectangle_2816" data-name="Rectangle 2816" width="48.483" height="48.483" rx="23.65" transform="translate(5.89 6.687)" fill="#d5d5d5" opacity="0.137"/>
    <rect id="Rectangle_2817" data-name="Rectangle 2817" width="48.483" height="48.483" rx="23.65" transform="translate(5.857 6.651)" fill="#d4d4d4" opacity="0.142"/>
    <rect id="Rectangle_2818" data-name="Rectangle 2818" width="48.483" height="48.483" rx="23.65" transform="translate(5.825 6.614)" fill="#d3d3d3" opacity="0.147"/>
    <rect id="Rectangle_2819" data-name="Rectangle 2819" width="48.483" height="48.483" rx="23.65" transform="translate(5.793 6.577)" fill="#d2d2d2" opacity="0.152"/>
    <rect id="Rectangle_2820" data-name="Rectangle 2820" width="48.483" height="48.483" rx="23.65" transform="translate(5.76 6.541)" fill="#d1d1d1" opacity="0.156"/>
    <rect id="Rectangle_2821" data-name="Rectangle 2821" width="48.483" height="48.483" rx="23.65" transform="translate(5.728 6.504)" fill="#d0d0d0" opacity="0.161"/>
    <rect id="Rectangle_2822" data-name="Rectangle 2822" width="48.483" height="48.483" rx="23.65" transform="translate(5.696 6.467)" fill="#cfcfcf" opacity="0.166"/>
    <rect id="Rectangle_2823" data-name="Rectangle 2823" width="48.483" height="48.483" rx="23.65" transform="translate(5.663 6.43)" fill="#cecece" opacity="0.171"/>
    <rect id="Rectangle_2824" data-name="Rectangle 2824" width="48.483" height="48.483" rx="23.65" transform="translate(5.631 6.394)" fill="#cdcdcd" opacity="0.175"/>
    <rect id="Rectangle_2825" data-name="Rectangle 2825" width="48.483" height="48.483" rx="23.65" transform="translate(5.599 6.357)" fill="#ccc" opacity="0.18"/>
    <rect id="Rectangle_2826" data-name="Rectangle 2826" width="48.483" height="48.483" rx="23.65" transform="translate(5.566 6.32)" fill="#cbcbcb" opacity="0.185"/>
    <rect id="Rectangle_2827" data-name="Rectangle 2827" width="48.483" height="48.483" rx="23.65" transform="translate(5.534 6.283)" fill="#cacaca" opacity="0.19"/>
    <rect id="Rectangle_2828" data-name="Rectangle 2828" width="48.483" height="48.483" rx="23.65" transform="translate(5.501 6.247)" fill="#c9c9c9" opacity="0.194"/>
    <rect id="Rectangle_2829" data-name="Rectangle 2829" width="48.483" height="48.483" rx="23.65" transform="translate(5.469 6.21)" fill="#c8c8c8" opacity="0.199"/>
    <rect id="Rectangle_2830" data-name="Rectangle 2830" width="48.483" height="48.483" rx="23.65" transform="translate(5.437 6.173)" fill="#c7c7c7" opacity="0.204"/>
    <rect id="Rectangle_2831" data-name="Rectangle 2831" width="48.483" height="48.483" rx="23.65" transform="translate(5.404 6.136)" fill="#c6c6c6" opacity="0.209"/>
    <rect id="Rectangle_2832" data-name="Rectangle 2832" width="48.483" height="48.483" rx="23.65" transform="translate(5.372 6.1)" fill="#c5c5c5" opacity="0.213"/>
    <rect id="Rectangle_2833" data-name="Rectangle 2833" width="48.483" height="48.483" rx="23.65" transform="translate(5.34 6.063)" fill="#c4c4c4" opacity="0.218"/>
    <rect id="Rectangle_2834" data-name="Rectangle 2834" width="48.483" height="48.483" rx="23.65" transform="translate(5.307 6.026)" fill="#c3c3c3" opacity="0.223"/>
    <rect id="Rectangle_2835" data-name="Rectangle 2835" width="48.483" height="48.483" rx="23.65" transform="translate(5.275 5.989)" fill="#c2c2c2" opacity="0.227"/>
    <rect id="Rectangle_2836" data-name="Rectangle 2836" width="48.483" height="48.483" rx="23.65" transform="translate(5.243 5.953)" fill="#c1c1c1" opacity="0.232"/>
    <rect id="Rectangle_2837" data-name="Rectangle 2837" width="48.483" height="48.483" rx="23.65" transform="translate(5.21 5.916)" fill="silver" opacity="0.237"/>
    <rect id="Rectangle_2838" data-name="Rectangle 2838" width="48.483" height="48.483" rx="23.65" transform="translate(5.178 5.879)" fill="#bfbfbf" opacity="0.242"/>
    <rect id="Rectangle_2839" data-name="Rectangle 2839" width="48.483" height="48.483" rx="23.65" transform="translate(5.145 5.842)" fill="#bebebe" opacity="0.246"/>
    <rect id="Rectangle_2840" data-name="Rectangle 2840" width="48.483" height="48.483" rx="23.65" transform="translate(5.113 5.806)" fill="#bdbdbd" opacity="0.251"/>
    <rect id="Rectangle_2841" data-name="Rectangle 2841" width="48.483" height="48.483" rx="23.65" transform="translate(5.081 5.769)" fill="#bcbcbc" opacity="0.256"/>
    <rect id="Rectangle_2842" data-name="Rectangle 2842" width="48.483" height="48.483" rx="23.65" transform="translate(5.048 5.732)" fill="#bbb" opacity="0.261"/>
    <rect id="Rectangle_2843" data-name="Rectangle 2843" width="48.483" height="48.483" rx="23.65" transform="translate(5.016 5.695)" fill="#bababa" opacity="0.265"/>
    <rect id="Rectangle_2844" data-name="Rectangle 2844" width="48.483" height="48.483" rx="23.65" transform="translate(4.984 5.659)" fill="#b9b9b9" opacity="0.27"/>
    <rect id="Rectangle_2845" data-name="Rectangle 2845" width="48.483" height="48.483" rx="23.65" transform="translate(4.951 5.622)" fill="#b8b8b8" opacity="0.275"/>
    <rect id="Rectangle_2846" data-name="Rectangle 2846" width="48.483" height="48.483" rx="23.65" transform="translate(4.919 5.585)" fill="#b7b7b7" opacity="0.28"/>
    <rect id="Rectangle_2847" data-name="Rectangle 2847" width="48.483" height="48.483" rx="23.65" transform="translate(4.887 5.548)" fill="#b6b6b6" opacity="0.284"/>
    <rect id="Rectangle_2848" data-name="Rectangle 2848" width="48.483" height="48.483" rx="23.65" transform="translate(4.854 5.512)" fill="#b5b5b5" opacity="0.289"/>
    <rect id="Rectangle_2849" data-name="Rectangle 2849" width="48.483" height="48.483" rx="23.65" transform="translate(4.822 5.475)" fill="#b4b4b4" opacity="0.294"/>
    <rect id="Rectangle_2850" data-name="Rectangle 2850" width="48.483" height="48.483" rx="23.65" transform="translate(4.789 5.438)" fill="#b3b3b3" opacity="0.299"/>
    <rect id="Rectangle_2851" data-name="Rectangle 2851" width="48.483" height="48.483" rx="23.65" transform="translate(4.757 5.401)" fill="#b3b2b2" opacity="0.303"/>
    <rect id="Rectangle_2852" data-name="Rectangle 2852" width="48.483" height="48.483" rx="23.65" transform="translate(4.725 5.365)" fill="#b2b1b1" opacity="0.308"/>
    <rect id="Rectangle_2853" data-name="Rectangle 2853" width="48.483" height="48.483" rx="23.65" transform="translate(4.692 5.328)" fill="#b1b0b0" opacity="0.313"/>
    <rect id="Rectangle_2854" data-name="Rectangle 2854" width="48.483" height="48.483" rx="23.65" transform="translate(4.66 5.291)" fill="#b0afaf" opacity="0.318"/>
    <rect id="Rectangle_2855" data-name="Rectangle 2855" width="48.483" height="48.483" rx="23.65" transform="translate(4.628 5.254)" fill="#afaeae" opacity="0.322"/>
    <rect id="Rectangle_2856" data-name="Rectangle 2856" width="48.483" height="48.483" rx="23.65" transform="translate(4.595 5.218)" fill="#aeadad" opacity="0.327"/>
    <rect id="Rectangle_2857" data-name="Rectangle 2857" width="48.483" height="48.483" rx="23.65" transform="translate(4.563 5.181)" fill="#adacac" opacity="0.332"/>
    <rect id="Rectangle_2858" data-name="Rectangle 2858" width="48.483" height="48.483" rx="23.65" transform="translate(4.531 5.144)" fill="#acabab" opacity="0.336"/>
    <rect id="Rectangle_2859" data-name="Rectangle 2859" width="48.483" height="48.483" rx="23.65" transform="translate(4.498 5.107)" fill="#abaaaa" opacity="0.341"/>
    <rect id="Rectangle_2860" data-name="Rectangle 2860" width="48.483" height="48.483" rx="23.65" transform="translate(4.466 5.071)" fill="#aaa9a9" opacity="0.346"/>
    <rect id="Rectangle_2861" data-name="Rectangle 2861" width="48.483" height="48.483" rx="23.65" transform="translate(4.434 5.034)" fill="#a9a8a8" opacity="0.351"/>
    <rect id="Rectangle_2862" data-name="Rectangle 2862" width="48.483" height="48.483" rx="23.65" transform="translate(4.401 4.997)" fill="#a8a7a7" opacity="0.355"/>
    <rect id="Rectangle_2863" data-name="Rectangle 2863" width="48.483" height="48.483" rx="23.65" transform="translate(4.369 4.961)" fill="#a7a6a6" opacity="0.36"/>
    <rect id="Rectangle_2864" data-name="Rectangle 2864" width="48.483" height="48.483" rx="23.65" transform="translate(4.336 4.924)" fill="#a6a5a5" opacity="0.365"/>
    <rect id="Rectangle_2865" data-name="Rectangle 2865" width="48.483" height="48.483" rx="23.65" transform="translate(4.304 4.887)" fill="#a5a4a4" opacity="0.37"/>
    <rect id="Rectangle_2866" data-name="Rectangle 2866" width="48.483" height="48.483" rx="23.65" transform="translate(4.272 4.85)" fill="#a4a3a3" opacity="0.374"/>
    <rect id="Rectangle_2867" data-name="Rectangle 2867" width="48.483" height="48.483" rx="23.65" transform="translate(4.239 4.814)" fill="#a3a2a2" opacity="0.379"/>
    <rect id="Rectangle_2868" data-name="Rectangle 2868" width="48.483" height="48.483" rx="23.65" transform="translate(4.207 4.777)" fill="#a2a1a1" opacity="0.384"/>
    <rect id="Rectangle_2869" data-name="Rectangle 2869" width="48.483" height="48.483" rx="23.65" transform="translate(4.175 4.74)" fill="#a1a0a0" opacity="0.389"/>
    <rect id="Rectangle_2870" data-name="Rectangle 2870" width="48.483" height="48.483" rx="23.65" transform="translate(4.142 4.703)" fill="#a09f9f" opacity="0.393"/>
    <rect id="Rectangle_2871" data-name="Rectangle 2871" width="48.483" height="48.483" rx="23.65" transform="translate(4.11 4.667)" fill="#9f9e9e" opacity="0.398"/>
    <rect id="Rectangle_2872" data-name="Rectangle 2872" width="48.483" height="48.483" rx="23.65" transform="translate(4.078 4.63)" fill="#9e9d9d" opacity="0.403"/>
    <rect id="Rectangle_2873" data-name="Rectangle 2873" width="48.483" height="48.483" rx="23.65" transform="translate(4.045 4.593)" fill="#9d9c9c" opacity="0.408"/>
    <rect id="Rectangle_2874" data-name="Rectangle 2874" width="48.483" height="48.483" rx="23.65" transform="translate(4.013 4.556)" fill="#9c9b9b" opacity="0.412"/>
    <rect id="Rectangle_2875" data-name="Rectangle 2875" width="48.483" height="48.483" rx="23.65" transform="translate(3.98 4.52)" fill="#9b9a9a" opacity="0.417"/>
    <rect id="Rectangle_2876" data-name="Rectangle 2876" width="48.483" height="48.483" rx="23.65" transform="translate(3.948 4.483)" fill="#9a9999" opacity="0.422"/>
    <rect id="Rectangle_2877" data-name="Rectangle 2877" width="48.483" height="48.483" rx="23.65" transform="translate(3.916 4.446)" fill="#999898" opacity="0.427"/>
    <rect id="Rectangle_2878" data-name="Rectangle 2878" width="48.483" height="48.483" rx="23.65" transform="translate(3.883 4.409)" fill="#989797" opacity="0.431"/>
    <rect id="Rectangle_2879" data-name="Rectangle 2879" width="48.483" height="48.483" rx="23.65" transform="translate(3.851 4.373)" fill="#979696" opacity="0.436"/>
    <rect id="Rectangle_2880" data-name="Rectangle 2880" width="48.483" height="48.483" rx="23.65" transform="translate(3.819 4.336)" fill="#969595" opacity="0.441"/>
    <rect id="Rectangle_2881" data-name="Rectangle 2881" width="48.483" height="48.483" rx="23.65" transform="translate(3.786 4.299)" fill="#959494" opacity="0.445"/>
    <rect id="Rectangle_2882" data-name="Rectangle 2882" width="48.483" height="48.483" rx="23.65" transform="translate(3.754 4.262)" fill="#949393" opacity="0.45"/>
    <rect id="Rectangle_2883" data-name="Rectangle 2883" width="48.483" height="48.483" rx="23.65" transform="translate(3.722 4.226)" fill="#939292" opacity="0.455"/>
    <rect id="Rectangle_2884" data-name="Rectangle 2884" width="48.483" height="48.483" rx="23.65" transform="translate(3.689 4.189)" fill="#929191" opacity="0.46"/>
    <rect id="Rectangle_2885" data-name="Rectangle 2885" width="48.483" height="48.483" rx="23.65" transform="translate(3.657 4.152)" fill="#919090" opacity="0.464"/>
    <rect id="Rectangle_2886" data-name="Rectangle 2886" width="48.483" height="48.483" rx="23.65" transform="translate(3.624 4.115)" fill="#908f8f" opacity="0.469"/>
    <rect id="Rectangle_2887" data-name="Rectangle 2887" width="48.483" height="48.483" rx="23.65" transform="translate(3.592 4.079)" fill="#8f8e8e" opacity="0.474"/>
    <rect id="Rectangle_2888" data-name="Rectangle 2888" width="48.483" height="48.483" rx="23.65" transform="translate(3.56 4.042)" fill="#8e8d8d" opacity="0.479"/>
    <rect id="Rectangle_2889" data-name="Rectangle 2889" width="48.483" height="48.483" rx="23.65" transform="translate(3.527 4.005)" fill="#8d8c8c" opacity="0.483"/>
    <rect id="Rectangle_2890" data-name="Rectangle 2890" width="48.483" height="48.483" rx="23.65" transform="translate(3.495 3.968)" fill="#8c8b8b" opacity="0.488"/>
    <rect id="Rectangle_2891" data-name="Rectangle 2891" width="48.483" height="48.483" rx="23.65" transform="translate(3.463 3.932)" fill="#8b8a8a" opacity="0.493"/>
    <rect id="Rectangle_2892" data-name="Rectangle 2892" width="48.483" height="48.483" rx="23.65" transform="translate(3.43 3.895)" fill="#8a8989" opacity="0.498"/>
    <rect id="Rectangle_2893" data-name="Rectangle 2893" width="48.483" height="48.483" rx="23.65" transform="translate(3.398 3.858)" fill="#8a8889" opacity="0.502"/>
    <rect id="Rectangle_2894" data-name="Rectangle 2894" width="48.483" height="48.483" rx="23.65" transform="translate(3.366 3.821)" fill="#898788" opacity="0.507"/>
    <rect id="Rectangle_2895" data-name="Rectangle 2895" width="48.483" height="48.483" rx="23.65" transform="translate(3.333 3.785)" fill="#888687" opacity="0"/>
    <rect id="Rectangle_2896" data-name="Rectangle 2896" width="48.483" height="48.483" rx="23.65" transform="translate(3.301 3.748)" fill="#878586" opacity="0.517"/>
    <rect id="Rectangle_2897" data-name="Rectangle 2897" width="48.483" height="48.483" rx="23.65" transform="translate(3.269 3.711)" fill="#868485" opacity="0.521"/>
    <rect id="Rectangle_2898" data-name="Rectangle 2898" width="48.483" height="48.483" rx="23.65" transform="translate(3.236 3.674)" fill="#858384" opacity="0.526"/>
    <rect id="Rectangle_2899" data-name="Rectangle 2899" width="48.483" height="48.483" rx="23.65" transform="translate(3.204 3.638)" fill="#848283" opacity="0.531"/>
    <rect id="Rectangle_2900" data-name="Rectangle 2900" width="48.483" height="48.483" rx="23.65" transform="translate(3.171 3.601)" fill="#838182" opacity="0.536"/>
    <rect id="Rectangle_2901" data-name="Rectangle 2901" width="48.483" height="48.483" rx="23.65" transform="translate(3.139 3.564)" fill="#828081" opacity="0.54"/>
    <rect id="Rectangle_2902" data-name="Rectangle 2902" width="48.483" height="48.483" rx="23.65" transform="translate(3.107 3.527)" fill="#817f80" opacity="0.545"/>
    <rect id="Rectangle_2903" data-name="Rectangle 2903" width="48.483" height="48.483" rx="23.65" transform="translate(3.074 3.491)" fill="#807e7f" opacity="0.55"/>
    <rect id="Rectangle_2904" data-name="Rectangle 2904" width="48.483" height="48.483" rx="23.65" transform="translate(3.042 3.454)" fill="#7f7d7e" opacity="0.555"/>
    <rect id="Rectangle_2905" data-name="Rectangle 2905" width="48.483" height="48.483" rx="23.65" transform="translate(3.01 3.417)" fill="#7e7c7d" opacity="0.559"/>
    <rect id="Rectangle_2906" data-name="Rectangle 2906" width="48.483" height="48.483" rx="23.65" transform="translate(2.977 3.38)" fill="#7d7b7c" opacity="0.564"/>
    <rect id="Rectangle_2907" data-name="Rectangle 2907" width="48.483" height="48.483" rx="23.65" transform="translate(2.945 3.344)" fill="#7c7a7b" opacity="0.569"/>
    <rect id="Rectangle_2908" data-name="Rectangle 2908" width="48.483" height="48.483" rx="23.65" transform="translate(2.913 3.307)" fill="#7b797a" opacity="0.573"/>
    <rect id="Rectangle_2909" data-name="Rectangle 2909" width="48.483" height="48.483" rx="23.65" transform="translate(2.88 3.27)" fill="#7a7879" opacity="0.578"/>
    <rect id="Rectangle_2910" data-name="Rectangle 2910" width="48.483" height="48.483" rx="23.65" transform="translate(2.848 3.234)" fill="#797778" opacity="0.583"/>
    <rect id="Rectangle_2911" data-name="Rectangle 2911" width="48.483" height="48.483" rx="23.65" transform="translate(2.815 3.197)" fill="#787677" opacity="0.588"/>
    <rect id="Rectangle_2912" data-name="Rectangle 2912" width="48.483" height="48.483" rx="23.65" transform="translate(2.783 3.16)" fill="#777576" opacity="0.592"/>
    <rect id="Rectangle_2913" data-name="Rectangle 2913" width="48.483" height="48.483" rx="23.65" transform="translate(2.751 3.123)" fill="#767475" opacity="0.597"/>
    <rect id="Rectangle_2914" data-name="Rectangle 2914" width="48.483" height="48.483" rx="23.65" transform="translate(2.718 3.087)" fill="#757374" opacity="0.602"/>
    <rect id="Rectangle_2915" data-name="Rectangle 2915" width="48.483" height="48.483" rx="23.65" transform="translate(2.686 3.05)" fill="#747273" opacity="0.607"/>
    <rect id="Rectangle_2916" data-name="Rectangle 2916" width="48.483" height="48.483" rx="23.65" transform="translate(2.654 3.013)" fill="#737172" opacity="0.611"/>
    <rect id="Rectangle_2917" data-name="Rectangle 2917" width="48.483" height="48.483" rx="23.65" transform="translate(2.621 2.976)" fill="#727071" opacity="0.616"/>
    <rect id="Rectangle_2918" data-name="Rectangle 2918" width="48.483" height="48.483" rx="23.65" transform="translate(2.589 2.94)" fill="#716f70" opacity="0.621"/>
    <rect id="Rectangle_2919" data-name="Rectangle 2919" width="48.483" height="48.483" rx="23.65" transform="translate(2.557 2.903)" fill="#706e6f" opacity="0.626"/>
    <rect id="Rectangle_2920" data-name="Rectangle 2920" width="48.483" height="48.483" rx="23.65" transform="translate(2.524 2.866)" fill="#6f6d6e" opacity="0.63"/>
    <rect id="Rectangle_2921" data-name="Rectangle 2921" width="48.483" height="48.483" rx="23.65" transform="translate(2.492 2.829)" fill="#6e6c6d" opacity="0.635"/>
    <rect id="Rectangle_2922" data-name="Rectangle 2922" width="48.483" height="48.483" rx="23.65" transform="translate(2.459 2.793)" fill="#6d6b6c" opacity="0.64"/>
    <rect id="Rectangle_2923" data-name="Rectangle 2923" width="48.483" height="48.483" rx="23.65" transform="translate(2.427 2.756)" fill="#6c6a6b" opacity="0.645"/>
    <rect id="Rectangle_2924" data-name="Rectangle 2924" width="48.483" height="48.483" rx="23.65" transform="translate(2.395 2.719)" fill="#6b696a" opacity="0.649"/>
    <rect id="Rectangle_2925" data-name="Rectangle 2925" width="48.483" height="48.483" rx="23.65" transform="translate(2.362 2.682)" fill="#6a6869" opacity="0.654"/>
    <rect id="Rectangle_2926" data-name="Rectangle 2926" width="48.483" height="48.483" rx="23.65" transform="translate(2.33 2.646)" fill="#696768" opacity="0.659"/>
    <rect id="Rectangle_2927" data-name="Rectangle 2927" width="48.483" height="48.483" rx="23.65" transform="translate(2.298 2.609)" fill="#686667" opacity="0.664"/>
    <rect id="Rectangle_2928" data-name="Rectangle 2928" width="48.483" height="48.483" rx="23.65" transform="translate(2.265 2.572)" fill="#676566" opacity="0.668"/>
    <rect id="Rectangle_2929" data-name="Rectangle 2929" width="48.483" height="48.483" rx="23.65" transform="translate(2.233 2.535)" fill="#666465" opacity="0.673"/>
    <rect id="Rectangle_2930" data-name="Rectangle 2930" width="48.483" height="48.483" rx="23.65" transform="translate(2.201 2.499)" fill="#656364" opacity="0.678"/>
    <rect id="Rectangle_2931" data-name="Rectangle 2931" width="48.483" height="48.483" rx="23.65" transform="translate(2.168 2.462)" fill="#646263" opacity="0.682"/>
    <rect id="Rectangle_2932" data-name="Rectangle 2932" width="48.483" height="48.483" rx="23.65" transform="translate(2.136 2.425)" fill="#636162" opacity="0.687"/>
    <rect id="Rectangle_2933" data-name="Rectangle 2933" width="48.483" height="48.483" rx="23.65" transform="translate(2.103 2.388)" fill="#626061" opacity="0.692"/>
    <rect id="Rectangle_2934" data-name="Rectangle 2934" width="48.483" height="48.483" rx="23.65" transform="translate(2.071 2.352)" fill="#615f60" opacity="0.697"/>
    <rect id="Rectangle_2935" data-name="Rectangle 2935" width="48.483" height="48.483" rx="23.65" transform="translate(2.039 2.315)" fill="#615e5f" opacity="0.701"/>
    <rect id="Rectangle_2936" data-name="Rectangle 2936" width="48.483" height="48.483" rx="23.65" transform="translate(2.006 2.278)" fill="#605d5e" opacity="0.706"/>
    <rect id="Rectangle_2937" data-name="Rectangle 2937" width="48.483" height="48.483" rx="23.65" transform="translate(1.974 2.241)" fill="#5f5c5d" opacity="0.711"/>
    <rect id="Rectangle_2938" data-name="Rectangle 2938" width="48.483" height="48.483" rx="23.65" transform="translate(1.942 2.205)" fill="#5e5b5c" opacity="0.716"/>
    <rect id="Rectangle_2939" data-name="Rectangle 2939" width="48.483" height="48.483" rx="23.65" transform="translate(1.909 2.168)" fill="#5d5a5b" opacity="0.72"/>
    <rect id="Rectangle_2940" data-name="Rectangle 2940" width="48.483" height="48.483" rx="23.65" transform="translate(1.877 2.131)" fill="#5c595a" opacity="0.725"/>
    <rect id="Rectangle_2941" data-name="Rectangle 2941" width="48.483" height="48.483" rx="23.65" transform="translate(1.845 2.094)" fill="#5b5859" opacity="0.73"/>
    <rect id="Rectangle_2942" data-name="Rectangle 2942" width="48.483" height="48.483" rx="23.65" transform="translate(1.812 2.058)" fill="#5a5758" opacity="0.735"/>
    <rect id="Rectangle_2943" data-name="Rectangle 2943" width="48.483" height="48.483" rx="23.65" transform="translate(1.78 2.021)" fill="#595657" opacity="0.739"/>
    <rect id="Rectangle_2944" data-name="Rectangle 2944" width="48.483" height="48.483" rx="23.65" transform="translate(1.748 1.984)" fill="#585556" opacity="0.744"/>
    <rect id="Rectangle_2945" data-name="Rectangle 2945" width="48.483" height="48.483" rx="23.65" transform="translate(1.715 1.947)" fill="#575455" opacity="0.749"/>
    <rect id="Rectangle_2946" data-name="Rectangle 2946" width="48.483" height="48.483" rx="23.65" transform="translate(1.683 1.911)" fill="#565354" opacity="0.754"/>
    <rect id="Rectangle_2947" data-name="Rectangle 2947" width="48.483" height="48.483" rx="23.65" transform="translate(1.65 1.874)" fill="#555253" opacity="0.758"/>
    <rect id="Rectangle_2948" data-name="Rectangle 2948" width="48.483" height="48.483" rx="23.65" transform="translate(1.618 1.837)" fill="#545152" opacity="0.763"/>
    <rect id="Rectangle_2949" data-name="Rectangle 2949" width="48.483" height="48.483" rx="23.65" transform="translate(1.586 1.8)" fill="#535051" opacity="0.768"/>
    <rect id="Rectangle_2950" data-name="Rectangle 2950" width="48.483" height="48.483" rx="23.65" transform="translate(1.553 1.764)" fill="#524f50" opacity="0.773"/>
    <rect id="Rectangle_2951" data-name="Rectangle 2951" width="48.483" height="48.483" rx="23.65" transform="translate(1.521 1.727)" fill="#514e4f" opacity="0.777"/>
    <rect id="Rectangle_2952" data-name="Rectangle 2952" width="48.483" height="48.483" rx="23.65" transform="translate(1.489 1.69)" fill="#504d4e" opacity="0.782"/>
    <rect id="Rectangle_2953" data-name="Rectangle 2953" width="48.483" height="48.483" rx="23.65" transform="translate(1.456 1.653)" fill="#4f4c4d" opacity="0.787"/>
    <rect id="Rectangle_2954" data-name="Rectangle 2954" width="48.483" height="48.483" rx="23.65" transform="translate(1.424 1.617)" fill="#4e4b4c" opacity="0.791"/>
    <rect id="Rectangle_2955" data-name="Rectangle 2955" width="48.483" height="48.483" rx="23.65" transform="translate(1.392 1.58)" fill="#4d4a4b" opacity="0.796"/>
    <rect id="Rectangle_2956" data-name="Rectangle 2956" width="48.483" height="48.483" rx="23.65" transform="translate(1.359 1.543)" fill="#4c494a" opacity="0.801"/>
    <rect id="Rectangle_2957" data-name="Rectangle 2957" width="48.483" height="48.483" rx="23.65" transform="translate(1.327 1.507)" fill="#4b4849" opacity="0.806"/>
    <rect id="Rectangle_2958" data-name="Rectangle 2958" width="48.483" height="48.483" rx="23.65" transform="translate(1.294 1.47)" fill="#4a4748" opacity="0.81"/>
    <rect id="Rectangle_2959" data-name="Rectangle 2959" width="48.483" height="48.483" rx="23.65" transform="translate(1.262 1.433)" fill="#494647" opacity="0.815"/>
    <rect id="Rectangle_2960" data-name="Rectangle 2960" width="48.483" height="48.483" rx="23.65" transform="translate(1.23 1.396)" fill="#484546" opacity="0.82"/>
    <rect id="Rectangle_2961" data-name="Rectangle 2961" width="48.483" height="48.483" rx="23.65" transform="translate(1.197 1.36)" fill="#474445" opacity="0.825"/>
    <rect id="Rectangle_2962" data-name="Rectangle 2962" width="48.483" height="48.483" rx="23.65" transform="translate(1.165 1.323)" fill="#464344" opacity="0.829"/>
    <rect id="Rectangle_2963" data-name="Rectangle 2963" width="48.483" height="48.483" rx="23.65" transform="translate(1.133 1.286)" fill="#454243" opacity="0.834"/>
    <rect id="Rectangle_2964" data-name="Rectangle 2964" width="48.483" height="48.483" rx="23.65" transform="translate(1.1 1.249)" fill="#444142" opacity="0.839"/>
    <rect id="Rectangle_2965" data-name="Rectangle 2965" width="48.483" height="48.483" rx="23.65" transform="translate(1.068 1.213)" fill="#434041" opacity="0.844"/>
    <rect id="Rectangle_2966" data-name="Rectangle 2966" width="48.483" height="48.483" rx="23.65" transform="translate(1.036 1.176)" fill="#423f40" opacity="0.848"/>
    <rect id="Rectangle_2967" data-name="Rectangle 2967" width="48.483" height="48.483" rx="23.65" transform="translate(1.003 1.139)" fill="#413e3f" opacity="0.853"/>
    <rect id="Rectangle_2968" data-name="Rectangle 2968" width="48.483" height="48.483" rx="23.65" transform="translate(0.971 1.102)" fill="#403d3e" opacity="0.858"/>
    <rect id="Rectangle_2969" data-name="Rectangle 2969" width="48.483" height="48.483" rx="23.65" transform="translate(0.938 1.066)" fill="#3f3c3d" opacity="0.863"/>
    <rect id="Rectangle_2970" data-name="Rectangle 2970" width="48.483" height="48.483" rx="23.65" transform="translate(0.906 1.029)" fill="#3e3b3c" opacity="0.867"/>
    <rect id="Rectangle_2971" data-name="Rectangle 2971" width="48.483" height="48.483" rx="23.65" transform="translate(0.874 0.992)" fill="#3d3a3b" opacity="0.872"/>
    <rect id="Rectangle_2972" data-name="Rectangle 2972" width="48.483" height="48.483" rx="23.65" transform="translate(0.841 0.955)" fill="#3c393a" opacity="0.877"/>
    <rect id="Rectangle_2973" data-name="Rectangle 2973" width="48.483" height="48.483" rx="23.65" transform="translate(0.809 0.919)" fill="#3b3839" opacity="0.882"/>
    <rect id="Rectangle_2974" data-name="Rectangle 2974" width="48.483" height="48.483" rx="23.65" transform="translate(0.777 0.882)" fill="#3a3738" opacity="0.886"/>
    <rect id="Rectangle_2975" data-name="Rectangle 2975" width="48.483" height="48.483" rx="23.65" transform="translate(0.744 0.845)" fill="#393637" opacity="0.891"/>
    <rect id="Rectangle_2976" data-name="Rectangle 2976" width="48.483" height="48.483" rx="23.65" transform="translate(0.712 0.808)" fill="#383536" opacity="0.896"/>
    <rect id="Rectangle_2977" data-name="Rectangle 2977" width="48.483" height="48.483" rx="23.65" transform="translate(0.68 0.772)" fill="#383435" opacity="0.9"/>
    <rect id="Rectangle_2978" data-name="Rectangle 2978" width="48.483" height="48.483" rx="23.65" transform="translate(0.647 0.735)" fill="#373334" opacity="0.905"/>
    <rect id="Rectangle_2979" data-name="Rectangle 2979" width="48.483" height="48.483" rx="23.65" transform="translate(0.615 0.698)" fill="#363233" opacity="0.91"/>
    <rect id="Rectangle_2980" data-name="Rectangle 2980" width="48.483" height="48.483" rx="23.65" transform="translate(0.583 0.661)" fill="#353132" opacity="0.915"/>
    <rect id="Rectangle_2981" data-name="Rectangle 2981" width="48.483" height="48.483" rx="23.65" transform="translate(0.55 0.625)" fill="#343031" opacity="0.919"/>
    <rect id="Rectangle_2982" data-name="Rectangle 2982" width="48.483" height="48.483" rx="23.65" transform="translate(0.518 0.588)" fill="#332f30" opacity="0.924"/>
    <rect id="Rectangle_2983" data-name="Rectangle 2983" width="48.483" height="48.483" rx="23.65" transform="translate(0.485 0.551)" fill="#322e2f" opacity="0.929"/>
    <rect id="Rectangle_2984" data-name="Rectangle 2984" width="48.483" height="48.483" rx="23.65" transform="translate(0.453 0.514)" fill="#312d2e" opacity="0.934"/>
    <rect id="Rectangle_2985" data-name="Rectangle 2985" width="48.483" height="48.483" rx="23.65" transform="translate(0.421 0.478)" fill="#302c2d" opacity="0.938"/>
    <rect id="Rectangle_2986" data-name="Rectangle 2986" width="48.483" height="48.483" rx="23.65" transform="translate(0.388 0.441)" fill="#2f2b2c" opacity="0.943"/>
    <rect id="Rectangle_2987" data-name="Rectangle 2987" width="48.483" height="48.483" rx="23.65" transform="translate(0.356 0.404)" fill="#2e2a2b" opacity="0.948"/>
    <rect id="Rectangle_2988" data-name="Rectangle 2988" width="48.483" height="48.483" rx="23.65" transform="translate(0.324 0.367)" fill="#2d292a" opacity="0.953"/>
    <rect id="Rectangle_2989" data-name="Rectangle 2989" width="48.483" height="48.483" rx="23.65" transform="translate(0.291 0.331)" fill="#2c2829" opacity="0.957"/>
    <rect id="Rectangle_2990" data-name="Rectangle 2990" width="48.483" height="48.483" rx="23.65" transform="translate(0.259 0.294)" fill="#2b2728" opacity="0.962"/>
    <rect id="Rectangle_2991" data-name="Rectangle 2991" width="48.483" height="48.483" rx="23.65" transform="translate(0.227 0.257)" fill="#2a2627" opacity="0.967"/>
    <rect id="Rectangle_2992" data-name="Rectangle 2992" width="48.483" height="48.483" rx="23.65" transform="translate(0.194 0.22)" fill="#292526" opacity="0.972"/>
    <rect id="Rectangle_2993" data-name="Rectangle 2993" width="48.483" height="48.483" rx="23.65" transform="translate(0.162 0.184)" fill="#282425" opacity="0.976"/>
    <rect id="Rectangle_2994" data-name="Rectangle 2994" width="48.483" height="48.483" rx="23.65" transform="translate(0.129 0.147)" fill="#272324" opacity="0.981"/>
    <rect id="Rectangle_2995" data-name="Rectangle 2995" width="48.483" height="48.483" rx="23.65" transform="translate(0.097 0.11)" fill="#262223" opacity="0.986"/>
    <rect id="Rectangle_2996" data-name="Rectangle 2996" width="48.483" height="48.483" rx="23.65" transform="translate(0.065 0.073)" fill="#252122" opacity="0.991"/>
    <rect id="Rectangle_2997" data-name="Rectangle 2997" width="48.483" height="48.483" rx="23.65" transform="translate(0.032 0.037)" fill="#242021" opacity="0.995"/>
    <rect id="Rectangle_2998" data-name="Rectangle 2998" width="48.483" height="48.483" rx="23.65" fill="#231f20"/>
  </g>
  <g id="Group_56225" data-name="Group 56225" transform="translate(0.706 0)">
    <path id="Path_10430" data-name="Path 10430" d="M16.7,0H31.784a16.7,16.7,0,0,1,16.7,16.7V31.784a16.7,16.7,0,0,1-16.7,16.7H16.7A16.7,16.7,0,0,1,0,31.784V16.7A16.7,16.7,0,0,1,16.7,0Z" fill="#25d366"/>
    <g id="Group_56224" data-name="Group 56224" transform="translate(9.469 9.469)">
      <path id="Path_10428" data-name="Path 10428" d="M186.777,461.445a14.66,14.66,0,0,1-8.359-2.6l-5.983,2.352,2.105-6.259a14.769,14.769,0,1,1,12.237,6.5Zm-8.175-4.081.292.211a13.466,13.466,0,1,0-3.088-3.116l.194.273-1.417,4.212Z" transform="translate(-172.004 -431.9)" fill="#f7f7f5"/>
      <path id="Path_10429" data-name="Path 10429" d="M209.437,466.128a.607.607,0,0,1,.158.512c-.169,1.091-1.126,5.1-5.941,3.394-5.551-1.963-9.562-5.415-10.848-10.019s2.42-5.822,3.2-5.551,2.708,3.69,2.437,4.434-1.574,1.456-1.532,2.243c.036.668,4.95,5.559,6.347,5.17.959-.267,1.058-1.752,2.005-1.921A7.2,7.2,0,0,1,209.437,466.128Z" transform="translate(-186.343 -447.633)" fill="#f7f7f5"/>
    </g>
  </g>
</svg>
