<svg xmlns="http://www.w3.org/2000/svg" width="54.042" height="61.058" viewBox="0 0 54.042 61.058">
  <g id="logo192" transform="translate(-509.176 -143.238)">
    <path id="Path_11175" data-name="Path 11175" d="M568.653,196.223l6.482,8.754-4.217,5.7L560.23,196.223l-1.966-2.66a2.627,2.627,0,0,1,0-3.118l2.4-3.244,10.689-14.454,4.148,5.615-6.536,8.839-1.94,2.624a3.928,3.928,0,0,0-.158,3.985Z" transform="translate(-48.575 -17.889)" fill="#2364d8"/>
    <path id="Path_11176" data-name="Path 11176" d="M625.05,178.424l-5.552,7.508-13.571,18.35a5.991,5.991,0,0,1-4.816,2.434h-18.5c.284-.005,2.45-.126,4.564-2.907L600.4,185.933l5.526-7.471c1.047-1.435,1.441-3.281.395-4.711L600.07,165.3l-12.708-17.188c-2-2.345-3.938-2.45-4.206-2.456h2.392l16.073.006a6,6,0,0,1,4.827,2.439l12.665,17.2,6.22,8.444a3.9,3.9,0,0,1-.284,4.679" transform="translate(-62.773 -2.42)" fill="#2364d8"/>
  </g>
</svg>
